<svg width="477" height="424" viewBox="0 0 477 424" fill="none" xmlns="http://www.w3.org/2000/svg">
<g clip-path="url(#clip0_384_959)">
<path opacity="0.5" d="M371.172 337.379C363.964 344.966 357.145 349.86 351.756 353.726C288.42 399.17 213.477 385.923 197.549 382.688C174.029 377.911 128.565 368.677 95.6956 330.023C45.9668 271.543 53.7104 179.41 92.2834 118.591C99.339 107.466 136.609 45.7209 212.359 35.819C258.203 29.8264 311.642 41.9128 350.341 74.3348C431.573 142.391 425.79 279.878 371.172 337.379Z" fill="#DEDAFF"/>
<path d="M230.314 236.708C230.314 236.708 228.157 190.986 206.266 180.263C184.374 169.54 143.858 164.742 137.704 99.3067C134.1 60.9981 131.959 44.2891 130.803 37.019C130.352 34.1831 132.724 31.6996 135.576 32.0298C155.754 34.3661 221.533 45.2097 238.231 88.3948C258.026 139.591 230.314 236.708 230.314 236.708Z" fill="white"/>
<path d="M152.27 49.1723C175.511 67.1122 203.235 99.8149 219.157 133.356C221.289 138.919 227.206 150.65 230.929 171.977C234.164 189.754 234.534 208.755 233.045 221.457C232.951 222.26 232.224 222.835 231.421 222.74C230.04 222.579 230.117 221.101 230.133 221.146C231.328 199.541 228.307 172.971 220.374 149.366C210.323 120.405 190.552 93.0385 170.48 70.0623L168.422 67.8056C152.91 50.5609 149.908 50.6389 151.147 49.272C151.439 48.9491 151.93 48.9115 152.27 49.1723Z" fill="#BDD0FB"/>
<path d="M269.676 224.186C273.865 216.386 281.87 210.413 287.319 203.436C304.63 181.27 321.542 150.851 341.882 146.784C358.811 143.399 394.601 171.275 406.131 180.722C407.572 181.902 406.99 184.226 405.162 184.583C396.149 186.343 376.242 191.241 366.012 201.623C352.528 215.308 331.436 217.081 316.116 212.237C308.681 209.887 301.028 207.824 293.312 210.134C288.786 211.489 284.724 214.086 280.996 216.925C278.245 219.022 273.533 226.332 269.676 224.186Z" fill="white"/>
<path d="M384.302 177.571C367.556 169.193 345.854 166.929 329.184 175.996L327.603 176.867C323.924 178.924 300.575 195.099 284.232 210.175C284.028 210.363 284.015 210.681 284.203 210.884C284.523 211.23 284.957 210.908 284.898 210.926C294.937 202.855 308.382 193.02 318.734 185.831C329.939 177.934 337.645 172.652 353.447 172.256C370.895 172.068 384.006 178.314 383.964 178.301C384.168 178.388 384.405 178.293 384.492 178.089C384.576 177.892 384.49 177.665 384.302 177.571Z" fill="#BDD0FB"/>
<path d="M210.698 284.707C212.542 285.216 197.44 268.75 192.953 252.31C188.466 235.869 178.492 208.316 160.433 194.486C142.374 180.656 126.335 182.551 109.936 202.32C96.2699 218.794 87.4096 227.539 81.6433 230.068C80.2155 230.694 79.8231 232.547 80.8433 233.726C86.2735 240.001 100.798 253.965 118.907 248.786C142.007 242.18 167.054 220.729 178.491 231.534C189.928 242.338 190.375 249.689 191.961 255.65C193.547 261.611 198.494 281.339 210.698 284.707Z" fill="white"/>
<path d="M121.051 221.244C126.718 212.791 136.921 203.469 147.411 202.489C161.168 201.716 171.966 208.648 179.691 220.798C182.809 225.993 184.242 228.817 186.865 235.447C187.075 235.976 186.301 236.318 186.049 235.812C184.528 232.761 182.982 229.556 181.012 226.323C169.061 205.296 153.443 205.536 152.76 205.202C151.654 205.561 143.677 201.934 129.336 214.249C126.663 216.568 124.121 219.102 121.802 221.791L121.79 221.806C121.622 222.001 121.328 222.023 121.133 221.855C120.953 221.699 120.921 221.436 121.051 221.244Z" fill="#BDD0FB"/>
<g opacity="0.3">
<path d="M138.539 361.691C137.982 361.877 137.362 361.616 137.113 361.069C136.569 359.872 136.069 358.634 135.627 357.39C135.412 356.784 135.728 356.119 136.334 355.904C136.341 355.901 136.348 355.899 136.355 355.896C136.955 355.696 137.607 356.012 137.82 356.611C138.24 357.793 138.715 358.969 139.231 360.105C139.497 360.69 139.239 361.38 138.654 361.646C138.616 361.663 138.578 361.678 138.539 361.691ZM135.4 352.054C135.357 352.068 135.312 352.08 135.267 352.09C134.638 352.22 134.022 351.816 133.891 351.187C133.623 349.895 133.407 348.578 133.251 347.274C133.174 346.636 133.627 346.059 134.267 345.98C134.905 345.903 135.484 346.359 135.561 346.996C135.71 348.236 135.915 349.486 136.17 350.715C136.291 351.298 135.952 351.87 135.4 352.054ZM134.461 341.965C134.338 342.006 134.206 342.027 134.069 342.025C133.427 342.012 132.916 341.481 132.929 340.838C132.955 339.521 133.039 338.189 133.178 336.879C133.246 336.24 133.82 335.778 134.458 335.845C135.097 335.913 135.56 336.486 135.492 337.125C135.359 338.369 135.28 339.634 135.255 340.884C135.245 341.39 134.914 341.814 134.461 341.965ZM135.801 331.918C135.598 331.986 135.374 331.998 135.151 331.942C134.528 331.786 134.149 331.154 134.305 330.531C134.625 329.253 135.005 327.973 135.433 326.727C135.642 326.12 136.303 325.796 136.911 326.005C137.519 326.213 137.842 326.875 137.633 327.483C137.227 328.666 136.866 329.882 136.562 331.097C136.462 331.497 136.166 331.796 135.801 331.918ZM139.348 322.422C139.064 322.517 138.743 322.502 138.454 322.356C137.881 322.065 137.652 321.365 137.942 320.792C138.537 319.62 139.19 318.456 139.884 317.334C140.221 316.787 140.938 316.618 141.485 316.956C142.031 317.294 142.201 318.01 141.863 318.557C141.203 319.624 140.583 320.73 140.018 321.844C139.873 322.129 139.629 322.328 139.348 322.422ZM144.907 313.947C144.539 314.071 144.117 314.006 143.795 313.74C143.301 313.33 143.232 312.597 143.642 312.102C144.482 311.088 145.377 310.098 146.301 309.159C146.752 308.7 147.488 308.695 147.946 309.145C148.404 309.595 148.41 310.332 147.96 310.79C147.082 311.683 146.232 312.623 145.434 313.587C145.29 313.76 145.106 313.881 144.907 313.947ZM184.466 297.816C184.314 297.867 184.148 297.887 183.977 297.869C182.734 297.739 181.469 297.661 180.216 297.639C179.574 297.627 179.062 297.097 179.074 296.455C179.085 295.813 179.615 295.301 180.258 295.313C181.577 295.336 182.91 295.418 184.219 295.555C184.858 295.621 185.322 296.194 185.255 296.833C185.207 297.301 184.886 297.676 184.466 297.816ZM152.202 306.921C151.744 307.073 151.22 306.929 150.91 306.525C150.519 306.015 150.615 305.285 151.125 304.894C152.17 304.092 153.262 303.326 154.372 302.617C154.915 302.274 155.633 302.429 155.979 302.971C156.325 303.513 156.166 304.232 155.625 304.578C154.571 305.251 153.533 305.979 152.541 306.74C152.436 306.82 152.321 306.881 152.202 306.921ZM174.332 297.905C174.259 297.929 174.183 297.947 174.104 297.957C172.862 298.108 171.611 298.316 170.384 298.573C169.755 298.704 169.139 298.301 169.007 297.672C168.876 297.044 169.277 296.424 169.907 296.295C171.198 296.025 172.515 295.807 173.821 295.647C174.459 295.569 175.039 296.023 175.117 296.661C175.185 297.219 174.846 297.733 174.332 297.905ZM160.883 301.699C160.326 301.885 159.707 301.625 159.457 301.079C159.19 300.494 159.448 299.804 160.032 299.537C161.229 298.99 162.465 298.488 163.707 298.044C163.714 298.041 163.722 298.038 163.73 298.036C164.329 297.836 164.98 298.151 165.194 298.748C165.41 299.353 165.095 300.019 164.49 300.235C163.31 300.657 162.136 301.134 160.999 301.653C160.961 301.671 160.922 301.686 160.883 301.699Z" fill="#F545A6"/>
<path d="M192.481 299.397C192.264 299.469 192.023 299.479 191.787 299.409C191.211 299.24 190.622 299.081 190.037 298.934C189.413 298.779 189.034 298.147 189.19 297.524C189.345 296.901 189.977 296.52 190.6 296.677C191.216 296.831 191.836 296.999 192.441 297.176C193.058 297.357 193.411 298.004 193.23 298.62C193.119 299 192.831 299.28 192.481 299.397Z" fill="#F545A6"/>
</g>
<g opacity="0.3">
<path d="M219.916 321.879C219.384 322.056 218.786 321.827 218.518 321.313C218.24 320.782 217.947 320.247 217.646 319.724C217.325 319.167 217.517 318.456 218.073 318.135C218.632 317.813 219.342 318.006 219.662 318.563C219.979 319.113 220.288 319.676 220.58 320.236C220.878 320.806 220.657 321.508 220.088 321.806C220.032 321.835 219.974 321.859 219.916 321.879Z" fill="#F545A6"/>
<path d="M194.163 385.846C193.655 386.015 193.142 386.177 192.625 386.331C192.009 386.513 191.361 386.162 191.178 385.546C190.995 384.93 191.349 384.28 191.962 384.1C193.156 383.745 194.333 383.343 195.472 382.899C196.072 382.667 196.745 382.962 196.979 383.561C197.212 384.16 196.916 384.834 196.317 385.067C195.612 385.342 194.887 385.604 194.163 385.846ZM186.631 387.673C186.57 387.693 186.505 387.709 186.439 387.719C185.156 387.917 183.85 388.063 182.558 388.152C181.917 388.196 181.362 387.713 181.317 387.072C181.273 386.431 181.757 385.873 182.398 385.831C183.625 385.746 184.865 385.607 186.084 385.42C186.719 385.322 187.313 385.757 187.411 386.392C187.499 386.961 187.159 387.496 186.631 387.673ZM201.854 382.455C201.334 382.629 200.747 382.414 200.471 381.918C200.158 381.356 200.359 380.648 200.921 380.335C201.994 379.737 203.057 379.084 204.079 378.395C204.613 378.037 205.335 378.177 205.694 378.71C206.053 379.243 205.913 379.966 205.38 380.325C204.303 381.05 203.184 381.738 202.053 382.368C201.989 382.404 201.922 382.433 201.854 382.455ZM176.664 388.098C176.524 388.145 176.373 388.165 176.216 388.155C174.922 388.066 173.617 387.921 172.336 387.724C171.701 387.626 171.265 387.032 171.363 386.397C171.461 385.761 172.055 385.326 172.69 385.424C173.907 385.612 175.146 385.749 176.375 385.834C177.016 385.877 177.5 386.433 177.456 387.074C177.423 387.558 177.098 387.953 176.664 388.098ZM209.97 376.669C209.544 376.811 209.054 376.698 208.735 376.341C208.306 375.863 208.347 375.127 208.825 374.698C209.741 373.879 210.634 373.009 211.48 372.112C211.921 371.644 212.657 371.623 213.125 372.064C213.592 372.505 213.613 373.241 213.172 373.709C212.281 374.653 211.341 375.569 210.377 376.432C210.255 376.541 210.116 376.62 209.97 376.669ZM216.621 369.241C216.279 369.355 215.89 369.31 215.575 369.085C215.052 368.711 214.931 367.985 215.304 367.462C216.02 366.459 216.703 365.414 217.332 364.357C217.66 363.804 218.374 363.623 218.927 363.952C219.479 364.281 219.66 364.994 219.332 365.547C218.669 366.66 217.951 367.759 217.198 368.814C217.05 369.022 216.846 369.166 216.621 369.241ZM221.493 360.541C221.234 360.627 220.943 360.623 220.671 360.508C220.079 360.258 219.803 359.575 220.054 358.983C220.535 357.847 220.974 356.68 221.357 355.511C221.557 354.9 222.214 354.568 222.825 354.768C223.436 354.969 223.768 355.626 223.568 356.237C223.164 357.466 222.703 358.696 222.196 359.891C222.061 360.211 221.799 360.439 221.493 360.541ZM224.352 350.985C224.172 351.045 223.976 351.062 223.776 351.026C223.144 350.91 222.725 350.305 222.84 349.673C223.061 348.46 223.233 347.224 223.351 346C223.412 345.36 223.981 344.891 224.62 344.953C225.259 345.014 225.728 345.582 225.667 346.222C225.543 347.512 225.362 348.813 225.129 350.09C225.05 350.522 224.742 350.855 224.352 350.985ZM225.044 341.031C224.943 341.065 224.835 341.085 224.723 341.09C224.082 341.117 223.539 340.618 223.512 339.976C223.461 338.748 223.356 337.505 223.201 336.283C223.12 335.645 223.573 335.063 224.208 334.982C224.846 334.901 225.428 335.353 225.509 335.99C225.673 337.277 225.783 338.585 225.837 339.878C225.859 340.409 225.523 340.871 225.044 341.031ZM223.533 331.175C223.51 331.183 223.487 331.189 223.464 331.196C222.843 331.362 222.206 330.993 222.04 330.373C221.805 329.496 221.541 328.617 221.254 327.759C221.151 327.448 221.043 327.139 220.933 326.832C220.717 326.227 221.031 325.561 221.636 325.344C222.244 325.113 222.907 325.442 223.124 326.047C223.24 326.37 223.352 326.694 223.461 327.022C223.763 327.925 224.041 328.85 224.287 329.771C224.447 330.369 224.112 330.982 223.533 331.175Z" fill="#F545A6"/>
<path d="M166.821 386.309C166.602 386.382 166.359 386.391 166.12 386.32C165.517 386.14 164.906 385.944 164.304 385.736C163.697 385.527 163.374 384.865 163.583 384.258C163.792 383.65 164.453 383.327 165.061 383.536C165.633 383.733 166.214 383.92 166.786 384.091C167.402 384.275 167.752 384.923 167.568 385.539C167.455 385.916 167.168 386.193 166.821 386.309Z" fill="#F545A6"/>
</g>
<path d="M164.037 373.013C164.233 373.137 164.486 373.123 164.667 372.978L169.835 368.844C172.755 369.857 175.857 370.412 179.038 370.44L182.514 376.066C182.636 376.264 182.869 376.362 183.096 376.311L190.84 374.568C191.067 374.517 191.236 374.328 191.261 374.098L191.992 367.524C194.854 366.137 197.42 364.306 199.624 362.14L206.065 363.661C206.29 363.715 206.525 363.619 206.649 363.423L210.893 356.714C211.017 356.518 211.003 356.265 210.858 356.084L206.724 350.916C207.737 347.996 208.292 344.894 208.319 341.713L213.946 338.237C214.143 338.115 214.242 337.881 214.191 337.655L212.448 329.91C212.397 329.684 212.208 329.515 211.977 329.489L205.404 328.759C204.016 325.897 202.186 323.331 200.02 321.127L201.541 314.686C201.594 314.46 201.499 314.225 201.303 314.101L194.594 309.858C194.398 309.733 194.145 309.748 193.964 309.893L188.796 314.027C185.876 313.013 182.773 312.459 179.593 312.431L176.117 306.804C175.995 306.607 175.761 306.509 175.535 306.56L167.79 308.303C167.564 308.354 167.395 308.543 167.369 308.773L166.638 315.347C163.776 316.734 161.211 318.565 159.006 320.731L152.566 319.209C152.34 319.156 152.105 319.252 151.981 319.448L147.737 326.157C147.613 326.353 147.627 326.606 147.772 326.787L151.906 331.955C150.893 334.875 150.338 337.977 150.311 341.158L144.684 344.634C144.487 344.756 144.389 344.99 144.44 345.216L146.183 352.96C146.233 353.187 146.422 353.356 146.653 353.382L153.226 354.112C154.614 356.974 156.444 359.54 158.611 361.744L157.089 368.185C157.036 368.411 157.132 368.645 157.328 368.769L164.037 373.013Z" fill="#F545A6"/>
<path d="M181.838 349.006C178.148 350.239 174.004 348.611 172.196 345.04C170.209 341.114 171.785 336.304 175.711 334.317C177.613 333.354 179.775 333.189 181.8 333.853C183.826 334.517 185.471 335.93 186.434 337.832C188.421 341.757 186.844 346.567 182.919 348.555C182.565 348.734 182.203 348.884 181.838 349.006ZM177.389 335.628C177.104 335.723 176.824 335.839 176.551 335.977C173.542 337.501 172.333 341.19 173.856 344.199C175.38 347.209 179.068 348.419 182.078 346.894C185.088 345.371 186.297 341.682 184.773 338.673C184.035 337.214 182.774 336.131 181.22 335.622C179.958 335.209 178.626 335.215 177.389 335.628Z" fill="#FFFBFD"/>
<path d="M185.643 359.886C185.01 360.098 184.362 360.279 183.701 360.427C183.493 360.474 183.284 360.518 183.075 360.558C182.043 360.756 180.996 360.871 179.952 360.902C179.938 360.902 179.923 360.903 179.909 360.903C179.869 360.904 179.828 360.905 179.788 360.906C179.709 360.908 179.631 360.909 179.552 360.909C179.345 360.912 179.169 360.778 179.106 360.592C179.091 360.547 179.083 360.498 179.082 360.448C179.08 360.191 179.287 359.982 179.544 359.979C180.866 359.967 182.196 359.812 183.497 359.519C189.958 358.066 194.884 353.408 196.979 347.597C198.145 344.365 198.435 340.776 197.627 337.183C197.485 336.552 197.312 335.934 197.11 335.33C195.751 331.262 193.058 327.815 189.385 325.492C185.166 322.823 180.16 321.957 175.29 323.053C165.232 325.317 158.897 335.336 161.16 345.39C161.299 346.009 161.47 346.62 161.67 347.219C162.537 349.813 163.962 352.189 165.851 354.171C165.9 354.222 165.935 354.281 165.956 354.344C166.011 354.51 165.97 354.7 165.835 354.829C165.648 355.005 165.355 355 165.177 354.813C163.194 352.732 161.697 350.238 160.787 347.514C160.577 346.886 160.399 346.245 160.252 345.594C157.876 335.039 164.534 324.52 175.085 322.145C180.198 320.994 185.453 321.903 189.882 324.705C193.738 327.144 196.566 330.763 197.993 335.033C198.205 335.668 198.386 336.317 198.535 336.978C199.685 342.091 198.776 347.346 195.974 351.775C193.535 355.632 189.914 358.46 185.643 359.886Z" fill="#FFFBFD"/>
<g opacity="0.3">
<path d="M244.149 100.689C243.903 100.828 243.585 100.795 243.372 100.587C242.975 100.2 242.584 99.7954 242.21 99.3848C241.967 99.1179 241.987 98.7049 242.254 98.4615C242.52 98.2171 242.934 98.2382 243.177 98.505C243.533 98.8963 243.906 99.2819 244.285 99.6514C244.544 99.9029 244.549 100.317 244.297 100.576C244.252 100.621 244.202 100.659 244.149 100.689Z" fill="#6449FF"/>
<path d="M240.885 96.8641C240.596 97.0266 240.225 96.9474 240.031 96.6711C239.48 95.8906 238.963 95.0726 238.494 94.2406C238.396 94.0655 238.299 93.8886 238.203 93.7103C238.033 93.3915 238.176 92.9981 238.47 92.8251C238.789 92.6546 239.185 92.7745 239.355 93.0923C239.447 93.2628 239.539 93.432 239.633 93.5994C240.08 94.3931 240.573 95.1732 241.098 95.9177C241.307 96.2128 241.236 96.6202 240.942 96.8286C240.923 96.8412 240.904 96.8533 240.885 96.8641ZM237.681 90.8816C237.654 90.8967 237.626 90.9106 237.596 90.9221C237.259 91.0524 236.881 90.8854 236.75 90.5487C236.331 89.4689 235.976 88.3536 235.694 87.2341C235.605 86.8839 235.819 86.5289 236.168 86.4406C236.518 86.3525 236.873 86.5644 236.961 86.9145C237.23 87.9825 237.57 89.0463 237.969 90.0762C238.088 90.3831 237.96 90.7247 237.681 90.8816ZM236.024 84.3009C235.951 84.3416 235.87 84.369 235.783 84.3801C235.425 84.4243 235.099 84.1691 235.054 83.8109C234.914 82.6632 234.843 81.4938 234.845 80.336C234.845 79.9746 235.138 79.6832 235.5 79.6838C235.86 79.6843 236.153 79.9775 236.152 80.3383C236.15 81.4426 236.217 82.5571 236.352 83.6516C236.385 83.9222 236.247 84.1748 236.024 84.3009ZM236.035 77.5137C235.917 77.5802 235.778 77.6103 235.633 77.5927C235.275 77.5474 235.021 77.2203 235.066 76.8623C235.211 75.7127 235.429 74.5625 235.713 73.4429C235.802 73.0931 236.158 72.8822 236.507 72.9707C236.857 73.0593 237.069 73.4149 236.98 73.7651C236.709 74.8321 236.501 75.9297 236.363 77.0255C236.336 77.2394 236.209 77.4156 236.035 77.5137ZM237.703 70.9355C237.539 71.0282 237.335 71.049 237.145 70.9751C236.809 70.8443 236.642 70.4656 236.773 70.129C237.193 69.0509 237.683 67.9883 238.23 66.971C238.401 66.6523 238.798 66.5337 239.116 66.7049C239.434 66.876 239.553 67.2725 239.382 67.5899C238.86 68.5608 238.392 69.5742 237.992 70.6032C237.935 70.7496 237.83 70.8639 237.703 70.9355ZM240.917 64.9622C240.704 65.0823 240.431 65.0768 240.218 64.9258C239.924 64.7173 239.855 64.3094 240.063 64.0148C240.732 63.0709 241.467 62.16 242.246 61.3079C242.492 61.0417 242.904 61.0235 243.17 61.2669C243.436 61.5103 243.455 61.9241 243.211 62.1901C242.468 63.0028 241.768 63.8708 241.13 64.7705C241.072 64.8524 240.999 64.9163 240.917 64.9622ZM245.493 59.9574C245.226 60.1077 244.882 60.0535 244.676 59.8119C244.442 59.5373 244.475 59.1247 244.749 58.8902C245.627 58.1419 246.563 57.4391 247.531 56.8007C247.837 56.6069 248.239 56.6859 248.437 56.9874C248.635 57.2888 248.552 57.6939 248.251 57.8928C247.326 58.5012 246.434 59.1716 245.597 59.885C245.564 59.9131 245.529 59.9371 245.493 59.9574ZM254.295 54.9064C254.262 54.9249 254.227 54.941 254.19 54.9538C253.29 55.2689 252.393 55.639 251.521 56.0535C251.389 56.1156 251.259 56.1781 251.131 56.2421C250.808 56.4024 250.416 56.2708 250.255 55.9473C250.094 55.6235 250.223 55.2211 250.55 55.0709C250.687 55.0033 250.824 54.9365 250.962 54.8714C251.873 54.4385 252.814 54.0506 253.758 53.7203C254.098 53.601 254.471 53.7801 254.59 54.1209C254.697 54.4245 254.566 54.7538 254.295 54.9064Z" fill="#6449FF"/>
</g>
<g opacity="0.3">
<path d="M277.263 104.774C276.952 104.949 276.557 104.842 276.377 104.532C276.196 104.22 276.302 103.82 276.615 103.639C277.555 103.094 278.469 102.486 279.333 101.834C279.621 101.62 280.031 101.673 280.249 101.961C280.466 102.249 280.409 102.659 280.121 102.877C279.215 103.561 278.256 104.198 277.271 104.769C277.269 104.771 277.266 104.772 277.263 104.774ZM274.275 106.275C274.255 106.287 274.234 106.297 274.212 106.307C273.166 106.756 272.083 107.146 270.992 107.467C270.645 107.568 270.283 107.371 270.181 107.024C270.079 106.677 270.279 106.315 270.623 106.213C271.665 105.907 272.698 105.534 273.696 105.106C274.027 104.963 274.412 105.117 274.554 105.448C274.688 105.758 274.562 106.114 274.275 106.275ZM282.588 100.75C282.335 100.893 282.009 100.853 281.798 100.636C281.547 100.377 281.553 99.9632 281.812 99.7119C282.593 98.9546 283.334 98.1441 284.014 97.3014C284.243 97.0211 284.653 96.977 284.933 97.2043C285.214 97.4309 285.258 97.8428 285.031 98.1236C284.317 99.0066 283.54 99.8565 282.722 100.65C282.681 100.69 282.635 100.723 282.588 100.75ZM267.868 108.153C267.803 108.19 267.731 108.216 267.653 108.229C266.53 108.414 265.383 108.531 264.246 108.577C263.886 108.592 263.581 108.311 263.566 107.95C263.552 107.591 263.833 107.286 264.193 107.271C265.277 107.227 266.369 107.115 267.441 106.939C267.797 106.88 268.133 107.122 268.192 107.478C268.238 107.756 268.1 108.022 267.868 108.153ZM286.781 95.5595C286.579 95.673 286.323 95.6759 286.114 95.5447C285.807 95.3534 285.714 94.9502 285.905 94.6441C286.48 93.7243 287.004 92.7597 287.463 91.7762C287.616 91.4484 288.005 91.3077 288.332 91.4605C288.659 91.6133 288.8 92.0025 288.648 92.3295C288.166 93.3604 287.617 94.372 287.015 95.3367C286.954 95.4328 286.873 95.5077 286.781 95.5595ZM289.607 89.5141C289.453 89.601 289.264 89.6252 289.083 89.566C288.74 89.4538 288.552 89.0845 288.665 88.7416C289.003 87.7082 289.281 86.6453 289.492 85.583C289.562 85.2284 289.907 84.9985 290.26 85.0691C290.614 85.1393 290.844 85.4831 290.774 85.837C290.553 86.951 290.261 88.0652 289.907 89.148C289.854 89.3095 289.744 89.4368 289.607 89.5141ZM290.903 82.9652C290.795 83.0263 290.668 83.0574 290.534 83.0469C290.174 83.0203 289.904 82.7065 289.931 82.3465C290.013 81.2626 290.028 80.1641 289.976 79.0819C289.96 78.7221 290.238 78.4153 290.598 78.3985C290.959 78.3814 291.265 78.6596 291.282 79.0205C291.336 80.155 291.32 81.3073 291.235 82.4442C291.218 82.6708 291.087 82.8616 290.903 82.9652Z" fill="#6449FF"/>
<path d="M261.166 108.425C261.057 108.487 260.928 108.517 260.793 108.506C260.235 108.461 259.676 108.398 259.132 108.321C258.775 108.27 258.526 107.939 258.576 107.581C258.628 107.225 258.958 106.976 259.316 107.026C259.835 107.1 260.368 107.16 260.9 107.204C261.26 107.233 261.527 107.549 261.498 107.909C261.479 108.133 261.349 108.322 261.166 108.425Z" fill="#6449FF"/>
</g>
<path d="M257.497 100.801C257.628 100.853 257.778 100.815 257.869 100.708L260.481 97.6415C262.343 97.9105 264.261 97.8845 266.165 97.5346L268.891 100.496C268.987 100.6 269.138 100.632 269.267 100.576L273.695 98.6414C273.824 98.5849 273.904 98.4524 273.892 98.3118L273.571 94.2992C275.122 93.14 276.444 91.7505 277.512 90.2018L281.537 90.3688C281.678 90.3746 281.807 90.2903 281.858 90.1588L283.622 85.6603C283.673 85.5288 283.636 85.3792 283.528 85.2876L280.462 82.6756C280.731 80.8137 280.705 78.8957 280.355 76.9917L283.317 74.2657C283.421 74.17 283.453 74.0191 283.396 73.8898L281.462 69.4622C281.405 69.3327 281.273 69.2535 281.132 69.2648L277.119 69.5857C275.96 68.0351 274.571 66.7128 273.022 65.6451L273.189 61.6204C273.195 61.4794 273.111 61.3502 272.979 61.2986L268.481 59.5355C268.349 59.484 268.199 59.5216 268.108 59.629L265.496 62.6953C263.634 62.4262 261.716 62.4523 259.812 62.8023L257.086 59.8402C256.99 59.7364 256.84 59.7045 256.71 59.7611L252.282 61.6953C252.153 61.7517 252.074 61.8841 252.085 62.0249L252.406 66.0377C250.855 67.1969 249.533 68.5865 248.465 70.1352L244.441 69.9682C244.3 69.9623 244.17 70.0466 244.119 70.1782L242.356 74.6766C242.304 74.808 242.342 74.9578 242.449 75.0494L245.515 77.6615C245.246 79.5232 245.273 81.4414 245.623 83.3454L242.66 86.0714C242.557 86.1669 242.525 86.318 242.581 86.4473L244.515 90.8748C244.572 91.0043 244.704 91.0835 244.845 91.0723L248.858 90.7514C250.017 92.3018 251.406 93.6242 252.955 94.692L252.788 98.7167C252.782 98.8577 252.867 98.9869 252.998 99.0385L257.497 100.801Z" fill="#6449FF"/>
<path d="M265.406 84.4815C264.487 84.9989 263.431 85.2074 262.366 85.0724C261.056 84.9061 259.89 84.2394 259.081 83.1954C257.412 81.0413 257.806 77.93 259.961 76.2598C262.122 74.5918 265.228 74.9854 266.897 77.1402C267.706 78.1842 268.06 79.4806 267.894 80.7904C267.728 82.1006 267.061 83.2677 266.017 84.0763C265.822 84.2271 265.617 84.3626 265.406 84.4815ZM261.207 76.9976C261.053 77.0839 260.905 77.1823 260.762 77.293C259.177 78.5215 258.886 80.8099 260.115 82.3952C260.709 83.1626 261.568 83.6537 262.531 83.7755C263.495 83.8978 264.448 83.6368 265.217 83.0428C265.984 82.4479 266.475 81.5893 266.597 80.6261C266.72 79.662 266.459 78.7085 265.864 77.9403C264.747 76.4985 262.751 76.1279 261.207 76.9976Z" fill="white"/>
<path d="M269.067 90.7939C268.707 90.9968 268.333 91.183 267.946 91.3523C267.178 91.688 266.375 91.9461 265.558 92.1194C265.521 92.127 265.484 92.1344 265.447 92.1419C265.163 92.1996 264.884 92.0629 264.748 91.8228C264.715 91.7644 264.691 91.6997 264.677 91.6307C264.606 91.277 264.835 90.9336 265.188 90.8609C265.953 90.7064 266.705 90.4685 267.422 90.1546L267.423 90.1544C267.462 90.1373 267.502 90.1195 267.541 90.102C269.232 89.3435 270.671 88.1922 271.765 86.7555C272.359 85.9756 272.852 85.1108 273.227 84.178C273.23 84.1705 273.233 84.1629 273.236 84.1553C273.245 84.1318 273.255 84.1089 273.264 84.0856C274.336 81.3487 274.279 78.3579 273.102 75.6642C272.95 75.3154 272.781 74.9775 272.597 74.6504C271.358 72.4503 269.416 70.7575 267.033 69.8233C264.296 68.7509 261.306 68.8085 258.612 69.9852C255.921 71.1622 253.845 73.3174 252.771 76.0539C251.699 78.7908 251.756 81.7816 252.933 84.4753C253.082 84.8182 253.249 85.1521 253.431 85.4757C254.222 86.8793 255.311 88.0939 256.624 89.029C256.705 89.0868 256.769 89.1592 256.814 89.2405C256.934 89.4541 256.929 89.7274 256.777 89.9404C256.567 90.2338 256.16 90.3033 255.865 90.0934C254.396 89.0469 253.177 87.6878 252.293 86.1181C252.089 85.7555 251.902 85.3821 251.735 84.9987C250.418 81.9846 250.354 78.6387 251.554 75.5765C252.754 72.5149 255.072 70.1022 258.088 68.787C261.102 67.4702 264.448 67.4059 267.51 68.6065C270.176 69.6509 272.348 71.5451 273.735 74.0065C273.94 74.3719 274.129 74.7504 274.3 75.1401C276.849 80.9756 274.5 87.7347 269.067 90.7939Z" fill="white"/>
<path d="M141.912 283.899L138.537 278.847L186.826 246.587L190.201 251.639L141.912 283.899Z" fill="#6449FF"/>
<path d="M334.311 290.501L289.473 247.726L293.666 243.331L338.505 286.105L334.311 290.501Z" fill="#6449FF"/>
<path d="M283.153 161.501L279.279 156.821L337.563 108.579L341.437 113.259L283.153 161.501Z" fill="#6449FF"/>
<path d="M211.725 169.006L156.928 124.485L160.759 119.77L215.556 164.291L211.725 169.006Z" fill="#6449FF"/>
<path d="M238.901 292.563C284.595 292.563 321.637 255.521 321.637 209.827C321.637 164.133 284.595 127.091 238.901 127.091C193.207 127.091 156.165 164.133 156.165 209.827C156.165 255.521 193.207 292.563 238.901 292.563Z" fill="#6449FF"/>
<path d="M168.118 244.222C167.956 244.222 167.8 244.131 167.726 243.975C162.651 233.321 160.079 221.89 160.079 209.999C160.079 180.324 176.457 153.397 202.822 139.726C203.034 139.615 203.296 139.698 203.407 139.911C203.517 140.124 203.434 140.386 203.221 140.496C177.145 154.017 160.946 180.649 160.946 209.999C160.946 221.76 163.491 233.065 168.509 243.602C168.613 243.818 168.521 244.077 168.304 244.18C168.244 244.209 168.18 244.222 168.118 244.222Z" fill="#BDD0FB"/>
<path d="M197.675 277.277C197.597 277.277 197.517 277.256 197.446 277.212C187.834 271.23 179.447 263.077 173.191 253.634C173.059 253.435 173.113 253.165 173.313 253.033C173.512 252.9 173.782 252.955 173.914 253.155C180.102 262.495 188.398 270.558 197.905 276.475C198.108 276.601 198.17 276.869 198.044 277.072C197.961 277.205 197.82 277.277 197.675 277.277Z" fill="#BDD0FB"/>
<path d="M292.993 153.033C292.887 153.033 292.78 152.994 292.696 152.916C282.126 143.003 269.075 136.236 254.955 133.347C254.72 133.299 254.569 133.069 254.617 132.835C254.665 132.6 254.894 132.447 255.129 132.497C269.406 135.418 282.603 142.26 293.29 152.283C293.465 152.447 293.474 152.721 293.31 152.896C293.224 152.987 293.109 153.033 292.993 153.033Z" fill="#BDD0FB"/>
<path d="M239.186 283.138C279.872 283.138 312.854 250.156 312.854 209.471C312.854 168.785 279.872 135.803 239.186 135.803C198.5 135.803 165.518 168.785 165.518 209.471C165.518 250.156 198.5 283.138 239.186 283.138Z" fill="url(#paint0_linear_384_959)"/>
<mask id="mask0_384_959" style="mask-type:luminance" maskUnits="userSpaceOnUse" x="167" y="140" width="145" height="145">
<path d="M239.477 284.653C279.392 284.653 311.749 252.296 311.749 212.382C311.749 172.467 279.392 140.11 239.477 140.11C199.563 140.11 167.206 172.467 167.206 212.382C167.206 252.296 199.563 284.653 239.477 284.653Z" fill="white"/>
</mask>
<g mask="url(#mask0_384_959)">
<path d="M279.341 316.221L269.1 208.911C244.504 199.822 213.492 209.981 213.492 209.981L208.703 316.221H279.341Z" fill="white"/>
<path d="M230.603 190.732L230.141 205.964C230.096 207.471 231.03 208.828 232.451 209.329C236.346 210.703 244.408 212.792 252.049 210.056C253.591 209.504 254.519 207.926 254.281 206.306L251.99 190.732H230.603Z" fill="url(#paint1_linear_384_959)"/>
<path d="M234.942 316.221C237.652 313.511 239.157 311.57 239.157 311.57L235.95 302.481C235.95 302.481 209.75 317.452 201.195 309.966C192.64 302.481 207.077 258.637 207.077 258.637L186.224 220.674C186.224 220.674 168.721 279.029 174.606 310.917C175.173 313.986 177.849 316.221 180.97 316.221H234.942Z" fill="#000018"/>
<path d="M230.325 199.925L242.229 211.338L233.633 217.201L226.033 206.972L230.325 199.925Z" fill="white"/>
<path d="M253.123 199.925L241.219 211.338L249.815 217.201L257.415 206.972L253.123 199.925Z" fill="white"/>
<path d="M222.812 162.928C222.812 162.928 225.486 190.197 231.367 197.148C231.367 197.148 249.012 198.752 255.428 195.009C255.428 195.009 259.973 181.375 259.438 163.196C259.438 163.196 260.314 146.653 242.061 145.284C220.674 143.68 222.812 162.928 222.812 162.928Z" fill="url(#paint2_linear_384_959)"/>
<path d="M257.566 171.483C257.566 171.483 259.17 166.671 261.844 166.671C264.517 166.671 261.309 179.504 257.566 179.504V171.483Z" fill="url(#paint3_linear_384_959)"/>
<path d="M225.245 172.748C225.245 172.748 223.007 168.196 220.358 168.556C217.709 168.917 222.618 181.199 226.327 180.695L225.245 172.748Z" fill="url(#paint4_linear_384_959)"/>
<path d="M224.657 177.315C224.657 177.315 225.257 193.604 232.421 201.865C233.078 202.623 234.029 203.064 235.032 203.112C238.688 203.288 248.036 203.603 253.307 202.552C254.619 202.291 255.699 201.366 256.131 200.1C257.427 196.301 259.676 190.31 258.903 176.563L254.603 186.809C251.417 195.277 249.688 184.998 248.209 185.118H238.585C237.57 185.2 236.446 191.534 232.687 189.678L224.657 177.315Z" fill="#000018"/>
<path d="M252.219 156.513C252.219 156.513 238.597 170.523 223.753 170.469C223.753 170.469 215.326 147.958 231.901 144.215C248.477 140.472 249.011 145.284 249.011 145.284C249.011 145.284 268.087 140.503 259.465 168.013L252.219 156.513Z" fill="#000018"/>
<path d="M256.737 316.22H306.378C308.612 316.22 310.69 315.069 311.874 313.174C333.262 278.954 302.785 222.812 302.785 222.812L286.744 265.053C286.744 265.053 300.646 278.954 293.16 300.876C285.675 322.799 255.198 305.689 255.198 305.689L256.267 315.848C256.267 315.848 256.432 315.983 256.737 316.22Z" fill="#000018"/>
<path d="M240.469 212.314L236.028 215.336L239.158 221.424H244.263L247.674 215.764L241.861 211.788L240.469 212.314Z" fill="#F545A6"/>
<path d="M239.157 221.425L235.692 279.109L244.503 295.043L253.373 279.684L244.261 221.425H239.157Z" fill="#F545A6"/>
<path d="M201.857 258.587C205.65 267.785 207.461 277.679 207.173 287.624L206.344 316.221H246.548L244.503 275.483L226.031 206.978C208.921 209.652 186.223 220.674 186.223 220.674L201.857 258.587Z" fill="#000018"/>
<path d="M283.378 316.221L284.605 292.496C284.605 280.35 286.677 268.292 290.732 256.843L302.784 222.813C287.279 208.911 256.744 205.878 256.744 205.878L244.504 275.483V316.221L283.378 316.221Z" fill="#000018"/>
<path d="M241.117 273.085C241.034 273.085 240.952 273.051 240.893 272.983L224.434 254.001C224.398 253.96 224.374 253.909 224.365 253.855L222.706 243.681L216.615 242.455C216.481 242.428 216.383 242.314 216.378 242.177L215.068 209.968C215.061 209.804 215.188 209.666 215.351 209.659C215.521 209.653 215.652 209.78 215.659 209.943L216.959 241.92L223.024 243.141C223.145 243.165 223.238 243.262 223.258 243.383L224.936 253.677L241.34 272.596C241.447 272.719 241.434 272.906 241.31 273.013C241.254 273.062 241.185 273.085 241.117 273.085Z" fill="#91B3FA"/>
<path d="M246.638 273.085C246.569 273.085 246.5 273.061 246.444 273.012C246.32 272.905 246.307 272.716 246.414 272.592L262.818 253.512L264.497 243.131C264.517 243.008 264.61 242.911 264.731 242.886L270.795 241.655L272.096 209.406C272.102 209.241 272.226 209.114 272.404 209.12C272.567 209.127 272.694 209.266 272.687 209.431L271.377 241.914C271.372 242.052 271.274 242.167 271.14 242.195L265.048 243.43L263.389 253.691C263.38 253.746 263.357 253.797 263.321 253.839L246.862 272.982C246.803 273.05 246.72 273.085 246.638 273.085Z" fill="#91B3FA"/>
</g>
<path d="M114.393 365.017C143.144 365.017 166.452 341.71 166.452 312.958C166.452 284.206 143.144 260.898 114.393 260.898C85.6409 260.898 62.333 284.206 62.333 312.958C62.333 341.71 85.6409 365.017 114.393 365.017Z" fill="#6449FF"/>
<path d="M69.8535 334.761C69.6913 334.761 69.5357 334.67 69.4615 334.513C66.2582 327.788 64.6338 320.572 64.6338 313.065C64.6338 294.333 74.9727 277.335 91.6158 268.705C91.8277 268.595 92.09 268.677 92.2007 268.89C92.3108 269.103 92.2278 269.365 92.015 269.475C75.661 277.955 65.5016 294.658 65.5016 313.065C65.5016 320.441 67.0976 327.532 70.2446 334.14C70.348 334.356 70.2561 334.615 70.0396 334.718C69.9794 334.747 69.9158 334.761 69.8535 334.761Z" fill="#BDD0FB"/>
<path d="M88.4515 355.56C88.3731 355.56 88.2939 355.539 88.2227 355.495C82.1546 351.718 76.8603 346.572 72.9115 340.612C72.7793 340.412 72.8339 340.142 73.0335 340.01C73.233 339.877 73.5026 339.932 73.6352 340.132C77.5154 345.989 82.7181 351.047 88.681 354.758C88.8844 354.884 88.9468 355.152 88.82 355.355C88.738 355.488 88.5964 355.56 88.4515 355.56Z" fill="#BDD0FB"/>
<path d="M114.571 359.087C140.172 359.087 160.925 338.334 160.925 312.733C160.925 287.133 140.172 266.379 114.571 266.379C88.971 266.379 68.2178 287.133 68.2178 312.733C68.2178 338.334 88.971 359.087 114.571 359.087Z" fill="#DEDAFF"/>
<path d="M91.6753 337.41C89.5351 339.694 86.3838 341.668 84.1665 342.899C87.4781 346.993 91.9592 351.092 97.8912 355.104L99.0076 356.071L100.372 356.665L105.029 352.394C105.029 352.394 95.268 347.537 91.6753 337.41Z" fill="url(#paint5_linear_384_959)"/>
<path d="M141.601 301.332C139.847 299.134 138.31 296.777 137.025 294.349C135.23 290.958 136.88 296.544 136.39 292.715C122.948 283.014 102.706 287.924 94.8762 288.911C92.3088 289.234 89.9608 290.5 88.2691 292.458C81.5598 300.222 66.8371 321.479 84.1662 342.899C86.3837 341.668 89.5349 339.695 91.6751 337.41C89.7579 332.006 89.601 325.099 93.6188 316.63C93.7561 317.301 93.9258 317.966 94.1321 318.62C99.6699 336.164 99.9654 350.764 99.953 354.128C99.9512 354.585 99.384 356.126 99.7834 356.348C113.144 363.776 129.027 357.826 129.027 357.826C125.701 341.287 137.455 309.774 140.687 302.657C140.912 302.161 141.224 301.714 141.601 301.332Z" fill="#6449FF"/>
<path d="M107.473 274.81L106.068 289.162C106.068 289.162 114.142 291.593 120.014 287.45L115.886 274.407L107.473 274.81Z" fill="url(#paint6_linear_384_959)"/>
<path d="M116.841 258.454C117.035 258.637 125.041 274.359 125.041 274.359L115.967 278.739L106.165 264.965C106.165 264.965 113.588 255.391 116.841 258.454Z" fill="url(#paint7_linear_384_959)"/>
<path d="M110.18 265.347C110.018 265.765 110.058 266.233 110.289 266.618L114.815 274.162C114.883 274.277 114.965 274.38 115.063 274.471C115.602 274.973 117.445 276.431 118.87 274.445C120.085 272.753 121.224 271.214 122.445 270.58C123.158 270.209 124.036 270.505 124.398 271.222C125.143 272.7 126.588 275.713 127.495 278.57C127.723 279.286 127.353 280.054 126.657 280.336C124.82 281.081 121.188 282.427 117.965 282.872C117.436 282.945 116.912 282.722 116.597 282.29C115.21 280.391 111.303 275.083 109.969 273.754C108.73 272.52 106.443 272.985 105.413 273.281C105.022 273.394 104.605 273.34 104.256 273.13C103.211 272.5 101.386 270.932 103.055 268.277C103.47 267.617 103.259 266.737 102.607 266.309C101.44 265.541 100.173 264.1 101.38 261.766C102.602 259.403 104.783 259.191 106.269 259.372C106.927 259.453 107.594 259.108 107.846 258.496C107.958 258.223 108.18 257.991 108.593 257.907C109.372 257.749 109.883 257.037 109.73 256.258C109.468 254.921 109.666 253.184 111.8 252.01C115.716 249.857 119.145 253.365 120.017 256.326C120.889 259.287 116.512 261.379 113.758 261.729C111.735 261.985 110.626 264.193 110.18 265.347Z" fill="#000018"/>
<path d="M111.669 276.525C111.669 276.525 109.928 271.431 107.699 271.618C105.47 271.805 103.716 274.025 106.478 276.521C109.914 279.625 111.669 276.525 111.669 276.525Z" fill="url(#paint8_linear_384_959)"/>
<path d="M92.8839 315.319C89.9464 307.279 91.0119 297.572 91.023 297.475L91.8324 297.567C91.8217 297.663 90.7788 307.184 93.6494 315.039L92.8839 315.319Z" fill="white"/>
<path d="M168.886 305.846C153.683 308.128 143.773 298.535 136.389 292.715C126.641 285.033 119.054 288.77 119.054 288.77L129.451 308.613C144.977 323.251 160.896 320.001 170.931 315.257C171.086 311.424 170.062 308.217 168.886 305.846Z" fill="#6449FF"/>
<path d="M190.254 296.776L185.212 299.489C179.166 303.171 173.755 305.116 168.886 305.847C170.061 308.217 171.085 311.424 170.931 315.257C177.32 312.237 181.325 308.613 181.325 308.613C192.746 301.802 190.254 296.776 190.254 296.776Z" fill="url(#paint9_linear_384_959)"/>
<path d="M205.108 303.88C204.783 302.798 203.983 301.923 202.935 301.501L192.702 297.387C192.702 297.387 192.548 296.074 194.864 295.183C197.181 294.291 196.639 291.697 196.639 291.697C196.639 291.697 193.474 293.14 188.842 295.43C186.192 296.739 184.705 299.051 183.917 300.791L186.551 304.256C192.857 306.15 199.239 306.512 205.674 305.761L205.108 303.88Z" fill="url(#paint10_linear_384_959)"/>
<path d="M363.102 392C393.651 392 418.416 367.235 418.416 336.686C418.416 306.137 393.651 281.372 363.102 281.372C332.553 281.372 307.788 306.137 307.788 336.686C307.788 367.235 332.553 392 363.102 392Z" fill="#6449FF"/>
<path d="M410.426 359.825C410.363 359.825 410.3 359.812 410.24 359.783C410.023 359.68 409.931 359.421 410.035 359.205C413.38 352.18 415.077 344.643 415.077 336.801C415.077 317.233 404.277 299.477 386.892 290.462C386.679 290.352 386.596 290.09 386.706 289.877C386.816 289.664 387.079 289.582 387.291 289.692C404.965 298.856 415.945 316.907 415.945 336.801C415.945 344.773 414.22 352.436 410.818 359.578C410.744 359.734 410.588 359.825 410.426 359.825Z" fill="#BDD0FB"/>
<path d="M390.665 381.924C390.52 381.924 390.378 381.851 390.296 381.719C390.169 381.516 390.232 381.248 390.435 381.122C396.774 377.177 402.305 371.801 406.43 365.574C406.562 365.374 406.831 365.319 407.032 365.452C407.231 365.584 407.286 365.853 407.154 366.053C402.96 372.383 397.337 377.848 390.893 381.859C390.823 381.903 390.743 381.924 390.665 381.924Z" fill="#BDD0FB"/>
<path d="M362.911 385.699C390.112 385.699 412.162 363.648 412.162 336.448C412.162 309.247 390.112 287.197 362.911 287.197C335.71 287.197 313.66 309.247 313.66 336.448C313.66 363.648 335.71 385.699 362.911 385.699Z" fill="#DEDAFF"/>
<path d="M299.673 297.39C300.035 296.699 301.057 296.808 301.266 297.559C302.038 300.339 303.908 305.192 307.831 306.915C308.029 307.002 308.216 307.089 308.397 307.178C308.575 306.644 308.578 306.025 308.152 305.373C306.932 303.509 309.134 300.963 309.134 300.963C309.134 300.963 309.28 303.205 310.984 304.617C312.452 305.833 313.157 308.54 312.154 310.76C310.03 319.008 306.851 329.916 319.237 337.886C331.622 345.855 349.065 322.846 349.065 322.846L340.408 350.29C340.408 350.29 327.045 360.151 311.502 346.285C295.959 332.419 306.261 312.243 306.261 312.243C306.261 312.243 294.406 307.46 299.673 297.39Z" fill="url(#paint11_linear_384_959)"/>
<path d="M351.235 282.52C351.235 282.52 347.646 266.424 366.084 270.685C366.084 270.685 375.034 269.223 375.489 277.67C375.489 277.67 381.258 281.471 377.034 288.782C377.034 288.782 394.18 282.16 401.65 297.188C409.12 312.216 402.253 320.484 395.055 322.638C395.055 322.638 400.887 325.567 398.127 332.179C395.366 338.79 381.386 343.451 373.128 335.411C373.128 335.411 349.629 338.516 350.099 321.918C350.099 321.918 339.169 314.86 350.649 301.142C362.128 287.425 351.235 282.52 351.235 282.52Z" fill="#000018"/>
<path d="M350.222 319.83C353.927 318.719 364.715 316.669 374.976 326.138C376.716 327.744 377.428 330.184 376.807 332.469C374.051 342.616 366.338 371.609 372.714 384.58C372.714 384.58 361.275 388.11 348.497 383.324C348.497 383.324 344.162 363.997 336.958 353.474C331.985 346.209 344.888 326.193 348.153 321.358C348.648 320.625 349.376 320.084 350.222 319.83Z" fill="#6449FF"/>
<path d="M360.451 299.672C360.451 299.672 365.931 315.171 366.343 322.009C366.343 322.009 360.287 324.762 354.58 320.115C354.58 320.115 353.982 304.634 353.117 301.861L360.451 299.672Z" fill="url(#paint12_linear_384_959)"/>
<path d="M352.842 278.539C352.842 278.539 338.51 298.596 347.077 304.422C355.644 310.248 365.846 295.994 365.846 295.994C365.846 295.994 369.172 285.016 365.695 281.292C362.218 277.568 352.842 278.539 352.842 278.539Z" fill="url(#paint13_linear_384_959)"/>
<path d="M359.474 273.746C359.474 273.746 352.891 275.306 351.968 278.285C351.045 281.264 361.305 284.027 364.179 284.162L366.495 296.183C366.495 296.183 373.343 284.875 370.63 278.344C367.918 271.812 359.474 273.746 359.474 273.746Z" fill="#000018"/>
<path d="M363.068 294.518C363.068 294.518 368.646 288.058 370.865 292.27C373.084 296.481 365.844 299.643 363.338 297.576L363.068 294.518Z" fill="url(#paint14_linear_384_959)"/>
<path d="M376.444 328.163C376.444 328.163 393.949 342.71 398.293 362.589C402.638 382.467 372.714 384.58 372.714 384.58C372.714 384.58 368.652 380.044 363.83 381.662C359.007 383.28 363.456 373.745 369.099 373.77C374.741 373.795 372.127 378.257 380.11 374.641C387.885 371.119 392.692 360.226 372.852 343.713C371.702 342.756 370.785 341.536 370.232 340.146C366.378 330.443 369.435 324.083 376.444 328.163Z" fill="url(#paint15_linear_384_959)"/>
<path d="M355.857 148.48C384.739 148.48 408.153 125.067 408.153 96.1846C408.153 67.3025 384.739 43.8889 355.857 43.8889C326.975 43.8889 303.562 67.3025 303.562 96.1846C303.562 125.067 326.975 148.48 355.857 148.48Z" fill="#6449FF"/>
<path d="M400.599 118.085C400.536 118.085 400.473 118.071 400.413 118.042C400.196 117.939 400.104 117.681 400.207 117.464C403.369 110.826 404.972 103.702 404.972 96.2928C404.972 77.8017 394.767 61.0223 378.338 52.5033C378.125 52.3929 378.042 52.131 378.152 51.9183C378.262 51.7051 378.525 51.6227 378.737 51.7329C395.455 60.4017 405.84 77.4763 405.84 96.2929C405.84 103.833 404.209 111.081 400.991 117.837C400.916 117.994 400.761 118.085 400.599 118.085Z" fill="#BDD0FB"/>
<path d="M381.916 138.978C381.771 138.978 381.629 138.905 381.547 138.773C381.42 138.57 381.483 138.302 381.686 138.176C387.677 134.448 392.903 129.367 396.801 123.483C396.933 123.284 397.201 123.228 397.403 123.361C397.602 123.494 397.657 123.763 397.525 123.963C393.558 129.95 388.24 135.119 382.145 138.913C382.073 138.957 381.994 138.978 381.916 138.978Z" fill="#BDD0FB"/>
<path d="M355.678 142.523C381.394 142.523 402.241 121.676 402.241 95.9593C402.241 70.2428 381.394 49.3955 355.678 49.3955C329.961 49.3955 309.114 70.2428 309.114 95.9593C309.114 121.676 329.961 142.523 355.678 142.523Z" fill="#EEE8FD"/>
<path d="M368.94 87.5027C369.735 87.8464 365.637 119.924 370.784 140.017C370.784 140.017 362.162 143.06 351.065 142.538C351.065 142.538 332.537 114.254 332.053 110.995C331.503 107.303 334.34 88.3695 334.34 88.3695C334.34 88.3695 349.325 79.0237 368.94 87.5027Z" fill="#6449FF"/>
<path d="M345.103 100.386C335.947 100.696 335.218 92.8498 335.74 87.6174C338.751 86.139 346.403 83.0886 356.519 84.1783C356.706 88.6447 356.097 100.013 345.103 100.386Z" fill="url(#paint16_linear_384_959)"/>
<path d="M342.383 70.4866C342.383 70.4866 346.932 80.0977 349.589 84.15C350.368 85.3393 350.129 86.932 349.026 87.8293C347.766 88.8538 345.719 89.869 342.539 89.9007C341.202 89.9141 340.027 89.0095 339.675 87.7197L336.677 76.7408L342.383 70.4866Z" fill="url(#paint17_linear_384_959)"/>
<path d="M334.34 88.3689C334.34 88.3689 320.955 112.826 296.778 93.1287L294.023 97.494C294.023 97.494 311.725 124.838 333.548 105.861L334.34 88.3689Z" fill="url(#paint18_linear_384_959)"/>
<path d="M278.247 96.9082C278.545 95.9192 279.276 95.1192 280.234 94.7339L289.586 90.973C289.586 90.973 289.727 89.7737 287.61 88.9586C285.493 88.1436 285.988 85.7725 285.988 85.7725C285.988 85.7725 288.88 87.0919 293.115 89.1846C295.536 90.3814 296.895 92.4943 297.615 94.0849L295.208 97.2508C289.444 98.9823 283.612 99.3133 277.73 98.6265L278.247 96.9082Z" fill="url(#paint19_linear_384_959)"/>
<path d="M368.939 87.5017C368.939 87.5017 391.651 99.2643 389.142 121.454C386.633 143.644 352.23 123.273 352.23 123.273L353.065 117.933C353.065 117.933 374.112 124.04 377.618 118.787C380.189 114.934 371.569 105.907 366.791 101.369C365.04 99.7044 364.536 97.1151 365.542 94.9182L368.939 87.5017Z" fill="url(#paint20_linear_384_959)"/>
<path d="M355.328 130.793L345.803 97.5313C345.695 97.1537 345.373 96.8783 344.983 96.8327C343.257 96.6314 338.257 96.0662 332.483 95.5779C325.529 94.9897 317.453 94.5131 312.627 94.9185C311.941 94.9761 311.526 95.7017 311.831 96.319C314.576 101.871 325.864 124.456 331.517 131.854C331.704 132.1 331.994 132.243 332.302 132.24L354.401 132.034C355.044 132.028 355.505 131.412 355.328 130.793Z" fill="#000018"/>
<path d="M331.495 92.694L324.59 91.5434C324.222 91.4821 323.921 91.8336 324.038 92.1875L324.721 94.2589C324.781 94.4393 324.938 94.5697 325.126 94.5949L331.771 95.4826C332.115 95.5285 332.399 95.2162 332.32 94.8784L331.897 93.0699C331.851 92.8753 331.693 92.7269 331.495 92.694Z" fill="#7D97F4"/>
<path d="M336.667 98.5399L336.098 95.5767C336.041 95.2795 335.795 95.055 335.494 95.0244L321.547 93.6091C321.077 93.5615 320.701 93.9917 320.811 94.4505L321.698 98.1429C321.769 98.4384 322.026 98.6518 322.33 98.667L335.959 99.353C336.403 99.3755 336.75 98.9762 336.667 98.5399Z" fill="#7D97F4"/>
<path d="M353.026 122.757C353.026 122.757 354.353 117.302 353.818 115.366C353.283 113.43 352.246 110.942 348.789 111.495C345.333 112.048 341.256 113.504 341.256 113.504C341.256 113.504 341.462 116.025 344.089 115.212L342.46 116.472C342.46 116.472 342.693 118.491 344.912 117.412L343.396 119.084C343.396 119.084 344.349 120.742 345.982 119.679C347.614 118.615 348.397 123.414 353.026 122.757Z" fill="url(#paint21_linear_384_959)"/>
<path d="M326.832 62.5707C326.832 62.5707 324.726 67.4355 327.2 74.8319C329.675 82.2282 333.719 82.8709 336.28 81.0424C338.841 79.2138 342.162 75.9465 342.575 69.2465C342.988 62.5466 329.733 56.4174 326.832 62.5707Z" fill="url(#paint22_linear_384_959)"/>
<path d="M337.577 68.8106C337.577 68.8106 333.107 58.8003 326.405 65.0362L325.888 67.6128C325.888 67.6128 319.505 65.7944 321.602 60.0103C323.7 54.2263 331.328 50.3025 338.155 54.0516C344.982 57.8006 347.303 62.2165 346.936 67.4819C346.569 72.7473 342.622 70.9454 342.622 70.9454C342.622 70.9454 341.863 67.0743 340.009 66.3864C338.155 65.6986 338.195 68.6288 338.195 68.6288L337.577 68.8106Z" fill="#000018"/>
<path d="M339.113 68.9329C339.113 68.9329 336.786 63.8005 340.046 63.615C343.306 63.4295 341.979 68.5624 341.33 70.4353L339.113 68.9329Z" fill="url(#paint23_linear_384_959)"/>
<path d="M340.964 57.7617C339.138 57.5394 338.403 55.2825 339.645 53.9252C343.655 49.5438 351.224 44.6822 362.008 52.1421C374.155 60.5451 380.727 64.347 383.711 63.5493C385.671 63.0255 387.375 64.9637 386.449 66.7687C385.765 68.1033 384.372 69.4971 381.798 70.7672C361.941 80.565 351.677 59.0659 340.964 57.7617Z" fill="#000018"/>
<path d="M130.055 153.327C157.794 153.327 180.281 130.84 180.281 103.101C180.281 75.3616 157.794 52.8745 130.055 52.8745C102.316 52.8745 79.8286 75.3616 79.8286 103.101C79.8286 130.84 102.316 153.327 130.055 153.327Z" fill="#6449FF"/>
<path d="M87.0842 124.152C86.9219 124.152 86.7663 124.061 86.6918 123.905C83.6003 117.414 82.0327 110.449 82.0327 103.205C82.0327 85.1266 92.0106 68.7221 108.073 60.3934C108.285 60.2835 108.548 60.3659 108.658 60.5788C108.768 60.7916 108.685 61.0535 108.472 61.1638C92.6993 69.3427 82.9006 85.4521 82.9006 103.205C82.9006 110.319 84.4397 117.158 87.4753 123.531C87.5786 123.748 87.4867 124.007 87.2702 124.11C87.21 124.138 87.1465 124.152 87.0842 124.152Z" fill="#BDD0FB"/>
<path d="M105.027 144.219C104.949 144.219 104.87 144.198 104.799 144.153C98.9431 140.51 93.8337 135.543 90.0218 129.79C89.8896 129.59 89.9443 129.321 90.1438 129.189C90.3434 129.056 90.6134 129.111 90.7455 129.311C94.4888 134.96 99.5068 139.838 105.257 143.416C105.46 143.543 105.523 143.811 105.396 144.014C105.314 144.146 105.172 144.219 105.027 144.219Z" fill="white"/>
<path d="M130.229 147.606C154.928 147.606 174.95 127.583 174.95 102.884C174.95 78.1855 154.928 58.1631 130.229 58.1631C105.53 58.1631 85.5073 78.1855 85.5073 102.884C85.5073 127.583 105.53 147.606 130.229 147.606Z" fill="#DEDAFF"/>
<path d="M150.377 93.8895C150.377 93.8895 132.334 89.3633 113.27 92.0928C107.906 92.8608 103.155 95.9816 100.261 100.562C95.0452 108.815 87.6716 123.523 89.2313 138.862L97.4172 140.886C97.4172 140.886 103.074 122.683 109.442 115.275C109.442 115.275 116.983 132.463 116.601 141.902C116.591 142.169 116.573 142.429 116.55 142.683C115.684 151.918 152.748 144.406 152.748 144.406L150.377 93.8895Z" fill="#6449FF"/>
<path d="M135.819 78.3776L134.996 91.1758C134.919 92.3664 134.148 93.3755 133.068 93.6953C130.58 94.432 125.88 95.3199 121.274 93.464C120.432 93.1243 119.998 92.1259 120.282 91.2153L126.375 71.6453L135.819 78.3776Z" fill="url(#paint24_linear_384_959)"/>
<path d="M137.878 59.843C137.878 59.843 141.77 68.7835 142.031 73.4761C142.292 78.1687 143.304 81.2135 137.878 82.1585C132.452 83.1035 127.881 80.4006 125.405 75.7262C125.405 75.7262 121.525 68.5235 122.395 65.5738C123.266 62.6241 137.878 59.843 137.878 59.843Z" fill="url(#paint25_linear_384_959)"/>
<path d="M127.259 72.3646H127.945C127.945 72.3646 125.118 66.5676 127.602 65.5492C130.085 64.5308 139.921 62.5248 142.044 59.0345C144.09 55.6696 142.265 51.3231 139.535 50.1069C139.362 50.0298 139.159 50.1112 139.07 50.2784L138.844 50.7063C138.69 50.9993 138.257 50.9549 138.165 50.6366C138.077 50.3346 137.67 50.2686 137.504 50.5355C136.854 51.5793 135.095 53.2765 130.377 54.1473C123.682 55.3829 119.256 58.0924 119.148 62.7192C119.141 63.0123 118.827 63.1738 118.577 63.0213C118.083 62.7201 117.292 62.5788 116.235 63.4676C114.397 65.0133 115.149 69.0229 119.179 72.3213C119.37 72.478 119.368 72.777 119.161 72.9121C118.431 73.3877 117.342 74.5192 120.164 76.0278C123.05 77.5707 124.758 77.4024 125.403 77.2376C125.577 77.1933 125.693 77.0351 125.682 76.8564L125.429 72.7561C125.416 72.5441 125.584 72.3649 125.797 72.3649H127.259V72.3646Z" fill="url(#paint26_linear_384_959)"/>
<path d="M127.427 73.2231C127.427 73.2231 125.942 67.5121 123.382 69.1133C120.821 70.7145 124.71 75.5123 126.769 75.726L127.427 73.2231Z" fill="url(#paint27_linear_384_959)"/>
<path d="M150.266 130.687C151.066 125.043 145.221 116.747 142.803 113.599C142.112 112.699 141.725 111.598 141.715 110.462C141.645 102.469 145.001 97.336 150.378 93.8892C150.378 93.8892 169.895 116.627 164.926 134.116C164.389 136.003 163.558 137.625 162.505 139.019C161.722 132.429 154.105 130.991 150.266 130.687Z" fill="#6449FF"/>
<path d="M149.9 128.504L150.644 128.419C150.014 122.884 145.157 116.051 143.098 113.371L142.504 113.827C144.525 116.458 149.291 123.155 149.9 128.504Z" fill="white"/>
<path d="M150.113 131.468C150.181 131.215 150.228 130.953 150.266 130.687C154.104 130.991 161.721 132.428 162.504 139.018C153.795 150.537 129.788 146.381 129.788 146.381V141.899C129.788 141.899 148.225 138.474 150.113 131.468Z" fill="url(#paint28_linear_384_959)"/>
<path d="M132.096 145.145C132.096 145.145 128.551 136.781 122.305 139.748C116.06 142.715 116.551 144.656 116.551 144.656L132.096 145.145Z" fill="url(#paint29_linear_384_959)"/>
<path d="M132.892 146.88C132.842 147.513 132.303 147.995 131.668 147.973L99.3031 146.844C98.8 146.826 98.3628 146.493 98.2128 146.012L97.2734 143.006C97.0426 142.268 97.5697 141.51 98.3421 141.469L110.145 140.842C110.252 140.836 110.359 140.845 110.464 140.868L131.966 145.63C132.543 145.758 132.938 146.291 132.892 146.88Z" fill="#000018"/>
<path d="M111.197 145.699L110.306 141.549L98.1831 142.128L98.9808 145.571L111.197 145.699Z" fill="#000018"/>
<path d="M117.411 101.033C118.098 106.639 121.184 129.418 122.068 135.926C122.192 136.842 121.465 137.647 120.542 137.62L68.1806 136.122C67.4955 136.102 66.9111 135.62 66.7626 134.95L58.6174 98.2687C58.402 97.2989 59.1739 96.3923 60.1657 96.4504L116.014 99.7215C116.736 99.7637 117.324 100.315 117.411 101.033Z" fill="#000018"/>
<path d="M96.3648 124.036L104.104 146.001L86.1092 146.382L84.6109 124.168C84.5406 123.126 85.4053 122.26 86.4477 122.329L94.8511 122.887C95.5399 122.933 96.1354 123.385 96.3648 124.036Z" fill="#000018"/>
<path d="M111.399 146.313C111.598 146.918 111.147 147.539 110.511 147.539H82.3311C81.815 147.539 81.3965 147.121 81.3965 146.605V145.396C81.3965 144.864 81.8398 144.439 82.3712 144.462L110.551 145.671C110.94 145.688 111.278 145.943 111.399 146.313Z" fill="#000018"/>
</g>
<defs>
<linearGradient id="paint0_linear_384_959" x1="165.518" y1="209.471" x2="312.854" y2="209.471" gradientUnits="userSpaceOnUse">
<stop stop-color="#DAE3FE"/>
<stop offset="1" stop-color="#E9EFFD"/>
</linearGradient>
<linearGradient id="paint1_linear_384_959" x1="238.869" y1="229.595" x2="242.482" y2="198.684" gradientUnits="userSpaceOnUse">
<stop stop-color="#FEBBBA"/>
<stop offset="1" stop-color="#FF928E"/>
</linearGradient>
<linearGradient id="paint2_linear_384_959" x1="242.236" y1="194.995" x2="240.854" y2="155.169" gradientUnits="userSpaceOnUse">
<stop stop-color="#FEBBBA"/>
<stop offset="1" stop-color="#FF928E"/>
</linearGradient>
<linearGradient id="paint3_linear_384_959" x1="260.902" y1="194.348" x2="259.52" y2="154.521" gradientUnits="userSpaceOnUse">
<stop stop-color="#FEBBBA"/>
<stop offset="1" stop-color="#FF928E"/>
</linearGradient>
<linearGradient id="paint4_linear_384_959" x1="223.669" y1="195.64" x2="222.287" y2="155.814" gradientUnits="userSpaceOnUse">
<stop stop-color="#FEBBBA"/>
<stop offset="1" stop-color="#FF928E"/>
</linearGradient>
<linearGradient id="paint5_linear_384_959" x1="84.1665" y1="347.038" x2="105.029" y2="347.038" gradientUnits="userSpaceOnUse">
<stop stop-color="#FEBBBA"/>
<stop offset="1" stop-color="#FF928E"/>
</linearGradient>
<linearGradient id="paint6_linear_384_959" x1="116.094" y1="270.971" x2="104.685" y2="320.276" gradientUnits="userSpaceOnUse">
<stop stop-color="#FEBBBA"/>
<stop offset="1" stop-color="#FF928E"/>
</linearGradient>
<linearGradient id="paint7_linear_384_959" x1="114.203" y1="261.426" x2="119.827" y2="294.518" gradientUnits="userSpaceOnUse">
<stop stop-color="#FEBBBA"/>
<stop offset="1" stop-color="#FF928E"/>
</linearGradient>
<linearGradient id="paint8_linear_384_959" x1="109.324" y1="297.546" x2="108.324" y2="274.308" gradientUnits="userSpaceOnUse">
<stop stop-color="#FEBBBA"/>
<stop offset="1" stop-color="#FF928E"/>
</linearGradient>
<linearGradient id="paint9_linear_384_959" x1="205.701" y1="269.767" x2="135.882" y2="359.095" gradientUnits="userSpaceOnUse">
<stop stop-color="#FEBBBA"/>
<stop offset="1" stop-color="#FF928E"/>
</linearGradient>
<linearGradient id="paint10_linear_384_959" x1="215.047" y1="277.07" x2="145.227" y2="366.398" gradientUnits="userSpaceOnUse">
<stop stop-color="#FEBBBA"/>
<stop offset="1" stop-color="#FF928E"/>
</linearGradient>
<linearGradient id="paint11_linear_384_959" x1="294.384" y1="278.068" x2="340.949" y2="352.696" gradientUnits="userSpaceOnUse">
<stop stop-color="#FEBBBA"/>
<stop offset="1" stop-color="#FF928E"/>
</linearGradient>
<linearGradient id="paint12_linear_384_959" x1="351.735" y1="329.691" x2="360.465" y2="310.303" gradientUnits="userSpaceOnUse">
<stop stop-color="#FEBBBA"/>
<stop offset="1" stop-color="#FF928E"/>
</linearGradient>
<linearGradient id="paint13_linear_384_959" x1="351.287" y1="282.573" x2="369.004" y2="320.931" gradientUnits="userSpaceOnUse">
<stop stop-color="#FEBBBA"/>
<stop offset="1" stop-color="#FF928E"/>
</linearGradient>
<linearGradient id="paint14_linear_384_959" x1="359.622" y1="278.723" x2="377.339" y2="317.081" gradientUnits="userSpaceOnUse">
<stop stop-color="#FEBBBA"/>
<stop offset="1" stop-color="#FF928E"/>
</linearGradient>
<linearGradient id="paint15_linear_384_959" x1="394.478" y1="390.011" x2="301.248" y2="251.78" gradientUnits="userSpaceOnUse">
<stop stop-color="#FEBBBA"/>
<stop offset="1" stop-color="#FF928E"/>
</linearGradient>
<linearGradient id="paint16_linear_384_959" x1="353.358" y1="102.583" x2="333.179" y2="65.1083" gradientUnits="userSpaceOnUse">
<stop stop-color="#FEBBBA"/>
<stop offset="1" stop-color="#FF928E"/>
</linearGradient>
<linearGradient id="paint17_linear_384_959" x1="353.568" y1="102.47" x2="333.389" y2="64.9946" gradientUnits="userSpaceOnUse">
<stop stop-color="#FEBBBA"/>
<stop offset="1" stop-color="#FF928E"/>
</linearGradient>
<linearGradient id="paint18_linear_384_959" x1="289.225" y1="73.9077" x2="333.173" y2="109.399" gradientUnits="userSpaceOnUse">
<stop stop-color="#FEBBBA"/>
<stop offset="1" stop-color="#FF928E"/>
</linearGradient>
<linearGradient id="paint19_linear_384_959" x1="278.013" y1="87.7903" x2="321.961" y2="123.281" gradientUnits="userSpaceOnUse">
<stop stop-color="#FEBBBA"/>
<stop offset="1" stop-color="#FF928E"/>
</linearGradient>
<linearGradient id="paint20_linear_384_959" x1="389.336" y1="109.656" x2="352.23" y2="109.656" gradientUnits="userSpaceOnUse">
<stop stop-color="#FEBBBA"/>
<stop offset="1" stop-color="#FF928E"/>
</linearGradient>
<linearGradient id="paint21_linear_384_959" x1="353.945" y1="117.118" x2="341.256" y2="117.118" gradientUnits="userSpaceOnUse">
<stop stop-color="#FEBBBA"/>
<stop offset="1" stop-color="#FF928E"/>
</linearGradient>
<linearGradient id="paint22_linear_384_959" x1="325.184" y1="72.1799" x2="353.46" y2="67.4415" gradientUnits="userSpaceOnUse">
<stop stop-color="#FEBBBA"/>
<stop offset="1" stop-color="#FF928E"/>
</linearGradient>
<linearGradient id="paint23_linear_384_959" x1="324.765" y1="69.685" x2="353.041" y2="64.9465" gradientUnits="userSpaceOnUse">
<stop stop-color="#FEBBBA"/>
<stop offset="1" stop-color="#FF928E"/>
</linearGradient>
<linearGradient id="paint24_linear_384_959" x1="120.451" y1="96.8263" x2="135.921" y2="74.0762" gradientUnits="userSpaceOnUse">
<stop stop-color="#FEBBBA"/>
<stop offset="1" stop-color="#FF928E"/>
</linearGradient>
<linearGradient id="paint25_linear_384_959" x1="127.485" y1="74.7398" x2="140.485" y2="69.0198" gradientUnits="userSpaceOnUse">
<stop stop-color="#FEBBBA"/>
<stop offset="1" stop-color="#FF928E"/>
</linearGradient>
<linearGradient id="paint26_linear_384_959" x1="101.079" y1="83.5086" x2="143.589" y2="53.0886" gradientUnits="userSpaceOnUse">
<stop stop-color="#09005D"/>
<stop offset="1" stop-color="#1A0F91"/>
</linearGradient>
<linearGradient id="paint27_linear_384_959" x1="126.234" y1="71.8973" x2="139.234" y2="66.1773" gradientUnits="userSpaceOnUse">
<stop stop-color="#FEBBBA"/>
<stop offset="1" stop-color="#FF928E"/>
</linearGradient>
<linearGradient id="paint28_linear_384_959" x1="152.318" y1="124.217" x2="138.092" y2="161.655" gradientUnits="userSpaceOnUse">
<stop stop-color="#FEBBBA"/>
<stop offset="1" stop-color="#FF928E"/>
</linearGradient>
<linearGradient id="paint29_linear_384_959" x1="134.667" y1="117.51" x2="120.44" y2="154.948" gradientUnits="userSpaceOnUse">
<stop stop-color="#FEBBBA"/>
<stop offset="1" stop-color="#FF928E"/>
</linearGradient>
<clipPath id="clip0_384_959">
<rect width="477" height="424" fill="white"/>
</clipPath>
</defs>
</svg>
