<svg width="48" height="48" viewBox="0 0 48 48" fill="none" xmlns="http://www.w3.org/2000/svg">
<mask id="path-1-outside-1_238_1830" maskUnits="userSpaceOnUse" x="1.31168" y="1.18176" width="45" height="45" fill="black">
<rect fill="white" x="1.31168" y="1.18176" width="45" height="45"/>
<path d="M43.5804 21.9033C42.6975 21.9067 41.9134 22.4709 41.6287 23.3078H35.5349V21.1039L36.3412 21.1005C36.9684 21.1005 37.5684 20.8482 38.0082 20.4016L39.8968 18.4993C40.1747 18.6374 40.4832 18.7107 40.7934 18.7124C41.3457 18.7141 41.8741 18.4925 42.2627 18.1004C43.069 17.2857 43.069 15.9715 42.2627 15.155C41.8758 14.7612 41.3457 14.5396 40.7934 14.5414C40.2412 14.5397 39.711 14.7613 39.3241 15.155C38.7087 15.784 38.5554 16.7334 38.944 17.5226L37.04 19.4419L37.0383 19.4436C36.8542 19.6311 36.6002 19.7385 36.336 19.7385L35.5349 19.7419V13.7284C35.5349 12.9818 34.9298 12.3733 34.1815 12.3699H28.2225L28.2259 11.5449C28.2276 11.2824 28.3316 11.0318 28.5157 10.8477L30.4094 8.9403V8.9386C30.6889 9.07666 30.9958 9.14996 31.306 9.15337C31.8583 9.15507 32.3884 8.93348 32.7753 8.53975C33.5799 7.72328 33.5799 6.41078 32.7753 5.5943C32.3884 5.20225 31.8583 4.98069 31.306 4.98239C30.7537 4.98239 30.2253 5.20398 29.8384 5.59775C29.223 6.22672 29.0713 7.17446 29.4583 7.96367L27.5475 9.88812C27.1111 10.3262 26.864 10.9211 26.8623 11.5398L26.8588 12.3682H24.6821V6.21813C25.6384 5.88574 26.2162 4.91074 26.0475 3.91186C25.8787 2.91298 25.0128 2.18176 24.0003 2.18176C22.9878 2.18176 22.1219 2.91302 21.9532 3.91186C21.7844 4.91074 22.3622 5.8857 23.3185 6.21813V12.3717H21.1418L21.1384 11.5433C21.1367 10.9229 20.8895 10.328 20.4531 9.88821L18.5424 7.96375C18.9293 7.17455 18.7776 6.22681 18.1622 5.59613C17.7753 5.20239 17.2469 4.98252 16.6946 4.98252C16.1424 4.98081 15.6122 5.20241 15.2253 5.59613C14.4207 6.41432 14.4207 7.72511 15.2253 8.54329C15.6122 8.93534 16.1424 9.1552 16.6929 9.1535C17.0049 9.1518 17.3117 9.0785 17.5895 8.94043L19.4832 10.8478C19.669 11.0336 19.773 11.2842 19.773 11.545L19.7764 12.37L13.8192 12.3717C13.0709 12.3734 12.4658 12.9819 12.4658 13.7302V19.7403L11.6629 19.7369C11.3987 19.7369 11.1465 19.6295 10.9607 19.4403L9.05667 17.521C9.44361 16.73 9.2919 15.7806 8.67656 15.1516C8.28793 14.7596 7.7595 14.538 7.20724 14.5414C6.65498 14.5397 6.12484 14.7613 5.73792 15.155C4.93165 15.9715 4.93165 17.284 5.73792 18.1005C6.12655 18.4925 6.65498 18.7124 7.20724 18.7107C7.51747 18.709 7.826 18.6357 8.10384 18.4976L9.99246 20.4016C10.4322 20.8482 11.0322 21.0988 11.6595 21.0988L12.4675 21.1022V23.3062L6.37191 23.3079C6.03782 22.3448 5.05771 21.7619 4.05373 21.9306C3.04804 22.0994 2.31168 22.9704 2.31168 23.988C2.31168 25.0073 3.04804 25.8783 4.05373 26.0471C5.05771 26.2159 6.03783 25.6329 6.37191 24.6699H12.4657V26.8739L11.6595 26.8773V26.879C11.0322 26.879 10.4322 27.1295 9.99242 27.5762L8.10379 29.4784V29.4801C7.82595 29.3421 7.51741 29.2688 7.2072 29.2671C6.65493 29.2654 6.1265 29.4853 5.73787 29.8773C4.9316 30.6938 4.9316 32.0063 5.73787 32.8227C6.1248 33.2165 6.65493 33.4381 7.2072 33.4364C7.75946 33.4381 8.2896 33.2182 8.67652 32.8227C9.29188 32.1938 9.44526 31.246 9.05834 30.4551L10.9623 28.5358C11.1464 28.3466 11.4004 28.2409 11.6646 28.2409L12.4657 28.2375V34.251C12.4657 34.9976 13.0708 35.6062 13.8192 35.6096H19.7781L19.7747 36.4346C19.773 36.6971 19.669 36.9476 19.485 37.1317L17.5912 39.0391V39.0408C17.3117 38.9028 17.0048 38.8295 16.6946 38.8261C16.1424 38.8244 15.6122 39.046 15.2253 39.4397C14.4207 40.2562 14.4207 41.5687 15.2253 42.3851C15.6122 42.7772 16.1424 42.9987 16.6946 42.997C17.2469 42.997 17.7753 42.7755 18.1622 42.3817C18.7776 41.7527 18.9293 40.805 18.5424 40.0158L20.4532 38.0896C20.8895 37.6498 21.1367 37.0567 21.1384 36.4362L21.1418 35.6078H23.3185V41.7614V41.7597C22.3622 42.0938 21.7861 43.0671 21.9549 44.066C22.1236 45.0648 22.9878 45.7961 24.0003 45.7961C25.0128 45.7961 25.8787 45.0648 26.0475 44.066C26.2162 43.0671 25.6384 42.0938 24.6821 41.7597V35.6061H26.8588L26.8623 36.4345V36.4362C26.864 37.0567 27.1111 37.6515 27.5475 38.0896L29.4583 40.0141V40.0158C29.0713 40.805 29.223 41.7527 29.8384 42.3817C30.2253 42.7754 30.7537 42.997 31.306 42.997C31.8583 42.997 32.3884 42.7772 32.7753 42.3817C33.5799 41.5652 33.5799 40.2544 32.7753 39.4362C32.3884 39.0442 31.8583 38.8243 31.3077 38.826C30.9958 38.8277 30.6889 38.901 30.4111 39.0391L28.5174 37.1317C28.3316 36.9459 28.2276 36.6953 28.2276 36.4345L28.2242 35.6095L34.1814 35.6078C34.9297 35.6061 35.5349 34.9976 35.5349 34.2493V28.2393L36.3377 28.2427C36.6019 28.2427 36.8542 28.3501 37.04 28.5393L38.944 30.4586C38.557 31.2495 38.7087 32.1989 39.3241 32.8279C39.7127 33.2199 40.2411 33.4415 40.7934 33.4381C41.3456 33.4398 41.8758 33.2182 42.2627 32.8245C43.069 32.008 43.069 30.6955 42.2627 29.879C41.8741 29.487 41.3456 29.2671 40.7934 29.2688C40.4832 29.2705 40.1746 29.3438 39.8968 29.4819L38.0082 27.5779C37.5684 27.1313 36.9684 26.8807 36.3411 26.8807L35.5331 26.8773V24.6716H41.6287C41.8895 25.4012 42.5338 25.9262 43.3009 26.0319C44.0696 26.1358 44.8315 25.8052 45.2781 25.171C45.7247 24.5387 45.7809 23.7085 45.423 23.0216C45.0667 22.3347 44.356 21.9017 43.5821 21.9034L43.5804 21.9033ZM40.2924 16.1145C40.4253 15.9798 40.606 15.9031 40.7935 15.9031C40.9827 15.9031 41.1634 15.9781 41.2946 16.1128C41.5758 16.3974 41.5758 16.8542 41.2946 17.1389C41.0116 17.4151 40.5582 17.4099 40.2804 17.127C40.0043 16.844 40.0077 16.3906 40.2923 16.1128L40.2924 16.1145ZM30.8084 6.55201C30.9397 6.41905 31.1204 6.34235 31.3095 6.34235C31.4987 6.34235 31.6794 6.41905 31.8107 6.55201C32.0919 6.83667 32.0919 7.29348 31.8107 7.57816C31.6794 7.71282 31.4987 7.78782 31.3095 7.78782C31.122 7.78782 30.9414 7.71282 30.8101 7.57987C30.5289 7.29521 30.5289 6.8384 30.8084 6.55201ZM17.1926 7.57986C16.913 7.85089 16.4699 7.85089 16.1903 7.57986C15.909 7.29521 15.909 6.8384 16.1903 6.55371C16.3215 6.41905 16.5022 6.34405 16.6914 6.34405C16.8789 6.34405 17.0596 6.41905 17.1908 6.55201C17.4721 6.83666 17.4721 7.29348 17.1926 7.57986ZM7.70864 17.1388C7.57569 17.2735 7.39501 17.3485 7.20752 17.3485C7.01832 17.3485 6.83763 17.2735 6.7064 17.1406C6.42515 16.8559 6.42515 16.3991 6.7064 16.1144C6.83765 15.9797 7.01833 15.9047 7.20752 15.9047C7.39671 15.9047 7.57741 15.9797 7.70864 16.1144C7.98819 16.3991 7.98819 16.8542 7.70864 17.1388ZM4.42055 24.7119C4.12567 24.717 3.85974 24.5432 3.74384 24.2739C3.62794 24.0046 3.68759 23.6909 3.89384 23.4813C4.09839 23.2733 4.41032 23.2085 4.68305 23.321C4.95407 23.4318 5.13133 23.696 5.13133 23.9892C5.13303 24.3846 4.816 24.7085 4.42055 24.7119ZM7.70864 31.8644C7.57569 31.999 7.39501 32.0757 7.20752 32.0757C7.01832 32.0757 6.83763 32.0007 6.7064 31.8661C6.42515 31.5814 6.42515 31.1246 6.7064 30.8399C6.83765 30.707 7.01833 30.6303 7.20752 30.6303C7.39671 30.6303 7.57741 30.707 7.70864 30.8399C7.98989 31.1246 7.98819 31.5814 7.70864 31.8644ZM17.1926 41.4268C16.9096 41.703 16.4562 41.6979 16.1784 41.4149C15.9022 41.132 15.9056 40.6785 16.1903 40.4007C16.3216 40.2661 16.5022 40.1911 16.6914 40.1911C16.8789 40.1911 17.0596 40.2661 17.1908 40.399C17.4721 40.6837 17.4721 41.1405 17.1926 41.4268ZM30.8084 40.399C30.9397 40.266 31.1204 40.191 31.3095 40.191C31.4987 40.191 31.6794 40.266 31.8107 40.399C32.0919 40.6836 32.0919 41.1405 31.8107 41.4251C31.6794 41.5598 31.4987 41.6348 31.3095 41.6348C31.122 41.6365 30.9397 41.5598 30.8084 41.4268C30.5272 41.1422 30.5272 40.6854 30.8084 40.399ZM23.2881 4.25761C23.2932 3.97125 23.4688 3.71386 23.7347 3.60817C24.0006 3.50079 24.3057 3.56385 24.5069 3.7684C24.708 3.97294 24.7677 4.27807 24.6569 4.54225C24.5461 4.80645 24.287 4.98031 24.0006 4.98031C23.6052 4.9752 23.2864 4.65304 23.2881 4.25761ZM24.7131 43.7215C24.708 44.0078 24.5324 44.2652 24.2666 44.3709C24.0006 44.4783 23.6955 44.4152 23.4944 44.2107C23.2933 44.0061 23.2336 43.701 23.3444 43.4368C23.4552 43.1726 23.7143 42.9988 24.0007 42.9988C24.3961 43.0039 24.7148 43.326 24.7131 43.7215ZM27.5478 34.2476H27.5393H27.5359C27.5324 34.2459 27.529 34.2459 27.5273 34.2476H24.0126C24.004 34.2425 23.9955 34.2425 23.987 34.2476H20.4825C20.4756 34.2476 20.4705 34.2442 20.4654 34.2442H20.462C20.4552 34.2442 20.4501 34.2476 20.445 34.2476H13.8314L13.8263 27.5673C13.8263 27.5605 13.8297 27.5553 13.8297 27.5502C13.8297 27.5434 13.8263 27.54 13.8263 27.5332V24.0133C13.8263 24.0048 13.8314 23.9963 13.8314 23.9877C13.8314 23.9792 13.8263 23.9707 13.8263 23.9605V20.4593C13.8263 20.4474 13.8331 20.4372 13.8331 20.4253C13.8331 20.4133 13.8263 20.4014 13.8263 20.3878L13.8195 13.735H34.1719L34.1753 20.4118C34.1753 20.4186 34.1719 20.4237 34.1719 20.4288C34.1719 20.4356 34.1753 20.439 34.1753 20.4458V23.9657C34.1753 23.9743 34.1702 23.9828 34.1702 23.9913C34.1702 23.9998 34.1753 24.0083 34.1753 24.0186V27.5197C34.1753 27.5316 34.1685 27.5418 34.1685 27.5538C34.1685 27.5657 34.1753 27.5776 34.1753 27.5913L34.1822 34.2441L27.5478 34.2476ZM40.2927 30.8402C40.4256 30.7055 40.6063 30.6305 40.7938 30.6305C40.983 30.6305 41.1637 30.7055 41.2949 30.8385C41.5761 31.1231 41.5761 31.5799 41.2949 31.8646C41.0154 32.1356 40.5722 32.1356 40.2926 31.8646C40.0131 31.58 40.0131 31.1249 40.2927 30.8402ZM43.5807 24.7123C43.2876 24.7174 43.0199 24.5453 42.904 24.2743C42.7881 24.0049 42.8461 23.6913 43.0523 23.4834C43.2586 23.2737 43.5705 23.2089 43.8415 23.3197C44.1143 23.4305 44.2915 23.6964 44.2915 23.9896C44.2932 24.3851 43.9762 24.7072 43.5807 24.7123Z"/>
</mask>
<path d="M43.5804 21.9033C42.6975 21.9067 41.9134 22.4709 41.6287 23.3078H35.5349V21.1039L36.3412 21.1005C36.9684 21.1005 37.5684 20.8482 38.0082 20.4016L39.8968 18.4993C40.1747 18.6374 40.4832 18.7107 40.7934 18.7124C41.3457 18.7141 41.8741 18.4925 42.2627 18.1004C43.069 17.2857 43.069 15.9715 42.2627 15.155C41.8758 14.7612 41.3457 14.5396 40.7934 14.5414C40.2412 14.5397 39.711 14.7613 39.3241 15.155C38.7087 15.784 38.5554 16.7334 38.944 17.5226L37.04 19.4419L37.0383 19.4436C36.8542 19.6311 36.6002 19.7385 36.336 19.7385L35.5349 19.7419V13.7284C35.5349 12.9818 34.9298 12.3733 34.1815 12.3699H28.2225L28.2259 11.5449C28.2276 11.2824 28.3316 11.0318 28.5157 10.8477L30.4094 8.9403V8.9386C30.6889 9.07666 30.9958 9.14996 31.306 9.15337C31.8583 9.15507 32.3884 8.93348 32.7753 8.53975C33.5799 7.72328 33.5799 6.41078 32.7753 5.5943C32.3884 5.20225 31.8583 4.98069 31.306 4.98239C30.7537 4.98239 30.2253 5.20398 29.8384 5.59775C29.223 6.22672 29.0713 7.17446 29.4583 7.96367L27.5475 9.88812C27.1111 10.3262 26.864 10.9211 26.8623 11.5398L26.8588 12.3682H24.6821V6.21813C25.6384 5.88574 26.2162 4.91074 26.0475 3.91186C25.8787 2.91298 25.0128 2.18176 24.0003 2.18176C22.9878 2.18176 22.1219 2.91302 21.9532 3.91186C21.7844 4.91074 22.3622 5.8857 23.3185 6.21813V12.3717H21.1418L21.1384 11.5433C21.1367 10.9229 20.8895 10.328 20.4531 9.88821L18.5424 7.96375C18.9293 7.17455 18.7776 6.22681 18.1622 5.59613C17.7753 5.20239 17.2469 4.98252 16.6946 4.98252C16.1424 4.98081 15.6122 5.20241 15.2253 5.59613C14.4207 6.41432 14.4207 7.72511 15.2253 8.54329C15.6122 8.93534 16.1424 9.1552 16.6929 9.1535C17.0049 9.1518 17.3117 9.0785 17.5895 8.94043L19.4832 10.8478C19.669 11.0336 19.773 11.2842 19.773 11.545L19.7764 12.37L13.8192 12.3717C13.0709 12.3734 12.4658 12.9819 12.4658 13.7302V19.7403L11.6629 19.7369C11.3987 19.7369 11.1465 19.6295 10.9607 19.4403L9.05667 17.521C9.44361 16.73 9.2919 15.7806 8.67656 15.1516C8.28793 14.7596 7.7595 14.538 7.20724 14.5414C6.65498 14.5397 6.12484 14.7613 5.73792 15.155C4.93165 15.9715 4.93165 17.284 5.73792 18.1005C6.12655 18.4925 6.65498 18.7124 7.20724 18.7107C7.51747 18.709 7.826 18.6357 8.10384 18.4976L9.99246 20.4016C10.4322 20.8482 11.0322 21.0988 11.6595 21.0988L12.4675 21.1022V23.3062L6.37191 23.3079C6.03782 22.3448 5.05771 21.7619 4.05373 21.9306C3.04804 22.0994 2.31168 22.9704 2.31168 23.988C2.31168 25.0073 3.04804 25.8783 4.05373 26.0471C5.05771 26.2159 6.03783 25.6329 6.37191 24.6699H12.4657V26.8739L11.6595 26.8773V26.879C11.0322 26.879 10.4322 27.1295 9.99242 27.5762L8.10379 29.4784V29.4801C7.82595 29.3421 7.51741 29.2688 7.2072 29.2671C6.65493 29.2654 6.1265 29.4853 5.73787 29.8773C4.9316 30.6938 4.9316 32.0063 5.73787 32.8227C6.1248 33.2165 6.65493 33.4381 7.2072 33.4364C7.75946 33.4381 8.2896 33.2182 8.67652 32.8227C9.29188 32.1938 9.44526 31.246 9.05834 30.4551L10.9623 28.5358C11.1464 28.3466 11.4004 28.2409 11.6646 28.2409L12.4657 28.2375V34.251C12.4657 34.9976 13.0708 35.6062 13.8192 35.6096H19.7781L19.7747 36.4346C19.773 36.6971 19.669 36.9476 19.485 37.1317L17.5912 39.0391V39.0408C17.3117 38.9028 17.0048 38.8295 16.6946 38.8261C16.1424 38.8244 15.6122 39.046 15.2253 39.4397C14.4207 40.2562 14.4207 41.5687 15.2253 42.3851C15.6122 42.7772 16.1424 42.9987 16.6946 42.997C17.2469 42.997 17.7753 42.7755 18.1622 42.3817C18.7776 41.7527 18.9293 40.805 18.5424 40.0158L20.4532 38.0896C20.8895 37.6498 21.1367 37.0567 21.1384 36.4362L21.1418 35.6078H23.3185V41.7614V41.7597C22.3622 42.0938 21.7861 43.0671 21.9549 44.066C22.1236 45.0648 22.9878 45.7961 24.0003 45.7961C25.0128 45.7961 25.8787 45.0648 26.0475 44.066C26.2162 43.0671 25.6384 42.0938 24.6821 41.7597V35.6061H26.8588L26.8623 36.4345V36.4362C26.864 37.0567 27.1111 37.6515 27.5475 38.0896L29.4583 40.0141V40.0158C29.0713 40.805 29.223 41.7527 29.8384 42.3817C30.2253 42.7754 30.7537 42.997 31.306 42.997C31.8583 42.997 32.3884 42.7772 32.7753 42.3817C33.5799 41.5652 33.5799 40.2544 32.7753 39.4362C32.3884 39.0442 31.8583 38.8243 31.3077 38.826C30.9958 38.8277 30.6889 38.901 30.4111 39.0391L28.5174 37.1317C28.3316 36.9459 28.2276 36.6953 28.2276 36.4345L28.2242 35.6095L34.1814 35.6078C34.9297 35.6061 35.5349 34.9976 35.5349 34.2493V28.2393L36.3377 28.2427C36.6019 28.2427 36.8542 28.3501 37.04 28.5393L38.944 30.4586C38.557 31.2495 38.7087 32.1989 39.3241 32.8279C39.7127 33.2199 40.2411 33.4415 40.7934 33.4381C41.3456 33.4398 41.8758 33.2182 42.2627 32.8245C43.069 32.008 43.069 30.6955 42.2627 29.879C41.8741 29.487 41.3456 29.2671 40.7934 29.2688C40.4832 29.2705 40.1746 29.3438 39.8968 29.4819L38.0082 27.5779C37.5684 27.1313 36.9684 26.8807 36.3411 26.8807L35.5331 26.8773V24.6716H41.6287C41.8895 25.4012 42.5338 25.9262 43.3009 26.0319C44.0696 26.1358 44.8315 25.8052 45.2781 25.171C45.7247 24.5387 45.7809 23.7085 45.423 23.0216C45.0667 22.3347 44.356 21.9017 43.5821 21.9034L43.5804 21.9033ZM40.2924 16.1145C40.4253 15.9798 40.606 15.9031 40.7935 15.9031C40.9827 15.9031 41.1634 15.9781 41.2946 16.1128C41.5758 16.3974 41.5758 16.8542 41.2946 17.1389C41.0116 17.4151 40.5582 17.4099 40.2804 17.127C40.0043 16.844 40.0077 16.3906 40.2923 16.1128L40.2924 16.1145ZM30.8084 6.55201C30.9397 6.41905 31.1204 6.34235 31.3095 6.34235C31.4987 6.34235 31.6794 6.41905 31.8107 6.55201C32.0919 6.83667 32.0919 7.29348 31.8107 7.57816C31.6794 7.71282 31.4987 7.78782 31.3095 7.78782C31.122 7.78782 30.9414 7.71282 30.8101 7.57987C30.5289 7.29521 30.5289 6.8384 30.8084 6.55201ZM17.1926 7.57986C16.913 7.85089 16.4699 7.85089 16.1903 7.57986C15.909 7.29521 15.909 6.8384 16.1903 6.55371C16.3215 6.41905 16.5022 6.34405 16.6914 6.34405C16.8789 6.34405 17.0596 6.41905 17.1908 6.55201C17.4721 6.83666 17.4721 7.29348 17.1926 7.57986ZM7.70864 17.1388C7.57569 17.2735 7.39501 17.3485 7.20752 17.3485C7.01832 17.3485 6.83763 17.2735 6.7064 17.1406C6.42515 16.8559 6.42515 16.3991 6.7064 16.1144C6.83765 15.9797 7.01833 15.9047 7.20752 15.9047C7.39671 15.9047 7.57741 15.9797 7.70864 16.1144C7.98819 16.3991 7.98819 16.8542 7.70864 17.1388ZM4.42055 24.7119C4.12567 24.717 3.85974 24.5432 3.74384 24.2739C3.62794 24.0046 3.68759 23.6909 3.89384 23.4813C4.09839 23.2733 4.41032 23.2085 4.68305 23.321C4.95407 23.4318 5.13133 23.696 5.13133 23.9892C5.13303 24.3846 4.816 24.7085 4.42055 24.7119ZM7.70864 31.8644C7.57569 31.999 7.39501 32.0757 7.20752 32.0757C7.01832 32.0757 6.83763 32.0007 6.7064 31.8661C6.42515 31.5814 6.42515 31.1246 6.7064 30.8399C6.83765 30.707 7.01833 30.6303 7.20752 30.6303C7.39671 30.6303 7.57741 30.707 7.70864 30.8399C7.98989 31.1246 7.98819 31.5814 7.70864 31.8644ZM17.1926 41.4268C16.9096 41.703 16.4562 41.6979 16.1784 41.4149C15.9022 41.132 15.9056 40.6785 16.1903 40.4007C16.3216 40.2661 16.5022 40.1911 16.6914 40.1911C16.8789 40.1911 17.0596 40.2661 17.1908 40.399C17.4721 40.6837 17.4721 41.1405 17.1926 41.4268ZM30.8084 40.399C30.9397 40.266 31.1204 40.191 31.3095 40.191C31.4987 40.191 31.6794 40.266 31.8107 40.399C32.0919 40.6836 32.0919 41.1405 31.8107 41.4251C31.6794 41.5598 31.4987 41.6348 31.3095 41.6348C31.122 41.6365 30.9397 41.5598 30.8084 41.4268C30.5272 41.1422 30.5272 40.6854 30.8084 40.399ZM23.2881 4.25761C23.2932 3.97125 23.4688 3.71386 23.7347 3.60817C24.0006 3.50079 24.3057 3.56385 24.5069 3.7684C24.708 3.97294 24.7677 4.27807 24.6569 4.54225C24.5461 4.80645 24.287 4.98031 24.0006 4.98031C23.6052 4.9752 23.2864 4.65304 23.2881 4.25761ZM24.7131 43.7215C24.708 44.0078 24.5324 44.2652 24.2666 44.3709C24.0006 44.4783 23.6955 44.4152 23.4944 44.2107C23.2933 44.0061 23.2336 43.701 23.3444 43.4368C23.4552 43.1726 23.7143 42.9988 24.0007 42.9988C24.3961 43.0039 24.7148 43.326 24.7131 43.7215ZM27.5478 34.2476H27.5393H27.5359C27.5324 34.2459 27.529 34.2459 27.5273 34.2476H24.0126C24.004 34.2425 23.9955 34.2425 23.987 34.2476H20.4825C20.4756 34.2476 20.4705 34.2442 20.4654 34.2442H20.462C20.4552 34.2442 20.4501 34.2476 20.445 34.2476H13.8314L13.8263 27.5673C13.8263 27.5605 13.8297 27.5553 13.8297 27.5502C13.8297 27.5434 13.8263 27.54 13.8263 27.5332V24.0133C13.8263 24.0048 13.8314 23.9963 13.8314 23.9877C13.8314 23.9792 13.8263 23.9707 13.8263 23.9605V20.4593C13.8263 20.4474 13.8331 20.4372 13.8331 20.4253C13.8331 20.4133 13.8263 20.4014 13.8263 20.3878L13.8195 13.735H34.1719L34.1753 20.4118C34.1753 20.4186 34.1719 20.4237 34.1719 20.4288C34.1719 20.4356 34.1753 20.439 34.1753 20.4458V23.9657C34.1753 23.9743 34.1702 23.9828 34.1702 23.9913C34.1702 23.9998 34.1753 24.0083 34.1753 24.0186V27.5197C34.1753 27.5316 34.1685 27.5418 34.1685 27.5538C34.1685 27.5657 34.1753 27.5776 34.1753 27.5913L34.1822 34.2441L27.5478 34.2476ZM40.2927 30.8402C40.4256 30.7055 40.6063 30.6305 40.7938 30.6305C40.983 30.6305 41.1637 30.7055 41.2949 30.8385C41.5761 31.1231 41.5761 31.5799 41.2949 31.8646C41.0154 32.1356 40.5722 32.1356 40.2926 31.8646C40.0131 31.58 40.0131 31.1249 40.2927 30.8402ZM43.5807 24.7123C43.2876 24.7174 43.0199 24.5453 42.904 24.2743C42.7881 24.0049 42.8461 23.6913 43.0523 23.4834C43.2586 23.2737 43.5705 23.2089 43.8415 23.3197C44.1143 23.4305 44.2915 23.6964 44.2915 23.9896C44.2932 24.3851 43.9762 24.7072 43.5807 24.7123Z" fill="#F545A6"/>
<path d="M24.7114 43.8715H24.7131V43.5715H24.7114V43.8715ZM43.5804 21.9033L43.607 21.6045L43.5932 21.6032L43.5793 21.6033L43.5804 21.9033ZM41.6287 23.3078V23.6078H41.8436L41.9127 23.4045L41.6287 23.3078ZM35.5349 23.3078H35.2349V23.6078H35.5349V23.3078ZM35.5349 21.1039L35.5336 20.8039L35.2349 20.8051V21.1039H35.5349ZM36.3412 21.1005V20.8004L36.3399 20.8005L36.3412 21.1005ZM38.0082 20.4016L37.7953 20.1902L37.7944 20.1911L38.0082 20.4016ZM39.8968 18.4993L40.0303 18.2306L39.8365 18.1343L39.6839 18.2879L39.8968 18.4993ZM40.7934 18.7124L40.7918 19.0124L40.7925 19.0124L40.7934 18.7124ZM42.2627 18.1004L42.4758 18.3117L42.476 18.3115L42.2627 18.1004ZM42.2627 15.155L42.0488 15.3653L42.0493 15.3658L42.2627 15.155ZM40.7934 14.5414L40.7925 14.8414L40.7944 14.8414L40.7934 14.5414ZM39.3241 15.155L39.1101 14.9447L39.1097 14.9452L39.3241 15.155ZM38.944 17.5226L39.157 17.7339L39.3076 17.582L39.2131 17.3901L38.944 17.5226ZM37.04 19.4419L37.2521 19.654L37.253 19.6532L37.04 19.4419ZM37.0383 19.4436L36.8262 19.2315L36.8242 19.2334L37.0383 19.4436ZM36.336 19.7385V19.4385L36.3347 19.4385L36.336 19.7385ZM35.5349 19.7419H35.2349V20.0432L35.5362 20.0419L35.5349 19.7419ZM34.1815 12.3699L34.1828 12.0699H34.1815V12.3699ZM28.2225 12.3699L27.9225 12.3686L27.9212 12.6699H28.2225V12.3699ZM28.2259 11.5449L27.9259 11.5429L27.9259 11.5436L28.2259 11.5449ZM28.5157 10.8477L28.7278 11.0598L28.7286 11.0591L28.5157 10.8477ZM30.4094 8.9403L30.6223 9.15167L30.7094 9.06393V8.9403H30.4094ZM30.4094 8.9386L30.5423 8.66962L30.1094 8.45582V8.9386H30.4094ZM31.306 9.15337L31.3027 9.45336L31.3051 9.45337L31.306 9.15337ZM32.7753 8.53975L32.5616 8.32919L32.5613 8.32948L32.7753 8.53975ZM32.7753 5.5943L32.989 5.38373L32.9888 5.38357L32.7753 5.5943ZM31.306 4.98239V5.28239L31.3069 5.28239L31.306 4.98239ZM29.8384 5.59775L29.6244 5.38748L29.6239 5.38795L29.8384 5.59775ZM29.4583 7.96367L29.6712 8.17504L29.8217 8.02343L29.7276 7.8316L29.4583 7.96367ZM27.5475 9.88812L27.76 10.0998L27.7604 10.0995L27.5475 9.88812ZM26.8623 11.5398L27.1622 11.5411L27.1623 11.5407L26.8623 11.5398ZM26.8588 12.3682V12.6682H27.1576L27.1588 12.3695L26.8588 12.3682ZM24.6821 12.3682H24.3821V12.6682H24.6821V12.3682ZM24.6821 6.21813L24.5836 5.93476L24.3821 6.0048V6.21813H24.6821ZM26.0475 3.91186L26.3433 3.86189V3.86188L26.0475 3.91186ZM21.9532 3.91186L22.249 3.96183V3.96183L21.9532 3.91186ZM23.3185 6.21813H23.6185V6.00481L23.417 5.93476L23.3185 6.21813ZM23.3185 12.3717V12.6717H23.6185V12.3717H23.3185ZM21.1418 12.3717L20.8418 12.373L20.843 12.6717H21.1418V12.3717ZM21.1384 11.5433L20.8384 11.5442L20.8384 11.5446L21.1384 11.5433ZM20.4531 9.88821L20.6661 9.6769L20.666 9.67683L20.4531 9.88821ZM18.5424 7.96375L18.273 7.83169L18.1789 8.02352L18.3295 8.17513L18.5424 7.96375ZM18.1622 5.59613L18.377 5.38663L18.3762 5.38586L18.1622 5.59613ZM16.6946 4.98252L16.6937 5.28252H16.6946V4.98252ZM15.2253 5.59613L15.4392 5.80648L15.4393 5.80641L15.2253 5.59613ZM15.2253 8.54329L15.0114 8.75363L15.0118 8.75402L15.2253 8.54329ZM16.6929 9.1535L16.6938 9.4535L16.6946 9.4535L16.6929 9.1535ZM17.5895 8.94043L17.8024 8.72906L17.6499 8.57544L17.456 8.67178L17.5895 8.94043ZM19.4832 10.8478L19.2704 11.0592L19.2711 11.06L19.4832 10.8478ZM19.773 11.545H19.473L19.473 11.5462L19.773 11.545ZM19.7764 12.37L19.7765 12.67L20.0777 12.6699L20.0764 12.3687L19.7764 12.37ZM13.8192 12.3717L13.8191 12.0717L13.8185 12.0717L13.8192 12.3717ZM12.4658 19.7403L12.4645 20.0403L12.7658 20.0415V19.7403H12.4658ZM11.6629 19.7369L11.6642 19.4369H11.6629V19.7369ZM10.9607 19.4403L11.1747 19.2301L11.1736 19.229L10.9607 19.4403ZM9.05667 17.521L8.7872 17.3891L8.69344 17.5808L8.84369 17.7322L9.05667 17.521ZM8.67656 15.1516L8.89101 14.9418L8.88962 14.9404L8.67656 15.1516ZM7.20724 14.5414L7.20631 14.8414L7.20909 14.8414L7.20724 14.5414ZM5.73792 15.155L5.95138 15.3658L5.95189 15.3653L5.73792 15.155ZM5.73792 18.1005L5.52445 18.3113L5.52486 18.3117L5.73792 18.1005ZM7.20724 18.7107L7.20816 19.0107L7.20889 19.0107L7.20724 18.7107ZM8.10384 18.4976L8.31683 18.2864L8.16429 18.1326L7.97033 18.229L8.10384 18.4976ZM9.99246 20.4016L10.2062 20.1911L10.2055 20.1903L9.99246 20.4016ZM11.6595 21.0988L11.6608 20.7988H11.6595V21.0988ZM12.4675 21.1022H12.7675V20.8035L12.4687 20.8022L12.4675 21.1022ZM12.4675 23.3062L12.4676 23.6062L12.7675 23.6061V23.3062H12.4675ZM6.37191 23.3079L6.08848 23.4062L6.15846 23.608L6.37199 23.6079L6.37191 23.3079ZM4.05373 21.9306L4.10337 22.2265L4.10346 22.2265L4.05373 21.9306ZM4.05373 26.0471L4.10345 25.7513L4.10338 25.7513L4.05373 26.0471ZM6.37191 24.6699V24.3699H6.15844L6.08848 24.5716L6.37191 24.6699ZM12.4657 24.6699H12.7657V24.3699H12.4657V24.6699ZM12.4657 26.8739L12.467 27.1739L12.7657 27.1726V26.8739H12.4657ZM11.6595 26.8773L11.6582 26.5773L11.3595 26.5785V26.8773H11.6595ZM11.6595 26.879V27.179H11.9595V26.879H11.6595ZM9.99242 27.5762L10.2053 27.7875L10.2062 27.7866L9.99242 27.5762ZM8.10379 29.4784L7.8909 29.2671L7.80379 29.3548V29.4784H8.10379ZM8.10379 29.4801L7.97029 29.7488L8.40379 29.9642V29.4801H8.10379ZM7.2072 29.2671L7.20884 28.9671L7.20812 28.9671L7.2072 29.2671ZM5.73787 29.8773L5.52482 29.6661L5.52441 29.6665L5.73787 29.8773ZM5.73787 32.8227L5.95185 32.6125L5.95133 32.6119L5.73787 32.8227ZM7.2072 33.4364L7.20812 33.1363L7.20625 33.1364L7.2072 33.4364ZM8.67652 32.8227L8.89095 33.0325L8.89096 33.0325L8.67652 32.8227ZM9.05834 30.4551L8.84536 30.2438L8.6951 30.3953L8.78886 30.587L9.05834 30.4551ZM10.9623 28.5358L11.1753 28.7471L11.1773 28.745L10.9623 28.5358ZM11.6646 28.2409V28.5409L11.6659 28.5409L11.6646 28.2409ZM12.4657 28.2375H12.7657V27.9362L12.4645 27.9375L12.4657 28.2375ZM13.8192 35.6096L13.8178 35.9096H13.8192V35.6096ZM19.7781 35.6096L20.0781 35.6108L20.0794 35.3096H19.7781V35.6096ZM19.7747 36.4346L20.0747 36.4365L20.0747 36.4358L19.7747 36.4346ZM19.485 37.1317L19.2728 36.9196L19.2721 36.9204L19.485 37.1317ZM17.5912 39.0391L17.3783 38.8278L17.2912 38.9155V39.0391H17.5912ZM17.5912 39.0408L17.4584 39.3098L17.8912 39.5236V39.0408H17.5912ZM16.6946 38.8261L16.6979 38.5261L16.6956 38.5261L16.6946 38.8261ZM15.2253 39.4397L15.439 39.6502L15.4393 39.65L15.2253 39.4397ZM15.2253 42.3851L15.0116 42.5957L15.0118 42.5959L15.2253 42.3851ZM16.6946 42.997V42.697L16.6937 42.697L16.6946 42.997ZM18.1622 42.3817L18.3762 42.5919L18.3767 42.5915L18.1622 42.3817ZM18.5424 40.0158L18.3294 39.8045L18.179 39.9561L18.273 40.1478L18.5424 40.0158ZM20.4532 38.0896L20.2402 37.8783L20.2402 37.8783L20.4532 38.0896ZM21.1384 36.4362L20.8384 36.435L20.8384 36.4354L21.1384 36.4362ZM21.1418 35.6078V35.3078H20.843L20.8418 35.6066L21.1418 35.6078ZM23.3185 35.6078H23.6185V35.3078H23.3185V35.6078ZM23.3185 41.7597H23.6185V41.3371L23.2195 41.4765L23.3185 41.7597ZM21.9549 44.066L21.659 44.1159L21.9549 44.066ZM26.0475 44.066L25.7517 44.016L26.0475 44.066ZM24.6821 41.7597H24.3821V41.9727L24.5832 42.0429L24.6821 41.7597ZM24.6821 35.6061V35.3061H24.3821V35.6061H24.6821ZM26.8588 35.6061L27.1588 35.6049L27.1576 35.3061H26.8588V35.6061ZM26.8623 36.4345H27.1623L27.1623 36.4332L26.8623 36.4345ZM26.8623 36.4362H26.5623L26.5623 36.437L26.8623 36.4362ZM27.5475 38.0896L27.7604 37.8782L27.76 37.8779L27.5475 38.0896ZM29.4583 40.0141H29.7583V39.8904L29.6712 39.8027L29.4583 40.0141ZM29.4583 40.0158L29.7276 40.1478L29.7583 40.0854V40.0158H29.4583ZM29.8384 42.3817L29.6239 42.5915L29.6244 42.592L29.8384 42.3817ZM32.7753 42.3817L32.5616 42.1711L32.5609 42.1719L32.7753 42.3817ZM32.7753 39.4362L32.9892 39.2259L32.9888 39.2255L32.7753 39.4362ZM31.3077 38.826L31.3068 38.526L31.3061 38.526L31.3077 38.826ZM30.4111 39.0391L30.1982 39.2505L30.3507 39.4041L30.5446 39.3077L30.4111 39.0391ZM28.5174 37.1317L28.7303 36.9203L28.7295 36.9196L28.5174 37.1317ZM28.2276 36.4345H28.5276L28.5276 36.4333L28.2276 36.4345ZM28.2242 35.6095L28.2241 35.3095L27.923 35.3096L27.9242 35.6108L28.2242 35.6095ZM34.1814 35.6078L34.1815 35.9078H34.1821L34.1814 35.6078ZM35.5349 28.2393L35.5361 27.9393L35.2349 27.938V28.2393H35.5349ZM36.3377 28.2427L36.3364 28.5427H36.3377V28.2427ZM37.04 28.5393L36.8259 28.7495L36.827 28.7505L37.04 28.5393ZM38.944 30.4586L39.2134 30.5904L39.3072 30.3988L39.1569 30.2473L38.944 30.4586ZM39.3241 32.8279L39.1096 33.0377L39.111 33.0391L39.3241 32.8279ZM40.7934 33.4381L40.7943 33.1381L40.7915 33.1381L40.7934 33.4381ZM42.2627 32.8245L42.0492 32.6137L42.0487 32.6142L42.2627 32.8245ZM42.2627 29.879L42.4762 29.6682L42.4758 29.6678L42.2627 29.879ZM40.7934 29.2688L40.7925 28.9688L40.7917 28.9688L40.7934 29.2688ZM39.8968 29.4819L39.6838 29.6932L39.8363 29.8469L40.0303 29.7505L39.8968 29.4819ZM38.0082 27.5779L37.7944 27.7884L37.7952 27.7892L38.0082 27.5779ZM36.3411 26.8807L36.3399 27.1807H36.3411V26.8807ZM35.5331 26.8773H35.2332V27.1761L35.5319 27.1773L35.5331 26.8773ZM35.5331 24.6716V24.3716H35.2332V24.6716H35.5331ZM41.6287 24.6716L41.9112 24.5706L41.8401 24.3716H41.6287V24.6716ZM43.3009 26.0319L43.2599 26.3291L43.2607 26.3292L43.3009 26.0319ZM45.2781 25.171L45.0331 24.998L45.0328 24.9983L45.2781 25.171ZM45.423 23.0216L45.1567 23.1597L45.1569 23.1602L45.423 23.0216ZM43.5821 21.9034L43.5555 22.2022L43.5691 22.2035L43.5827 22.2034L43.5821 21.9034ZM40.2924 16.1145L39.9924 16.1192L40.0037 16.8338L40.5058 16.3253L40.2924 16.1145ZM41.2946 16.1128L41.0797 16.3222L41.0812 16.3236L41.2946 16.1128ZM41.2946 17.1389L41.5042 17.3537L41.508 17.3498L41.2946 17.1389ZM40.2804 17.127L40.0657 17.3365L40.0663 17.3372L40.2804 17.127ZM40.2923 16.1128L40.5923 16.108L40.5812 15.4116L40.0828 15.8981L40.2923 16.1128ZM30.8084 6.55201L30.5949 6.34125L30.5937 6.34246L30.8084 6.55201ZM31.8107 6.55201L31.5972 6.76275L31.5973 6.76286L31.8107 6.55201ZM31.8107 7.57816L31.5972 7.36732L31.5958 7.36877L31.8107 7.57816ZM30.8101 7.57987L31.0236 7.36912L31.0235 7.36902L30.8101 7.57987ZM17.1926 7.57986L17.4015 7.79534L17.4073 7.78942L17.1926 7.57986ZM16.1903 7.57986L15.9768 7.79076L15.9815 7.79527L16.1903 7.57986ZM16.1903 6.55371L16.4037 6.76456L16.4051 6.76311L16.1903 6.55371ZM17.1908 6.55201L16.9773 6.76276L16.9774 6.76286L17.1908 6.55201ZM7.70864 17.1388L7.92212 17.3496L7.9227 17.349L7.70864 17.1388ZM6.7064 17.1406L6.91991 16.9298L6.91981 16.9297L6.7064 17.1406ZM6.7064 16.1144L6.91982 16.3252L6.92124 16.3238L6.7064 16.1144ZM7.70864 16.1144L7.49379 16.3238L7.4946 16.3246L7.70864 16.1144ZM4.42055 24.7119L4.41797 24.4119L4.41535 24.412L4.42055 24.7119ZM3.74384 24.2739L4.01941 24.1553L4.01941 24.1553L3.74384 24.2739ZM3.89384 23.4813L4.10771 23.6916L4.10772 23.6916L3.89384 23.4813ZM4.68305 23.321L4.56865 23.5984L4.56953 23.5987L4.68305 23.321ZM5.13133 23.9892H4.83132L4.83133 23.9905L5.13133 23.9892ZM7.70864 31.8644L7.49522 31.6535L7.49517 31.6536L7.70864 31.8644ZM6.7064 31.8661L6.92125 31.6567L6.91981 31.6552L6.7064 31.8661ZM6.7064 30.8399L6.91982 31.0508L6.9199 31.0507L6.7064 30.8399ZM7.70864 30.8399L7.49513 31.0507L7.49524 31.0508L7.70864 30.8399ZM17.1926 41.4268L17.4022 41.6416L17.4073 41.6364L17.1926 41.4268ZM16.1784 41.4149L15.9637 41.6244L15.9643 41.6251L16.1784 41.4149ZM16.1903 40.4007L16.3999 40.6155L16.4051 40.6101L16.1903 40.4007ZM17.1908 40.399L16.9773 40.6098L16.9774 40.6099L17.1908 40.399ZM30.8084 40.399L30.5949 40.1882L30.5944 40.1888L30.8084 40.399ZM31.8107 40.399L31.5972 40.6097L31.5973 40.6098L31.8107 40.399ZM31.8107 41.4251L31.5972 41.2143L31.5958 41.2157L31.8107 41.4251ZM31.3095 41.6348V41.3348L31.3068 41.3348L31.3095 41.6348ZM30.8084 41.4268L31.0219 41.2161L31.0218 41.216L30.8084 41.4268ZM23.2881 4.25761L22.9882 4.25225L22.9881 4.25632L23.2881 4.25761ZM23.7347 3.60817L23.8455 3.88696L23.847 3.88634L23.7347 3.60817ZM24.5069 3.7684L24.2929 3.97873L24.2929 3.97874L24.5069 3.7684ZM24.6569 4.54225L24.3802 4.42622L24.3802 4.42623L24.6569 4.54225ZM24.0006 4.98031L23.9967 5.28031H24.0006V4.98031ZM24.7131 43.7215L25.0131 43.7268L25.0131 43.7228L24.7131 43.7215ZM24.2666 44.3709L24.1557 44.0921L24.1542 44.0927L24.2666 44.3709ZM23.4944 44.2107L23.7083 44.0003L23.7083 44.0003L23.4944 44.2107ZM23.3444 43.4368L23.6211 43.5529L23.6211 43.5528L23.3444 43.4368ZM24.0007 42.9988L24.0045 42.6988H24.0007V42.9988ZM27.5478 34.2476V34.5476H27.5479L27.5478 34.2476ZM27.5359 34.2476L27.4017 34.5159L27.465 34.5476H27.5359V34.2476ZM27.5273 34.2476V34.5476H27.6516L27.7394 34.4597L27.5273 34.2476ZM24.0126 34.2476L23.8582 34.5048L23.9295 34.5476H24.0126V34.2476ZM23.987 34.2476V34.5476H24.0701L24.1413 34.5048L23.987 34.2476ZM13.8314 34.2476L13.5314 34.2478L13.5317 34.5476H13.8314V34.2476ZM13.8263 27.5673H13.5263V27.5675L13.8263 27.5673ZM13.8263 20.3878H14.1263V20.3874L13.8263 20.3878ZM13.8195 13.735V13.435H13.5192L13.5195 13.7353L13.8195 13.735ZM34.1719 13.735L34.4719 13.7348L34.4718 13.435H34.1719V13.735ZM34.1753 20.4118H34.4753V20.4116L34.1753 20.4118ZM34.1753 27.5913H33.8753V27.5916L34.1753 27.5913ZM34.1822 34.2441L34.1823 34.5441L34.4825 34.5439L34.4822 34.2438L34.1822 34.2441ZM40.2927 30.8402L40.0792 30.6294L40.0786 30.63L40.2927 30.8402ZM41.2949 30.8385L41.0814 31.0492L41.0815 31.0493L41.2949 30.8385ZM41.2949 31.8646L41.5038 32.0801L41.5083 32.0755L41.2949 31.8646ZM40.2926 31.8646L40.0785 32.0749L40.0838 32.08L40.2926 31.8646ZM43.5807 24.7123L43.5769 24.4123L43.5755 24.4124L43.5807 24.7123ZM42.904 24.2743L43.1799 24.1563L43.1796 24.1557L42.904 24.2743ZM43.0523 23.4834L43.2653 23.6946L43.2662 23.6937L43.0523 23.4834ZM43.8415 23.3197L43.728 23.5974L43.7286 23.5977L43.8415 23.3197ZM44.2915 23.9896H43.9915L43.9915 23.9909L44.2915 23.9896ZM43.5793 21.6033C42.5681 21.6072 41.6705 22.2533 41.3447 23.2112L41.9127 23.4045C42.1562 22.6885 42.8269 22.2062 43.5816 22.2033L43.5793 21.6033ZM41.6287 23.0078H35.5349V23.6078H41.6287V23.0078ZM35.8349 23.3078V21.1039H35.2349V23.3078H35.8349ZM35.5362 21.4039L36.3424 21.4004L36.3399 20.8005L35.5336 20.8039L35.5362 21.4039ZM36.3412 21.4005C37.0491 21.4005 37.726 21.1157 38.222 20.6121L37.7944 20.1911C37.4109 20.5806 36.8878 20.8005 36.3412 20.8005V21.4005ZM38.2211 20.6129L40.1097 18.7107L39.6839 18.2879L37.7953 20.1902L38.2211 20.6129ZM39.7633 18.7679C40.0822 18.9264 40.4358 19.0104 40.7918 19.0124L40.7951 18.4124C40.5306 18.4109 40.2672 18.3483 40.0303 18.2306L39.7633 18.7679ZM40.7925 19.0124C41.4259 19.0143 42.0312 18.7601 42.4758 18.3117L42.0497 17.8892C41.717 18.2248 41.2654 18.4138 40.7944 18.4124L40.7925 19.0124ZM42.476 18.3115C43.3981 17.3797 43.3977 15.8774 42.4762 14.9442L42.0493 15.3658C42.7403 16.0655 42.74 17.1917 42.0495 17.8894L42.476 18.3115ZM42.4767 14.9447C42.0332 14.4934 41.4256 14.2394 40.7925 14.2414L40.7944 14.8414C41.2657 14.8399 41.7184 15.0291 42.0488 15.3653L42.4767 14.9447ZM40.7944 14.2414C40.1612 14.2394 39.5536 14.4934 39.1101 14.9447L39.5381 15.3653C39.8684 15.0291 40.3211 14.8399 40.7925 14.8414L40.7944 14.2414ZM39.1097 14.9452C38.4057 15.6648 38.2298 16.7513 38.6749 17.6551L39.2131 17.3901C38.8809 16.7155 39.0118 15.9032 39.5385 15.3648L39.1097 14.9452ZM38.731 17.3113L36.827 19.2306L37.253 19.6532L39.157 17.7339L38.731 17.3113ZM36.8279 19.2298L36.8262 19.2315L37.2504 19.6558L37.2521 19.654L36.8279 19.2298ZM36.8242 19.2334C36.6963 19.3638 36.5193 19.4385 36.336 19.4385V20.0385C36.6812 20.0385 37.0121 19.8985 37.2524 19.6538L36.8242 19.2334ZM36.3347 19.4385L35.5336 19.4419L35.5362 20.0419L36.3373 20.0385L36.3347 19.4385ZM35.8349 19.7419V13.7284H35.2349V19.7419H35.8349ZM35.8349 13.7284C35.8349 12.8166 35.0963 12.074 34.1828 12.0699L34.1801 12.6699C34.7633 12.6725 35.2349 13.147 35.2349 13.7284H35.8349ZM34.1815 12.0699H28.2225V12.6699H34.1815V12.0699ZM28.5225 12.3711L28.5259 11.5461L27.9259 11.5436L27.9225 12.3686L28.5225 12.3711ZM28.5259 11.5468C28.5271 11.3623 28.6002 11.1875 28.7278 11.0598L28.3035 10.6356C28.063 10.8761 27.9281 11.2025 27.9259 11.5429L28.5259 11.5468ZM28.7286 11.0591L30.6223 9.15167L30.1965 8.72893L28.3028 10.6363L28.7286 11.0591ZM30.7094 8.9403V8.9386H30.1094V8.9403H30.7094ZM30.2766 9.20758C30.5964 9.36554 30.9475 9.44945 31.3027 9.45335L31.3093 8.85339C31.0441 8.85047 30.7815 8.78779 30.5423 8.66962L30.2766 9.20758ZM31.3051 9.45337C31.9382 9.45532 32.5458 9.20133 32.9893 8.75003L32.5613 8.32948C32.231 8.66563 31.7783 8.85483 31.3069 8.85337L31.3051 9.45337ZM32.989 8.75032C33.9087 7.81705 33.9087 6.317 32.989 5.38373L32.5616 5.80487C33.2511 6.50456 33.2511 7.6295 32.5616 8.32919L32.989 8.75032ZM32.9888 5.38357C32.5455 4.93433 31.9381 4.68044 31.3051 4.68239L31.3069 5.28239C31.7784 5.28093 32.2313 5.47017 32.5618 5.80504L32.9888 5.38357ZM31.306 4.68239C30.6733 4.68239 30.0677 4.9363 29.6244 5.38748L30.0524 5.80801C30.3829 5.47166 30.8342 5.28239 31.306 5.28239V4.68239ZM29.6239 5.38795C28.9197 6.10781 28.7461 7.19252 29.1889 8.09573L29.7276 7.8316C29.3966 7.1564 29.5264 6.34563 30.0528 5.80755L29.6239 5.38795ZM29.2454 7.75229L27.3346 9.67674L27.7604 10.0995L29.6712 8.17504L29.2454 7.75229ZM27.3349 9.6764C26.8428 10.1704 26.5642 10.8411 26.5623 11.539L27.1623 11.5407C27.1637 11.0011 27.3794 10.482 27.76 10.0998L27.3349 9.6764ZM26.5623 11.5386L26.5588 12.367L27.1588 12.3695L27.1622 11.5411L26.5623 11.5386ZM26.8588 12.0682H24.6821V12.6682H26.8588V12.0682ZM24.9821 12.3682V6.21813H24.3821V12.3682H24.9821ZM24.7806 6.5015C25.8751 6.12107 26.5364 5.00525 26.3433 3.86189L25.7517 3.96183C25.896 4.81623 25.4017 5.65041 24.5836 5.93476L24.7806 6.5015ZM26.3433 3.86188C26.1501 2.71855 25.1591 1.88176 24.0003 1.88176V2.48176C24.8665 2.48176 25.6073 3.1074 25.7517 3.96183L26.3433 3.86188ZM24.0003 1.88176C22.8415 1.88176 21.8505 2.7186 21.6573 3.86188L22.249 3.96183C22.3933 3.10744 23.1341 2.48176 24.0003 2.48176V1.88176ZM21.6573 3.86188C21.4642 5.00526 22.1256 6.12103 23.22 6.50149L23.417 5.93476C22.5989 5.65038 22.1046 4.81622 22.249 3.96183L21.6573 3.86188ZM23.0185 6.21813V12.3717H23.6185V6.21813H23.0185ZM23.3185 12.0717H21.1418V12.6717H23.3185V12.0717ZM21.4418 12.3705L21.4384 11.5421L20.8384 11.5446L20.8418 12.373L21.4418 12.3705ZM21.4384 11.5425C21.4364 10.8429 21.1578 10.1724 20.6661 9.6769L20.2402 10.0995C20.6212 10.4835 20.8369 11.0029 20.8384 11.5442L21.4384 11.5425ZM20.666 9.67683L18.7552 7.75238L18.3295 8.17513L20.2403 10.0996L20.666 9.67683ZM18.8117 8.09582C19.2546 7.19247 19.0808 6.10799 18.377 5.38663L17.9475 5.80564C18.4744 6.34563 18.604 7.15662 18.273 7.83169L18.8117 8.09582ZM18.3762 5.38586C17.9324 4.93425 17.3267 4.68252 16.6946 4.68252V5.28252C17.1671 5.28252 17.6182 5.47052 17.9483 5.80641L18.3762 5.38586ZM16.6955 4.68252C16.0624 4.68057 15.4548 4.93456 15.0113 5.38586L15.4393 5.80641C15.7696 5.47025 16.2223 5.28106 16.6937 5.28252L16.6955 4.68252ZM15.0114 5.38579C14.092 6.32071 14.092 7.81872 15.0114 8.75363L15.4392 8.33294C14.7494 7.6315 14.7494 6.50792 15.4392 5.80648L15.0114 5.38579ZM15.0118 8.75402C15.4555 9.20361 16.063 9.45545 16.6938 9.4535L16.692 8.8535C16.2217 8.85496 15.769 8.66706 15.4388 8.33255L15.0118 8.75402ZM16.6946 9.4535C17.0524 9.45154 17.4043 9.36747 17.723 9.20909L17.456 8.67178C17.2191 8.78952 16.9573 8.85205 16.6913 8.8535L16.6946 9.4535ZM17.3766 9.1518L19.2704 11.0592L19.6961 10.6365L17.8024 8.72906L17.3766 9.1518ZM19.2711 11.06C19.401 11.1898 19.473 11.3642 19.473 11.545H20.073C20.073 11.2042 19.9371 10.8774 19.6954 10.6357L19.2711 11.06ZM19.473 11.5462L19.4764 12.3712L20.0764 12.3687L20.073 11.5438L19.473 11.5462ZM19.7763 12.07L13.8191 12.0717L13.8193 12.6717L19.7765 12.67L19.7763 12.07ZM13.8185 12.0717C12.9042 12.0738 12.1658 12.8171 12.1658 13.7302H12.7658C12.7658 13.1467 13.2376 12.673 13.8199 12.6717L13.8185 12.0717ZM12.1658 13.7302V19.7403H12.7658V13.7302H12.1658ZM12.467 19.4403L11.6642 19.4369L11.6617 20.0368L12.4645 20.0403L12.467 19.4403ZM11.6629 19.4369C11.4806 19.4369 11.3051 19.3628 11.1747 19.2301L10.7466 19.6505C10.9879 19.8961 11.3169 20.0368 11.6629 20.0368V19.4369ZM11.1736 19.229L9.26966 17.3097L8.84369 17.7322L10.7477 19.6515L11.1736 19.229ZM9.32615 17.6528C9.7687 16.7482 9.59542 15.6619 8.89101 14.9418L8.46212 15.3614C8.98838 15.8994 9.11851 16.7119 8.7872 17.3891L9.32615 17.6528ZM8.88962 14.9404C8.44504 14.4919 7.83949 14.2375 7.20539 14.2414L7.20909 14.8414C7.67951 14.8385 8.13082 15.0272 8.46351 15.3628L8.88962 14.9404ZM7.20817 14.2414C6.57504 14.2395 5.96744 14.4935 5.52394 14.9448L5.95189 15.3653C6.28224 15.0292 6.73492 14.84 7.20631 14.8414L7.20817 14.2414ZM5.52445 14.9442C4.6028 15.8776 4.6028 17.378 5.52445 18.3113L5.95138 17.8897C5.26049 17.1901 5.26049 16.0655 5.95138 15.3658L5.52445 14.9442ZM5.52486 18.3117C5.96991 18.7607 6.57536 19.0127 7.20816 19.0107L7.20632 18.4107C6.73459 18.4122 6.28319 18.2244 5.95097 17.8893L5.52486 18.3117ZM7.20889 19.0107C7.56486 19.0087 7.9185 18.9247 8.23734 18.7663L7.97033 18.229C7.7335 18.3467 7.47007 18.4093 7.20559 18.4107L7.20889 19.0107ZM7.89085 18.7089L9.77947 20.6129L10.2055 20.1903L8.31683 18.2864L7.89085 18.7089ZM9.77871 20.6121C10.275 21.1161 10.9521 21.3988 11.6595 21.3988V20.7988C11.1124 20.7988 10.5894 20.5803 10.2062 20.1911L9.77871 20.6121ZM11.6582 21.3988L12.4662 21.4022L12.4687 20.8022L11.6608 20.7988L11.6582 21.3988ZM12.1675 21.1022V23.3062H12.7675V21.1022H12.1675ZM12.4674 23.0062L6.37182 23.0079L6.37199 23.6079L12.4676 23.6062L12.4674 23.0062ZM6.65534 23.2096C6.27345 22.1087 5.1529 21.4416 4.00399 21.6348L4.10346 22.2265C4.96252 22.0821 5.80219 22.5809 6.08848 23.4062L6.65534 23.2096ZM4.00408 21.6348C2.85394 21.8278 2.01168 22.8238 2.01168 23.988H2.61168C2.61168 23.117 3.24214 22.371 4.10337 22.2265L4.00408 21.6348ZM2.01168 23.988C2.01168 25.1537 2.85379 26.1499 4.00407 26.343L4.10338 25.7513C3.24229 25.6067 2.61168 24.8609 2.61168 23.988H2.01168ZM4.004 26.343C5.1529 26.5361 6.27346 25.869 6.65534 24.7682L6.08848 24.5716C5.8022 25.3968 4.96253 25.8957 4.10345 25.7513L4.004 26.343ZM6.37191 24.9699H12.4657V24.3699H6.37191V24.9699ZM12.1657 24.6699V26.8739H12.7657V24.6699H12.1657ZM12.4645 26.5739L11.6582 26.5773L11.6607 27.1773L12.467 27.1739L12.4645 26.5739ZM11.3595 26.8773V26.879H11.9595V26.8773H11.3595ZM11.6595 26.579C10.9521 26.579 10.275 26.8616 9.77865 27.3657L10.2062 27.7866C10.5894 27.3975 11.1123 27.179 11.6595 27.179V26.579ZM9.77952 27.3648L7.8909 29.2671L8.31669 29.6898L10.2053 27.7875L9.77952 27.3648ZM7.80379 29.4784V29.4801H8.40379V29.4784H7.80379ZM8.2373 29.2115C7.91845 29.053 7.5648 28.969 7.20884 28.9671L7.20555 29.5671C7.47001 29.5685 7.73345 29.6311 7.97029 29.7488L8.2373 29.2115ZM7.20812 28.9671C6.57532 28.9651 5.96986 29.2171 5.52482 29.6661L5.95093 30.0885C6.28314 29.7534 6.73455 29.5656 7.20627 29.5671L7.20812 28.9671ZM5.52441 29.6665C4.60276 30.5998 4.60276 32.1002 5.52441 33.0335L5.95133 32.6119C5.26045 31.9123 5.26045 30.7877 5.95133 30.0881L5.52441 29.6665ZM5.5239 33.033C5.9674 33.4843 6.57499 33.7384 7.20814 33.7364L7.20625 33.1364C6.73488 33.1378 6.28221 32.9486 5.95185 32.6125L5.5239 33.033ZM7.20627 33.7364C7.83884 33.7383 8.44687 33.4864 8.89095 33.0325L8.46209 32.6129C8.13233 32.9499 7.68008 33.1378 7.20812 33.1364L7.20627 33.7364ZM8.89096 33.0325C9.595 32.3129 9.7706 31.2284 9.32782 30.3233L8.78886 30.587C9.11992 31.2637 8.98875 32.0746 8.46208 32.6129L8.89096 33.0325ZM9.27132 30.6664L11.1753 28.7471L10.7493 28.3245L8.84536 30.2438L9.27132 30.6664ZM11.1773 28.745C11.3041 28.6148 11.4801 28.5409 11.6646 28.5409V27.9409C11.3206 27.9409 10.9887 28.0785 10.7473 28.3266L11.1773 28.745ZM11.6659 28.5409L12.467 28.5375L12.4645 27.9375L11.6633 27.9409L11.6659 28.5409ZM12.1657 28.2375V34.251H12.7657V28.2375H12.1657ZM12.1657 34.251C12.1657 35.1628 12.9044 35.9054 13.8178 35.9096L13.8205 35.3096C13.2373 35.3069 12.7657 34.8324 12.7657 34.251H12.1657ZM13.8192 35.9096H19.7781V35.3096H13.8192V35.9096ZM19.4781 35.6083L19.4747 36.4333L20.0747 36.4358L20.0781 35.6108L19.4781 35.6083ZM19.4747 36.4326C19.4735 36.6172 19.4005 36.792 19.2728 36.9196L19.6971 37.3439C19.9376 37.1033 20.0725 36.777 20.0747 36.4365L19.4747 36.4326ZM19.2721 36.9204L17.3783 38.8278L17.8041 39.2505L19.6978 37.3431L19.2721 36.9204ZM17.2912 39.0391V39.0408H17.8912V39.0391H17.2912ZM17.7241 38.7719C17.4042 38.6139 17.0531 38.53 16.6979 38.5261L16.6913 39.126C16.9565 39.129 17.2191 39.1916 17.4584 39.3098L17.7241 38.7719ZM16.6956 38.5261C16.0624 38.5241 15.4548 38.7781 15.0113 39.2294L15.4393 39.65C15.7696 39.3138 16.2223 39.1246 16.6937 39.1261L16.6956 38.5261ZM15.0116 39.2291C14.092 40.1624 14.092 41.6624 15.0116 42.5957L15.439 42.1746C14.7495 41.4749 14.7495 40.3499 15.439 39.6502L15.0116 39.2291ZM15.0118 42.5959C15.4552 43.0451 16.0625 43.299 16.6955 43.297L16.6937 42.697C16.2222 42.6985 15.7693 42.5093 15.4388 42.1744L15.0118 42.5959ZM16.6946 43.297C17.3273 43.297 17.9329 43.0431 18.3762 42.5919L17.9483 42.1714C17.6178 42.5078 17.1664 42.697 16.6946 42.697V43.297ZM18.3767 42.5915C19.081 41.8716 19.2546 40.7869 18.8117 39.8837L18.273 40.1478C18.604 40.823 18.4742 41.6338 17.9478 42.1719L18.3767 42.5915ZM18.7553 40.227L20.6661 38.3009L20.2402 37.8783L18.3294 39.8045L18.7553 40.227ZM20.6661 38.3009C21.1576 37.8055 21.4365 37.1369 21.4384 36.437L20.8384 36.4354C20.8369 36.9764 20.6214 37.4941 20.2402 37.8783L20.6661 38.3009ZM21.4384 36.4374L21.4418 35.609L20.8418 35.6066L20.8384 36.435L21.4384 36.4374ZM21.1418 35.9078H23.3185V35.3078H21.1418V35.9078ZM23.0185 35.6078V41.7614H23.6185V35.6078H23.0185ZM23.6185 41.7614V41.7597H23.0185V41.7614H23.6185ZM23.2195 41.4765C22.1255 41.8587 21.4659 42.9726 21.659 44.1159L22.2507 44.016C22.1063 43.1615 22.599 42.3288 23.4174 42.0429L23.2195 41.4765ZM21.659 44.1159C21.8522 45.259 22.8412 46.0961 24.0003 46.0961V45.4961C23.1344 45.4961 22.3951 44.8707 22.2507 44.016L21.659 44.1159ZM24.0003 46.0961C25.1591 46.0961 26.1501 45.2592 26.3433 44.1159L25.7517 44.016C25.6073 44.8704 24.8665 45.4961 24.0003 45.4961V46.0961ZM26.3433 44.1159C26.5365 42.9722 25.8748 41.8586 24.7811 41.4765L24.5832 42.0429C25.402 42.329 25.8959 43.1619 25.7517 44.016L26.3433 44.1159ZM24.9821 41.7597V35.6061H24.3821V41.7597H24.9821ZM24.6821 35.9061H26.8588V35.3061H24.6821V35.9061ZM26.5588 35.6073L26.5623 36.4357L27.1623 36.4332L27.1588 35.6049L26.5588 35.6073ZM26.5623 36.4345V36.4362H27.1623V36.4345H26.5623ZM26.5623 36.437C26.5642 37.1366 26.8428 37.8072 27.3349 38.3013L27.76 37.8779C27.3795 37.4958 27.1637 36.9767 27.1623 36.4354L26.5623 36.437ZM27.3346 38.301L29.2454 40.2254L29.6712 39.8027L27.7604 37.8782L27.3346 38.301ZM29.1583 40.0141V40.0158H29.7583V40.0141H29.1583ZM29.1889 39.8837C28.7461 40.7869 28.9197 41.8716 29.6239 42.5915L30.0528 42.1719C29.5264 41.6338 29.3966 40.823 29.7276 40.1478L29.1889 39.8837ZM29.6244 42.592C30.0677 43.0431 30.6733 43.297 31.306 43.297V42.697C30.8342 42.697 30.3829 42.5078 30.0524 42.1714L29.6244 42.592ZM31.306 43.297C31.9379 43.297 32.5457 43.0454 32.9898 42.5915L32.5609 42.1719C32.2311 42.5089 31.7786 42.697 31.306 42.697V43.297ZM32.989 42.5923C33.9088 41.6589 33.9085 40.1607 32.9892 39.2259L32.5614 39.6466C33.2513 40.3481 33.251 41.4715 32.5616 42.1711L32.989 42.5923ZM32.9888 39.2255C32.5451 38.7759 31.9376 38.5241 31.3068 38.526L31.3086 39.126C31.7789 39.1246 32.2317 39.3125 32.5618 39.647L32.9888 39.2255ZM31.3061 38.526C30.9482 38.528 30.5963 38.612 30.2776 38.7704L30.5446 39.3077C30.7816 39.19 31.0433 39.1275 31.3093 39.126L31.3061 38.526ZM30.624 38.8277L28.7303 36.9203L28.3045 37.3431L30.1982 39.2505L30.624 38.8277ZM28.7295 36.9196C28.5996 36.7897 28.5276 36.6153 28.5276 36.4345H27.9276C27.9276 36.7754 28.0635 37.1021 28.3052 37.3438L28.7295 36.9196ZM28.5276 36.4333L28.5242 35.6083L27.9242 35.6108L27.9276 36.4358L28.5276 36.4333ZM28.2243 35.9095L34.1815 35.9078L34.1813 35.3078L28.2241 35.3095L28.2243 35.9095ZM34.1821 35.9078C35.0964 35.9057 35.8349 35.1625 35.8349 34.2493H35.2349C35.2349 34.8328 34.763 35.3065 34.1807 35.3078L34.1821 35.9078ZM35.8349 34.2493V28.2393H35.2349V34.2493H35.8349ZM35.5336 28.5393L36.3364 28.5427L36.339 27.9427L35.5361 27.9393L35.5336 28.5393ZM36.3377 28.5427C36.52 28.5427 36.6956 28.6167 36.8259 28.7495L37.254 28.3291C37.0128 28.0834 36.6837 27.9427 36.3377 27.9427V28.5427ZM36.827 28.7505L38.731 30.6698L39.1569 30.2473L37.2529 28.328L36.827 28.7505ZM38.6745 30.3267C38.2319 31.2313 38.4052 32.3177 39.1096 33.0377L39.5385 32.6181C39.0122 32.0802 38.8821 31.2676 39.2134 30.5904L38.6745 30.3267ZM39.111 33.0391C39.5556 33.4876 40.1611 33.742 40.7952 33.7381L40.7915 33.1381C40.3211 33.141 39.8698 32.9523 39.5371 32.6167L39.111 33.0391ZM40.7925 33.7381C41.4256 33.7401 42.0332 33.4861 42.4767 33.0348L42.0487 32.6142C41.7184 32.9504 41.2657 33.1396 40.7943 33.1381L40.7925 33.7381ZM42.4762 33.0353C43.3978 32.102 43.3978 30.6016 42.4762 29.6682L42.0492 30.0898C42.7401 30.7895 42.7401 31.9141 42.0492 32.6137L42.4762 33.0353ZM42.4758 29.6678C42.0307 29.2189 41.4253 28.9669 40.7925 28.9688L40.7943 29.5688C41.266 29.5674 41.7174 29.7551 42.0497 30.0902L42.4758 29.6678ZM40.7917 28.9688C40.4358 28.9708 40.0821 29.0548 39.7633 29.2132L40.0303 29.7505C40.2671 29.6329 40.5306 29.5703 40.795 29.5688L40.7917 28.9688ZM40.1098 29.2706L38.2212 27.3666L37.7952 27.7892L39.6838 29.6932L40.1098 29.2706ZM38.2219 27.3674C37.7256 26.8634 37.0485 26.5807 36.3411 26.5807V27.1807C36.8883 27.1807 37.4112 27.3993 37.7944 27.7884L38.2219 27.3674ZM36.3424 26.5807L35.5344 26.5773L35.5319 27.1773L36.3399 27.1807L36.3424 26.5807ZM35.8331 26.8773V24.6716H35.2332V26.8773H35.8331ZM35.5331 24.9716H41.6287V24.3716H35.5331V24.9716ZM41.3462 24.7726C41.6445 25.6071 42.3817 26.208 43.2599 26.3291L43.3418 25.7347C42.686 25.6443 42.1345 25.1953 41.9112 24.5706L41.3462 24.7726ZM43.2607 26.3292C44.1398 26.4481 45.0121 26.0699 45.5234 25.3438L45.0328 24.9983C44.651 25.5405 43.9994 25.8236 43.3411 25.7346L43.2607 26.3292ZM45.5232 25.3441C46.0345 24.62 46.0989 23.6696 45.689 22.883L45.1569 23.1602C45.4629 23.7475 45.4149 24.4573 45.0331 24.998L45.5232 25.3441ZM45.6893 22.8835C45.2816 22.0974 44.4681 21.6015 43.5814 21.6034L43.5827 22.2034C44.2438 22.202 44.8519 22.572 45.1567 23.1597L45.6893 22.8835ZM43.6087 21.6046L43.607 21.6045L43.5538 22.2021L43.5555 22.2022L43.6087 21.6046ZM40.5058 16.3253C40.5836 16.2465 40.6879 16.2031 40.7935 16.2031V15.6031C40.5241 15.6031 40.267 15.7132 40.0789 15.9037L40.5058 16.3253ZM40.7935 16.2031C40.9034 16.2031 41.0061 16.2466 41.0797 16.3222L41.5094 15.9034C41.3206 15.7097 41.062 15.6031 40.7935 15.6031V16.2031ZM41.0812 16.3236C41.247 16.4914 41.247 16.7603 41.0812 16.9281L41.508 17.3498C41.9047 16.9482 41.9047 16.3034 41.508 15.9019L41.0812 16.3236ZM41.0851 16.9242C40.9208 17.0845 40.6568 17.0822 40.4945 16.9168L40.0663 17.3372C40.4596 17.7377 41.1025 17.7456 41.5041 17.3536L41.0851 16.9242ZM40.4951 16.9175C40.334 16.7524 40.3365 16.4889 40.5019 16.3275L40.0828 15.8981C39.6789 16.2923 39.6745 16.9357 40.0657 17.3365L40.4951 16.9175ZM39.9924 16.1176L39.9924 16.1192L40.5923 16.1097L40.5923 16.108L39.9924 16.1176ZM31.0219 6.76277C31.0973 6.68638 31.2013 6.64235 31.3095 6.64235V6.04235C31.0394 6.04235 30.782 6.15172 30.5949 6.34125L31.0219 6.76277ZM31.3095 6.64235C31.4178 6.64235 31.5218 6.68639 31.5972 6.76275L32.0242 6.34127C31.8371 6.15172 31.5797 6.04235 31.3095 6.04235V6.64235ZM31.5973 6.76286C31.763 6.93065 31.7631 7.19949 31.5972 7.36732L32.0241 7.789C32.4208 7.38747 32.4208 6.74268 32.0241 6.34116L31.5973 6.76286ZM31.5958 7.36877C31.5221 7.44438 31.4194 7.48782 31.3095 7.48782V8.08782C31.5781 8.08782 31.8367 7.98126 32.0255 7.78756L31.5958 7.36877ZM31.3095 7.48782C31.2016 7.48782 31.098 7.44445 31.0236 7.36912L30.5966 7.79062C30.7847 7.98119 31.0425 8.08782 31.3095 8.08782V7.48782ZM31.0235 7.36902C30.858 7.20147 30.8571 6.93166 31.0231 6.76156L30.5937 6.34246C30.2007 6.74513 30.1998 7.38896 30.5967 7.79072L31.0235 7.36902ZM16.9837 7.36447C16.8206 7.52268 16.5623 7.52269 16.3991 7.36446L15.9815 7.79527C16.3774 8.17908 17.0055 8.17909 17.4014 7.79526L16.9837 7.36447ZM16.4037 7.36901C16.2379 7.20122 16.2379 6.93239 16.4037 6.76455L15.9769 6.34287C15.5802 6.74441 15.5802 7.38919 15.9769 7.79072L16.4037 7.36901ZM16.4051 6.76311C16.4788 6.68749 16.5815 6.64405 16.6914 6.64405V6.04405C16.4229 6.04405 16.1643 6.15061 15.9755 6.34432L16.4051 6.76311ZM16.6914 6.64405C16.7994 6.64405 16.903 6.68743 16.9773 6.76276L17.4043 6.34126C17.2162 6.15068 16.9584 6.04405 16.6914 6.04405V6.64405ZM16.9774 6.76286C17.143 6.93043 17.1439 7.20024 16.9779 7.37031L17.4073 7.78942C17.8003 7.38672 17.8012 6.7429 17.4042 6.34116L16.9774 6.76286ZM7.49517 16.9281C7.41869 17.0055 7.31494 17.0485 7.20752 17.0485V17.6485C7.47507 17.6485 7.73268 17.5415 7.92212 17.3496L7.49517 16.9281ZM7.20752 17.0485C7.09744 17.0485 6.99399 17.0049 6.91991 16.9298L6.49289 17.3513C6.68128 17.5422 6.9392 17.6485 7.20752 17.6485V17.0485ZM6.91981 16.9297C6.75402 16.7619 6.75401 16.4931 6.91982 16.3252L6.49299 15.9036C6.0963 16.3051 6.09628 16.9499 6.493 17.3514L6.91981 16.9297ZM6.92124 16.3238C6.99493 16.2482 7.09766 16.2047 7.20752 16.2047V15.6047C6.939 15.6047 6.68037 15.7113 6.49157 15.905L6.92124 16.3238ZM7.20752 16.2047C7.31739 16.2047 7.42013 16.2482 7.49379 16.3238L7.92349 15.905C7.73469 15.7113 7.47603 15.6047 7.20752 15.6047V16.2047ZM7.4946 16.3246C7.65953 16.4926 7.65955 16.7607 7.49459 16.9287L7.9227 17.349C8.31683 16.9477 8.31685 16.3056 7.92269 15.9042L7.4946 16.3246ZM4.41535 24.412C4.24327 24.415 4.08761 24.3138 4.01941 24.1553L3.46828 24.3925C3.63187 24.7726 4.00807 25.0191 4.42576 25.0119L4.41535 24.412ZM4.01941 24.1553C3.95207 23.9988 3.98632 23.815 4.10771 23.6916L3.67997 23.2709C3.38886 23.5668 3.3038 24.0103 3.46828 24.3925L4.01941 24.1553ZM4.10772 23.6916C4.22677 23.5706 4.40893 23.5325 4.56865 23.5984L4.79745 23.0437C4.41171 22.8846 3.97 22.976 3.67996 23.2709L4.10772 23.6916ZM4.56953 23.5987C4.72758 23.6633 4.83133 23.8177 4.83133 23.9892H5.43133C5.43133 23.5744 5.18057 23.2003 4.79657 23.0433L4.56953 23.5987ZM4.83133 23.9905C4.83233 24.2222 4.64677 24.41 4.41797 24.4119L4.42314 25.0119C4.98524 25.0071 5.43373 24.5471 5.43132 23.9879L4.83133 23.9905ZM7.49517 31.6536C7.41739 31.7324 7.3131 31.7757 7.20752 31.7757V32.3757C7.47691 32.3757 7.73398 32.2657 7.92212 32.0752L7.49517 31.6536ZM7.20752 31.7757C7.09764 31.7757 6.99492 31.7323 6.92125 31.6567L6.49155 32.0755C6.68035 32.2692 6.939 32.3757 7.20752 32.3757V31.7757ZM6.91981 31.6552C6.75402 31.4874 6.75401 31.2186 6.91982 31.0508L6.49299 30.6291C6.0963 31.0306 6.09628 31.6754 6.493 32.0769L6.91981 31.6552ZM6.9199 31.0507C6.9953 30.9743 7.09931 30.9303 7.20752 30.9303V30.3303C6.93736 30.3303 6.68 30.4396 6.4929 30.6292L6.9199 31.0507ZM7.20752 30.9303C7.31575 30.9303 7.41976 30.9743 7.49513 31.0507L7.92215 30.6292C7.73506 30.4396 7.47768 30.3303 7.20752 30.3303V30.9303ZM7.49524 31.0508C7.66056 31.2181 7.65979 31.4869 7.49522 31.6535L7.92207 32.0752C8.31658 31.6758 8.31922 31.0311 7.92205 30.6291L7.49524 31.0508ZM16.983 41.2121C16.8188 41.3724 16.5548 41.3701 16.3924 41.2047L15.9643 41.6251C16.3576 42.0256 17.0004 42.0335 17.4021 41.6415L16.983 41.2121ZM16.3931 41.2054C16.232 41.0403 16.2344 40.7768 16.3998 40.6154L15.9808 40.186C15.5768 40.5803 15.5725 41.2236 15.9637 41.6244L16.3931 41.2054ZM16.4051 40.6101C16.4788 40.5345 16.5816 40.4911 16.6914 40.4911V39.8911C16.4229 39.8911 16.1643 39.9976 15.9755 40.1913L16.4051 40.6101ZM16.6914 40.4911C16.7994 40.4911 16.903 40.5344 16.9773 40.6098L17.4043 40.1883C17.2162 39.9977 16.9584 39.8911 16.6914 39.8911V40.4911ZM16.9774 40.6099C17.143 40.7774 17.1439 41.0472 16.9779 41.2173L17.4073 41.6364C17.8003 41.2337 17.8012 40.5899 17.4042 40.1882L16.9774 40.6099ZM31.0219 40.6097C31.096 40.5347 31.1995 40.491 31.3095 40.491V39.891C31.0412 39.891 30.7833 39.9974 30.5949 40.1882L31.0219 40.6097ZM31.3095 40.491C31.4196 40.491 31.5231 40.5347 31.5972 40.6097L32.0242 40.1882C31.8358 39.9974 31.5779 39.891 31.3095 39.891V40.491ZM31.5973 40.6098C31.763 40.7776 31.7631 41.0465 31.5972 41.2143L32.0241 41.636C32.4208 41.2344 32.4208 40.5897 32.0241 40.1881L31.5973 40.6098ZM31.5958 41.2157C31.5221 41.2914 31.4194 41.3348 31.3095 41.3348V41.9348C31.5781 41.9348 31.8367 41.8282 32.0255 41.6345L31.5958 41.2157ZM31.3068 41.3348C31.2019 41.3358 31.0971 41.2923 31.0219 41.2161L30.5949 41.6376C30.7822 41.8273 31.0422 41.9372 31.3123 41.9348L31.3068 41.3348ZM31.0218 41.216C30.8564 41.0486 30.8555 40.7792 31.0225 40.6092L30.5944 40.1888C30.1989 40.5915 30.198 41.2358 30.595 41.6377L31.0218 41.216ZM23.5881 4.26297C23.5911 4.09569 23.6937 3.94728 23.8455 3.88695L23.6239 3.32939C23.2439 3.48043 22.9954 3.84681 22.9882 4.25225L23.5881 4.26297ZM23.847 3.88634C24.0008 3.82426 24.1771 3.86089 24.2929 3.97873L24.7208 3.55807C24.4344 3.26682 24.0005 3.17731 23.6224 3.33L23.847 3.88634ZM24.2929 3.97874C24.41 4.09776 24.4439 4.27442 24.3802 4.42622L24.9335 4.65828C25.0914 4.28173 25.006 3.84813 24.7208 3.55806L24.2929 3.97874ZM24.3802 4.42623C24.3157 4.58005 24.1649 4.68031 24.0006 4.68031V5.28031C24.409 5.28031 24.7764 5.03285 24.9335 4.65827L24.3802 4.42623ZM24.0045 4.68034C23.7725 4.67734 23.5871 4.48851 23.5881 4.2589L22.9881 4.25632C22.9857 4.81757 23.4378 5.27306 23.9967 5.28029L24.0045 4.68034ZM24.4132 43.7161C24.4102 43.8834 24.3075 44.0318 24.1557 44.0921L24.3774 44.6497C24.7574 44.4986 25.0058 44.1323 25.0131 43.7268L24.4132 43.7161ZM24.1542 44.0927C24.0005 44.1548 23.8242 44.1182 23.7083 44.0003L23.2805 44.421C23.5669 44.7123 24.0008 44.8018 24.3789 44.6491L24.1542 44.0927ZM23.7083 44.0003C23.5913 43.8813 23.5574 43.7047 23.6211 43.5529L23.0678 43.3208C22.9098 43.6973 22.9953 44.1309 23.2805 44.421L23.7083 44.0003ZM23.6211 43.5528C23.6856 43.399 23.8363 43.2988 24.0007 43.2988V42.6988C23.5923 42.6988 23.2248 42.9462 23.0677 43.3208L23.6211 43.5528ZM23.9968 43.2987C24.2287 43.3017 24.4141 43.4906 24.4131 43.7202L25.0131 43.7228C25.0155 43.1615 24.5635 42.706 24.0045 42.6988L23.9968 43.2987ZM27.5478 33.9476H27.5393V34.5476H27.5478V33.9476ZM27.5393 33.9476H27.5359V34.5476H27.5393V33.9476ZM27.67 33.9792C27.6346 33.9615 27.5872 33.9463 27.531 33.9463C27.4767 33.9463 27.3888 33.9618 27.3152 34.0354L27.7394 34.4597C27.6675 34.5316 27.5822 34.5463 27.531 34.5463C27.4777 34.5463 27.4337 34.5319 27.4017 34.5159L27.67 33.9792ZM27.5273 33.9476H24.0126V34.5476H27.5273V33.9476ZM24.1669 33.9903C24.1239 33.9645 24.0669 33.9437 23.9998 33.9437C23.9327 33.9437 23.8757 33.9645 23.8326 33.9903L24.1413 34.5048C24.1068 34.5255 24.0584 34.5437 23.9998 34.5437C23.9412 34.5437 23.8927 34.5255 23.8582 34.5048L24.1669 33.9903ZM23.987 33.9476H20.4825V34.5476H23.987V33.9476ZM20.4825 33.9476C20.506 33.9476 20.5256 33.9506 20.5394 33.9535C20.5462 33.9549 20.5517 33.9563 20.5553 33.9573C20.5588 33.9583 20.5613 33.9591 20.5615 33.9591C20.5615 33.9591 20.5615 33.9591 20.5614 33.9591C20.5613 33.9591 20.5609 33.959 20.5606 33.9589C20.56 33.9587 20.5586 33.9582 20.557 33.9578C20.5539 33.9568 20.548 33.9551 20.5406 33.9533C20.5331 33.9515 20.5228 33.9492 20.5104 33.9474C20.4979 33.9456 20.4827 33.9442 20.4654 33.9442V34.5442C20.4494 34.5442 20.4355 34.5428 20.4243 34.5412C20.4132 34.5396 20.4042 34.5376 20.398 34.5361C20.3919 34.5346 20.3873 34.5333 20.3855 34.5327C20.385 34.5326 20.3846 34.5325 20.3843 34.5324C20.3841 34.5323 20.3839 34.5322 20.3839 34.5322C20.3839 34.5322 20.3839 34.5322 20.384 34.5323C20.384 34.5323 20.3841 34.5323 20.3842 34.5323C20.3844 34.5324 20.3847 34.5325 20.3851 34.5326C20.3866 34.5331 20.3906 34.5343 20.3955 34.5357C20.4006 34.5371 20.4076 34.5389 20.4159 34.5406C20.4328 34.5442 20.4555 34.5476 20.4825 34.5476V33.9476ZM20.4654 33.9442H20.462V34.5442H20.4654V33.9442ZM20.462 33.9442C20.435 33.9442 20.4123 33.9476 20.3954 33.9511C20.3871 33.9529 20.3802 33.9547 20.3751 33.9561C20.3701 33.9574 20.3662 33.9587 20.3647 33.9591C20.3643 33.9592 20.3639 33.9594 20.3637 33.9594C20.3636 33.9594 20.3636 33.9595 20.3635 33.9595C20.3635 33.9595 20.3634 33.9595 20.3635 33.9595C20.3635 33.9595 20.3636 33.9594 20.3639 33.9594C20.3641 33.9593 20.3645 33.9592 20.3651 33.959C20.3668 33.9585 20.3714 33.9571 20.3775 33.9556C20.3837 33.9541 20.3927 33.9521 20.4038 33.9505C20.415 33.9489 20.429 33.9476 20.445 33.9476V34.5476C20.4622 34.5476 20.4774 34.5461 20.4899 34.5443C20.5023 34.5425 20.5126 34.5403 20.5201 34.5384C20.5275 34.5366 20.5334 34.5349 20.5365 34.534C20.5382 34.5335 20.5395 34.5331 20.5402 34.5329C20.5405 34.5328 20.5408 34.5327 20.5409 34.5326C20.5411 34.5326 20.5411 34.5326 20.541 34.5326C20.5409 34.5327 20.5383 34.5334 20.5349 34.5344C20.5312 34.5354 20.5257 34.5368 20.5189 34.5383C20.5051 34.5412 20.4856 34.5442 20.462 34.5442V33.9442ZM20.445 33.9476H13.8314V34.5476H20.445V33.9476ZM14.1314 34.2473L14.1263 27.5671L13.5263 27.5675L13.5314 34.2478L14.1314 34.2473ZM14.1263 27.5673C14.1263 27.5909 14.1233 27.6104 14.1204 27.6242C14.119 27.631 14.1176 27.6365 14.1166 27.6402C14.1156 27.6437 14.1148 27.6462 14.1148 27.6463C14.1147 27.6464 14.1147 27.6464 14.1148 27.6462C14.1148 27.6462 14.1149 27.6458 14.115 27.6455C14.1152 27.6448 14.1156 27.6435 14.1161 27.6419C14.117 27.6388 14.1188 27.6328 14.1206 27.6254C14.1224 27.6179 14.1247 27.6076 14.1265 27.5952C14.1283 27.5827 14.1297 27.5675 14.1297 27.5502H13.5297C13.5297 27.5342 13.5311 27.5203 13.5327 27.5091C13.5343 27.498 13.5363 27.4889 13.5378 27.4828C13.5393 27.4767 13.5406 27.4721 13.5412 27.4703C13.5413 27.4698 13.5414 27.4694 13.5415 27.4691C13.5416 27.4689 13.5417 27.4687 13.5417 27.4687C13.5417 27.4687 13.5417 27.4687 13.5416 27.4687C13.5416 27.4688 13.5416 27.4688 13.5416 27.469C13.5415 27.4691 13.5414 27.4695 13.5413 27.4699C13.5408 27.4714 13.5396 27.4754 13.5382 27.4803C13.5368 27.4854 13.535 27.4924 13.5333 27.5007C13.5297 27.5175 13.5263 27.5403 13.5263 27.5673H14.1263ZM14.1297 27.5502C14.1297 27.5367 14.1289 27.5237 14.1273 27.5113C14.1258 27.4988 14.1237 27.4877 14.1215 27.4782C14.1193 27.4688 14.1171 27.4611 14.1155 27.4558C14.114 27.4511 14.1127 27.4469 14.1126 27.4468C14.1122 27.4457 14.1132 27.4485 14.1143 27.452C14.1155 27.4559 14.1173 27.4623 14.1192 27.4703C14.1211 27.4785 14.1229 27.4881 14.1242 27.499C14.1256 27.51 14.1263 27.5214 14.1263 27.5332H13.5263C13.5263 27.5467 13.5272 27.5597 13.5287 27.5722C13.5302 27.5846 13.5323 27.5957 13.5345 27.6052C13.5367 27.6146 13.5389 27.6223 13.5405 27.6276C13.542 27.6324 13.5434 27.6365 13.5434 27.6366C13.5438 27.6378 13.5428 27.6349 13.5418 27.6315C13.5406 27.6275 13.5387 27.6211 13.5369 27.6131C13.535 27.6049 13.5332 27.5953 13.5318 27.5844C13.5305 27.5734 13.5297 27.562 13.5297 27.5502H14.1297ZM14.1263 27.5332V24.0133H13.5263V27.5332H14.1263ZM14.1263 24.0133C14.1263 24.0406 14.1223 24.0618 14.1198 24.0728C14.1185 24.0785 14.1173 24.0828 14.1167 24.0849C14.1162 24.0868 14.1158 24.0882 14.1162 24.0867C14.1164 24.0861 14.1175 24.0825 14.1186 24.0786C14.1198 24.0743 14.1215 24.0678 14.1233 24.06C14.1267 24.0447 14.1314 24.0193 14.1314 23.9877H13.5314C13.5314 23.9604 13.5355 23.9393 13.538 23.9283C13.5392 23.9226 13.5404 23.9182 13.541 23.9161C13.5415 23.9142 13.542 23.9128 13.5415 23.9143C13.5413 23.915 13.5403 23.9185 13.5391 23.9225C13.5379 23.9267 13.5362 23.9332 13.5344 23.9411C13.531 23.9563 13.5263 23.9817 13.5263 24.0133H14.1263ZM14.1314 23.9877C14.1314 23.9562 14.1267 23.9308 14.1235 23.9162C14.1218 23.9087 14.1202 23.9026 14.1192 23.8989C14.1187 23.897 14.1182 23.8954 14.1179 23.8943C14.1178 23.8938 14.1176 23.8933 14.1175 23.893C14.1174 23.8926 14.1174 23.8925 14.1173 23.8923C14.1171 23.8915 14.1176 23.8932 14.1182 23.8956C14.1189 23.8982 14.12 23.9027 14.1212 23.9084C14.1235 23.9199 14.1263 23.938 14.1263 23.9605H13.5263C13.5263 23.9881 13.5298 24.0111 13.5331 24.0273C13.5347 24.0354 13.5364 24.0422 13.5377 24.0471C13.5389 24.0518 13.54 24.0557 13.5404 24.0572C13.5411 24.0596 13.5407 24.0583 13.5404 24.0572C13.54 24.0557 13.539 24.0517 13.5378 24.0464C13.5355 24.0361 13.5314 24.0151 13.5314 23.9877H14.1314ZM14.1263 23.9605V20.4593H13.5263V23.9605H14.1263ZM14.1263 20.4593C14.1263 20.485 14.1226 20.5052 14.12 20.5169C14.1187 20.5227 14.1174 20.5271 14.1168 20.5292C14.1163 20.531 14.1159 20.5324 14.1165 20.5305C14.1167 20.5296 14.118 20.5255 14.1193 20.5209C14.1207 20.516 14.1227 20.5088 14.1247 20.5002C14.1286 20.4828 14.1331 20.4568 14.1331 20.4253H13.5331C13.5331 20.3996 13.5368 20.3794 13.5395 20.3677C13.5408 20.3619 13.542 20.3575 13.5426 20.3554C13.5431 20.3536 13.5436 20.3522 13.543 20.3541C13.5427 20.355 13.5414 20.3591 13.5401 20.3637C13.5387 20.3686 13.5367 20.3758 13.5348 20.3844C13.5309 20.4018 13.5263 20.4278 13.5263 20.4593H14.1263ZM14.1331 20.4253C14.1331 20.3942 14.1287 20.3691 14.1255 20.354C14.1239 20.3462 14.1222 20.3397 14.1211 20.3356C14.1201 20.3318 14.1191 20.3279 14.1189 20.3274C14.118 20.3239 14.1199 20.3304 14.1217 20.3393C14.1236 20.3493 14.1263 20.3662 14.1263 20.3878H13.5263C13.5263 20.4161 13.5299 20.4397 13.5331 20.4561C13.5362 20.4714 13.5398 20.4843 13.5405 20.4869C13.5412 20.4895 13.541 20.4887 13.5408 20.4879C13.5405 20.4868 13.5396 20.4834 13.5386 20.4786C13.5367 20.4695 13.5331 20.4503 13.5331 20.4253H14.1331ZM14.1263 20.3874L14.1195 13.7346L13.5195 13.7353L13.5263 20.3881L14.1263 20.3874ZM13.8195 14.035H34.1719V13.435H13.8195V14.035ZM33.8719 13.7351L33.8753 20.4119L34.4753 20.4116L34.4719 13.7348L33.8719 13.7351ZM33.8753 20.4118C33.8753 20.3882 33.8783 20.3686 33.8813 20.3548C33.8827 20.348 33.8841 20.3425 33.8851 20.3388C33.8861 20.3353 33.8869 20.3328 33.8869 20.3327C33.8869 20.3326 33.8869 20.3326 33.8869 20.3327C33.8869 20.3328 33.8868 20.3332 33.8867 20.3335C33.8865 20.3342 33.886 20.3355 33.8856 20.3371C33.8846 20.3402 33.8829 20.3462 33.8811 20.3536C33.8792 20.3611 33.877 20.3714 33.8752 20.3838C33.8734 20.3963 33.8719 20.4115 33.8719 20.4288H34.4719C34.4719 20.4448 34.4706 20.4587 34.469 20.47C34.4674 20.4811 34.4654 20.4901 34.4639 20.4963C34.4624 20.5024 34.461 20.507 34.4605 20.5088C34.4603 20.5093 34.4602 20.5097 34.4601 20.51C34.46 20.5102 34.46 20.5104 34.46 20.5104C34.46 20.5104 34.46 20.5104 34.46 20.5103C34.46 20.5103 34.46 20.5102 34.4601 20.5101C34.4601 20.5099 34.4602 20.5096 34.4604 20.5092C34.4608 20.5077 34.462 20.5037 34.4634 20.4988C34.4648 20.4937 34.4666 20.4867 34.4684 20.4784C34.4719 20.4615 34.4753 20.4388 34.4753 20.4118H33.8753ZM33.8719 20.4288C33.8719 20.4423 33.8728 20.4553 33.8743 20.4678C33.8758 20.4802 33.878 20.4913 33.8802 20.5009C33.8823 20.5103 33.8846 20.518 33.8862 20.5232C33.8876 20.528 33.889 20.5321 33.889 20.5322C33.8894 20.5334 33.8885 20.5306 33.8874 20.5271C33.8862 20.5231 33.8844 20.5168 33.8825 20.5087C33.8806 20.5006 33.8788 20.4909 33.8774 20.48C33.8761 20.4691 33.8753 20.4576 33.8753 20.4458H34.4753C34.4753 20.4323 34.4745 20.4193 34.473 20.4069C34.4714 20.3944 34.4693 20.3833 34.4671 20.3738C34.465 20.3644 34.4627 20.3567 34.4611 20.3514C34.4597 20.3466 34.4583 20.3425 34.4582 20.3424C34.4578 20.3412 34.4588 20.3441 34.4599 20.3476C34.4611 20.3515 34.4629 20.3579 34.4648 20.3659C34.4667 20.3741 34.4685 20.3837 34.4698 20.3946C34.4712 20.4056 34.4719 20.417 34.4719 20.4288H33.8719ZM33.8753 20.4458V23.9657H34.4753V20.4458H33.8753ZM33.8753 23.9657C33.8753 23.9384 33.8794 23.9172 33.8819 23.9062C33.8832 23.9005 33.8843 23.8962 33.8849 23.8941C33.8855 23.8922 33.8859 23.8908 33.8854 23.8923C33.8853 23.8929 33.8842 23.8965 33.8831 23.9005C33.8819 23.9047 33.8801 23.9112 33.8784 23.919C33.8749 23.9343 33.8702 23.9597 33.8702 23.9913H34.4702C34.4702 24.0186 34.4662 24.0398 34.4637 24.0508C34.4624 24.0565 34.4612 24.0609 34.4606 24.063C34.4601 24.0648 34.4597 24.0662 34.4601 24.0647C34.4603 24.0641 34.4614 24.0606 34.4625 24.0566C34.4637 24.0523 34.4655 24.0459 34.4672 24.038C34.4707 24.0227 34.4753 23.9973 34.4753 23.9657H33.8753ZM33.8702 23.9913C33.8702 24.0229 33.8749 24.0482 33.8782 24.0628C33.8798 24.0703 33.8815 24.0765 33.8825 24.0802C33.883 24.0821 33.8835 24.0837 33.8838 24.0847C33.8839 24.0853 33.884 24.0857 33.8841 24.086C33.8843 24.0864 33.8843 24.0866 33.8843 24.0867C33.8846 24.0875 33.8841 24.0859 33.8834 24.0834C33.8828 24.0809 33.8817 24.0764 33.8805 24.0707C33.8782 24.0592 33.8753 24.0411 33.8753 24.0186H34.4753C34.4753 23.991 34.4719 23.9679 34.4686 23.9517C34.467 23.9436 34.4653 23.9368 34.464 23.9319C34.4628 23.9272 34.4617 23.9233 34.4612 23.9219C34.4605 23.9194 34.4609 23.9208 34.4612 23.9218C34.4616 23.9233 34.4627 23.9273 34.4639 23.9326C34.4662 23.9429 34.4702 23.964 34.4702 23.9913H33.8702ZM33.8753 24.0186V27.5197H34.4753V24.0186H33.8753ZM33.8753 27.5197C33.8753 27.4941 33.879 27.4739 33.8817 27.4621C33.883 27.4563 33.8842 27.4519 33.8848 27.4498C33.8854 27.448 33.8858 27.4467 33.8852 27.4485C33.8849 27.4494 33.8836 27.4535 33.8823 27.4581C33.8809 27.463 33.879 27.4702 33.877 27.4788C33.8731 27.4962 33.8685 27.5222 33.8685 27.5538H34.4685C34.4685 27.5794 34.4648 27.5996 34.4622 27.6114C34.4609 27.6172 34.4596 27.6216 34.459 27.6237C34.4585 27.6255 34.4581 27.6268 34.4587 27.625C34.459 27.624 34.4602 27.6199 34.4615 27.6154C34.4629 27.6105 34.4649 27.6033 34.4669 27.5946C34.4708 27.5772 34.4753 27.5513 34.4753 27.5197H33.8753ZM33.8685 27.5538C33.8685 27.5848 33.8729 27.6099 33.8761 27.6251C33.8778 27.6328 33.8794 27.6393 33.8805 27.6435C33.8815 27.6473 33.8826 27.6511 33.8827 27.6517C33.8837 27.6552 33.8818 27.6486 33.88 27.6397C33.878 27.6298 33.8753 27.6128 33.8753 27.5913H34.4753C34.4753 27.5629 34.4718 27.5394 34.4685 27.523C34.4655 27.5076 34.4619 27.4948 34.4611 27.4921C34.4604 27.4896 34.4606 27.4903 34.4608 27.4911C34.4611 27.4922 34.462 27.4957 34.463 27.5004C34.465 27.5095 34.4685 27.5287 34.4685 27.5538H33.8685ZM33.8753 27.5916L33.8822 34.2444L34.4822 34.2438L34.4753 27.591L33.8753 27.5916ZM34.182 33.9441L27.5476 33.9476L27.5479 34.5476L34.1823 34.5441L34.182 33.9441ZM40.5061 31.051C40.5826 30.9735 40.6864 30.9305 40.7938 30.9305V30.3305C40.5262 30.3305 40.2686 30.4375 40.0792 30.6294L40.5061 31.051ZM40.7938 30.9305C40.9039 30.9305 41.0073 30.9742 41.0814 31.0492L41.5084 30.6277C41.32 30.4369 41.0621 30.3305 40.7938 30.3305V30.9305ZM41.0815 31.0493C41.2473 31.2171 41.2473 31.486 41.0815 31.6538L41.5083 32.0755C41.905 31.6739 41.905 31.0291 41.5083 30.6276L41.0815 31.0493ZM41.0861 31.6492C40.9229 31.8074 40.6646 31.8075 40.5014 31.6492L40.0838 32.08C40.4797 32.4638 41.1078 32.4639 41.5037 32.08L41.0861 31.6492ZM40.5067 31.6544C40.3417 31.4865 40.3417 31.2184 40.5067 31.0504L40.0786 30.63C39.6845 31.0313 39.6844 31.6734 40.0786 32.0748L40.5067 31.6544ZM43.5755 24.4124C43.4039 24.4154 43.2476 24.3147 43.1799 24.1563L42.6282 24.3922C42.7922 24.7758 43.1713 25.0195 43.586 25.0123L43.5755 24.4124ZM43.1796 24.1557C43.1115 23.9975 43.1462 23.8147 43.2653 23.6946L42.8393 23.2721C42.5459 23.5679 42.4647 24.0124 42.6285 24.3929L43.1796 24.1557ZM43.2662 23.6937C43.3877 23.5702 43.5704 23.533 43.728 23.5974L43.9551 23.042C43.5706 22.8848 43.1295 22.9771 42.8385 23.273L43.2662 23.6937ZM43.7286 23.5977C43.8874 23.6621 43.9915 23.8176 43.9915 23.9896H44.5915C44.5915 23.5753 44.3412 23.1989 43.9544 23.0418L43.7286 23.5977ZM43.9915 23.9909C43.9925 24.2215 43.8079 24.4094 43.5769 24.4124L43.5846 25.0123C44.1445 25.0051 44.5939 24.5487 44.5915 23.9883L43.9915 23.9909Z" fill="#F545A6" mask="url(#path-1-outside-1_238_1830)"/>
<mask id="path-3-outside-2_238_1830" maskUnits="userSpaceOnUse" x="19" y="20" width="10" height="8" fill="black">
<rect fill="white" x="19" y="20" width="10" height="8"/>
<path d="M19.4702 27L21.1686 20.5385H23.2917L24.9902 27H23.7348L23.384 25.5785H21.0763L20.7256 27H19.4702ZM21.3625 24.4523H23.0979L22.3133 21.3046H22.1471L21.3625 24.4523ZM26.8713 27V20.5385H28.0898V27H26.8713Z"/>
</mask>
<path d="M19.4702 27L21.1686 20.5385H23.2917L24.9902 27H23.7348L23.384 25.5785H21.0763L20.7256 27H19.4702ZM21.3625 24.4523H23.0979L22.3133 21.3046H22.1471L21.3625 24.4523ZM26.8713 27V20.5385H28.0898V27H26.8713Z" fill="#F545A6"/>
<path d="M19.4702 27L19.18 26.9237L19.0811 27.3H19.4702V27ZM21.1686 20.5385V20.2385H20.9373L20.8785 20.4622L21.1686 20.5385ZM23.2917 20.5385L23.5819 20.4622L23.5231 20.2385H23.2917V20.5385ZM24.9902 27V27.3H25.3792L25.2803 26.9237L24.9902 27ZM23.7348 27L23.4435 27.0719L23.4998 27.3H23.7348V27ZM23.384 25.5785L23.6753 25.5066L23.619 25.2785H23.384V25.5785ZM21.0763 25.5785V25.2785H20.8414L20.7851 25.5066L21.0763 25.5785ZM20.7256 27V27.3H20.9605L21.0168 27.0719L20.7256 27ZM21.3625 24.4523L21.0714 24.3797L20.9785 24.7523H21.3625V24.4523ZM23.0979 24.4523V24.7523H23.4818L23.389 24.3797L23.0979 24.4523ZM22.3133 21.3046L22.6044 21.2321L22.5477 21.0046H22.3133V21.3046ZM22.1471 21.3046V21.0046H21.9127L21.856 21.2321L22.1471 21.3046ZM19.7603 27.0763L21.4588 20.6147L20.8785 20.4622L19.18 26.9237L19.7603 27.0763ZM21.1686 20.8385H23.2917V20.2385H21.1686V20.8385ZM23.0016 20.6147L24.7 27.0763L25.2803 26.9237L23.5819 20.4622L23.0016 20.6147ZM24.9902 26.7H23.7348V27.3H24.9902V26.7ZM24.0261 26.9281L23.6753 25.5066L23.0928 25.6503L23.4435 27.0719L24.0261 26.9281ZM23.384 25.2785H21.0763V25.8785H23.384V25.2785ZM20.7851 25.5066L20.4343 26.9281L21.0168 27.0719L21.3676 25.6503L20.7851 25.5066ZM20.7256 26.7H19.4702V27.3H20.7256V26.7ZM21.3625 24.7523H23.0979V24.1523H21.3625V24.7523ZM23.389 24.3797L22.6044 21.2321L22.0222 21.3772L22.8068 24.5249L23.389 24.3797ZM22.3133 21.0046H22.1471V21.6046H22.3133V21.0046ZM21.856 21.2321L21.0714 24.3797L21.6536 24.5249L22.4382 21.3772L21.856 21.2321ZM26.8713 27H26.5713V27.3H26.8713V27ZM26.8713 20.5385V20.2385H26.5713V20.5385H26.8713ZM28.0898 20.5385H28.3898V20.2385H28.0898V20.5385ZM28.0898 27V27.3H28.3898V27H28.0898ZM27.1713 27V20.5385H26.5713V27H27.1713ZM26.8713 20.8385H28.0898V20.2385H26.8713V20.8385ZM27.7898 20.5385V27H28.3898V20.5385H27.7898ZM28.0898 26.7H26.8713V27.3H28.0898V26.7Z" fill="#F545A6" mask="url(#path-3-outside-2_238_1830)"/>
</svg>
