<svg width="450" height="450" viewBox="0 0 450 450" fill="none" xmlns="http://www.w3.org/2000/svg">
<g opacity="0.64">
<path d="M94.7906 310.141C94.7417 310.141 94.6965 310.109 94.6821 310.059C94.6646 310 94.6484 309.939 94.6343 309.878C94.6201 309.817 94.6579 309.756 94.7189 309.742C94.7799 309.728 94.8407 309.766 94.8549 309.827C94.868 309.883 94.883 309.94 94.8993 309.996C94.9169 310.056 94.8825 310.119 94.8226 310.136C94.8119 310.139 94.8012 310.141 94.7906 310.141Z" fill="white"/>
<path d="M94.6616 309.349C94.6011 309.349 94.5511 309.301 94.5488 309.24C94.5472 309.198 94.5464 309.155 94.5464 309.113C94.5464 309.034 94.5492 308.955 94.5546 308.877L94.5571 308.844C94.5621 308.782 94.6169 308.736 94.6787 308.74C94.7408 308.745 94.7873 308.8 94.7823 308.862L94.7801 308.892C94.775 308.965 94.7725 309.039 94.7725 309.113C94.7725 309.152 94.7732 309.192 94.7747 309.232C94.7771 309.294 94.7284 309.346 94.6661 309.349C94.6645 309.349 94.6631 309.349 94.6616 309.349ZM94.7767 308.354C94.7668 308.354 94.7567 308.353 94.7467 308.35C94.6866 308.333 94.6512 308.271 94.6678 308.211C94.7028 308.084 94.7457 307.957 94.7955 307.836C94.8191 307.778 94.8849 307.75 94.9427 307.774C95.0005 307.797 95.0282 307.863 95.0046 307.921C94.9582 308.034 94.9182 308.152 94.8855 308.271C94.8718 308.321 94.8264 308.354 94.7767 308.354ZM95.1888 307.441C95.1676 307.441 95.1461 307.435 95.127 307.423C95.0748 307.388 95.0601 307.318 95.0943 307.266C95.1664 307.156 95.2457 307.049 95.3303 306.948C95.3703 306.9 95.4416 306.894 95.4894 306.934C95.5372 306.974 95.5435 307.045 95.5035 307.093C95.4247 307.187 95.3506 307.287 95.2834 307.39C95.2617 307.423 95.2256 307.441 95.1888 307.441ZM95.8594 306.697C95.8266 306.697 95.7941 306.683 95.7718 306.655C95.7324 306.607 95.7396 306.536 95.788 306.496C95.8902 306.413 95.9981 306.335 96.1091 306.264C96.1618 306.231 96.2316 306.246 96.265 306.299C96.2986 306.352 96.283 306.421 96.2304 306.455C96.1269 306.521 96.0261 306.594 95.9308 306.671C95.9098 306.688 95.8845 306.697 95.8594 306.697ZM96.7233 306.19C96.6782 306.19 96.6357 306.163 96.6181 306.119C96.5952 306.061 96.6237 305.995 96.6817 305.972C96.8042 305.924 96.9309 305.883 97.0581 305.849C97.1185 305.833 97.1803 305.869 97.1961 305.929C97.212 305.99 97.176 306.052 97.1157 306.067C96.997 306.099 96.8788 306.137 96.7646 306.183C96.7511 306.188 96.7371 306.19 96.7233 306.19ZM99.0641 306.172C99.0508 306.172 99.0374 306.17 99.0243 306.165C98.9095 306.122 98.7907 306.085 98.6713 306.055C98.6107 306.041 98.5736 305.979 98.5885 305.919C98.6034 305.858 98.6645 305.821 98.7252 305.836C98.8531 305.868 98.9805 305.907 99.1037 305.953C99.1621 305.975 99.1916 306.04 99.1697 306.099C99.1527 306.144 99.1097 306.172 99.0641 306.172ZM97.7003 305.971C97.6413 305.971 97.5916 305.925 97.5877 305.866C97.5836 305.803 97.6307 305.75 97.693 305.746C97.8237 305.737 97.958 305.736 98.0891 305.743C98.1514 305.746 98.1992 305.799 98.1961 305.861C98.1928 305.924 98.1408 305.972 98.0775 305.968C97.955 305.962 97.8298 305.963 97.7078 305.971C97.7053 305.971 97.7027 305.971 97.7003 305.971Z" fill="white"/>
<path d="M99.7755 306.547C99.7532 306.547 99.7307 306.54 99.711 306.526C99.6633 306.493 99.6141 306.461 99.5648 306.431C99.5117 306.398 99.495 306.328 99.5278 306.275C99.5606 306.222 99.6304 306.205 99.6836 306.238C99.7364 306.27 99.7891 306.305 99.8402 306.34C99.8916 306.376 99.9042 306.447 99.8685 306.498C99.8465 306.53 99.8112 306.547 99.7755 306.547Z" fill="white"/>
</g>
<g opacity="0.64">
<path d="M101.141 308.751C101.086 308.751 101.038 308.711 101.029 308.654C101.021 308.597 101.011 308.539 100.999 308.482C100.987 308.421 101.027 308.361 101.088 308.349C101.149 308.336 101.209 308.376 101.221 308.437C101.234 308.498 101.244 308.56 101.253 308.622C101.262 308.684 101.219 308.741 101.158 308.75C101.152 308.751 101.147 308.751 101.141 308.751Z" fill="white"/>
<path d="M97.9207 312.48C97.8422 312.48 97.7628 312.478 97.6845 312.472C97.6436 312.47 97.603 312.466 97.5625 312.462C97.5005 312.455 97.4554 312.4 97.462 312.338C97.4685 312.276 97.5243 312.23 97.586 312.237C97.6238 312.241 97.6619 312.244 97.7001 312.247C97.7732 312.252 97.8474 312.255 97.9204 312.255L97.9496 312.254C97.95 312.254 97.9504 312.254 97.9506 312.254C98.0125 312.254 98.0629 312.304 98.0635 312.366C98.0641 312.429 98.014 312.48 97.9516 312.48L97.9207 312.48ZM98.5586 312.417C98.5059 312.417 98.4588 312.38 98.448 312.327C98.4357 312.265 98.4754 312.206 98.5365 312.194C98.655 312.17 98.7733 312.139 98.8881 312.102C98.9475 312.082 99.0112 312.115 99.0305 312.174C99.0498 312.233 99.0173 312.297 98.9581 312.316C98.835 312.356 98.708 312.39 98.581 312.415C98.5735 312.417 98.566 312.417 98.5586 312.417ZM96.9748 312.342C96.964 312.342 96.9531 312.34 96.9422 312.337C96.8181 312.3 96.6949 312.254 96.5761 312.203C96.5189 312.178 96.4926 312.112 96.5174 312.054C96.5423 311.997 96.6087 311.971 96.666 311.996C96.7768 312.044 96.8917 312.086 97.0074 312.121C97.0671 312.139 97.101 312.202 97.083 312.262C97.0682 312.31 97.0234 312.342 96.9748 312.342ZM99.4842 312.079C99.4444 312.079 99.4057 312.058 99.3851 312.021C99.3551 311.966 99.3751 311.897 99.4297 311.867C99.5355 311.809 99.6391 311.744 99.7376 311.674C99.7884 311.638 99.859 311.65 99.8951 311.701C99.9312 311.752 99.9193 311.822 99.8686 311.858C99.7629 311.934 99.6519 312.003 99.5385 312.065C99.5213 312.075 99.5027 312.079 99.4842 312.079ZM100.266 311.48C100.238 311.48 100.21 311.469 100.188 311.448C100.143 311.405 100.142 311.334 100.185 311.289C100.269 311.202 100.348 311.109 100.421 311.012C100.459 310.963 100.53 310.953 100.58 310.991C100.629 311.029 100.639 311.1 100.601 311.149C100.523 311.252 100.437 311.352 100.348 311.445C100.325 311.468 100.296 311.48 100.266 311.48ZM100.834 310.675C100.817 310.675 100.8 310.671 100.784 310.663C100.728 310.635 100.706 310.567 100.733 310.511C100.787 310.403 100.835 310.291 100.876 310.177C100.897 310.118 100.962 310.088 101.021 310.109C101.08 310.13 101.11 310.195 101.089 310.254C101.045 310.376 100.993 310.496 100.935 310.612C100.916 310.652 100.876 310.675 100.834 310.675ZM101.135 309.736C101.129 309.736 101.123 309.736 101.117 309.735C101.055 309.725 101.013 309.667 101.023 309.605C101.037 309.514 101.048 309.42 101.054 309.327C101.056 309.299 101.058 309.271 101.059 309.244C101.062 309.181 101.115 309.133 101.177 309.136C101.239 309.138 101.287 309.191 101.285 309.253C101.284 309.283 101.282 309.313 101.28 309.342C101.273 309.442 101.262 309.543 101.246 309.641C101.237 309.696 101.189 309.736 101.135 309.736Z" fill="white"/>
<path d="M96.0841 311.917C96.0621 311.917 96.0399 311.91 96.0204 311.897C95.9691 311.862 95.9181 311.825 95.8686 311.787C95.8189 311.749 95.8096 311.678 95.8476 311.629C95.8856 311.579 95.9566 311.569 96.0063 311.607C96.0524 311.643 96.1 311.677 96.1479 311.71C96.1995 311.745 96.2128 311.816 96.1776 311.867C96.1559 311.899 96.1203 311.917 96.0841 311.917Z" fill="white"/>
</g>
<path opacity="0.5" d="M96.1578 310.89C96.1684 310.903 96.1859 310.907 96.2017 310.902L96.6483 310.737C96.8243 310.873 97.0234 310.981 97.2396 311.056L97.3486 311.519C97.3523 311.535 97.3661 311.547 97.3827 311.549L97.9507 311.606C97.9673 311.608 97.9832 311.599 97.9901 311.584L98.1897 311.152C98.4165 311.123 98.6332 311.056 98.8329 310.959L99.2376 311.209C99.2517 311.218 99.2699 311.217 99.2829 311.206L99.7251 310.845C99.7381 310.835 99.7428 310.817 99.7371 310.801L99.5728 310.355C99.7084 310.179 99.817 309.98 99.8912 309.763L100.354 309.654C100.37 309.651 100.382 309.637 100.384 309.62L100.442 309.052C100.443 309.036 100.434 309.02 100.419 309.013L99.9874 308.813C99.958 308.587 99.8916 308.37 99.7941 308.17L100.045 307.765C100.053 307.751 100.052 307.733 100.042 307.72L99.6808 307.278C99.6702 307.265 99.6527 307.26 99.637 307.266L99.1904 307.43C99.0144 307.295 98.8153 307.186 98.5991 307.112L98.4901 306.649C98.4863 306.633 98.4726 306.621 98.456 306.619L97.888 306.561C97.8714 306.56 97.8555 306.569 97.8486 306.584L97.649 307.016C97.4222 307.045 97.2056 307.111 97.0059 307.209L96.6013 306.959C96.5871 306.95 96.5689 306.951 96.5559 306.961L96.1137 307.322C96.1007 307.333 96.096 307.35 96.1017 307.366L96.266 307.813C96.1304 307.989 96.0219 308.188 95.9476 308.404L95.4847 308.513C95.4684 308.517 95.4564 308.531 95.4547 308.547L95.3972 309.115C95.3955 309.132 95.4046 309.148 95.4197 309.154L95.8514 309.354C95.8808 309.581 95.9472 309.797 96.0448 309.997L95.7942 310.402C95.7855 310.416 95.7866 310.434 95.7971 310.447L96.1578 310.89Z" fill="white"/>
<path opacity="0.56" d="M97.9187 309.726C97.6057 309.726 97.3306 309.496 97.2836 309.178C97.2585 309.008 97.3012 308.838 97.4036 308.701C97.506 308.563 97.6558 308.473 97.8256 308.448C97.9954 308.423 98.1647 308.466 98.3025 308.568C98.4402 308.671 98.5299 308.82 98.5548 308.99C98.6064 309.341 98.3634 309.668 98.013 309.719C97.9811 309.724 97.9498 309.726 97.9187 309.726ZM97.9198 308.713C97.9017 308.713 97.8832 308.714 97.8649 308.717C97.6624 308.746 97.5219 308.935 97.5517 309.138C97.5817 309.341 97.7708 309.481 97.9733 309.451C98.0714 309.437 98.158 309.385 98.2172 309.305C98.2763 309.226 98.3009 309.128 98.2865 309.03C98.272 308.932 98.2202 308.845 98.1406 308.786C98.0759 308.738 97.9991 308.713 97.9198 308.713Z" fill="white"/>
<path opacity="0.56" d="M97.9286 310.498C97.8809 310.498 97.8327 310.496 97.7842 310.491C97.7765 310.49 97.7688 310.489 97.7612 310.488C97.6681 310.477 97.5763 310.457 97.4879 310.429C97.4687 310.422 97.4566 310.405 97.4566 310.386C97.4566 310.381 97.4573 310.376 97.4588 310.372C97.4664 310.348 97.492 310.335 97.5157 310.343C97.6054 310.372 97.6988 310.391 97.7934 310.401C98.2881 310.451 98.7478 310.222 99.0163 309.843C99.1356 309.674 99.2173 309.476 99.2472 309.259C99.2494 309.242 99.2514 309.226 99.253 309.21C99.2576 309.164 99.2599 309.119 99.2599 309.074C99.2598 308.4 98.7473 307.82 98.0619 307.75C97.3308 307.676 96.6762 308.21 96.6022 308.941C96.5976 308.986 96.5954 309.031 96.5954 309.076C96.5954 309.271 96.6382 309.464 96.7212 309.641C96.7241 309.647 96.7255 309.653 96.7254 309.66C96.7254 309.677 96.7158 309.693 96.6995 309.701C96.6768 309.711 96.65 309.702 96.6394 309.679C96.5507 309.491 96.5051 309.285 96.5051 309.076C96.5051 309.028 96.5075 308.98 96.5124 308.932C96.5915 308.152 97.2906 307.582 98.0711 307.66C98.8029 307.734 99.3503 308.354 99.3504 309.074C99.3504 309.122 99.348 309.17 99.3432 309.219C99.2688 309.951 98.649 310.498 97.9286 310.498Z" fill="white"/>
<path opacity="0.5" d="M376.89 285.955C342.89 365.425 253.142 399.56 182.822 393.74C163.622 392.151 124.991 388.954 94.8278 360.429C36.9011 305.65 45.8223 191.145 101.275 123.731C108.416 115.05 157.846 56.8847 234.873 57.6631C291.268 58.2332 330.851 90.09 335.664 94.0588C341.745 99.0723 355.155 110.986 367.242 129.887C395.64 174.297 398.136 236.294 376.89 285.955Z" fill="#DEDAFF"/>
<path d="M191.876 369.458C191.876 369.458 150.319 230.419 76.6677 157.517C71.7168 152.616 63.3088 155.102 61.8606 161.916C52.1773 207.48 36.4902 344.896 191.876 369.458Z" fill="#A99AFF"/>
<path opacity="0.5" d="M177.306 361.181C177.67 361.498 177.245 362.056 176.842 361.791C161.992 352.027 103.935 303.187 77.6093 200.681C77.5247 200.352 78.0071 200.196 78.1198 200.517C86.4223 224.151 119.807 311.136 177.306 361.181Z" fill="white"/>
<path d="M377.232 383.651H144.594C141.995 383.651 139.888 381.545 139.888 378.946V91.9331C139.888 89.3344 141.995 87.2278 144.594 87.2278H377.232C379.831 87.2278 381.937 89.3344 381.937 91.9331V378.946C381.937 381.545 379.83 383.651 377.232 383.651Z" fill="#DEDAFF"/>
<path opacity="0.86" d="M369.863 376.672H151.964C149.365 376.672 147.259 374.565 147.259 371.966V103.003C147.259 100.404 149.365 98.2975 151.964 98.2975H369.863C372.462 98.2975 374.569 100.404 374.569 103.003V371.966C374.569 374.565 372.462 376.672 369.863 376.672Z" fill="white"/>
<path d="M192.903 376.344L204.224 286.364C206.506 271.075 201.989 255.707 192.013 244.927H192.013C186.466 238.933 182.961 231.013 182.175 222.472C180.948 209.133 181.096 187.34 189.162 160.797C199.828 125.7 231.766 105.063 264.241 111.187C280.109 114.179 298.361 120.166 317.275 131.448C328.032 137.865 335.357 149.903 336.513 163.536C337.051 169.874 338.046 176.894 339.854 183.131C342.125 190.968 343.109 196.334 343.515 199.816C343.883 202.973 342.813 206.135 340.708 208.227L340.707 208.227C338.536 210.384 337.996 214.004 339.424 216.84L356.136 245.754L356.474 247.487C355.504 250.787 353.065 254.929 350.344 255.21L340.817 256.192L341.178 267.418C341.248 269.586 340.008 271.566 338.183 272.198L335.994 272.955L337.992 274.723C339.615 276.161 340.042 278.778 338.995 280.879L336.175 286.534C334.898 289.096 335.081 292.241 336.637 294.473C339.208 298.162 338.919 305.828 336.011 308.842C329.945 315.129 317.465 315.413 311.235 314.958C301.664 314.258 293.056 309.855 284.205 314.409C281.6 315.75 279.786 317.449 278.694 318.624L279.44 376.344H192.903V376.344Z" fill="#6449FF"/>
<path d="M261.111 224.183C261.027 224.183 260.944 224.17 260.863 224.144L246.118 219.441C245.991 219.401 245.876 219.33 245.783 219.235L238.936 212.247L227.706 209.806L212.619 211.155C212.451 211.172 212.276 211.131 212.128 211.042L196.227 201.493C196.086 201.409 195.974 201.283 195.905 201.133L190.691 189.703C190.622 189.552 190.601 189.385 190.63 189.222L193.588 172.582L193.144 161.195C193.137 161.007 193.195 160.821 193.309 160.671L201.227 150.253L207.732 137.765C207.823 137.59 207.975 137.454 208.158 137.383L222.905 131.623L234.355 125.301C234.431 125.26 234.512 125.23 234.598 125.214L256.352 121.108C256.504 121.079 256.662 121.094 256.807 121.152L269.182 126.129L287.343 124.994C287.565 124.98 287.779 125.056 287.942 125.205L300.609 136.742L315.781 141.196C316.032 141.27 316.233 141.461 316.32 141.708L324.879 166.148C324.909 166.235 324.925 166.326 324.925 166.418V181.941C324.925 182.031 324.91 182.121 324.88 182.206L318.921 199.484C318.869 199.632 318.776 199.763 318.652 199.86L300.748 213.832C300.611 213.939 300.442 214 300.267 214.004L282.333 214.451L261.453 224.108C261.344 224.158 261.228 224.183 261.111 224.183ZM246.805 217.95L261.056 222.496L281.802 212.901C281.903 212.855 282.012 212.829 282.123 212.826L299.958 212.382L317.459 198.724L323.296 181.804V166.556L314.921 142.641L299.97 138.252C299.852 138.217 299.743 138.156 299.651 138.073L287.1 126.641L269.1 127.767C268.976 127.775 268.858 127.755 268.745 127.709L256.42 122.753L235.028 126.791L223.646 133.076C223.614 133.093 223.581 133.108 223.548 133.121L209.036 138.789L202.639 151.068C202.618 151.109 202.594 151.148 202.566 151.184L194.783 161.424L195.219 172.607C195.221 172.665 195.217 172.724 195.207 172.781L192.279 189.258L197.282 200.227L212.739 209.509L227.685 208.172C227.766 208.164 227.85 208.17 227.931 208.187L239.52 210.707C239.675 210.74 239.817 210.819 239.929 210.933L246.805 217.95Z" fill="white"/>
<path d="M222.511 236.853C222.477 236.853 222.443 236.85 222.409 236.845L208.726 234.525C208.63 234.509 208.539 234.47 208.462 234.412L200.048 228.102C199.916 228.002 199.829 227.853 199.809 227.689L198.627 218.229L193.431 211.054C193.322 210.904 193.287 210.713 193.336 210.534L196.057 200.634L197.235 200.957L194.592 210.575L199.708 217.639C199.768 217.723 199.807 217.82 199.819 217.922L200.989 227.28L209.076 233.345L222.441 235.611L235.939 230.059C235.971 230.046 236.005 230.035 236.039 230.028L249.777 226.977L254.1 220.843L255.099 221.547L250.64 227.875C250.552 227.999 250.421 228.086 250.273 228.119L236.355 231.209L222.744 236.807C222.67 236.838 222.591 236.853 222.511 236.853Z" fill="white"/>
<path d="M269.226 205.006H245.421L243.768 189.53H212.114L220.05 171.253L215.692 156.915L193.91 161.637L193.737 160.841L216.253 155.96L220.916 171.303L213.356 188.715H244.5L246.153 204.192H268.621L275.032 182.965L292.851 191.699L303.907 178.227L317.652 179.99L323.595 166.637L292.748 153.577L277.658 167.919L258.596 168.846L257.394 147.997L234.901 141.393L232.966 126.83L233.773 126.723L235.639 140.76L258.174 147.377L259.363 167.994L277.316 167.12L292.574 152.619L324.676 166.211L318.15 180.874L304.25 179.093L293.071 192.714L275.534 184.119L269.226 205.006Z" fill="white"/>
<path d="M266.165 222.129L245.805 204.685L239.366 211.785L239.216 211.658L212.725 189.336L212.706 189.35L212.628 189.476L212.576 189.444L196.766 200.96L196.527 200.631L212.2 189.214L202.772 183.465L202.162 173.246L202.181 173.201L208.895 157.897L206.551 140.202L216.094 156.243L240.033 158.232L220.819 146.017L235.13 140.91L244.776 123.837L261.394 132.252L258.038 147.479L277.323 147.185L282.09 126.092L292.769 152.816L315.837 141.619L312.213 161.378L304.303 178.634L315.267 201.85L293.33 202.275L266.165 222.129ZM245.769 204.118L266.185 221.61L293.193 201.87L314.63 201.455L303.854 178.637L303.893 178.551L311.833 161.231L315.291 142.336L292.553 153.374L282.198 127.461L277.65 147.587L257.529 147.894L260.928 132.473L244.939 124.376L235.41 141.242L221.741 146.12L241.645 158.775L215.851 156.632L207.215 142.115L209.313 157.956L209.29 158.008L202.574 173.32L203.166 183.228L212.556 188.955L212.743 188.818L239.328 211.22L245.769 204.118Z" fill="white"/>
<path opacity="0.68" d="M246.366 218.818C246.333 218.818 246.302 218.808 246.275 218.788C246.238 218.761 246.215 218.718 246.213 218.671L245.634 204.407C245.633 204.368 245.647 204.329 245.673 204.299L262.356 185.707L258.9 168.792L244.258 189.166C244.227 189.209 244.177 189.232 244.124 189.229C244.072 189.226 244.025 189.196 244 189.149L236.67 175.462L220.749 171.479L228.499 189.015C228.51 189.041 228.514 189.069 228.511 189.097L226.983 200.976C226.976 201.031 226.94 201.077 226.889 201.098L209.006 208.325C208.965 208.341 208.919 208.339 208.88 208.319C208.841 208.3 208.811 208.264 208.8 208.222L205.231 194.554L191.366 187.787C191.315 187.762 191.282 187.711 191.28 187.654C191.279 187.598 191.308 187.545 191.358 187.517L220.246 171.213L209.088 158.144L194.436 170.953C194.373 171.008 194.276 171.002 194.221 170.938C194.165 170.875 194.172 170.778 194.235 170.723L209.004 157.812C209.034 157.785 209.075 157.773 209.115 157.774C209.156 157.777 209.194 157.796 209.221 157.827L220.567 171.119L236.81 175.182C236.852 175.193 236.887 175.22 236.908 175.258L244.154 188.789L258.856 168.33C258.891 168.281 258.954 168.257 259.012 168.27C259.071 168.283 259.117 168.329 259.129 168.389L262.671 185.721C262.681 185.768 262.667 185.817 262.635 185.853L245.942 204.457L246.51 218.467L258.479 215.209L268.812 204.296C268.824 204.283 268.839 204.273 268.854 204.265L292.892 192.021C292.939 191.997 292.994 191.999 293.039 192.025C293.084 192.052 293.113 192.1 293.114 192.152L293.414 202.068C293.417 202.152 293.351 202.223 293.266 202.225C293.171 202.222 293.111 202.161 293.109 202.077L292.816 192.402L269.016 204.525L258.671 215.45C258.652 215.47 258.627 215.485 258.6 215.492L246.406 218.812C246.393 218.816 246.379 218.818 246.366 218.818ZM191.761 187.64L205.428 194.311C205.468 194.33 205.497 194.366 205.509 194.409L209.052 207.976L226.692 200.848L228.202 189.1L220.411 171.471L191.761 187.64Z" fill="white"/>
<path opacity="0.68" d="M302.019 211.953C302.01 211.953 302.002 211.953 301.993 211.951L284.069 208.924L268.881 204.548C268.832 204.534 268.793 204.496 268.778 204.447C268.762 204.398 268.773 204.344 268.805 204.304L282.026 188.199C282.042 188.181 282.061 188.166 282.083 188.156L303.877 178.558L292.686 153.525L286.647 172.684C286.639 172.709 286.626 172.731 286.607 172.749L275.389 183.553C275.343 183.598 275.273 183.609 275.214 183.58C275.156 183.55 275.123 183.487 275.132 183.423L277.322 167.136L258.194 156.223C258.144 156.195 258.114 156.141 258.117 156.084C258.119 156.026 258.154 155.975 258.206 155.952L277.424 147.247C277.451 147.235 277.482 147.232 277.51 147.235L291.124 149.252L300.028 137.379C300.064 137.331 300.124 137.309 300.183 137.321C300.241 137.334 300.286 137.379 300.3 137.437L302.706 148.17L313.678 152.449C313.703 152.459 313.727 152.476 313.744 152.498L324.258 166.325C324.308 166.393 324.295 166.488 324.228 166.539C324.162 166.591 324.065 166.578 324.014 166.51L313.526 152.718L302.519 148.426C302.472 148.407 302.437 148.366 302.426 148.316L300.074 137.827L291.313 149.508C291.28 149.553 291.226 149.576 291.169 149.568L277.509 147.544L258.605 156.106L277.563 166.921C277.617 166.952 277.647 167.012 277.639 167.074L275.493 183.029L286.367 172.556L292.516 153.049C292.535 152.989 292.589 152.946 292.652 152.943C292.712 152.935 292.775 152.975 292.801 153.033L304.219 178.573C304.235 178.61 304.236 178.652 304.221 178.691C304.207 178.728 304.178 178.759 304.141 178.775L282.24 188.421L269.189 204.319L284.136 208.626L302.044 211.65C302.127 211.664 302.183 211.743 302.169 211.826C302.157 211.901 302.092 211.953 302.019 211.953Z" fill="white"/>
<path d="M295.477 210.848C295.441 210.848 295.405 210.836 295.377 210.811C295.313 210.755 295.306 210.659 295.362 210.595L302.952 201.891L292.855 192.267C292.814 192.228 292.798 192.168 292.814 192.114C292.83 192.059 292.875 192.018 292.932 192.007L308.935 188.936L317.793 180.31C317.832 180.273 317.887 180.258 317.94 180.272C317.991 180.286 318.032 180.327 318.047 180.378L320.751 190.012C320.774 190.093 320.726 190.178 320.645 190.2C320.564 190.225 320.479 190.176 320.457 190.095L317.822 180.708L309.115 189.186C309.094 189.207 309.067 189.221 309.037 189.227L293.281 192.251L303.268 201.77C303.327 201.827 303.331 201.92 303.278 201.981L295.592 210.796C295.562 210.831 295.52 210.848 295.477 210.848Z" fill="white"/>
<path d="M215.783 156.785C215.77 156.785 215.756 156.783 215.743 156.781C215.653 156.763 215.587 156.688 215.58 156.597L213.958 136.135C213.949 136.023 214.033 135.925 214.145 135.916C214.247 135.908 214.355 135.99 214.364 136.103L215.93 155.86L221.546 145.119L226.121 130.608C226.155 130.501 226.27 130.442 226.377 130.475C226.484 130.509 226.543 130.623 226.51 130.731L221.921 145.275L215.964 156.676C215.928 156.744 215.858 156.785 215.783 156.785Z" fill="white"/>
<path opacity="0.68" d="M244.134 189.23C244.101 189.23 244.069 189.219 244.042 189.199L220.391 171.377C220.333 171.333 220.313 171.254 220.345 171.189L227.004 157.374L220.383 145.658C220.354 145.606 220.358 145.542 220.393 145.493C220.428 145.445 220.487 145.422 220.547 145.434L249.567 151.35L242.234 143.257C242.203 143.222 242.189 143.176 242.196 143.13C242.203 143.084 242.231 143.044 242.271 143.022L261.085 132.23L268.95 126.828C269.019 126.78 269.115 126.798 269.163 126.867C269.211 126.937 269.193 127.032 269.123 127.08L261.247 132.488L242.588 143.192L250.028 151.404L257.715 147.55L282.045 126.66C282.107 126.606 282.204 126.612 282.26 126.677C282.315 126.741 282.307 126.837 282.243 126.892L257.883 147.803L250.074 151.723L240.974 158.593L236.984 175.104L258.934 168.274C258.985 168.257 259.042 168.27 259.083 168.307L275.386 183.331C275.429 183.37 275.445 183.43 275.43 183.486C275.413 183.542 275.367 183.583 275.31 183.594L244.161 189.228C244.152 189.229 244.143 189.23 244.134 189.23ZM220.674 171.209L244.172 188.915L274.953 183.348L258.94 168.591L236.817 175.476C236.766 175.493 236.708 175.479 236.667 175.442C236.628 175.404 236.611 175.348 236.624 175.294L240.69 158.468C240.698 158.433 240.718 158.403 240.747 158.382L249.63 151.675L220.814 145.8L227.309 157.294C227.333 157.337 227.336 157.39 227.314 157.435L220.674 171.209Z" fill="white"/>
<path d="M258.979 168.572C258.954 168.572 258.929 168.566 258.906 168.553L240.765 158.638C240.707 158.606 240.676 158.541 240.688 158.476C240.7 158.412 240.752 158.362 240.818 158.352L258.247 155.939L292.647 152.943C292.736 152.937 292.806 152.998 292.813 153.082C292.82 153.166 292.758 153.24 292.674 153.247L258.281 156.243L241.318 158.592L259.052 168.286C259.126 168.326 259.154 168.419 259.113 168.493C259.085 168.543 259.033 168.572 258.979 168.572Z" fill="white"/>
<path d="M234.304 230.898L228.534 222.05L213.987 218.835L212.402 210.663L199.315 218.174L199.112 217.821L212.693 210.026L214.336 218.495L228.785 221.688L234.433 230.35L246.476 223.257L246.173 218.836L234.879 216.665L226.184 209.268L226.448 208.957L235.061 216.285L246.558 218.495L246.9 223.48L234.304 230.898Z" fill="white"/>
<path opacity="0.68" d="M216.692 235.447C216.634 235.447 216.577 235.423 216.537 235.376L208.513 225.99L204.664 230.752C204.593 230.839 204.465 230.853 204.377 230.782C204.29 230.712 204.276 230.583 204.347 230.496L208.243 225.675L208.215 225.642C208.197 225.621 208.184 225.598 208.176 225.572L204.788 215.055C204.781 215.035 204.778 215.014 204.778 214.993V206.007L194.152 210.881C194.05 210.927 193.929 210.883 193.883 210.781C193.836 210.679 193.881 210.558 193.983 210.511L204.897 205.504C204.96 205.475 205.034 205.48 205.091 205.518C205.15 205.555 205.185 205.62 205.185 205.689V214.961L208.525 225.327L214.012 218.537C214.038 218.505 214.073 218.481 214.113 218.47L231.54 213.395C231.613 213.374 231.692 213.395 231.745 213.45C231.797 213.506 231.814 213.586 231.789 213.658L226.544 228.551C226.529 228.591 226.503 228.626 226.468 228.65L216.808 235.411C216.773 235.435 216.732 235.447 216.692 235.447ZM208.773 225.668L216.726 234.971L226.181 228.354L231.273 213.897L214.288 218.843L208.773 225.668Z" fill="white"/>
<path d="M215.784 158.729C216.97 158.729 217.932 157.767 217.932 156.581C217.932 155.395 216.97 154.433 215.784 154.433C214.598 154.433 213.636 155.395 213.636 156.581C213.636 157.767 214.598 158.729 215.784 158.729Z" fill="white"/>
<path d="M237.815 141.738C238.088 140.584 237.373 139.427 236.219 139.154C235.064 138.882 233.907 139.597 233.635 140.751C233.362 141.905 234.077 143.062 235.231 143.335C236.386 143.608 237.543 142.893 237.815 141.738Z" fill="white"/>
<path d="M269.043 206.774C270.229 206.774 271.191 205.813 271.191 204.627C271.191 203.44 270.229 202.479 269.043 202.479C267.857 202.479 266.895 203.44 266.895 204.627C266.895 205.813 267.857 206.774 269.043 206.774Z" fill="white"/>
<path d="M293.492 155.829C294.588 155.375 295.109 154.119 294.655 153.023C294.201 151.927 292.944 151.406 291.848 151.86C290.752 152.314 290.232 153.571 290.686 154.667C291.14 155.763 292.396 156.283 293.492 155.829Z" fill="white"/>
<path d="M261.915 133.33C262.188 132.175 261.473 131.019 260.319 130.746C259.164 130.473 258.007 131.188 257.735 132.343C257.462 133.497 258.177 134.654 259.331 134.927C260.486 135.199 261.643 134.484 261.915 133.33Z" fill="white"/>
<path d="M259.809 170.403C260.905 169.949 261.425 168.692 260.971 167.596C260.517 166.5 259.261 165.98 258.165 166.434C257.069 166.888 256.548 168.144 257.002 169.24C257.456 170.336 258.713 170.857 259.809 170.403Z" fill="white"/>
<path d="M244.786 191.061C245.882 190.607 246.402 189.351 245.948 188.255C245.494 187.159 244.238 186.638 243.142 187.092C242.046 187.546 241.525 188.803 241.979 189.899C242.433 190.995 243.69 191.515 244.786 191.061Z" fill="white"/>
<path d="M214.25 190.821C215.089 189.982 215.089 188.622 214.25 187.784C213.412 186.945 212.052 186.945 211.213 187.784C210.374 188.622 210.374 189.982 211.213 190.821C212.052 191.66 213.412 191.66 214.25 190.821Z" fill="white"/>
<path d="M216.973 219.18C217.245 218.025 216.53 216.868 215.376 216.596C214.221 216.323 213.065 217.038 212.792 218.193C212.519 219.347 213.234 220.504 214.389 220.776C215.543 221.049 216.7 220.334 216.973 219.18Z" fill="white"/>
<path d="M304.635 181.084C305.822 181.084 306.783 180.122 306.783 178.936C306.783 177.75 305.822 176.788 304.635 176.788C303.449 176.788 302.488 177.75 302.488 178.936C302.488 180.122 303.449 181.084 304.635 181.084Z" fill="white"/>
<path d="M313.989 162.476C314.262 161.321 313.547 160.164 312.392 159.892C311.238 159.619 310.081 160.334 309.808 161.489C309.536 162.643 310.251 163.8 311.405 164.072C312.56 164.345 313.716 163.63 313.989 162.476Z" fill="white"/>
<path d="M222.788 146.84C223.316 146.312 223.316 145.456 222.788 144.928C222.26 144.4 221.404 144.4 220.876 144.928C220.347 145.456 220.347 146.312 220.876 146.84C221.404 147.368 222.26 147.368 222.788 146.84Z" fill="white"/>
<path d="M302.487 149.304C303.234 149.304 303.839 148.699 303.839 147.952C303.839 147.206 303.234 146.6 302.487 146.6C301.74 146.6 301.135 147.206 301.135 147.952C301.135 148.699 301.74 149.304 302.487 149.304Z" fill="white"/>
<path d="M293.262 193.929C294.008 193.929 294.614 193.324 294.614 192.577C294.614 191.83 294.008 191.225 293.262 191.225C292.515 191.225 291.909 191.83 291.909 192.577C291.909 193.324 292.515 193.929 293.262 193.929Z" fill="white"/>
<path d="M310.695 190.034C311.223 189.506 311.223 188.65 310.695 188.122C310.167 187.594 309.311 187.594 308.783 188.122C308.255 188.65 308.255 189.506 308.783 190.034C309.311 190.562 310.167 190.562 310.695 190.034Z" fill="white"/>
<path d="M229.546 223.119C230.236 222.834 230.564 222.043 230.278 221.353C229.992 220.663 229.201 220.335 228.511 220.621C227.821 220.907 227.494 221.698 227.779 222.388C228.065 223.077 228.856 223.405 229.546 223.119Z" fill="white"/>
<path d="M208.589 227.613C209.336 227.613 209.941 227.007 209.941 226.261C209.941 225.514 209.336 224.909 208.589 224.909C207.842 224.909 207.237 225.514 207.237 226.261C207.237 227.007 207.842 227.613 208.589 227.613Z" fill="white"/>
<path d="M204.846 216.595C205.536 216.309 205.864 215.518 205.578 214.829C205.292 214.139 204.501 213.811 203.811 214.097C203.121 214.383 202.794 215.174 203.079 215.863C203.365 216.553 204.156 216.881 204.846 216.595Z" fill="white"/>
<path d="M240.839 159.856C241.586 159.856 242.192 159.251 242.192 158.504C242.192 157.757 241.586 157.152 240.839 157.152C240.093 157.152 239.487 157.757 239.487 158.504C239.487 159.251 240.093 159.856 240.839 159.856Z" fill="white"/>
<path d="M262.52 186.929C263.267 186.929 263.872 186.324 263.872 185.577C263.872 184.83 263.267 184.225 262.52 184.225C261.774 184.225 261.168 184.83 261.168 185.577C261.168 186.324 261.774 186.929 262.52 186.929Z" fill="white"/>
<path d="M277.487 148.564C278.234 148.564 278.839 147.958 278.839 147.212C278.839 146.465 278.234 145.86 277.487 145.86C276.74 145.86 276.135 146.465 276.135 147.212C276.135 147.958 276.74 148.564 277.487 148.564Z" fill="white"/>
<path d="M227.268 202.083C227.796 201.555 227.796 200.699 227.268 200.17C226.74 199.642 225.884 199.642 225.356 200.17C224.828 200.699 224.828 201.555 225.356 202.083C225.884 202.611 226.74 202.611 227.268 202.083Z" fill="white"/>
<path d="M238.414 174.852C238.533 174.115 238.033 173.42 237.296 173.301C236.559 173.181 235.864 173.682 235.744 174.419C235.625 175.156 236.125 175.851 236.863 175.97C237.6 176.09 238.294 175.589 238.414 174.852Z" fill="white"/>
<path d="M221.437 172.243C221.965 171.715 221.965 170.859 221.437 170.331C220.909 169.802 220.053 169.802 219.525 170.331C218.997 170.859 218.997 171.715 219.525 172.243C220.053 172.771 220.909 172.771 221.437 172.243Z" fill="white"/>
<path d="M277.487 168.406C278.234 168.406 278.839 167.8 278.839 167.054C278.839 166.307 278.234 165.702 277.487 165.702C276.74 165.702 276.135 166.307 276.135 167.054C276.135 167.8 276.74 168.406 277.487 168.406Z" fill="white"/>
<path d="M150.418 196.603C150.418 196.603 170.844 222.755 147.539 249.354L138.778 248.537C138.778 248.537 155.644 221.457 148.132 199.87L135.721 200.776L128.858 196.302L150.418 196.603Z" fill="url(#paint0_linear_407_349)"/>
<path d="M139.231 324.641C139.231 324.641 122.682 360.711 113.999 375.651C113.999 375.651 112.275 385.051 113.999 388.007L115.469 388.661L108.61 388.456C108.61 388.456 108.001 375.812 108.476 375.106C108.952 374.399 109.904 374.446 109.904 374.446C109.904 374.446 112.845 351.145 121.363 346.172L129.617 317.74L139.231 324.641Z" fill="url(#paint1_linear_407_349)"/>
<path d="M118.398 390.431C118.409 390.597 113.043 390.521 110.128 390.468C109.051 390.448 108.134 389.692 107.904 388.64L105.703 377.075C105.494 375.976 106.192 374.908 107.282 374.659L108.511 374.378C108.511 374.378 110.264 376.783 109.712 379.046C109.16 381.31 108.669 387.175 110.064 387.858C111.458 388.541 115.469 388.661 115.469 388.661C115.469 388.661 118.307 388.942 118.398 390.431Z" fill="#6449FF"/>
<path d="M154.917 390.641C155.46 390.95 155.236 391.779 154.611 391.773C149.733 391.724 138.802 391.569 137.831 391.166C136.577 390.644 138.288 386.138 140.088 384.613L150.031 387.858L154.917 390.641Z" fill="#000018"/>
<path d="M158.004 322.341C158.004 322.341 147.309 374.077 144.284 384.17L151.441 388.661C151.441 388.661 147.854 388.051 145.195 387.858C142.535 387.665 140.089 384.613 140.089 384.613L140.946 383.245C140.946 383.245 143.628 331.791 142.975 325.948L158.004 322.341Z" fill="url(#paint2_linear_407_349)"/>
<path d="M184.551 201.666C184.551 201.666 186.026 228.579 161.524 242.331L167.423 255.785C167.423 255.785 189.606 242.367 188.786 205.772C188.763 204.722 189.141 203.702 189.827 202.906L194.542 197.436C196.338 195.352 197.01 192.525 196.342 189.856L195.721 187.376C195.513 186.545 194.568 186.146 193.827 186.576L193.334 186.862C191.765 187.774 190.521 189.156 189.78 190.812L187.465 195.988C186.601 197.921 184.607 199.094 182.497 198.912L181.065 198.788L184.551 201.666Z" fill="url(#paint3_linear_407_349)"/>
<path d="M162.377 240.315C158.278 241.451 144.391 245.105 135.721 244.955L141.044 274.994L140.62 279.894L157.975 279.816C157.975 279.816 162.861 268.469 166.716 262.812C167.829 261.179 167 259.23 166.369 257.356L167.236 256.779C168.119 256.192 168.501 255.088 168.172 254.081L163.946 241.15C163.726 240.498 163.04 240.131 162.377 240.315Z" fill="#6449FF"/>
<path d="M159.366 277.252L159.024 280.22C159.024 280.22 163.929 294.908 156.572 329.214C156.572 329.214 140.639 333.728 127.543 322.927C127.543 322.927 131.237 290.547 132.246 289.039C137.272 281.527 140.62 279.893 140.62 279.893L140.771 276.651C140.771 276.651 154.777 279.183 159.366 277.252Z" fill="#000018"/>
<path d="M152.572 242.735C152.633 242.655 148.949 231.612 148.949 231.612L143.672 232.091L141.61 244.619C141.61 244.619 149.881 246.288 152.572 242.735Z" fill="url(#paint4_linear_407_349)"/>
<path d="M144.935 214.198C145.287 214.417 156.212 218.932 153.865 230.274C153.726 230.944 153.279 231.512 152.654 231.791C151.051 232.506 147.599 233.731 143.471 233.311C137.748 232.73 133.998 222.742 134.157 219.836C134.317 216.93 141.448 212.026 144.935 214.198Z" fill="url(#paint5_linear_407_349)"/>
<path d="M141.61 209.788C141.897 209.826 147.923 211.925 144.935 216.292C141.946 220.658 140.825 223.229 142.239 225.146C143.527 226.893 146.379 225.898 146.13 229.532C146.08 230.26 146.395 230.966 146.999 231.375C149.687 233.195 156.246 238.795 149.748 246.783C149.22 247.432 149.111 248.328 149.518 249.059C151.421 252.473 155.419 262.473 140.946 268.02C126.645 273.501 121.481 264.153 120.039 260.416C119.727 259.608 118.931 259.113 118.066 259.154C116.494 259.228 114.267 258.967 114.37 256.867C114.432 255.591 115.228 254.448 116.168 253.532C117.099 252.624 116.915 251.036 115.785 250.394C114.931 249.909 114.176 249.152 113.857 247.97C112.99 244.759 114.721 235.156 123.925 233.528C124.693 233.393 125.497 232.673 125.609 231.901C125.611 231.89 125.612 231.878 125.614 231.867C125.738 231.12 125.485 230.357 124.875 229.91C123.405 228.832 121.521 226.661 123.052 223.18C124.409 220.093 127.013 219.051 128.948 218.719C130.084 218.525 130.83 217.451 130.591 216.323C129.938 213.252 130.507 208.333 141.61 209.788Z" fill="#000018"/>
<path d="M209.074 197.219H110.709C109.376 197.219 108.295 196.138 108.295 194.805V106.966C108.295 105.633 109.376 104.552 110.709 104.552H209.074C210.408 104.552 211.489 105.633 211.489 106.966V194.805C211.489 196.138 210.408 197.219 209.074 197.219Z" fill="#F545A6"/>
<path opacity="0.7" d="M115.321 144.75C115.096 144.75 114.913 144.568 114.913 144.343V118.986C114.913 114.286 118.737 110.463 123.436 110.463H152.573C152.798 110.463 152.981 110.645 152.981 110.87C152.981 111.095 152.798 111.278 152.573 111.278H123.436C119.186 111.278 115.728 114.736 115.728 118.986V144.343C115.728 144.568 115.546 144.75 115.321 144.75Z" fill="white"/>
<path opacity="0.7" d="M115.321 164.592C115.096 164.592 114.913 164.41 114.913 164.185V147.478C114.913 147.253 115.096 147.071 115.321 147.071C115.546 147.071 115.728 147.253 115.728 147.478V164.185C115.728 164.41 115.546 164.592 115.321 164.592Z" fill="white"/>
<path d="M173.494 178.336H166.134C165.308 178.336 164.631 178.13 164.1 177.717C163.569 177.304 163.185 176.791 162.95 176.178L159.129 165.739H137.934L134.112 176.178C133.924 176.721 133.552 177.216 132.998 177.664C132.443 178.112 131.765 178.336 130.963 178.336H123.568L143.666 127.172H153.397L173.494 178.336ZM140.375 159.017H156.687L150.46 141.997C150.176 141.243 149.863 140.352 149.522 139.326C149.18 138.3 148.843 137.185 148.513 135.982C148.183 137.185 147.859 138.306 147.54 139.344C147.222 140.382 146.909 141.29 146.602 142.068L140.375 159.017Z" fill="white"/>
<path d="M189.487 178.336H179.934V127.172H189.487V178.336Z" fill="white"/>
<g opacity="0.3">
<path d="M325.511 80.9114C325.226 80.4744 325.312 79.8836 325.726 79.5478C326.631 78.8128 327.582 78.1065 328.551 77.4481C329.023 77.1278 329.665 77.2504 329.985 77.7219C329.989 77.7276 329.992 77.7332 329.996 77.7388C330.302 78.2086 330.177 78.8393 329.711 79.1557C328.79 79.7811 327.887 80.4523 327.027 81.1503C326.585 81.5096 325.934 81.4421 325.575 80.9994C325.552 80.9711 325.53 80.9416 325.511 80.9114ZM333.081 76.0584C333.059 76.0246 333.038 75.989 333.02 75.9519C332.767 75.4411 332.976 74.8217 333.487 74.5687C334.536 74.0493 335.618 73.5696 336.703 73.143C337.233 72.9342 337.83 73.1937 338.042 73.7255C338.25 74.256 337.989 74.8552 337.459 75.0638C336.428 75.4693 335.4 75.9251 334.403 76.419C333.929 76.6535 333.362 76.4906 333.081 76.0584ZM341.531 72.9927C341.468 72.8964 341.421 72.788 341.392 72.6698C341.26 72.1155 341.601 71.5583 342.156 71.4254C343.292 71.1528 344.454 70.9265 345.61 70.7525C346.174 70.668 346.699 71.0566 346.784 71.6196C346.869 72.1833 346.481 72.7091 345.917 72.7939C344.819 72.959 343.716 73.174 342.637 73.4328C342.201 73.5373 341.763 73.3481 341.531 72.9927ZM350.457 71.8933C350.353 71.7342 350.292 71.5446 350.29 71.3407C350.284 70.7708 350.742 70.3041 351.312 70.2985C352.481 70.2873 353.665 70.3264 354.83 70.4147C355.398 70.4583 355.824 70.9537 355.781 71.5221C355.738 72.0903 355.243 72.5162 354.674 72.4732C353.567 72.3892 352.443 72.3519 351.332 72.363C350.966 72.3663 350.643 72.1789 350.457 71.8933ZM359.403 72.8119C359.257 72.5888 359.198 72.31 359.259 72.0293C359.38 71.472 359.93 71.1186 360.487 71.2399C361.626 71.4877 362.772 71.7877 363.89 72.132C364.435 72.2992 364.741 72.8768 364.574 73.4219C364.406 73.9666 363.828 74.2724 363.283 74.105C362.22 73.7776 361.132 73.4924 360.048 73.257C359.772 73.1969 359.546 73.0315 359.403 72.8119ZM367.923 75.6864C367.734 75.3975 367.695 75.0208 367.852 74.6853C368.093 74.1688 368.707 73.9458 369.224 74.1869C370.282 74.6813 371.333 75.2274 372.346 75.81C372.84 76.0945 373.01 76.7254 372.726 77.2196C372.442 77.7136 371.811 77.8838 371.316 77.5996C370.354 77.046 369.356 76.527 368.35 76.0573C368.169 75.9727 368.024 75.8424 367.923 75.6864ZM390.63 106.033C390.552 105.914 390.498 105.776 390.475 105.626C390.308 104.529 390.091 103.426 389.83 102.345C389.696 101.791 390.036 101.233 390.59 101.099C391.144 100.965 391.702 101.306 391.836 101.86C392.111 102.998 392.34 104.161 392.516 105.315C392.601 105.879 392.214 106.405 391.65 106.491C391.237 106.554 390.844 106.362 390.63 106.033ZM375.588 80.3746C375.355 80.0158 375.361 79.534 375.639 79.1772C375.989 78.7272 376.637 78.6464 377.087 78.9963C378.009 79.7137 378.912 80.48 379.769 81.274C380.185 81.6631 380.212 82.3143 379.825 82.7327C379.437 83.1508 378.784 83.1758 378.366 82.7884C377.552 82.0343 376.695 81.3067 375.82 80.6254C375.727 80.5529 375.649 80.4679 375.588 80.3746ZM388.284 97.3535C388.246 97.2964 388.214 97.235 388.188 97.1691C387.78 96.1373 387.321 95.1095 386.826 94.1141C386.573 93.6035 386.781 92.9839 387.291 92.7301C387.801 92.4765 388.423 92.6824 388.675 93.1945C389.196 94.2419 389.678 95.3235 390.108 96.4091C390.317 96.9391 390.058 97.5391 389.528 97.7487C389.064 97.9325 388.546 97.7561 388.284 97.3535ZM382.015 86.6575C381.73 86.2211 381.815 85.6313 382.228 85.2951C382.67 84.9349 383.32 85.0013 383.681 85.4429C384.418 86.3477 385.126 87.2965 385.785 88.2633C385.789 88.2691 385.793 88.2754 385.797 88.2814C386.103 88.7506 385.979 89.3802 385.514 89.6973C385.043 90.0185 384.401 89.8972 384.079 89.4259C383.453 88.5078 382.781 87.6067 382.08 86.7472C382.057 86.718 382.035 86.6881 382.015 86.6575Z" fill="#F545A6"/>
<path d="M391.067 113.268C390.956 113.098 390.894 112.893 390.9 112.674C390.917 112.142 390.922 111.601 390.916 111.066C390.91 110.496 391.368 110.029 391.937 110.023C392.507 110.017 392.975 110.474 392.98 111.044C392.986 111.607 392.981 112.177 392.964 112.736C392.947 113.306 392.471 113.754 391.901 113.737C391.55 113.727 391.245 113.542 391.067 113.268Z" fill="#F545A6"/>
</g>
<g opacity="0.3">
<path d="M377.91 141.854C377.638 141.437 377.702 140.872 378.082 140.527C378.477 140.17 378.87 139.798 379.252 139.423C379.658 139.023 380.311 139.028 380.711 139.434C381.113 139.842 381.106 140.494 380.7 140.894C380.298 141.289 379.884 141.68 379.469 142.057C379.047 142.439 378.394 142.407 378.011 141.985C377.973 141.944 377.94 141.9 377.91 141.854Z" fill="#F545A6"/>
<path d="M317.231 134.071C316.971 133.673 316.718 133.269 316.47 132.859C316.175 132.371 316.332 131.737 316.819 131.442C317.307 131.147 317.945 131.304 318.237 131.791C318.809 132.736 319.417 133.656 320.054 134.535C320.387 134.998 320.284 135.642 319.823 135.977C319.361 136.311 318.715 136.208 318.381 135.746C317.987 135.202 317.6 134.638 317.231 134.071ZM313.976 128.014C313.944 127.966 313.916 127.914 313.893 127.859C313.435 126.802 313.018 125.714 312.652 124.625C312.47 124.085 312.761 123.5 313.301 123.318C313.842 123.137 314.429 123.428 314.609 123.968C314.956 125.002 315.353 126.036 315.787 127.04C316.013 127.563 315.773 128.171 315.25 128.397C314.781 128.6 314.245 128.428 313.976 128.014ZM321.863 139.914C321.598 139.507 321.651 138.955 322.015 138.606C322.427 138.212 323.08 138.226 323.474 138.638C324.228 139.426 325.026 140.192 325.847 140.915C326.274 141.293 326.316 141.944 325.939 142.372C325.561 142.8 324.909 142.84 324.482 142.464C323.618 141.702 322.777 140.895 321.983 140.065C321.938 140.018 321.898 139.967 321.863 139.914ZM311.378 119.553C311.307 119.444 311.255 119.318 311.229 119.182C311.016 118.051 310.848 116.898 310.731 115.754C310.672 115.187 311.085 114.68 311.652 114.622C312.219 114.564 312.726 114.976 312.784 115.543C312.895 116.629 313.055 117.725 313.258 118.798C313.364 119.358 312.995 119.898 312.435 120.004C312.012 120.084 311.6 119.893 311.378 119.553ZM328.649 145.586C328.431 145.251 328.418 144.806 328.653 144.452C328.968 143.976 329.609 143.846 330.084 144.161C330.992 144.764 331.939 145.336 332.899 145.861C333.399 146.135 333.582 146.762 333.308 147.262C333.034 147.762 332.407 147.945 331.907 147.671C330.897 147.118 329.9 146.516 328.943 145.882C328.822 145.802 328.723 145.7 328.649 145.586ZM336.514 149.631C336.34 149.364 336.292 149.02 336.414 148.699C336.618 148.166 337.214 147.9 337.747 148.103C338.768 148.493 339.818 148.845 340.866 149.148C341.414 149.306 341.73 149.878 341.571 150.427C341.412 150.974 340.84 151.29 340.293 151.131C339.189 150.812 338.084 150.442 337.01 150.031C336.798 149.95 336.629 149.808 336.514 149.631ZM345.074 151.866C344.942 151.663 344.88 151.412 344.918 151.153C345.001 150.589 345.525 150.199 346.089 150.281C347.172 150.44 348.273 150.555 349.362 150.623C349.931 150.658 350.363 151.147 350.328 151.717C350.292 152.286 349.803 152.718 349.234 152.683C348.088 152.612 346.929 152.491 345.79 152.324C345.485 152.279 345.23 152.105 345.074 151.866ZM353.918 152.18C353.826 152.039 353.767 151.874 353.754 151.695C353.711 151.126 354.137 150.631 354.706 150.588C355.796 150.507 356.895 150.377 357.973 150.204C358.536 150.114 359.066 150.497 359.156 151.059C359.247 151.622 358.864 152.152 358.301 152.242C357.166 152.425 356.008 152.561 354.86 152.647C354.471 152.676 354.117 152.485 353.918 152.18ZM362.618 150.545C362.566 150.466 362.524 150.378 362.496 150.283C362.329 149.738 362.635 149.161 363.18 148.994C364.223 148.675 365.266 148.307 366.281 147.9C366.81 147.687 367.411 147.946 367.623 148.473C367.836 149.002 367.578 149.603 367.049 149.816C365.981 150.244 364.883 150.632 363.785 150.968C363.335 151.106 362.862 150.921 362.618 150.545ZM370.74 147.041C370.729 147.023 370.718 147.005 370.707 146.986C370.425 146.491 370.599 145.86 371.095 145.579C371.794 145.182 372.49 144.758 373.163 144.319C373.406 144.161 373.648 143.999 373.886 143.836C374.357 143.515 375 143.636 375.321 144.107C375.656 144.577 375.522 145.219 375.051 145.541C374.8 145.713 374.546 145.882 374.29 146.049C373.582 146.51 372.85 146.956 372.114 147.374C371.637 147.645 371.036 147.494 370.74 147.041Z" fill="#F545A6"/>
<path d="M310.709 110.703C310.597 110.531 310.535 110.324 310.542 110.104C310.562 109.546 310.594 108.977 310.637 108.414C310.68 107.846 311.176 107.42 311.745 107.464C312.313 107.507 312.739 108.002 312.695 108.571C312.654 109.106 312.624 109.646 312.605 110.176C312.585 110.746 312.108 111.192 311.538 111.172C311.188 111.159 310.886 110.975 310.709 110.703Z" fill="#F545A6"/>
</g>
<path d="M321.5 105.334C321.437 105.53 321.506 105.744 321.671 105.867L326.377 109.378C326.161 112.112 326.38 114.899 327.068 117.636L323.017 121.88C322.874 122.029 322.843 122.251 322.937 122.434L326.168 128.692C326.262 128.875 326.462 128.978 326.666 128.948L332.472 128.104C334.304 130.25 336.45 132.042 338.804 133.45L338.94 139.319C338.945 139.525 339.079 139.705 339.275 139.768L345.985 141.908C346.181 141.971 346.395 141.902 346.518 141.737L350.029 137.031C352.762 137.247 355.55 137.028 358.286 136.34L362.531 140.392C362.679 140.534 362.902 140.566 363.085 140.471L369.343 137.241C369.526 137.146 369.629 136.946 369.599 136.743L368.754 130.936C370.9 129.104 372.693 126.958 374.1 124.605L379.97 124.468C380.176 124.464 380.356 124.329 380.418 124.133L382.559 117.423C382.622 117.227 382.553 117.013 382.388 116.89L377.682 113.379C377.898 110.646 377.679 107.858 376.99 105.122L381.042 100.878C381.184 100.729 381.216 100.506 381.122 100.323L377.891 94.0652C377.797 93.8823 377.597 93.7795 377.393 93.8091L371.587 94.6539C369.754 92.5077 367.609 90.7152 365.255 89.308L365.119 83.4382C365.114 83.2325 364.979 83.0523 364.783 82.9898L358.074 80.8492C357.878 80.7866 357.664 80.8553 357.541 81.0202L354.03 85.7264C351.296 85.5106 348.509 85.7292 345.772 86.4176L341.528 82.366C341.379 82.2238 341.157 82.1919 340.974 82.2864L334.716 85.5168C334.533 85.6112 334.43 85.8112 334.46 86.0149L335.305 91.8214C333.158 93.6535 331.366 95.7994 329.959 98.1526L324.089 98.289C323.883 98.2937 323.703 98.4284 323.64 98.6246L321.5 105.334Z" fill="#F545A6"/>
<path d="M346.095 115.24C344.211 112.349 344.68 108.427 347.341 106.075C350.266 103.489 354.748 103.766 357.334 106.691C358.586 108.107 359.212 109.927 359.095 111.814C358.979 113.702 358.135 115.431 356.718 116.683C353.793 119.268 349.31 118.992 346.725 116.067C346.492 115.803 346.282 115.527 346.095 115.24ZM356.584 108.425C356.438 108.201 356.276 107.988 356.096 107.784C354.114 105.542 350.677 105.33 348.435 107.312C346.192 109.294 345.979 112.731 347.962 114.973C349.944 117.216 353.382 117.428 355.624 115.446C356.71 114.486 357.358 113.16 357.447 111.713C357.519 110.537 357.216 109.394 356.584 108.425Z" fill="white"/>
<path d="M337.609 120.943C337.285 120.447 336.985 119.931 336.709 119.397C336.623 119.229 336.539 119.06 336.457 118.889C336.056 118.047 335.723 117.174 335.462 116.285C335.459 116.273 335.455 116.26 335.452 116.248C335.442 116.214 335.432 116.179 335.422 116.145C335.403 116.078 335.385 116.01 335.366 115.943C335.318 115.766 335.393 115.585 335.539 115.489C335.574 115.466 335.614 115.448 335.657 115.437C335.877 115.377 336.103 115.508 336.163 115.727C336.47 116.86 336.9 117.967 337.443 119.018C340.137 124.239 345.239 127.425 350.697 127.923C353.733 128.2 356.879 127.645 359.783 126.146C360.292 125.883 360.784 125.596 361.258 125.288C364.445 123.21 366.801 120.126 367.973 116.452C369.319 112.233 368.942 107.742 366.91 103.807C362.714 95.6793 352.695 92.485 344.571 96.6788C344.07 96.9373 343.584 97.2204 343.115 97.5262C341.082 98.8514 339.361 100.607 338.083 102.672C338.05 102.725 338.007 102.769 337.958 102.801C337.828 102.885 337.655 102.893 337.515 102.806C337.321 102.685 337.261 102.432 337.381 102.237C338.723 100.069 340.529 98.2259 342.664 96.8346C343.156 96.5135 343.666 96.2166 344.192 95.945C352.721 91.5419 363.242 94.9015 367.644 103.428C369.777 107.559 370.173 112.274 368.76 116.703C367.529 120.56 365.056 123.798 361.71 125.979C361.213 126.303 360.696 126.604 360.162 126.88C356.03 129.013 351.315 129.409 346.886 127.996C343.028 126.765 339.79 124.29 337.609 120.943Z" fill="white"/>
<defs>
<linearGradient id="paint0_linear_407_349" x1="136.123" y1="193.275" x2="150.805" y2="238.28" gradientUnits="userSpaceOnUse">
<stop stop-color="#FEBBBA"/>
<stop offset="1" stop-color="#FF928E"/>
</linearGradient>
<linearGradient id="paint1_linear_407_349" x1="139.231" y1="353.201" x2="108.295" y2="353.201" gradientUnits="userSpaceOnUse">
<stop stop-color="#FEBBBA"/>
<stop offset="1" stop-color="#FF928E"/>
</linearGradient>
<linearGradient id="paint2_linear_407_349" x1="158.004" y1="355.501" x2="140.089" y2="355.501" gradientUnits="userSpaceOnUse">
<stop stop-color="#FEBBBA"/>
<stop offset="1" stop-color="#FF928E"/>
</linearGradient>
<linearGradient id="paint3_linear_407_349" x1="196.595" y1="221.093" x2="161.524" y2="221.093" gradientUnits="userSpaceOnUse">
<stop stop-color="#FEBBBA"/>
<stop offset="1" stop-color="#FF928E"/>
</linearGradient>
<linearGradient id="paint4_linear_407_349" x1="152.573" y1="238.311" x2="141.61" y2="238.311" gradientUnits="userSpaceOnUse">
<stop stop-color="#FEBBBA"/>
<stop offset="1" stop-color="#FF928E"/>
</linearGradient>
<linearGradient id="paint5_linear_407_349" x1="135.15" y1="224.144" x2="55.3545" y2="229.57" gradientUnits="userSpaceOnUse">
<stop stop-color="#FEBBBA"/>
<stop offset="1" stop-color="#FF928E"/>
</linearGradient>
</defs>
</svg>
