<svg xmlns="http://www.w3.org/2000/svg" xmlns:xlink="http://www.w3.org/1999/xlink" width="241.082" height="104.107" viewBox="0 0 241.082 104.107">
  <defs>
    <filter id="Path_31" x="0" y="0" width="79.781" height="80.281" filterUnits="userSpaceOnUse">
      <feOffset dy="3" input="SourceAlpha"/>
      <feGaussianBlur stdDeviation="3" result="blur"/>
      <feFlood flood-opacity="0.161"/>
      <feComposite operator="in" in2="blur"/>
      <feComposite in="SourceGraphic"/>
    </filter>
  </defs>
  <g id="Group_56" data-name="Group 56" transform="translate(-1852.717 -772.915)">
    <path id="Path_30" data-name="Path 30" d="M477.226,448.526c24.589-.249,40.792,21.624,43.192,44.409,2.636,25.04-15.2,49.163-39.323,56a56.429,56.429,0,0,1-39.434-3.8c-11.235-5.406-26.867-18.032-22.153-32.61,1.414-4.374,6.167-7.862,10.581-6.58a8.5,8.5,0,0,1,4.98,4.257c2.576,4.861.765,11.114-2.87,15.244-12.549,14.259-36,14.853-52.571,8.911-19.528-7-33.5-21.978-48-36.069" transform="translate(1572.598 325.476)" fill="none" stroke="#646464" stroke-miterlimit="10" stroke-width="1" stroke-dasharray="2 2"/>
    <g transform="matrix(1, 0, 0, 1, 1852.72, 772.91)" filter="url(#Path_31)">
      <g id="Path_31-2" data-name="Path 31" transform="translate(9 33.18) rotate(-41)" fill="#4696f4">
        <path d="M 39.50706481933594 44.64033508300781 L 21.09444808959961 37.12497329711914 L 20.71654891967773 36.97073364257812 L 20.33864784240723 37.12497329711914 L 1.926054120063782 44.64033126831055 L 20.7165584564209 2.457561731338501 L 39.50706481933594 44.64033508300781 Z" stroke="none"/>
        <path d="M 20.7165584564209 4.915107727050781 L 3.852108001708984 42.77408981323242 L 20.71654891967773 35.89064407348633 L 37.58101272583008 42.77408981323242 L 20.7165584564209 4.915107727050781 M 20.7165584564209 -3.814697265625e-06 L 41.4331169128418 46.50656509399414 L 20.71654891967773 38.05082321166992 L 0 46.50656509399414 L 20.7165584564209 -3.814697265625e-06 Z" stroke="none" fill="#fff"/>
      </g>
    </g>
  </g>
</svg>
