<svg width="65" height="64" viewBox="0 0 65 64" fill="none" xmlns="http://www.w3.org/2000/svg">
<path d="M20.615 34.8783L15.5 42.1933L21.055 43.8433L24.5017 48.5L29.7817 40.965" stroke="#F545A6" stroke-width="2.475" stroke-linecap="round" stroke-linejoin="round"/>
<path d="M43.3843 34.8783L48.4993 42.1933L42.9443 43.8433L39.4977 48.5L34.2177 40.965" stroke="#F545A6" stroke-width="2.475" stroke-linecap="round" stroke-linejoin="round"/>
<path d="M32.0012 41.1667C39.0888 41.1667 44.8345 35.421 44.8345 28.3333C44.8345 21.2457 39.0888 15.5 32.0012 15.5C24.9135 15.5 19.1678 21.2457 19.1678 28.3333C19.1678 35.421 24.9135 41.1667 32.0012 41.1667Z" stroke="#F545A6" stroke-width="2.475" stroke-linecap="round" stroke-linejoin="round"/>
<path d="M30.0428 23.3433C30.9136 21.7811 31.349 21 32 21C32.651 21 33.0864 21.7811 33.9572 23.3433L34.1825 23.7474C34.43 24.1913 34.5536 24.4133 34.7466 24.5597C34.9395 24.7062 35.1797 24.7606 35.6603 24.8693L36.0978 24.9683C37.7888 25.3509 38.6344 25.5422 38.8355 26.1891C39.0367 26.8359 38.4603 27.51 37.3074 28.858L37.0092 29.2068C36.6816 29.5899 36.5178 29.7814 36.4441 30.0184C36.3704 30.2554 36.3952 30.5109 36.4447 31.0221L36.4898 31.4874C36.6641 33.286 36.7512 34.1853 36.2246 34.5851C35.6979 34.9849 34.9063 34.6204 33.3229 33.8914L32.9133 33.7028C32.4634 33.4956 32.2385 33.392 32 33.392C31.7615 33.392 31.5366 33.4956 31.0867 33.7028L30.677 33.8914C29.0937 34.6204 28.3021 34.9849 27.7754 34.5851C27.2488 34.1853 27.3359 33.286 27.5102 31.4874L27.5553 31.0221C27.6048 30.5109 27.6296 30.2554 27.5559 30.0184C27.4822 29.7814 27.3184 29.5899 26.9908 29.2068L26.6926 28.858C25.5397 27.51 24.9633 26.8359 25.1645 26.1891C25.3656 25.5422 26.2112 25.3509 27.9022 24.9683L28.3397 24.8693C28.8202 24.7606 29.0605 24.7062 29.2534 24.5597C29.4463 24.4133 29.57 24.1913 29.8175 23.7474L30.0428 23.3433Z" fill="#F545A6"/>
</svg>
