<svg width="48" height="48" viewBox="0 0 48 48" fill="none" xmlns="http://www.w3.org/2000/svg">
<path d="M39.5237 8H9.04588C7.36633 8 6 9.36642 6 11.046V30.9098C6 32.5894 7.36633 33.9558 9.04588 33.9558H18.8659L17.0021 38.0658C16.8096 38.4903 16.8458 38.9834 17.0983 39.3751C17.3508 39.7668 17.7849 40.0034 18.2509 40.0034H30.3185C30.3185 40.0034 30.3198 40.0034 30.3203 40.0034C31.0778 40.0034 31.6917 39.3895 31.6917 38.6321C31.6917 38.4041 31.6364 38.1888 31.5375 37.9998L29.7034 33.9558H39.5234C41.203 33.9558 42.5693 32.5894 42.5693 30.9098V11.046C42.5696 9.36642 41.2033 8 39.5237 8ZM39.8269 30.9099C39.8269 31.0771 39.6908 31.2131 39.5237 31.2131H9.04588C8.87876 31.2131 8.74272 31.0771 8.74272 30.9099V11.046C8.74272 10.8788 8.87876 10.7427 9.04588 10.7427H39.5236C39.6907 10.7427 39.8268 10.8788 39.8268 11.046L39.8269 30.9099Z" fill="#F545A6"/>
<path d="M20.3415 24.7628C19.9328 24.7539 19.5424 24.5918 19.2475 24.3087L16.3579 21.419C16.068 21.1288 15.9052 20.7353 15.9052 20.3251C15.9052 19.9149 16.068 19.5214 16.3579 19.2312L19.4746 16.1145C19.7648 15.8246 20.1583 15.6617 20.5685 15.6617C20.9787 15.6617 21.3722 15.8246 21.6625 16.1145C21.8085 16.2568 21.9246 16.4269 22.0038 16.6148C22.0831 16.8026 22.1239 17.0045 22.1239 17.2084C22.1239 17.4123 22.0831 17.6142 22.0038 17.8021C21.9246 17.9899 21.8085 18.16 21.6625 18.3024L19.5984 20.3664L21.3941 22.1415C21.6804 22.4378 21.8404 22.8337 21.8404 23.2457C21.8404 23.6577 21.6804 24.0537 21.3941 24.35C21.1037 24.6087 20.7304 24.7551 20.3415 24.7628Z" fill="#F545A6"/>
<path d="M27.7309 24.7634C27.3223 24.7545 26.9318 24.5925 26.637 24.3093C26.3507 24.013 26.1907 23.6171 26.1907 23.2051C26.1907 22.7931 26.3507 22.3971 26.637 22.1008L28.4327 20.3257L26.3687 18.2617C26.2226 18.1194 26.1066 17.9493 26.0273 17.7614C25.9481 17.5735 25.9072 17.3717 25.9072 17.1678C25.9072 16.9638 25.9481 16.762 26.0273 16.5741C26.1066 16.3862 26.2226 16.2161 26.3687 16.0738C26.6589 15.7839 27.0524 15.6211 27.4626 15.6211C27.8729 15.6211 28.2663 15.7839 28.5566 16.0738L31.6733 19.1905C31.9632 19.4808 32.126 19.8742 32.126 20.2845C32.126 20.6947 31.9632 21.0881 31.6733 21.3784L28.7836 24.2681C28.5056 24.557 28.1308 24.7333 27.7309 24.7634Z" fill="#F545A6"/>
</svg>
