<svg width="450" height="450" viewBox="0 0 450 450" fill="none" xmlns="http://www.w3.org/2000/svg">
<g clip-path="url(#clip0_412_40565)">
<path opacity="0.5" d="M377.011 283.33C344.884 358.976 259.305 401.354 185.091 389.923C173.015 388.063 139.907 382.522 110.595 356.382C54.1682 306.06 42.1008 206.417 87.619 136.196C120.748 85.087 180.136 56.1152 236.565 57.5645C248.72 57.8765 295.303 59.8004 336.242 93.5573C342.255 98.5155 355.517 110.298 367.47 128.989C395.536 172.88 397.949 234.03 377.011 283.33Z" fill="#DEDAFF"/>
<path d="M80.2211 164.909L102.765 189.585C88.6582 200.226 79.8098 221.106 103.423 245.936L71.6773 261.323C49.4274 222.361 52.5732 191.573 80.2211 164.909Z" fill="#A99AFF"/>
<path d="M66.9431 252.372L88.8147 252.724L92.7424 231.183C104.755 255.856 133.144 266.167 165.628 255.643L182.031 286.135C135.148 307.507 87.6916 296.54 66.9431 252.372Z" fill="#6449FF"/>
<path d="M250.367 219.776C268.096 184.731 314.89 171.804 348.54 190.995L382.648 179.705C342.811 126.562 270.423 136.644 225.453 189.751L250.367 219.776Z" fill="#A99AFF"/>
<path d="M329.051 256.872L343.523 290.677C396.326 268.684 412.305 194.208 364.63 161.397L364.978 183.301L342.541 187.969C375.585 203.645 360.86 248.07 329.051 256.872Z" fill="#6449FF"/>
<path d="M234.796 266.436C284.821 302.414 328.595 307.105 363.498 278.516L338.933 269.787L345.771 247.907C315.139 269.166 286.671 262.249 259.344 240.481L234.796 266.436Z" fill="#6449FF"/>
<path d="M80.2212 164.909V188.609L102.765 189.585C117.384 180.103 138.551 180.868 165.197 189.395L180.682 155.065C140.192 137.726 106.996 141.865 80.2212 164.909Z" fill="#6449FF"/>
<path d="M165.198 189.395L152.533 163.015L180.682 155.065C198.967 164.602 213.693 176.283 225.453 189.751C238.398 218.26 256.165 242.593 278.384 252.977L249.223 253.284L253.713 278.721C242.288 271.879 231.262 264.199 221.561 255.826L199.663 216.893C192.028 205.297 181.376 195.855 165.198 189.395Z" fill="#A99AFF"/>
<path d="M225.453 189.751C216.887 198.909 211.28 212.411 203.231 222.006C190.393 237.309 174.383 257.08 145.494 259.651L169.079 271.855L155.039 294.878C202.153 285.515 235.118 254.782 250.367 219.775V186.084L225.453 189.751Z" fill="#6449FF"/>
<path d="M233.452 91.7535L348.128 91.252C349.224 91.2422 350.117 92.1319 350.111 93.2286L349.866 133.368C349.86 134.472 348.948 135.355 347.844 135.322C337.732 135.02 234.089 133.69 232.108 133.773C230.149 133.855 231.213 102.156 231.506 93.65C231.542 92.5984 232.4 91.763 233.452 91.7535Z" fill="#A99AFF"/>
<path d="M347.904 133.769L347.89 133.769C341.428 133.576 279.495 132.803 249.731 132.432C241.028 132.323 234.851 132.246 233.203 132.223L233.05 132.221L233.023 132.069C232.32 128.101 232.332 114.835 233.058 93.7033C233.066 93.4829 233.245 93.3087 233.466 93.3068L348.142 92.8058C348.255 92.8058 348.36 92.849 348.437 92.9274C348.516 93.0059 348.558 93.1072 348.557 93.2197L348.312 133.36C348.311 133.586 348.128 133.769 347.904 133.769ZM233.363 131.853C235.216 131.879 241.286 131.955 249.736 132.06C279.5 132.431 341.436 133.204 347.901 133.397L347.912 133.398C347.924 133.397 347.94 133.379 347.941 133.358L348.185 93.2174L348.143 92.9916L348.144 93.1775L233.469 93.6786C233.448 93.679 233.431 93.695 233.43 93.7163C232.713 114.559 232.691 127.731 233.363 131.853Z" fill="white"/>
<path opacity="0.7" d="M238.359 102.12C238.359 103.205 238.721 104.085 239.168 104.085H283.094C283.541 104.085 283.903 103.205 283.903 102.12C283.903 101.034 283.541 100.154 283.094 100.154H239.168C238.721 100.154 238.359 101.034 238.359 102.12Z" fill="white"/>
<path opacity="0.7" d="M238.359 108.82C238.359 109.905 238.721 110.785 239.168 110.785H283.094C283.541 110.785 283.903 109.905 283.903 108.82C283.903 107.734 283.541 106.854 283.094 106.854H239.168C238.721 106.854 238.359 107.734 238.359 108.82Z" fill="white"/>
<path opacity="0.7" d="M238.359 115.52C238.359 116.605 238.721 117.485 239.168 117.485H283.094C283.541 117.485 283.903 116.605 283.903 115.52C283.903 114.435 283.541 113.555 283.094 113.555H239.168C238.721 113.555 238.359 114.435 238.359 115.52Z" fill="white"/>
<path opacity="0.7" d="M238.359 122.22C238.359 123.306 238.721 124.186 239.168 124.186H283.094C283.541 124.186 283.903 123.306 283.903 122.22C283.903 121.135 283.541 120.255 283.094 120.255H239.168C238.721 120.255 238.359 121.135 238.359 122.22Z" fill="white"/>
<path d="M295.032 111.145C299.252 111.145 302.673 107.724 302.673 103.504C302.673 99.2844 299.252 95.8634 295.032 95.8634C290.812 95.8634 287.391 99.2844 287.391 103.504C287.391 107.724 290.812 111.145 295.032 111.145Z" fill="white"/>
<path d="M314.023 111.145C318.243 111.145 321.664 107.724 321.664 103.504C321.664 99.2844 318.243 95.8634 314.023 95.8634C309.803 95.8634 306.382 99.2844 306.382 103.504C306.382 107.724 309.803 111.145 314.023 111.145Z" fill="white"/>
<path d="M333.013 111.396C337.233 111.396 340.654 107.975 340.654 103.754C340.654 99.5345 337.233 96.1135 333.013 96.1135C328.793 96.1135 325.372 99.5345 325.372 103.754C325.372 107.975 328.793 111.396 333.013 111.396Z" fill="white"/>
<path d="M299.572 101.889C299.809 102.465 299.94 103.094 299.94 103.754C299.94 106.465 297.743 108.663 295.032 108.663C292.321 108.663 290.124 106.465 290.124 103.754C290.124 101.044 292.321 98.8465 295.032 98.8465C295.115 98.8465 295.198 98.8486 295.28 98.8526V97.6085C295.198 97.6053 295.115 97.6032 295.032 97.6032C291.635 97.6032 288.881 100.357 288.881 103.754C288.881 107.152 291.635 109.906 295.032 109.906C298.429 109.906 301.183 107.152 301.183 103.754C301.183 102.918 301.016 102.121 300.714 101.394L299.572 101.889Z" fill="#A99AFF"/>
<path d="M316.554 107.907C315.797 108.385 314.901 108.663 313.939 108.663C311.229 108.663 309.031 106.465 309.031 103.754C309.031 101.044 311.228 98.8465 313.939 98.8465C314.022 98.8465 314.105 98.8486 314.187 98.8526V97.6085C314.105 97.6053 314.022 97.6032 313.939 97.6032C310.542 97.6032 307.788 100.357 307.788 103.754C307.788 107.152 310.542 109.906 313.939 109.906C315.125 109.906 316.232 109.57 317.171 108.989L316.554 107.907Z" fill="#A99AFF"/>
<path d="M337.108 106.514C336.225 107.811 334.737 108.663 333.05 108.663C330.339 108.663 328.141 106.465 328.141 103.754C328.141 101.044 330.339 98.8465 333.05 98.8465C333.133 98.8465 333.215 98.8486 333.297 98.8526V97.6085C333.215 97.6053 333.132 97.6032 333.05 97.6032C329.652 97.6032 326.898 100.357 326.898 103.754C326.898 107.152 329.652 109.906 333.05 109.906C335.151 109.906 337.006 108.852 338.116 107.243L337.108 106.514Z" fill="#A99AFF"/>
<g opacity="0.64">
<path d="M301.258 114.382H288.806C288.025 114.382 287.391 115.016 287.391 115.797C287.391 116.579 288.025 117.212 288.806 117.212H301.258C302.04 117.212 302.673 116.579 302.673 115.797C302.673 115.016 302.04 114.382 301.258 114.382Z" fill="white"/>
<path d="M320.248 114.382H307.797C307.015 114.382 306.382 115.016 306.382 115.797C306.382 116.579 307.015 117.212 307.797 117.212H320.248C321.03 117.212 321.664 116.579 321.664 115.797C321.664 115.016 321.03 114.382 320.248 114.382Z" fill="white"/>
<path d="M326.787 117.212H339.239C340.02 117.212 340.654 116.579 340.654 115.797C340.654 115.016 340.02 114.382 339.239 114.382H326.787C326.005 114.382 325.372 115.016 325.372 115.797C325.372 116.579 326.005 117.212 326.787 117.212Z" fill="white"/>
<path d="M301.258 118.785H288.806C288.025 118.785 287.391 119.418 287.391 120.2V128.534C287.391 129.315 288.025 129.949 288.806 129.949H301.258C302.04 129.949 302.673 129.315 302.673 128.534V120.2C302.673 119.418 302.04 118.785 301.258 118.785Z" fill="white"/>
<path d="M320.248 118.785H307.797C307.015 118.785 306.382 119.418 306.382 120.2V128.534C306.382 129.315 307.015 129.949 307.797 129.949H320.248C321.03 129.949 321.664 129.315 321.664 128.534V120.2C321.664 119.418 321.03 118.785 320.248 118.785Z" fill="white"/>
<path d="M339.239 118.785H326.787C326.005 118.785 325.372 119.418 325.372 120.2V128.534C325.372 129.315 326.005 129.949 326.787 129.949H339.239C340.02 129.949 340.654 129.315 340.654 128.534V120.2C340.654 119.418 340.02 118.785 339.239 118.785Z" fill="white"/>
</g>
<path d="M183.908 374.673C183.908 374.673 183.283 378.024 182.96 381.344C182.834 382.642 183.825 383.779 185.127 383.846C189.55 384.072 199.012 384.521 202.41 384.402C202.921 384.384 203.26 383.864 203.075 383.388C202.921 382.988 202.618 382.663 202.231 382.481L186.664 375.146L183.908 374.673Z" fill="#000018"/>
<path d="M183.441 372.696L183.879 376.716C183.879 376.716 186.605 378.017 188.49 376.599L187.398 372.114L183.441 372.696Z" fill="url(#paint0_linear_412_40565)"/>
<path d="M184.519 297.213C184.303 298.26 182.915 349.527 188.177 372.558C188.263 372.934 188.069 373.319 187.711 373.461C186.867 373.796 185.214 374.278 183.238 374.325C182.627 374.34 182.082 373.937 181.915 373.349C180.399 368.002 173.146 341.219 172.41 315.693C171.588 287.17 172.42 314.722 172.42 314.722L173.23 297.103L184.519 297.213Z" fill="#000018"/>
<path d="M165.905 376.253C165.905 376.253 164.945 377.938 163.989 382.433C163.816 383.244 164.377 384.028 165.202 384.117C166.662 384.275 168.909 384.481 170.711 384.486C171.542 384.488 172.197 383.771 172.105 382.946C171.921 381.3 171.325 378.597 169.424 376.477L165.905 376.253Z" fill="#000018"/>
<path d="M165.126 371.081L166.181 377.163C166.181 377.163 167.274 377.992 169.457 377.42L168.988 370.881L165.126 371.081Z" fill="url(#paint1_linear_412_40565)"/>
<path d="M162.81 298.58C158.069 325.591 163.145 365.454 164.91 373.264C165.018 373.742 165.4 374.111 165.882 374.196C166.702 374.34 168.053 374.464 169.39 374.09C169.85 373.961 170.177 373.549 170.2 373.072C170.507 366.774 170.432 328.096 174.755 312.852C174.974 312.079 175.453 311.408 176.112 310.949L184.274 305.263L184.985 295.953L162.81 298.58Z" fill="#000018"/>
<path d="M191.863 247.591C178.431 247.241 163.573 250.849 163.573 250.849C159.345 274.176 162.393 301.158 162.393 301.158C172.767 303.984 184.541 299.701 184.541 299.701C186.362 289.952 194.69 262.543 194.69 262.543C201.261 261.791 206.687 259.949 211.163 257.488C207.804 253.518 206.251 248.493 205.584 245.526C200.82 246.956 196.006 247.699 191.863 247.591Z" fill="#B8AFFF"/>
<path d="M231.733 228.182C230.429 226.575 228.751 227.314 228.751 227.314C226.695 235.645 216.265 242.317 205.584 245.525C206.251 248.493 207.804 253.518 211.163 257.488C228.932 247.719 231.733 228.182 231.733 228.182Z" fill="url(#paint2_linear_412_40565)"/>
<path d="M231.409 228.584C231.543 229.025 229.938 229.678 229.013 227.873C228.989 227.013 228.5 223.321 229.021 222.625C231.795 218.918 237.149 214.289 237.149 214.289C238.038 215.183 237.291 216.045 237.291 216.045L234.689 218.704C235.219 219.682 235.868 220.51 236.165 221.691C236.39 222.585 236.238 223.536 235.78 224.344C235.32 225.154 234.693 226.207 234.102 227.03C232.983 228.587 231.409 228.584 231.409 228.584Z" fill="url(#paint3_linear_412_40565)"/>
<path d="M233.546 220.434L231.18 222.401L230.424 224.375L232.495 226.717C232.495 226.717 233.236 222.793 233.767 221.947C234.298 221.101 234.031 220.687 233.546 220.434Z" fill="url(#paint4_linear_412_40565)"/>
<path d="M168.601 263.906L163.573 250.849C163.573 250.849 150.943 259.255 148.777 270.045C151.146 270.242 155.454 270.9 159.657 273.073C160.634 267.977 168.601 263.906 168.601 263.906Z" fill="#B8AFFF"/>
<path d="M179.45 276.25C179.45 276.25 165.286 284.078 160.597 277.234C159.624 275.813 159.401 274.408 159.657 273.072C155.454 270.9 151.146 270.242 148.777 270.045C148.123 273.298 148.419 276.767 150.301 280.288C158.482 295.599 181.281 279.742 181.281 279.742L179.45 276.25Z" fill="url(#paint5_linear_412_40565)"/>
<path d="M178.36 236.555L173.967 248.876C173.894 249.08 173.976 249.307 174.165 249.414C175.324 250.069 179.504 251.971 184.594 248.812C185.124 248.483 185.488 247.942 185.574 247.324L187.06 236.638L178.36 236.555Z" fill="url(#paint6_linear_412_40565)"/>
<path d="M187.77 225.196C187.77 225.196 192.379 234.077 191.743 237.64C191.108 241.204 185.293 240.892 180.241 237.945L176.782 228.37L187.77 225.196Z" fill="url(#paint7_linear_412_40565)"/>
<path d="M180.51 233.262C180.717 233.172 180.796 232.92 180.674 232.73C180.303 232.152 179.61 230.973 179.395 229.945C179.395 229.945 178.556 229.397 181.554 228.709C184.553 228.022 189.024 226.953 189.986 224.415C190.924 221.942 188.582 215.676 184.702 220.613C184.554 220.801 184.269 220.803 184.125 220.612C183.505 219.788 181.869 218.075 179.566 219.082C177.411 220.025 177.154 221.595 177.176 222.388C177.183 222.621 176.973 222.8 176.744 222.754C175.661 222.537 173.059 222.335 171.818 224.994C170.796 227.184 171.435 228.436 172.022 229.05C172.212 229.249 172.125 229.574 171.861 229.652C171.145 229.863 170.219 230.459 170.295 232.13C170.401 234.441 172.985 234.262 173.721 234.164C173.841 234.148 173.962 234.19 174.043 234.281C174.667 234.985 177.478 237.974 180.549 238.36C180.815 238.394 181.023 238.133 180.939 237.879L179.645 233.999C179.585 233.819 179.673 233.623 179.848 233.548L180.51 233.262Z" fill="#000018"/>
<path d="M181.039 233.815C181.039 233.815 177.719 231.491 177.457 233.419C177.194 235.348 180.44 236.245 182.058 235.54L181.039 233.815Z" fill="url(#paint8_linear_412_40565)"/>
<path d="M176.555 288.621L184.271 261.676C184.359 261.37 184.62 261.147 184.936 261.11C186.334 260.947 190.385 260.489 195.062 260.093C200.695 259.617 207.238 259.231 211.147 259.559C211.703 259.606 212.039 260.193 211.792 260.694C209.568 265.191 200.424 283.487 195.844 289.481C195.692 289.679 195.458 289.796 195.208 289.793L177.306 289.627C176.785 289.622 176.412 289.122 176.555 288.621Z" fill="#000018"/>
<path d="M178.419 282.111C178.419 282.111 177.344 277.691 177.778 276.124C178.212 274.555 179.052 272.539 181.852 272.987C184.652 273.435 187.955 274.615 187.955 274.615C187.955 274.615 187.788 276.657 185.66 275.998L186.979 277.02C186.979 277.02 186.791 278.655 184.993 277.781L186.221 279.135C186.221 279.135 185.448 280.478 184.126 279.617C182.804 278.755 182.17 282.643 178.419 282.111Z" fill="url(#paint9_linear_412_40565)"/>
<path d="M194.547 268.137C194.547 269.388 195.561 270.402 196.812 270.402C198.063 270.402 199.077 269.388 199.077 268.137C199.077 266.886 198.063 265.872 196.812 265.872C195.561 265.872 194.547 266.886 194.547 268.137Z" fill="#DEDAFF"/>
<path d="M185.144 269.63L184.567 269.459L186.138 264.131C186.394 263.263 187.095 262.611 187.966 262.43C192.945 261.39 206.06 261.178 206.615 261.169L206.625 261.772C206.489 261.773 193.012 261.991 188.089 263.019C187.435 263.155 186.908 263.646 186.715 264.301L185.144 269.63Z" fill="url(#paint10_linear_412_40565)"/>
<path d="M93.8285 345.039C93.006 346.256 89.7372 373.812 89.2254 383.989C89.1909 384.677 89.7414 385.251 90.4305 385.251C91.0248 385.251 91.5305 384.818 91.6222 384.231L97.6012 345.915L93.8285 345.039Z" fill="#A99AFF"/>
<path d="M120.111 345.039C120.933 346.256 124.202 373.812 124.714 383.989C124.748 384.677 124.198 385.251 123.509 385.251C122.914 385.251 122.409 384.818 122.317 384.231L116.338 345.915L120.111 345.039Z" fill="#A99AFF"/>
<path d="M88.8836 342.888L88.8808 343.188C88.861 345.35 90.7235 347.123 93.0555 347.163L120.692 347.633C122.991 347.672 124.906 346.011 125.018 343.883L125.032 343.608C125.149 341.389 123.264 339.519 120.867 339.476L93.2184 338.98C90.8519 338.938 88.9035 340.694 88.8836 342.888Z" fill="#A99AFF"/>
<path d="M147.101 382.988C142.188 382.988 140.015 382.566 139.043 382.182C139.232 382.989 139.95 383.626 140.858 383.626H158.238C158.823 383.626 159.193 383.066 159.053 382.558C157.072 382.718 152.864 382.988 147.101 382.988Z" fill="#A99AFF"/>
<path d="M159.053 382.558C159.025 382.456 158.984 382.356 158.911 382.263C157.587 380.573 154.927 377.918 151.31 377.969C146.01 378.044 144.162 378.618 140.044 378.001L139.072 381.222C138.973 381.55 138.972 381.878 139.043 382.182C140.015 382.567 142.188 382.988 147.101 382.988C152.864 382.988 157.072 382.718 159.053 382.558Z" fill="#000018"/>
<path d="M141.237 374.531L140.044 378.587C140.044 378.587 142.686 379.79 145.01 378.824L145.466 375.31L141.237 374.531Z" fill="url(#paint11_linear_412_40565)"/>
<path d="M177.259 380.434C173.429 383.511 171.472 384.545 170.474 384.856C171.125 385.364 172.082 385.408 172.79 384.839L186.338 373.953C186.794 373.586 186.733 372.92 186.308 372.614C184.863 373.979 181.751 376.824 177.259 380.434Z" fill="#A99AFF"/>
<path d="M186.308 372.614C186.222 372.552 186.127 372.5 186.012 372.474C183.927 371.992 180.199 371.598 177.41 373.903C173.326 377.281 172.244 378.884 168.648 380.985L169.898 384.092C170.026 384.409 170.229 384.664 170.475 384.856C171.472 384.545 173.429 383.511 177.259 380.434C181.751 376.824 184.863 373.979 186.308 372.614Z" fill="#000018"/>
<path d="M115.724 328.318C115.724 328.318 145.138 330.72 151.171 333.56C157.205 336.401 146.247 376.211 146.247 376.211C146.247 376.211 144.605 377.002 140.95 375.865C140.95 375.865 144.698 346.487 141.909 340.117L110.062 334.908L115.724 328.318Z" fill="#000018"/>
<path d="M165.726 375.393C165.999 375.642 168.649 380.985 168.649 380.985C168.649 380.985 171.598 380.347 172.199 378.48L169.545 373.658L165.726 375.393Z" fill="url(#paint12_linear_412_40565)"/>
<path d="M98.0092 328.072C98.0092 328.072 97.0506 330.379 97.0898 333.444C97.1439 337.682 100.552 341.122 104.785 341.333L139.556 342.919C140.291 342.952 140.912 343.461 141.096 344.172C141.913 347.333 145.907 357.038 165.43 376.405C165.949 376.92 166.758 377.007 167.377 376.617L170.156 374.861C170.448 374.677 170.541 374.294 170.366 373.997L150.121 339.424C149.057 337.669 147.348 336.402 145.36 335.894L115.724 328.318L98.0092 328.072Z" fill="#000018"/>
<path d="M132.276 274.067C132.276 274.067 128.551 280.653 124.753 283.844L132.603 288.224C132.603 288.224 134.372 281.252 138.413 279.21L132.276 274.067Z" fill="url(#paint13_linear_412_40565)"/>
<path d="M97.3774 328.318C97.3774 328.318 106.764 330.606 115.724 328.318C115.724 328.318 128.262 311.464 133.112 306.877C133.112 306.877 140.849 319.086 158.07 320.816L159.03 318.67C159.03 318.67 145.321 312.35 141.1 302.639C136.88 292.929 135.184 288.787 131.345 286.254C128.953 284.676 127.521 283.598 126.782 283.009C126.376 282.687 125.817 282.65 125.375 282.92C121.3 285.403 102.126 298.535 97.3774 328.318Z" fill="#B8AFFF"/>
<path d="M132.603 306.64C132.422 306.64 132.244 306.559 132.125 306.404C129.136 302.506 127.471 298.21 127.402 298.029C127.283 297.719 127.438 297.371 127.748 297.251C128.059 297.132 128.407 297.287 128.526 297.597C128.542 297.64 130.201 301.916 133.081 305.671C133.283 305.935 133.233 306.313 132.969 306.516C132.86 306.599 132.731 306.64 132.603 306.64Z" fill="#DEDAFF"/>
<path d="M157.034 317.549L158.973 317.032L164.858 315.669C165.567 315.505 166.311 315.631 166.927 316.018L171.987 319.202L158.012 319.178L157.034 317.549Z" fill="url(#paint14_linear_412_40565)"/>
<path d="M138.19 264.192C138.19 264.192 141.81 270.209 142.438 273.535C143.066 276.861 144.075 278.94 140.289 280.125C136.504 281.311 132.986 279.811 130.778 276.706C130.778 276.706 127.331 271.928 127.675 269.74C128.018 267.552 138.19 264.192 138.19 264.192Z" fill="url(#paint15_linear_412_40565)"/>
<path d="M131.786 274.132L132.276 274.067C132.276 274.067 129.712 270.194 131.39 269.233C133.067 268.273 139.902 265.915 141.089 263.223C142.233 260.628 140.521 257.696 138.458 257.085C138.327 257.046 138.19 257.123 138.142 257.251L138.021 257.578C137.938 257.801 137.625 257.81 137.529 257.592C137.438 257.384 137.141 257.376 137.048 257.582C136.682 258.388 135.586 259.766 132.299 260.831C127.635 262.343 124.73 264.694 125.087 268.008C125.11 268.218 124.901 268.363 124.708 268.278C124.327 268.109 123.749 268.082 123.078 268.817C121.911 270.093 122.825 272.885 126.013 274.861C126.164 274.955 126.191 275.169 126.056 275.285C125.579 275.693 124.908 276.603 127.065 277.415C129.271 278.245 130.475 277.964 130.92 277.786C131.039 277.738 131.108 277.614 131.083 277.487L130.516 274.584C130.487 274.433 130.591 274.29 130.742 274.27L131.786 274.132Z" fill="#000018"/>
<path d="M131.987 274.729C131.987 274.729 130.39 270.791 128.712 272.175C127.034 273.559 130.263 276.619 131.753 276.578L131.987 274.729Z" fill="url(#paint16_linear_412_40565)"/>
<path d="M151.635 321.943C151.658 321.945 151.681 321.945 151.704 321.945L181.558 321.915C182.296 321.915 182.894 321.317 182.893 320.58C182.892 319.843 182.291 319.234 181.555 319.248L151.701 319.278C150.963 319.278 150.365 319.876 150.366 320.613C150.367 321.326 150.929 321.909 151.635 321.943Z" fill="url(#paint17_linear_412_40565)"/>
<path d="M193.12 292.707C193.109 292.727 193.099 292.747 193.089 292.768L180.528 319.851C180.217 320.521 180.507 321.315 181.176 321.625C181.844 321.935 182.65 321.646 182.948 320.973L195.51 293.89C195.82 293.221 195.53 292.427 194.862 292.117C194.214 291.817 193.449 292.081 193.12 292.707Z" fill="url(#paint18_linear_412_40565)"/>
<path d="M271.296 349.161H268.146V383.237H271.296V349.161Z" fill="#A99AFF"/>
<path d="M283.52 383.894H255.922C255.922 382.761 256.84 381.843 257.973 381.843H281.469C282.602 381.843 283.52 382.761 283.52 383.894Z" fill="#A99AFF"/>
<path d="M287.616 347.979C287.616 349.842 286.091 351.367 284.227 351.367H256.305C254.442 351.367 252.917 349.843 252.917 347.979V344.915C252.917 343.051 254.442 341.526 256.305 341.526H284.227C286.091 341.526 287.616 343.051 287.616 344.915V347.979Z" fill="#A99AFF"/>
<path d="M246.459 326.441C246.459 326.441 241.777 327.167 236.513 330.686C235.684 331.24 235.23 332.205 235.354 333.194C235.985 338.187 238.577 354.348 247.123 370.133C247.574 370.965 247.703 371.934 247.504 372.859L246.02 379.769L243.266 382.351H250.358L255.081 369.572L253.061 368.933C251.496 368.438 250.422 366.998 250.393 365.356L250.156 351.647C250.359 345.54 246.411 341.326 246.411 341.326L257.738 340.775L246.459 326.441Z" fill="url(#paint19_linear_412_40565)"/>
<path d="M240.497 383.598C239.851 384.443 247.449 385.559 251.287 383.71C251.287 383.71 256.609 374.452 256.609 369.685C256.609 369.685 256.186 368.713 253.062 368.933C253.062 368.933 251.275 379.895 249.389 381.123C247.502 382.351 244.11 381.248 244.11 381.248C244.11 381.248 241.45 382.351 240.497 383.598Z" fill="#000018"/>
<path d="M256.305 341.526C256.245 341.422 244.11 340.067 244.11 340.067C244.11 340.067 244.507 343.757 243.266 348.836C242.025 353.915 224.208 375.921 224.208 375.921L226.076 381.843C220.3 383.855 214.619 384.177 209.028 382.869L220.605 375.921C220.605 375.921 231.44 338.996 238.077 332.409L250.241 328.201L256.305 341.526Z" fill="url(#paint20_linear_412_40565)"/>
<path d="M283.52 320.041C283.52 320.041 290.511 330.44 291.085 335.184C291.659 339.927 289.17 341.855 281.834 342.173C274.498 342.491 254.914 342.485 254.914 342.485L238.199 328.201C238.199 328.201 250.38 323.854 253.547 322.625C256.714 321.396 283.52 320.041 283.52 320.041Z" fill="#000018"/>
<path d="M225.37 379.849C225.37 379.849 227.382 381.797 226.023 383.964C226.023 383.964 210.09 386.788 205.764 385.507C205.764 385.507 206.663 383.457 211.534 381.123L211.174 381.399C210.719 381.748 210.986 382.476 211.559 382.443C214.769 382.26 221.411 381.672 225.37 379.849Z" fill="#000018"/>
<path d="M253.235 254.092C267.527 251.662 274.255 263.319 273.764 265.768C273.698 266.093 274.005 266.368 274.325 266.281C275.965 265.84 279.59 265.283 281.837 268.099C283.821 270.584 282.338 272.93 281.129 274.218C280.838 274.529 281.083 275.034 281.506 274.98C284.523 274.6 291.078 274.508 292.15 280.649C293.15 286.375 289.165 287.99 286.801 288.445C286.401 288.522 286.307 289.047 286.651 289.266C287.83 290.014 289.197 291.56 288.645 294.61C287.779 299.392 278.405 299.001 277.309 298.938C277.239 298.934 277.174 298.914 277.113 298.88L262.097 290.316C261.98 290.249 261.899 290.134 261.876 290.001L258.845 272.493C258.82 272.352 258.865 272.207 258.964 272.103L249.175 258.288C245.622 257.766 253.066 254.121 253.235 254.092Z" fill="#000018"/>
<path d="M264.612 318.664C264.612 318.664 256.47 310.912 252.463 305.777C250.296 303.001 249.616 299.347 250.618 295.972C252.448 289.808 255.699 283.423 255.996 282.429C256.45 280.906 265.579 280.97 265.579 280.97C265.579 280.97 283.543 292.628 290.601 312.377L282.675 314.845C282.675 314.845 277.984 306.976 273.35 301.973C273.35 301.973 281.369 312.567 281.651 316.903L264.612 318.664Z" fill="#B8AFFF"/>
<path d="M254.892 273.917C254.987 274.234 257.37 282.133 257.556 282.296C257.743 282.46 262.782 282.731 265.153 281.11L259.27 269.602L254.892 273.917Z" fill="url(#paint21_linear_412_40565)"/>
<path d="M245.34 263.767C245.34 263.767 244.188 268.292 247.374 274.379C250.56 280.465 254.167 280.458 256.138 278.51C258.11 276.562 260.541 273.257 259.963 267.372C259.386 261.488 247.003 258.011 245.34 263.767Z" fill="url(#paint22_linear_412_40565)"/>
<path d="M255.556 267.692C255.556 267.692 250.271 259.611 245.314 265.971L245.224 268.284C245.224 268.284 239.419 267.595 240.435 262.272C241.451 256.949 246.468 253.622 252.929 255.927C259.39 258.233 263.093 260.598 263.51 265.228C263.927 269.858 260.243 268.843 260.243 268.843C260.243 268.843 259.041 265.583 257.333 265.244C255.625 264.905 256.069 267.447 256.069 267.447L255.556 267.692Z" fill="#000018"/>
<path d="M256.91 267.583C256.91 267.583 254.168 263.445 256.977 262.828C259.787 262.211 259.351 266.86 259.047 268.58L256.91 267.583Z" fill="url(#paint23_linear_412_40565)"/>
<path d="M248.026 319.24L254.007 313.475L262.283 316.97C262.283 316.97 270.519 318.247 275.234 316.97C279.948 315.694 279.948 315.694 279.948 315.694L290.601 312.377L292.275 317.106C292.699 318.307 292.273 319.639 291.234 320.377C290.313 321.032 289.232 321.752 288.544 322.053C287.141 322.667 253.96 321.628 253.96 321.628L248.026 319.24Z" fill="url(#paint24_linear_412_40565)"/>
<path d="M270.663 321.958C270.636 321.96 270.61 321.96 270.583 321.96L235.883 321.922C235.026 321.922 234.331 321.225 234.332 320.368C234.333 319.509 235.031 318.801 235.887 318.816L270.586 318.854C271.444 318.855 272.139 319.551 272.138 320.408C272.137 321.24 271.483 321.918 270.663 321.958Z" fill="#000018"/>
<path d="M204.69 290.453H233.588C235.72 290.453 237.66 291.684 238.57 293.612L251.929 321.94H216.017C214.643 321.94 213.409 321.1 212.904 319.823L202.544 293.609C201.945 292.095 203.062 290.453 204.69 290.453Z" fill="#000018"/>
<path d="M225.049 304.978C225.675 306.924 225.213 308.813 224.016 309.198C222.819 309.584 221.341 308.319 220.715 306.373C220.089 304.427 220.551 302.538 221.748 302.153C222.945 301.768 224.423 303.032 225.049 304.978Z" fill="#DEDAFF"/>
<path d="M310.223 379.599C310.223 379.599 310.587 381.621 310.731 384.022C310.792 385.045 310.034 385.934 309.014 386.033C305.463 386.377 297.378 387.013 292.216 386.268C291.493 386.164 291.205 385.276 291.74 384.778C293.869 382.794 299.009 378.937 307.47 378.094L310.223 379.599Z" fill="#000018"/>
<path d="M311.989 375.041L310.193 379.442C309.947 380.045 309.335 380.42 308.687 380.353C308.247 380.307 307.727 380.222 307.22 380.068C306.207 379.761 305.635 378.687 305.938 377.672L307.294 373.138L311.989 375.041Z" fill="url(#paint25_linear_412_40565)"/>
<path d="M342.689 383.105C342.689 383.105 339.094 386.113 337.693 389.973C337.307 391.034 338.122 392.152 339.251 392.152H346.651C347.734 392.152 348.564 391.178 348.376 390.111C347.904 387.446 346.545 383.116 342.689 383.105Z" fill="#000018"/>
<path d="M347.144 379.189C347.144 379.189 346.418 382.404 345.859 384.529C345.758 384.914 345.346 385.126 344.971 384.991C343.851 384.591 342.94 384.414 342.277 384.503C341.971 384.544 341.704 384.289 341.7 383.98L341.63 378.641L347.144 379.189Z" fill="url(#paint26_linear_412_40565)"/>
<path d="M328.02 306.848L306.148 373.574C306.148 373.574 310.343 376.321 312.341 376.207L338.32 322.582C338.32 322.582 342.866 355.624 340.664 379.345L348.105 379.913C348.105 379.913 360.204 319.292 351.04 298.53L328.02 306.848Z" fill="#000018"/>
<path d="M338.18 322.006C338.188 322.006 338.198 322.005 338.207 322.004C338.323 321.989 338.405 321.883 338.39 321.767L337.541 315.03C337.527 314.914 337.422 314.834 337.305 314.847C337.189 314.861 337.106 314.967 337.121 315.083L337.97 321.82C337.983 321.927 338.075 322.006 338.18 322.006Z" fill="#DEDAFF"/>
<path d="M323.919 248.133C323.919 248.133 341.639 249.707 339.133 262.333C339.133 262.333 348.928 280.767 353.508 302.482C353.657 303.188 353.183 303.877 352.472 303.999L322.961 309.052C322.147 309.191 321.362 308.684 321.155 307.884L314.104 280.633L311.356 293.303L302.626 291.028L309.976 253.798C309.976 253.798 311.001 248.367 323.919 248.133Z" fill="#B8AFFF"/>
<path d="M313.954 279.414C313.969 279.414 313.985 279.413 314.001 279.409C314.119 279.384 314.195 279.267 314.169 279.148L311.709 267.853C311.683 267.734 311.568 267.66 311.447 267.685C311.329 267.711 311.254 267.828 311.279 267.946L313.739 279.241C313.762 279.344 313.853 279.414 313.954 279.414Z" fill="#DEDAFF"/>
<path d="M315.735 313.026C316.665 312.514 317.753 312.373 318.783 312.629L320.836 313.14C321.272 313.249 321.705 312.948 321.755 312.501L323.88 293.59C326.536 294.851 330.369 294.7 331.633 294.608L326.743 316.903H309.63L315.735 313.026Z" fill="url(#paint27_linear_412_40565)"/>
<path d="M270.266 272.004L270.784 270.285C271.081 269.296 271.813 268.495 272.771 268.11L282.126 264.348C282.126 264.348 282.267 263.148 280.15 262.333C278.032 261.517 278.527 259.146 278.527 259.146C278.527 259.146 281.42 260.465 285.656 262.559C288.079 263.756 289.438 265.87 290.158 267.461L311.357 293.303L308.868 295.013C305.595 297.262 301.094 296.157 299.234 292.649L287.75 270.628C281.984 272.36 276.15 272.691 270.266 272.004Z" fill="url(#paint28_linear_412_40565)"/>
<path d="M318.178 236.078L323.629 251.332C323.629 251.332 318.803 255.105 315.281 253.829L312.534 245.085C312.534 245.085 314.632 234.398 318.178 236.078Z" fill="url(#paint29_linear_412_40565)"/>
<path d="M301.912 230.599C301.912 230.834 307.162 245.462 307.162 245.462L315.45 242.286L312.534 227.683C312.534 227.683 301.912 226.664 301.912 230.599Z" fill="url(#paint30_linear_412_40565)"/>
<path d="M311.08 231.241L313.217 238.808C313.245 238.905 313.259 239.003 313.259 239.104C313.26 239.721 313.107 241.845 310.944 241.556C308.981 241.294 307.186 241.084 306.044 241.621C305.532 241.863 305.286 242.453 305.478 242.986C305.955 244.315 307.086 247.289 308.463 249.724C308.743 250.218 309.356 250.41 309.872 250.175C311.429 249.467 314.67 247.881 316.979 245.995C317.292 245.739 317.442 245.337 317.368 244.94C317.004 243.004 315.923 237.117 315.875 235.429C315.83 233.846 317.607 232.637 318.389 232.182C318.646 232.033 318.828 231.788 318.898 231.5C319.143 230.48 319.352 228.173 316.409 227.665C315.793 227.558 315.392 226.969 315.517 226.357C315.766 225.138 315.686 223.343 313.371 222.683C311.018 222.011 309.537 223.427 308.784 224.513C308.48 224.953 307.91 225.095 307.422 224.877C307.144 224.753 306.809 224.748 306.448 225.052C305.963 225.461 305.223 225.337 304.866 224.811C304.18 223.801 302.933 222.793 300.823 223.476C297.078 224.687 297.257 229.005 298.63 231.352C300.002 233.699 303.988 232.154 305.874 230.599C307.308 229.416 309.493 230.124 310.457 230.531C310.762 230.66 310.99 230.922 311.08 231.241Z" fill="#000018"/>
<path d="M316.625 238.193C316.625 238.193 314.409 234 315.875 232.684C317.34 231.367 319.823 231.583 319.756 234.861C319.673 238.939 316.625 238.193 316.625 238.193Z" fill="url(#paint31_linear_412_40565)"/>
<path d="M329.914 294.892C331.123 294.892 331.986 294.8 332.08 294.79L332.237 294.772L338.689 264.688C338.715 264.57 338.639 264.453 338.521 264.427C338.401 264.401 338.285 264.478 338.26 264.596L331.874 294.368C330.914 294.452 325.786 294.793 323.079 292.875L328.668 266.738L327.502 264.539C327.445 264.432 327.312 264.391 327.205 264.448C327.097 264.505 327.056 264.638 327.113 264.745L328.205 266.802L322.59 293.06L322.702 293.144C324.658 294.614 327.809 294.892 329.914 294.892Z" fill="#DEDAFF"/>
<path d="M136.473 386.615C136.325 386.615 136.174 386.582 136.029 386.515C135.459 386.247 135.195 385.525 135.441 384.902L159.019 325.076C159.264 324.453 159.925 324.166 160.496 324.433C161.067 324.701 161.33 325.423 161.085 326.046L137.506 385.872C137.323 386.337 136.909 386.615 136.473 386.615Z" fill="#A99AFF"/>
<path d="M163.035 386.615C162.6 386.615 162.185 386.337 162.002 385.872L138.423 326.046C138.178 325.423 138.441 324.701 139.012 324.433C139.582 324.166 140.243 324.453 140.489 325.076L164.068 384.902C164.313 385.525 164.049 386.247 163.479 386.515C163.334 386.582 163.184 386.615 163.035 386.615Z" fill="#A99AFF"/>
<path d="M296.495 386.615C296.347 386.615 296.196 386.582 296.051 386.515C295.481 386.247 295.217 385.525 295.463 384.902L319.042 325.076C319.287 324.453 319.948 324.166 320.519 324.433C321.089 324.701 321.353 325.423 321.107 326.046L297.529 385.872C297.345 386.337 296.931 386.615 296.495 386.615Z" fill="#A99AFF"/>
<path d="M323.057 386.615C322.621 386.615 322.207 386.337 322.024 385.872L298.445 326.046C298.2 325.423 298.463 324.701 299.034 324.433C299.604 324.166 300.265 324.453 300.511 325.076L324.089 384.902C324.335 385.525 324.071 386.247 323.501 386.515C323.356 386.582 323.205 386.615 323.057 386.615Z" fill="#A99AFF"/>
<path d="M293.074 320.85H327.224V317.326H293.074C293.805 317.326 293.805 320.85 293.074 320.85Z" fill="#BDD0FB"/>
<path d="M326.819 320.85C327.042 320.85 327.224 320.668 327.224 320.445V317.732C327.224 317.508 327.042 317.326 326.819 317.326H292.438C292.215 317.326 292.032 317.147 292.032 316.927C292.032 316.708 292.215 316.529 292.438 316.529H329.18C329.994 316.529 330.654 317.189 330.654 318.004V320.256C330.654 321.024 330.032 321.647 329.264 321.647H292.438C292.215 321.647 292.032 321.468 292.032 321.248C292.032 321.029 292.215 320.85 292.438 320.85H326.819V320.85Z" fill="url(#paint32_linear_412_40565)"/>
<path d="M332.174 323.226C332.289 322.833 332.133 322.426 331.748 322.117C331.364 321.807 330.792 321.628 330.187 321.628H125.562C124.768 321.628 124.028 321.897 123.6 322.341C123.172 322.785 123.115 323.343 123.448 323.821L125.665 327.005C126.173 327.734 127.273 328.2 128.484 328.2H328.783C329.909 328.2 330.878 327.671 331.091 326.937L332.174 323.226Z" fill="#A99AFF"/>
<g opacity="0.3">
<path d="M220.496 114.452C219.848 114.317 219.432 113.682 219.567 113.035C219.829 111.776 220.04 110.488 220.195 109.205C220.273 108.556 220.857 108.091 221.504 108.157C221.512 108.158 221.52 108.158 221.527 108.159C222.184 108.238 222.652 108.835 222.573 109.492C222.41 110.842 222.188 112.198 221.912 113.523C221.787 114.129 221.223 114.532 220.621 114.471C220.579 114.467 220.537 114.46 220.496 114.452ZM220.519 102.91C220.497 101.618 220.42 100.316 220.289 99.0371C220.222 98.3795 220.701 97.7912 221.359 97.7237C222.02 97.6585 222.605 98.1358 222.672 98.794C222.81 100.139 222.891 101.51 222.914 102.869C222.926 103.531 222.398 104.076 221.737 104.087C221.689 104.088 221.641 104.086 221.595 104.081C220.999 104.021 220.529 103.523 220.519 102.91ZM219.214 92.8292C218.906 91.5785 218.54 90.3263 218.126 89.1063C217.914 88.4801 218.249 87.7996 218.875 87.5869C219.501 87.3751 220.182 87.7097 220.395 88.3361C220.831 89.6208 221.216 90.94 221.54 92.2567C221.698 92.899 221.306 93.5479 220.663 93.7063C220.527 93.7399 220.389 93.7486 220.257 93.7351C219.767 93.6855 219.338 93.3346 219.214 92.8292ZM215.688 83.2935C215.108 82.1419 214.47 81.0023 213.795 79.9058C213.448 79.3425 213.623 78.6046 214.186 78.2575C214.749 77.911 215.487 78.0864 215.834 78.6487C216.546 79.8033 217.216 81.0033 217.827 82.2149C218.125 82.8056 217.887 83.5259 217.297 83.8236C217.085 83.9301 216.857 83.9682 216.638 83.946C216.245 83.9063 215.879 83.6727 215.688 83.2935ZM210.125 74.7813C209.306 73.7897 208.432 72.819 207.528 71.897C207.065 71.4241 207.073 70.6659 207.546 70.2029C208.018 69.7396 208.777 69.7477 209.239 70.2206C210.19 71.1906 211.109 72.212 211.972 73.2554C212.393 73.7651 212.321 74.5201 211.811 74.9416C211.554 75.154 211.235 75.2412 210.928 75.2102C210.625 75.1795 210.334 75.0343 210.125 74.7813ZM202.817 67.7119C201.797 66.9249 200.731 66.1722 199.648 65.4743C199.092 65.1161 198.931 64.3746 199.289 63.8187C199.648 63.2624 200.389 63.1018 200.945 63.4601C202.085 64.1944 203.208 64.987 204.281 65.8152C204.805 66.2195 204.902 66.9715 204.498 67.4954C204.235 67.8356 203.826 67.9955 203.427 67.9552C203.213 67.9335 203.001 67.8538 202.817 67.7119ZM159.03 59.8888C158.818 59.2621 159.154 58.5822 159.781 58.3706C161.065 57.9371 162.386 57.5539 163.706 57.2318C164.348 57.0749 164.997 57.4686 165.153 58.1115C165.31 58.7539 164.916 59.4019 164.274 59.5589C163.021 59.8648 161.767 60.2288 160.547 60.6406C160.38 60.697 160.209 60.7146 160.044 60.6978C159.592 60.652 159.185 60.3484 159.03 59.8888ZM194.13 62.4416C192.961 61.9014 191.755 61.4054 190.544 60.9677C189.921 60.7425 189.6 60.0557 189.824 59.4337C190.049 58.8112 190.735 58.4927 191.358 58.7147C192.633 59.1757 193.904 59.698 195.135 60.267C195.735 60.5447 195.997 61.2563 195.719 61.8569C195.499 62.3333 195.006 62.5965 194.512 62.5465C194.383 62.5335 194.254 62.4988 194.13 62.4416ZM169.174 57.4232C169.108 56.7651 169.588 56.1778 170.247 56.1118C171.595 55.977 172.967 55.8986 174.325 55.878C174.987 55.865 175.53 56.3964 175.54 57.0578C175.55 57.7191 175.022 58.2634 174.36 58.2735C173.07 58.293 171.766 58.3674 170.485 58.4959C170.403 58.5041 170.323 58.5034 170.244 58.4955C169.689 58.4394 169.232 57.9994 169.174 57.4232ZM184.484 59.2455C183.225 58.9807 181.937 58.7666 180.657 58.6099C180 58.5297 179.533 57.9322 179.614 57.2754C179.693 56.6275 180.276 56.1639 180.923 56.2294C180.931 56.2302 180.94 56.2311 180.948 56.2324C182.296 56.397 183.651 56.6221 184.977 56.9007C185.624 57.0373 186.039 57.6723 185.903 58.3198C185.776 58.9244 185.213 59.326 184.611 59.2651C184.569 59.2608 184.527 59.2541 184.484 59.2455Z" fill="#F545A6"/>
<path d="M152.352 64.0987C152.586 64.1225 152.83 64.0776 153.052 63.9542C153.592 63.6543 154.147 63.3611 154.702 63.0814C155.293 62.7842 155.532 62.0639 155.234 61.4732C154.937 60.8821 154.217 60.6431 153.626 60.9416C153.042 61.2353 152.458 61.544 151.89 61.8594C151.311 62.1803 151.103 62.9098 151.424 63.4878C151.621 63.8447 151.974 64.0605 152.352 64.0987Z" fill="#F545A6"/>
</g>
<g opacity="0.3">
<path d="M129.879 92.885C130.454 92.9432 131.003 92.5774 131.156 92.0007C131.314 91.404 131.488 90.8003 131.672 90.2072C131.868 89.5752 131.515 88.9041 130.883 88.708C130.249 88.5111 129.58 88.8653 129.384 89.4969C129.19 90.1215 129.007 90.7571 128.84 91.3855C128.67 92.0249 129.051 92.6808 129.69 92.8509C129.753 92.8675 129.816 92.8787 129.879 92.885Z" fill="#F545A6"/>
<path d="M167.873 151.017C167.219 150.918 166.768 150.308 166.867 149.653C166.966 148.999 167.576 148.55 168.231 148.648C169.476 148.836 170.749 148.974 172.028 149.06C172.685 149.102 173.187 149.676 173.142 150.336C173.098 150.996 172.527 151.495 171.867 151.451C171.313 151.413 170.761 151.367 170.213 151.312C169.43 151.233 168.643 151.134 167.873 151.017ZM177.118 150.333C177.073 149.674 177.571 149.102 178.231 149.057C179.498 148.97 180.775 148.829 182.027 148.636C182.679 148.534 183.292 148.984 183.392 149.638C183.493 150.292 183.044 150.904 182.39 151.004C181.073 151.206 179.728 151.355 178.395 151.446C178.326 151.451 178.257 151.45 178.191 151.443C177.621 151.386 177.158 150.925 177.118 150.333ZM161.5 149.603C160.222 149.225 158.943 148.788 157.697 148.303C157.081 148.063 156.776 147.368 157.016 146.752C157.256 146.135 157.95 145.831 158.567 146.071C159.75 146.532 160.965 146.947 162.178 147.305C162.813 147.492 163.176 148.158 162.988 148.793C162.823 149.354 162.282 149.703 161.72 149.646C161.647 149.638 161.574 149.624 161.5 149.603ZM187.271 148.767C187.082 148.133 187.442 147.466 188.076 147.277C189.292 146.914 190.506 146.495 191.685 146.032C192.301 145.79 192.996 146.093 193.238 146.709C193.48 147.325 193.177 148.02 192.561 148.262C191.319 148.75 190.041 149.191 188.761 149.572C188.606 149.618 188.45 149.632 188.299 149.617C187.83 149.57 187.414 149.246 187.271 148.767ZM151.797 145.523C150.634 144.874 149.482 144.166 148.374 143.419C147.825 143.05 147.68 142.306 148.05 141.757C148.42 141.208 149.164 141.063 149.713 141.433C150.766 142.142 151.859 142.815 152.964 143.43C153.542 143.753 153.749 144.483 153.427 145.06C153.187 145.491 152.72 145.715 152.259 145.669C152.102 145.653 151.944 145.605 151.797 145.523ZM143.224 139.414C142.228 138.524 141.258 137.582 140.341 136.614C139.887 136.134 139.907 135.376 140.387 134.921C140.869 134.465 141.627 134.486 142.081 134.967C142.952 135.886 143.873 136.782 144.819 137.627C145.313 138.068 145.355 138.825 144.915 139.318C144.649 139.615 144.268 139.749 143.9 139.712C143.657 139.687 143.419 139.589 143.224 139.414ZM136.185 131.581C135.406 130.495 134.665 129.364 133.981 128.221C133.641 127.653 133.827 126.917 134.394 126.578C134.963 126.238 135.698 126.424 136.037 126.992C136.687 128.079 137.391 129.153 138.132 130.185C138.517 130.722 138.394 131.471 137.856 131.856C137.609 132.033 137.318 132.103 137.038 132.075C136.708 132.041 136.393 131.872 136.185 131.581ZM131.023 122.4C130.5 121.17 130.024 119.904 129.608 118.636C129.402 118.007 129.744 117.331 130.373 117.124C131 116.918 131.678 117.261 131.884 117.889C132.279 119.093 132.731 120.295 133.228 121.463C133.486 122.072 133.202 122.775 132.594 123.034C132.401 123.115 132.2 123.143 132.005 123.123C131.585 123.08 131.2 122.816 131.023 122.4ZM128.002 112.303C127.764 110.991 127.579 109.653 127.452 108.323C127.389 107.664 127.872 107.079 128.531 107.017C129.187 106.954 129.774 107.436 129.837 108.095C129.958 109.358 130.133 110.63 130.359 111.875C130.478 112.526 130.045 113.15 129.395 113.268C129.281 113.288 129.169 113.292 129.06 113.281C128.542 113.229 128.1 112.84 128.002 112.303ZM127.273 101.8C127.313 100.819 127.382 99.8267 127.481 98.8514C127.517 98.4981 127.557 98.1466 127.6 97.7958C127.681 97.1395 128.272 96.6589 128.935 96.7539C129.592 96.8344 130.058 97.4324 129.978 98.0892C129.937 98.4223 129.899 98.7571 129.865 99.0927C129.771 100.02 129.704 100.963 129.667 101.896C129.641 102.557 129.083 103.071 128.423 103.045C128.398 103.044 128.373 103.042 128.349 103.04C127.723 102.976 127.248 102.436 127.273 101.8Z" fill="#F545A6"/>
<path d="M197.78 145.595C198.017 145.619 198.264 145.573 198.487 145.448C199.052 145.13 199.622 144.794 200.179 144.45C200.742 144.103 200.917 143.365 200.569 142.802C200.222 142.239 199.484 142.064 198.921 142.412C198.391 142.739 197.85 143.057 197.314 143.359C196.737 143.682 196.532 144.413 196.856 144.99C197.055 145.343 197.406 145.557 197.78 145.595Z" fill="#F545A6"/>
</g>
<path d="M203.35 125.829C203.519 125.66 203.562 125.403 203.458 125.188L200.473 119.063C202.15 116.359 203.409 113.368 204.155 110.18L210.593 107.959C210.818 107.881 210.97 107.669 210.97 107.43L210.969 99.2569C210.969 99.018 210.817 98.8055 210.592 98.7277L204.154 96.5084C203.407 93.3201 202.148 90.3292 200.47 87.6254L203.454 81.4997C203.559 81.2849 203.515 81.0275 203.347 80.8587L197.567 75.0799C197.398 74.9111 197.14 74.8679 196.926 74.9726L190.8 77.9574C188.096 76.2799 185.105 75.0214 181.917 74.275L179.696 67.8377C179.618 67.6118 179.406 67.4603 179.167 67.4605L170.994 67.4611C170.755 67.4612 170.542 67.6128 170.465 67.8385L168.245 74.2763C165.057 75.0234 162.066 76.2822 159.362 77.9601L153.237 74.9763C153.022 74.8718 152.764 74.9148 152.596 75.0838L146.817 80.8635C146.648 81.0324 146.605 81.2899 146.709 81.5045L149.694 87.6299C148.017 90.3339 146.758 93.3249 146.012 96.5134L139.575 98.7338C139.349 98.8115 139.197 99.0241 139.197 99.263L139.198 107.436C139.198 107.675 139.35 107.888 139.575 107.965L146.013 110.185C146.76 113.373 148.019 116.364 149.697 119.068L146.713 125.193C146.609 125.408 146.652 125.665 146.821 125.834L152.6 131.613C152.769 131.782 153.027 131.825 153.242 131.721L159.367 128.736C162.071 130.413 165.062 131.671 168.25 132.418L170.471 138.856C170.549 139.081 170.761 139.233 171 139.233L179.173 139.232C179.412 139.232 179.625 139.081 179.702 138.855L181.922 132.417C185.11 131.67 188.101 130.411 190.805 128.733L196.93 131.717C197.145 131.822 197.403 131.778 197.571 131.61L203.35 125.829Z" fill="#F545A6"/>
<path d="M173.073 111.312C168.681 110.203 166.009 105.729 167.118 101.336C167.655 99.208 168.988 97.4168 170.872 96.292C172.756 95.1672 174.966 94.843 177.094 95.3805C181.486 96.4891 184.158 100.964 183.049 105.357C182.041 109.353 178.246 111.924 174.262 111.521C173.867 111.481 173.469 111.412 173.073 111.312ZM171.855 97.9377C170.41 98.8002 169.388 100.174 168.976 101.805C168.126 105.173 170.175 108.604 173.542 109.454C176.911 110.305 180.341 108.255 181.191 104.887C182.041 101.52 179.993 98.0884 176.625 97.2387C176.32 97.1617 176.012 97.1081 175.705 97.0769C174.368 96.9416 173.029 97.2369 171.855 97.9377Z" fill="white"/>
<path d="M172.9 123.31C173.584 123.379 174.276 123.414 174.973 123.414C175.192 123.415 175.412 123.411 175.631 123.404C176.713 123.369 177.79 123.248 178.846 123.043C178.861 123.04 178.875 123.038 178.889 123.035C178.93 123.027 178.971 123.019 179.012 123.01C179.091 122.994 179.171 122.977 179.25 122.96C179.458 122.916 179.605 122.742 179.626 122.541C179.631 122.492 179.628 122.441 179.617 122.391C179.561 122.132 179.306 121.969 179.048 122.024C177.717 122.311 176.346 122.456 174.973 122.456C168.154 122.458 162.153 118.893 158.734 113.53C156.832 110.547 155.729 107.008 155.729 103.215C155.729 102.55 155.762 101.89 155.829 101.238C156.274 96.845 158.2 92.7729 161.364 89.6088C164.998 85.974 169.83 83.972 174.97 83.9716C185.584 83.9718 194.213 92.6026 194.214 103.212C194.214 103.867 194.181 104.518 194.115 105.165C193.831 107.967 192.937 110.676 191.488 113.093C191.45 113.156 191.429 113.223 191.422 113.291C191.404 113.47 191.488 113.652 191.652 113.751C191.88 113.886 192.174 113.814 192.31 113.586C193.831 111.047 194.77 108.203 195.068 105.262C195.137 104.583 195.172 103.899 195.172 103.213C195.171 92.0732 186.105 83.0124 174.97 83.0131C169.574 83.0135 164.501 85.1154 160.686 88.9313C157.365 92.253 155.343 96.5279 154.875 101.139C154.806 101.824 154.771 102.517 154.771 103.215C154.771 108.611 156.873 113.684 160.689 117.499C164.011 120.821 168.287 122.843 172.9 123.31Z" fill="#F545A6"/>
</g>
<defs>
<linearGradient id="paint0_linear_412_40565" x1="183.422" y1="374.655" x2="188.508" y2="374.703" gradientUnits="userSpaceOnUse">
<stop stop-color="#FEBBBA"/>
<stop offset="1" stop-color="#FF928E"/>
</linearGradient>
<linearGradient id="paint1_linear_412_40565" x1="165.096" y1="374.219" x2="169.487" y2="374.261" gradientUnits="userSpaceOnUse">
<stop stop-color="#FEBBBA"/>
<stop offset="1" stop-color="#FF928E"/>
</linearGradient>
<linearGradient id="paint2_linear_412_40565" x1="205.615" y1="242.175" x2="231.598" y2="242.422" gradientUnits="userSpaceOnUse">
<stop stop-color="#FEBBBA"/>
<stop offset="1" stop-color="#FF928E"/>
</linearGradient>
<linearGradient id="paint3_linear_412_40565" x1="230.527" y1="237.07" x2="233.501" y2="217.333" gradientUnits="userSpaceOnUse">
<stop stop-color="#FEBBBA"/>
<stop offset="1" stop-color="#FF928E"/>
</linearGradient>
<linearGradient id="paint4_linear_412_40565" x1="231.64" y1="224.856" x2="239.021" y2="213.74" gradientUnits="userSpaceOnUse">
<stop stop-color="#FEBBBA"/>
<stop offset="1" stop-color="#FF928E"/>
</linearGradient>
<linearGradient id="paint5_linear_412_40565" x1="148.411" y1="278.435" x2="181.291" y2="278.748" gradientUnits="userSpaceOnUse">
<stop stop-color="#FEBBBA"/>
<stop offset="1" stop-color="#FF928E"/>
</linearGradient>
<linearGradient id="paint6_linear_412_40565" x1="173.993" y1="243.525" x2="186.994" y2="243.649" gradientUnits="userSpaceOnUse">
<stop stop-color="#FEBBBA"/>
<stop offset="1" stop-color="#FF928E"/>
</linearGradient>
<linearGradient id="paint7_linear_412_40565" x1="190.164" y1="235.408" x2="175.954" y2="226.554" gradientUnits="userSpaceOnUse">
<stop stop-color="#FEBBBA"/>
<stop offset="1" stop-color="#FF928E"/>
</linearGradient>
<linearGradient id="paint8_linear_412_40565" x1="186.379" y1="238.623" x2="173.593" y2="230.657" gradientUnits="userSpaceOnUse">
<stop stop-color="#FEBBBA"/>
<stop offset="1" stop-color="#FF928E"/>
</linearGradient>
<linearGradient id="paint9_linear_412_40565" x1="177.675" y1="277.543" x2="187.955" y2="277.543" gradientUnits="userSpaceOnUse">
<stop stop-color="#FEBBBA"/>
<stop offset="1" stop-color="#FF928E"/>
</linearGradient>
<linearGradient id="paint10_linear_412_40565" x1="184.567" y1="265.4" x2="206.625" y2="265.4" gradientUnits="userSpaceOnUse">
<stop stop-color="#DAE3FE"/>
<stop offset="1" stop-color="#E9EFFD"/>
</linearGradient>
<linearGradient id="paint11_linear_412_40565" x1="140.044" y1="376.865" x2="145.466" y2="376.865" gradientUnits="userSpaceOnUse">
<stop stop-color="#FEBBBA"/>
<stop offset="1" stop-color="#FF928E"/>
</linearGradient>
<linearGradient id="paint12_linear_412_40565" x1="165.726" y1="377.321" x2="172.199" y2="377.321" gradientUnits="userSpaceOnUse">
<stop stop-color="#FEBBBA"/>
<stop offset="1" stop-color="#FF928E"/>
</linearGradient>
<linearGradient id="paint13_linear_412_40565" x1="129.769" y1="286.102" x2="132.96" y2="278.054" gradientUnits="userSpaceOnUse">
<stop stop-color="#FEBBBA"/>
<stop offset="1" stop-color="#FF928E"/>
</linearGradient>
<linearGradient id="paint14_linear_412_40565" x1="157.034" y1="317.401" x2="171.987" y2="317.401" gradientUnits="userSpaceOnUse">
<stop stop-color="#FEBBBA"/>
<stop offset="1" stop-color="#FF928E"/>
</linearGradient>
<linearGradient id="paint15_linear_412_40565" x1="139.513" y1="269.734" x2="125.228" y2="283.982" gradientUnits="userSpaceOnUse">
<stop stop-color="#FEBBBA"/>
<stop offset="1" stop-color="#FF928E"/>
</linearGradient>
<linearGradient id="paint16_linear_412_40565" x1="137.203" y1="267.419" x2="122.918" y2="281.667" gradientUnits="userSpaceOnUse">
<stop stop-color="#FEBBBA"/>
<stop offset="1" stop-color="#FF928E"/>
</linearGradient>
<linearGradient id="paint17_linear_412_40565" x1="-3047.27" y1="-3103.24" x2="-2994.51" y2="-3046.83" gradientUnits="userSpaceOnUse">
<stop stop-color="#09005D"/>
<stop offset="1" stop-color="#1A0F91"/>
</linearGradient>
<linearGradient id="paint18_linear_412_40565" x1="4646.54" y1="-1163.42" x2="4573.15" y2="-1139.37" gradientUnits="userSpaceOnUse">
<stop stop-color="#09005D"/>
<stop offset="1" stop-color="#1A0F91"/>
</linearGradient>
<linearGradient id="paint19_linear_412_40565" x1="235.334" y1="354.396" x2="257.738" y2="354.396" gradientUnits="userSpaceOnUse">
<stop stop-color="#FEBBBA"/>
<stop offset="1" stop-color="#FF928E"/>
</linearGradient>
<linearGradient id="paint20_linear_412_40565" x1="209.027" y1="355.926" x2="256.305" y2="355.926" gradientUnits="userSpaceOnUse">
<stop stop-color="#FEBBBA"/>
<stop offset="1" stop-color="#FF928E"/>
</linearGradient>
<linearGradient id="paint21_linear_412_40565" x1="262.601" y1="294.061" x2="259.41" y2="273.583" gradientUnits="userSpaceOnUse">
<stop stop-color="#FEBBBA"/>
<stop offset="1" stop-color="#FF928E"/>
</linearGradient>
<linearGradient id="paint22_linear_412_40565" x1="245.25" y1="272.354" x2="269.177" y2="264.282" gradientUnits="userSpaceOnUse">
<stop stop-color="#FEBBBA"/>
<stop offset="1" stop-color="#FF928E"/>
</linearGradient>
<linearGradient id="paint23_linear_412_40565" x1="244.538" y1="270.242" x2="268.464" y2="262.171" gradientUnits="userSpaceOnUse">
<stop stop-color="#FEBBBA"/>
<stop offset="1" stop-color="#FF928E"/>
</linearGradient>
<linearGradient id="paint24_linear_412_40565" x1="275.706" y1="317.312" x2="320.118" y2="317.312" gradientUnits="userSpaceOnUse">
<stop stop-color="#FEBBBA"/>
<stop offset="1" stop-color="#FF928E"/>
</linearGradient>
<linearGradient id="paint25_linear_412_40565" x1="308.287" y1="381.543" x2="309.898" y2="368.948" gradientUnits="userSpaceOnUse">
<stop stop-color="#FEBBBA"/>
<stop offset="1" stop-color="#FF928E"/>
</linearGradient>
<linearGradient id="paint26_linear_412_40565" x1="343.499" y1="385.86" x2="345.069" y2="373.586" gradientUnits="userSpaceOnUse">
<stop stop-color="#FEBBBA"/>
<stop offset="1" stop-color="#FF928E"/>
</linearGradient>
<linearGradient id="paint27_linear_412_40565" x1="346.197" y1="282.945" x2="310.307" y2="321.268" gradientUnits="userSpaceOnUse">
<stop stop-color="#FEBBBA"/>
<stop offset="1" stop-color="#FF928E"/>
</linearGradient>
<linearGradient id="paint28_linear_412_40565" x1="311.356" y1="277.664" x2="270.266" y2="277.664" gradientUnits="userSpaceOnUse">
<stop stop-color="#FEBBBA"/>
<stop offset="1" stop-color="#FF928E"/>
</linearGradient>
<linearGradient id="paint29_linear_412_40565" x1="326.15" y1="254.618" x2="311.849" y2="239.946" gradientUnits="userSpaceOnUse">
<stop stop-color="#FEBBBA"/>
<stop offset="1" stop-color="#FF928E"/>
</linearGradient>
<linearGradient id="paint30_linear_412_40565" x1="305.411" y1="230.702" x2="323.24" y2="254.289" gradientUnits="userSpaceOnUse">
<stop stop-color="#FEBBBA"/>
<stop offset="1" stop-color="#FF928E"/>
</linearGradient>
<linearGradient id="paint31_linear_412_40565" x1="331.523" y1="249.381" x2="317.223" y2="234.709" gradientUnits="userSpaceOnUse">
<stop stop-color="#FEBBBA"/>
<stop offset="1" stop-color="#FF928E"/>
</linearGradient>
<linearGradient id="paint32_linear_412_40565" x1="-500.361" y1="-1654.9" x2="-470.544" y2="-1582.38" gradientUnits="userSpaceOnUse">
<stop stop-color="#4F52FF"/>
<stop offset="1" stop-color="#4042E2"/>
</linearGradient>
<clipPath id="clip0_412_40565">
<rect width="450" height="450" fill="white"/>
</clipPath>
</defs>
</svg>
