<svg width="396" height="322" viewBox="0 0 396 322" fill="none" xmlns="http://www.w3.org/2000/svg">
<path opacity="0.5" d="M287.029 254.544C280.246 261.536 274.177 265.646 269.53 268.749C224.212 299.008 172.408 290.287 156.391 287.306C130.551 282.496 108.737 279.103 89.9961 262.171C47.4101 223.696 49.4814 143.435 82.0223 93.7167C85.8806 87.8215 118.372 39.6588 170.289 32.8722C171.558 32.7063 172.506 32.6117 173.336 32.5238C181.367 31.6735 231.135 27.1856 271.717 61.1845C277.526 66.0513 286.874 74.8297 295.543 88.2182C327.24 137.173 327.341 212.993 287.029 254.544Z" fill="#DEDAFF"/>
<path d="M120.628 43.6765C114.433 44.2152 109.683 49.4035 109.666 55.6218C109.558 93.6493 109.38 224.816 111.858 271.242C112.121 276.161 116.153 280.024 121.078 280.077C145.438 280.34 215.508 280.821 255.287 278.277C263.573 277.747 270.02 270.885 270.01 262.583C269.962 222.671 269.324 110.427 263.857 59.1218C263.202 52.9746 258.26 48.1764 252.097 47.6961C225.529 45.6261 154.977 40.6891 120.628 43.6765Z" fill="#6549FE"/>
<path d="M119.443 65.5875C118.965 98.1167 117.603 206.328 119.981 246.267C120.328 252.104 124.863 256.713 130.462 256.908C153.515 257.711 212.63 259.266 246.316 255.56C252.381 254.892 257.017 249.635 257.179 243.268C258.021 210.072 260.297 109.286 257.987 69.7943C257.618 63.4942 252.805 58.4671 246.771 58.0606C221.81 56.3787 157.713 52.4998 129.068 54.8853C123.691 55.3331 119.526 59.956 119.443 65.5875Z" fill="#DEDAFF"/>
<path d="M175.143 49.3326C175.163 50.2313 175.88 50.9571 176.778 50.9844C181.214 51.1192 193.71 51.5018 199.295 51.7029C200.396 51.7426 201.238 50.735 201.005 49.6578C200.986 49.6239 200.843 48.2427 199.433 48.1447C195.654 47.882 184.256 47.1738 176.724 47.6083C175.177 47.6976 175.093 49.4566 175.143 49.3326Z" fill="#EEECFF"/>
<path d="M146.498 163.823C146.498 163.823 178.272 155.852 211.844 160.659C221.29 162.012 229.656 167.507 234.754 175.574C243.938 190.108 256.923 216.009 254.177 243.022L239.761 246.586C239.761 246.586 229.799 214.53 218.586 201.483C218.586 201.483 205.306 231.752 205.978 248.374C205.997 248.844 206.027 249.303 206.069 249.75C207.592 266.013 142.323 252.785 142.323 252.785L146.498 163.823Z" fill="#6449FF"/>
<path d="M180.849 136.688L174.084 158.235C173.455 160.24 174.081 162.386 175.652 163.597C179.273 166.386 186.43 170.825 195.174 170.698C196.774 170.674 198.119 169.309 198.231 167.633L200.635 131.618L180.849 136.688Z" fill="url(#paint0_linear_416_51602)"/>
<path d="M207.038 113.072C207.038 113.072 209.666 130.041 208.011 138.151C206.357 146.26 206.716 151.899 197.052 151.08C187.388 150.262 180.812 143.612 178.686 134.543C178.686 134.543 175.302 120.539 178.104 115.904C180.906 111.27 207.038 113.072 207.038 113.072Z" fill="url(#paint1_linear_416_51602)"/>
<path d="M183.349 129.648L184.517 129.955C184.517 129.955 182.298 118.817 186.983 118.194C191.668 117.57 209.32 118.556 214.497 113.561C219.487 108.745 218.325 100.526 214.219 97.2323C213.959 97.0239 213.576 97.0712 213.351 97.3165L212.774 97.9441C212.379 98.3739 211.662 98.1046 211.648 97.521C211.634 96.9676 210.97 96.6731 210.568 97.0533C208.994 98.5404 205.238 100.644 196.813 100.016C184.857 99.1241 176.106 101.758 173.85 109.59C173.707 110.086 173.102 110.221 172.743 109.849C172.036 109.115 170.753 108.52 168.554 109.561C164.732 111.371 164.218 118.537 169.606 125.958C169.862 126.311 169.726 126.819 169.312 126.957C167.855 127.44 165.494 128.88 169.625 132.712C173.851 136.632 176.836 137.11 178.008 137.117C178.323 137.119 178.593 136.902 178.654 136.593L180.057 129.496C180.13 129.129 180.497 128.899 180.859 128.994L183.349 129.648Z" fill="#04021B"/>
<path d="M183.251 131.185C183.251 131.185 183.278 120.793 178.2 122.375C173.122 123.956 177.6 133.868 181.01 135.153L183.251 131.185Z" fill="url(#paint2_linear_416_51602)"/>
<path d="M147.823 232.079C146.416 222.141 155.579 204.076 159.837 198.533C161.054 196.947 161.735 195.008 161.753 193.009C161.877 178.933 155.967 169.893 146.497 163.823C146.497 163.823 112.128 203.865 120.879 234.664C121.823 237.987 123.287 240.843 125.142 243.297C126.521 231.692 141.063 232.615 147.823 232.079Z" fill="#6449FF"/>
<path d="M147.335 224.781L146.026 224.632C147.136 214.885 155.688 202.852 159.314 198.131L160.359 198.934C156.801 203.568 148.408 215.362 147.335 224.781Z" fill="#B8AFFF"/>
<path d="M147.996 231.613C144.13 231.62 126.347 232.228 124.705 242.838C140.042 263.124 182.319 255.805 182.319 255.805V247.912C182.319 247.912 155.818 243.099 149.081 232.218C148.848 231.841 148.439 231.613 147.996 231.613Z" fill="url(#paint3_linear_416_51602)"/>
<path d="M178.693 254.085C178.693 254.085 184.935 239.356 195.934 244.58C206.933 249.805 206.069 253.224 206.069 253.224L178.693 254.085Z" fill="url(#paint4_linear_416_51602)"/>
<path d="M177.292 257.141C177.379 258.256 178.329 259.103 179.446 259.065L236.442 257.076C237.328 257.045 238.098 256.458 238.362 255.612L240.016 250.319C240.423 249.018 239.495 247.683 238.134 247.611L217.35 246.507C217.161 246.497 216.972 246.512 216.787 246.553L178.922 254.939C177.905 255.164 177.21 256.104 177.292 257.141Z" fill="#02011A"/>
<path d="M215.497 255.061L217.065 247.753L238.415 248.772L237.01 254.835L215.497 255.061Z" fill="#02011A"/>
<path d="M204.549 176.402C203.341 186.276 197.905 226.389 196.35 237.851C196.131 239.463 197.411 240.881 199.037 240.834L291.246 238.195C292.453 238.161 293.482 237.311 293.744 236.132L308.088 171.535C308.467 169.827 307.107 168.23 305.361 168.333L207.011 174.093C205.739 174.168 204.704 175.138 204.549 176.402Z" fill="#02011A"/>
<path d="M241.617 216.912L227.989 255.593L259.678 256.264L262.316 217.144C262.44 215.309 260.917 213.785 259.082 213.906L244.283 214.889C243.07 214.97 242.021 215.765 241.617 216.912Z" fill="#02011A"/>
<path d="M215.14 256.143C214.791 257.208 215.584 258.302 216.704 258.302H266.33C267.239 258.302 267.976 257.566 267.976 256.657V254.528C267.976 253.592 267.196 252.844 266.26 252.884L216.634 255.012C215.949 255.042 215.354 255.492 215.14 256.143Z" fill="#02011A"/>
<path d="M203.159 217.211L202.505 217.129L207.035 181.399C207.316 179.183 209.138 177.477 211.368 177.343L296.358 172.21L296.398 172.868L211.408 178.001C209.494 178.116 207.93 179.58 207.689 181.482L203.159 217.211Z" fill="#EEEAFE"/>
<path d="M201.225 227.301L200.25 235.037L200.904 235.12L201.879 227.383L201.225 227.301Z" fill="#EEEAFE"/>
<path d="M197.989 142.14C187.749 142.913 181.797 132.325 181.738 132.218L182.424 131.841C182.48 131.943 188.196 142.094 197.93 141.359L197.989 142.14Z" fill="url(#paint5_linear_416_51602)"/>
<path d="M202.163 141.744C202.163 142.351 201.671 142.843 201.064 142.843H198.134C197.527 142.843 197.035 142.351 197.035 141.744C197.035 141.137 197.527 140.646 198.134 140.646H201.064C201.671 140.646 202.163 141.138 202.163 141.744Z" fill="url(#paint6_linear_416_51602)"/>
<path d="M182.449 120.473C182.449 120.473 186.124 101.621 196.952 99.8428C196.952 99.8428 193.885 98.2991 190.689 99.9735C187.492 101.648 179.412 110.823 179.742 120.937C181.939 121.729 182.449 120.473 182.449 120.473Z" fill="#6449FF"/>
<path d="M180.566 119.58C174.936 120.723 175.628 127.841 175.628 127.841C175.223 133.007 176.731 135.568 178.663 136.789C179.983 137.622 181.644 137.699 183.038 136.996C184.432 136.293 185.355 134.91 185.47 133.353C185.574 131.948 185.693 130.611 185.797 130.137C186.05 128.986 186.195 118.438 180.566 119.58Z" fill="#6449FF"/>
<path d="M181.081 121.38C179.912 121.177 178.76 121.798 178.29 122.887C174.926 130.681 179.056 135.75 181.084 135.856C183.221 135.968 183.178 125.685 182.724 123.049C182.534 121.944 181.832 121.511 181.081 121.38Z" fill="#9E8EFC"/>
<path d="M294.629 156.589C294.629 156.589 354.872 126.823 335.171 104.907C315.469 82.9917 278.739 91.7514 276.878 114.818C275.017 137.884 319.723 132.473 294.629 156.589Z" fill="#F545A6"/>
<path d="M329.511 110.198C329.511 110.534 329.239 110.806 328.903 110.806H302.316C301.981 110.806 301.709 110.534 301.709 110.198C301.709 109.863 301.981 109.591 302.316 109.591H328.903C329.239 109.591 329.511 109.862 329.511 110.198Z" fill="white"/>
<path d="M294.42 110.806H286.531C286.196 110.806 285.924 110.534 285.924 110.198C285.924 109.863 286.196 109.591 286.531 109.591H294.42C294.755 109.591 295.027 109.862 295.027 110.198C295.027 110.534 294.755 110.806 294.42 110.806Z" fill="white"/>
<path d="M330.407 115.581C330.407 115.916 330.135 116.188 329.8 116.188H319.817C319.481 116.188 319.209 115.916 319.209 115.581C319.209 115.245 319.481 114.973 319.817 114.973H329.8C330.135 114.973 330.407 115.245 330.407 115.581Z" fill="white"/>
<path d="M305.773 115.581C305.773 115.916 305.501 116.188 305.166 116.188H287.427C287.091 116.188 286.819 115.916 286.819 115.581C286.819 115.245 287.091 114.973 287.427 114.973H305.166C305.501 114.973 305.773 115.245 305.773 115.581Z" fill="white"/>
<path d="M330.694 121.571H304.156C303.82 121.571 303.549 121.299 303.549 120.963C303.549 120.628 303.82 120.356 304.156 120.356H330.694C331.029 120.356 331.301 120.628 331.301 120.963C331.301 121.299 331.029 121.571 330.694 121.571Z" fill="white"/>
<path d="M297.511 121.571H288.323C287.988 121.571 287.716 121.299 287.716 120.963C287.716 120.628 287.988 120.356 288.323 120.356H297.511C297.846 120.356 298.118 120.628 298.118 120.963C298.118 121.299 297.846 121.571 297.511 121.571Z" fill="white"/>
<defs>
<linearGradient id="paint0_linear_416_51602" x1="175.382" y1="190.697" x2="190.915" y2="148.637" gradientUnits="userSpaceOnUse">
<stop stop-color="#FEBBBA"/>
<stop offset="1" stop-color="#FF928E"/>
</linearGradient>
<linearGradient id="paint1_linear_416_51602" x1="204.906" y1="126.84" x2="159.393" y2="145.88" gradientUnits="userSpaceOnUse">
<stop stop-color="#FEBBBA"/>
<stop offset="1" stop-color="#FF928E"/>
</linearGradient>
<linearGradient id="paint2_linear_416_51602" x1="201.819" y1="119.462" x2="156.306" y2="138.502" gradientUnits="userSpaceOnUse">
<stop stop-color="#FEBBBA"/>
<stop offset="1" stop-color="#FF928E"/>
</linearGradient>
<linearGradient id="paint3_linear_416_51602" x1="143.762" y1="219.718" x2="167.254" y2="281.54" gradientUnits="userSpaceOnUse">
<stop stop-color="#FEBBBA"/>
<stop offset="1" stop-color="#FF928E"/>
</linearGradient>
<linearGradient id="paint4_linear_416_51602" x1="174.165" y1="205.419" x2="199.218" y2="271.349" gradientUnits="userSpaceOnUse">
<stop stop-color="#FEBBBA"/>
<stop offset="1" stop-color="#FF928E"/>
</linearGradient>
<linearGradient id="paint5_linear_416_51602" x1="181.348" y1="145.365" x2="194.759" y2="132.472" gradientUnits="userSpaceOnUse">
<stop stop-color="#4F52FF"/>
<stop offset="1" stop-color="#4042E2"/>
</linearGradient>
<linearGradient id="paint6_linear_416_51602" x1="197.035" y1="141.744" x2="202.163" y2="141.744" gradientUnits="userSpaceOnUse">
<stop stop-color="#4F52FF"/>
<stop offset="1" stop-color="#4042E2"/>
</linearGradient>
</defs>
</svg>
