<svg width="89" height="88" viewBox="0 0 89 88" fill="none" xmlns="http://www.w3.org/2000/svg">
<path d="M88.7932 87.7079H71.4345V29.1577C71.4345 28.4494 72.0118 27.8752 72.724 27.8752H87.5037C88.2159 27.8752 88.7932 28.4494 88.7932 29.1577V87.7079Z" fill="#6449FF"/>
<path d="M84.5136 87.7077H67.155V29.1576C67.155 28.4493 67.7323 27.8751 68.4445 27.8751H83.2241C83.9363 27.8751 84.5136 28.4493 84.5136 29.1576V87.7077Z" fill="#C3BBFF"/>
<path d="M68.3996 36.5653C68.3116 36.5653 68.2402 36.4943 68.2402 36.4068V32.7292C68.2402 30.7808 69.3472 29.1957 70.7079 29.1957H74.5251C74.6131 29.1957 74.6845 29.2666 74.6845 29.3542C74.6845 29.4418 74.6131 29.5127 74.5251 29.5127H70.7079C69.523 29.5127 68.559 30.9556 68.559 32.7292V36.4068C68.559 36.4943 68.4876 36.5653 68.3996 36.5653Z" fill="#91B3FA"/>
<path d="M68.3994 40.465C68.3114 40.465 68.24 40.3941 68.24 40.3065V38.8082C68.24 38.7206 68.3114 38.6497 68.3994 38.6497C68.4874 38.6497 68.5588 38.7206 68.5588 38.8082V40.3065C68.5588 40.3941 68.4873 40.465 68.3994 40.465Z" fill="#91B3FA"/>
<path d="M64.1662 87.7079H47.3185V45.2715C47.3185 44.5632 47.8958 43.989 48.608 43.989H62.8767C63.5889 43.989 64.1662 44.5632 64.1662 45.2715L64.1662 87.7079Z" fill="#F545A6"/>
<path d="M59.8866 87.7078H43.0388V45.2713C43.0388 44.5631 43.6162 43.9889 44.3283 43.9889H58.597C59.3092 43.9889 59.8865 44.5631 59.8865 45.2713L59.8866 87.7078Z" fill="#F684C3"/>
<path d="M44.1686 52.1617C44.0806 52.1617 44.0092 52.0908 44.0092 52.0032V48.9015C44.0092 47.2445 44.9584 45.8965 46.1251 45.8965H49.3605C49.4485 45.8965 49.5199 45.9675 49.5199 46.055C49.5199 46.1426 49.4485 46.2135 49.3605 46.2135H46.1251C45.1341 46.2135 44.328 47.4194 44.328 48.9015V52.0032C44.328 52.0908 44.2566 52.1617 44.1686 52.1617Z" fill="white"/>
<path d="M44.1688 55.4507C44.0807 55.4507 44.0094 55.3798 44.0094 55.2922V54.0285C44.0094 53.941 44.0807 53.87 44.1688 53.87C44.2568 53.87 44.3282 53.941 44.3282 54.0285V55.2922C44.3282 55.3798 44.2567 55.4507 44.1688 55.4507Z" fill="white"/>
<path d="M40.6405 87.6481H26.1231V59.3579C26.1231 58.6496 26.7005 58.0754 27.4126 58.0754H39.3509C40.0631 58.0754 40.6404 58.6496 40.6404 59.3579L40.6405 87.6481Z" fill="#6449FF"/>
<path d="M36.3608 87.6482H21.8435V59.358C21.8435 58.6497 22.4208 58.0756 23.133 58.0756H35.0713C35.7835 58.0756 36.3608 58.6497 36.3608 59.358L36.3608 87.6482Z" fill="#C3BBFF"/>
<path d="M23.0429 66.511C22.9549 66.511 22.8835 66.44 22.8835 66.3525V62.8478C22.8835 60.987 23.9905 59.473 25.3512 59.473H29.1684C29.2564 59.473 29.3278 59.544 29.3278 59.6315C29.3278 59.7191 29.2564 59.7901 29.1684 59.7901H25.3512C24.1663 59.7901 23.2023 61.1617 23.2023 62.8478V66.3525C23.2023 66.4401 23.131 66.511 23.0429 66.511Z" fill="#91B3FA"/>
<path d="M23.043 70.2277C22.9549 70.2277 22.8836 70.1567 22.8836 70.0692V68.6413C22.8836 68.5538 22.9549 68.4828 23.043 68.4828C23.131 68.4828 23.2024 68.5538 23.2024 68.6413V70.0692C23.2024 70.1568 23.131 70.2277 23.043 70.2277Z" fill="#91B3FA"/>
<path d="M19.5281 87.648H5.01079V74.2341C5.01079 73.5258 5.58814 72.9517 6.30029 72.9517H18.2386C18.9508 72.9517 19.5281 73.5259 19.5281 74.2341V87.648Z" fill="#F545A6"/>
<path d="M15.2485 87.6478H0.731171V74.2339C0.731171 73.5256 1.30852 72.9514 2.02067 72.9514H13.959C14.6712 72.9514 15.2485 73.5256 15.2485 74.2339V87.6478Z" fill="#F684C3"/>
<path d="M1.76298 81.1455C1.67497 81.1455 1.60358 81.0746 1.60358 80.987V77.4823C1.60358 75.6215 2.71058 74.1075 4.07119 74.1075H7.88843C7.97645 74.1075 8.04783 74.1785 8.04783 74.2661C8.04783 74.3536 7.97645 74.4246 7.88843 74.4246H4.07119C2.88635 74.4246 1.92238 75.7963 1.92238 77.4823V80.987C1.92238 81.0746 1.85099 81.1455 1.76298 81.1455Z" fill="white"/>
<path d="M1.76283 84.8612C1.67482 84.8612 1.60342 84.7902 1.60342 84.7026V83.2747C1.60342 83.1872 1.67482 83.1162 1.76283 83.1162C1.85084 83.1162 1.92223 83.1872 1.92223 83.2747V84.7026C1.92223 84.7902 1.85084 84.8612 1.76283 84.8612Z" fill="white"/>
<path d="M52.949 26.2463L53.207 26.0976C53.2143 26.0933 53.2289 26.0855 53.2502 26.0743C53.3257 26.0343 53.483 25.951 53.6927 25.823C53.7495 25.7884 53.8294 25.8041 53.8716 25.8583C53.9137 25.9125 53.9018 25.9844 53.8452 26.0189C53.7557 26.0736 53.6755 26.1202 53.6069 26.1591C53.6388 26.1855 53.6569 26.2249 53.6513 26.2649C53.6427 26.328 53.5788 26.3691 53.5086 26.3567C53.3478 26.3284 53.2608 26.3105 53.2608 26.3105L52.949 26.2463ZM54.2327 26.3862C54.2304 26.3755 54.2296 26.3646 54.2306 26.3535C54.2362 26.29 54.2977 26.2462 54.368 26.2556C54.6406 26.2921 54.9205 26.3249 55.1993 26.3528C55.2698 26.36 55.325 26.417 55.3218 26.4813C55.3189 26.5451 55.2594 26.5912 55.189 26.5841C54.9066 26.5558 54.6238 26.5227 54.3481 26.4857C54.29 26.4779 54.2439 26.4363 54.2327 26.3862ZM54.2928 25.4967C54.284 25.4571 54.2977 25.4158 54.3328 25.3894C54.5423 25.2321 54.7395 25.0674 54.9183 24.8998C54.9658 24.8554 55.0466 24.8569 55.099 24.9033C55.1508 24.9498 55.1552 25.0234 55.1076 25.0678C54.9228 25.2409 54.7196 25.4109 54.5036 25.573C54.451 25.6125 54.37 25.6035 54.3229 25.5527C54.3073 25.5358 54.2972 25.5165 54.2928 25.4967ZM55.4121 24.4402C55.4053 24.4095 55.4116 24.3773 55.4327 24.3515C55.595 24.1522 55.7357 23.947 55.8511 23.7414C55.8822 23.6859 55.9589 23.6671 56.0222 23.6994C56.0857 23.7317 56.1117 23.803 56.0804 23.8585C55.9592 24.0743 55.8117 24.2896 55.6419 24.4981C55.6012 24.548 55.5215 24.5556 55.4638 24.5151C55.4359 24.4957 55.4184 24.4686 55.4121 24.4402ZM55.9058 26.5542C55.9041 26.5464 55.9033 26.5383 55.9032 26.53C55.9037 26.4659 55.9612 26.4179 56.0318 26.4227C56.3092 26.4415 56.5892 26.4557 56.8641 26.4651C56.9346 26.4676 56.9935 26.5218 56.9959 26.5857C56.9982 26.65 56.9427 26.7001 56.8721 26.6976C56.5942 26.6881 56.311 26.6737 56.0305 26.6546C55.9689 26.6505 55.9177 26.6076 55.9058 26.5542ZM56.1387 23.1259C56.1348 23.1083 56.1353 23.0899 56.1407 23.0721C56.192 22.9055 56.2286 22.7353 56.2499 22.5662C56.2593 22.491 56.2699 22.4181 56.2816 22.3477C56.2919 22.2849 56.357 22.2453 56.4268 22.2591C56.4965 22.273 56.545 22.3348 56.5345 22.3977C56.5232 22.4656 56.513 22.5356 56.5039 22.6082C56.4812 22.7891 56.4421 22.971 56.3873 23.1488C56.3688 23.2095 56.2984 23.2415 56.2302 23.2203C56.1822 23.2054 56.1481 23.168 56.1387 23.1259ZM55.7005 20.2323L55.6541 20.0021C55.8318 19.9681 55.9656 19.8778 56.1014 19.7003C56.1404 19.6494 56.2197 19.6397 56.2786 19.6789C56.3374 19.7179 56.3537 19.791 56.3145 19.8421C56.2069 19.9825 56.0947 20.0821 55.9664 20.1478C55.9541 20.1944 55.9095 20.2285 55.8532 20.2295L55.7005 20.2323ZM56.4688 21.6608C56.4645 21.6415 56.4654 21.6213 56.4725 21.6021C56.5686 21.3387 56.6917 21.1064 56.838 20.9115C56.8766 20.8603 56.9557 20.85 57.015 20.8888C57.0742 20.9273 57.0908 21.0004 57.0524 21.0517C56.9183 21.2302 56.8051 21.4446 56.7158 21.6889C56.694 21.7485 56.6219 21.7774 56.5547 21.7534C56.5093 21.7373 56.4777 21.701 56.4688 21.6608ZM57.579 26.6109C57.5779 26.6059 57.5772 26.6007 57.5767 26.5955C57.5718 26.5312 57.6248 26.479 57.6952 26.479C57.9736 26.4786 58.2523 26.473 58.5234 26.4623C58.5937 26.4596 58.6563 26.5094 58.6648 26.5737C58.6727 26.6378 58.6222 26.6921 58.5521 26.6949C58.2774 26.7056 57.9952 26.7113 57.7134 26.7116C57.6487 26.7117 57.5916 26.6678 57.579 26.6109ZM56.5534 20.1197C56.5524 20.1148 56.5518 20.1098 56.5512 20.1046C56.546 20.0403 56.599 19.988 56.6693 19.9878C56.9944 19.9865 57.2772 19.9883 57.51 19.9931C57.5805 19.9946 57.6396 20.0483 57.6437 20.1121C57.647 20.1764 57.5925 20.2273 57.5219 20.2258C57.2914 20.221 57.0108 20.2192 56.6882 20.2205C56.6233 20.2207 56.5661 20.1768 56.5534 20.1197ZM56.4719 19.1399C56.4664 19.1152 56.4693 19.0893 56.4824 19.066C56.5936 18.8684 56.7191 18.6527 56.8832 18.4144C56.9195 18.3617 56.998 18.3487 57.0587 18.3855C57.1192 18.4223 57.1386 18.4949 57.1026 18.5474C56.9431 18.779 56.8206 18.9898 56.7117 19.1832C56.6805 19.2386 56.6038 19.2575 56.5405 19.2251C56.5038 19.2063 56.4795 19.1743 56.4719 19.1399ZM57.3946 20.489C57.3847 20.444 57.4039 20.3978 57.4477 20.3732C57.7042 20.2295 57.9466 20.173 58.0915 20.1392C58.1369 20.1286 58.1737 20.1204 58.1995 20.1113C58.2601 20.0822 58.346 20.1023 58.3821 20.1595C58.4183 20.2166 58.406 20.284 58.3452 20.3131C58.3343 20.3183 58.3211 20.3238 58.3054 20.3293C58.2731 20.3406 58.2274 20.3516 58.1708 20.3649C58.0306 20.3976 57.8185 20.447 57.5923 20.5738C57.5341 20.6064 57.4544 20.588 57.4145 20.5326C57.4046 20.5188 57.398 20.504 57.3946 20.489ZM59.2422 26.5443C59.2418 26.5426 59.2414 26.5409 59.241 26.5391C59.2299 26.4751 59.2775 26.4186 59.3472 26.4129C59.5922 26.3929 59.8359 26.368 60.0714 26.3391L60.164 26.3275C60.2331 26.3186 60.3009 26.3631 60.3153 26.4268C60.3154 26.427 60.3154 26.4272 60.3154 26.4272C60.3296 26.4908 60.2855 26.5491 60.2166 26.558L60.1226 26.5698C59.8834 26.5992 59.6361 26.6244 59.3875 26.6447C59.3197 26.6502 59.2558 26.6057 59.2422 26.5443ZM57.336 17.8975C57.3289 17.8654 57.3362 17.8317 57.3594 17.8054C57.5264 17.6167 57.7111 17.4305 57.9082 17.2521C57.9566 17.2084 58.0375 17.2111 58.089 17.2583C58.1404 17.3052 58.143 17.3789 58.0949 17.4227C57.9036 17.5957 57.7246 17.7761 57.5629 17.9587C57.5203 18.0071 57.4399 18.012 57.3838 17.9696C57.3581 17.9503 57.342 17.9245 57.336 17.8975ZM58.4749 16.8613C58.4661 16.8215 58.4799 16.7801 58.5152 16.7538C58.5599 16.7203 58.6055 16.6868 58.6521 16.6532C58.8224 16.5303 59.001 16.4166 59.1834 16.3153C59.2416 16.2828 59.3213 16.3014 59.3611 16.3568C59.4007 16.4128 59.3857 16.4837 59.3275 16.5161C59.1531 16.613 58.9822 16.7218 58.8194 16.8393C58.7738 16.8722 58.7293 16.905 58.6854 16.9378C58.6328 16.9771 58.5519 16.9679 58.505 16.917C58.4894 16.9002 58.4793 16.8809 58.4749 16.8613ZM60.8786 26.3322C60.8651 26.2718 60.9049 26.2147 60.9705 26.2028C61.2411 26.1535 61.508 26.097 61.7637 26.0348C61.8305 26.0186 61.9031 26.0557 61.9256 26.1178C61.9505 26.1807 61.9122 26.2436 61.8454 26.2599C61.5847 26.3234 61.3128 26.3809 61.0371 26.4311C60.969 26.4435 60.8988 26.4025 60.8804 26.3394C60.8796 26.337 60.8791 26.3346 60.8786 26.3322ZM59.8541 16.0973C59.8426 16.0456 59.87 15.994 59.9241 15.9738C60.1797 15.8785 60.4479 15.8005 60.7211 15.7422C60.7886 15.7278 60.86 15.7668 60.8807 15.8294C60.8991 15.8932 60.8631 15.9546 60.7956 15.969C60.5348 16.0247 60.2788 16.0991 60.0347 16.1901C59.9711 16.2138 59.8947 16.1847 59.8642 16.1249C59.8595 16.1158 59.8561 16.1066 59.8541 16.0973ZM62.4622 25.9445C62.4502 25.8905 62.4809 25.8371 62.5385 25.819C62.7959 25.7378 63.0484 25.6476 63.2888 25.5512C63.3516 25.526 63.4288 25.5534 63.4608 25.6126C63.4924 25.6716 63.4681 25.74 63.4051 25.7652C63.159 25.8639 62.9004 25.9563 62.6369 26.0394C62.5717 26.06 62.4968 26.0273 62.4696 25.9664C62.4663 25.9592 62.4639 25.9519 62.4622 25.9445ZM61.4487 15.755C61.4482 15.753 61.4478 15.751 61.4475 15.7489C61.4369 15.6849 61.4849 15.6288 61.5547 15.6236C61.8333 15.6028 62.1198 15.5999 62.4059 15.6149C62.4766 15.6187 62.5349 15.6739 62.5352 15.7378C62.536 15.802 62.4794 15.851 62.4089 15.8473C62.1344 15.8329 61.8599 15.8356 61.5931 15.8555C61.5255 15.8606 61.4623 15.816 61.4487 15.755ZM63.9491 25.3455C63.9387 25.2988 63.9601 25.2509 64.0066 25.2274C64.2417 25.1087 64.4694 24.9797 64.6836 24.8441C64.7397 24.8087 64.82 24.8233 64.863 24.8769C64.9058 24.9306 64.8952 25.0027 64.8393 25.0381C64.6187 25.1778 64.3843 25.3105 64.1424 25.4327C64.0824 25.463 64.0035 25.4415 63.9661 25.3848C63.9577 25.3723 63.9521 25.3589 63.9491 25.3455ZM63.1169 15.8423C63.1142 15.8299 63.1137 15.8171 63.1155 15.8043C63.1244 15.7412 63.1884 15.7002 63.2585 15.7128C63.4462 15.7463 63.9635 15.8556 64.1213 15.9544L64.1223 15.9529L64.4306 16.1439C64.4907 16.1812 64.5099 16.2539 64.4728 16.3061C64.4359 16.3584 64.3572 16.3706 64.2971 16.3334L63.9789 16.1363C63.9202 16.1096 63.6476 16.0163 63.2261 15.941C63.1704 15.9311 63.1276 15.8903 63.1169 15.8423ZM65.2726 24.5048C65.2641 24.4662 65.2768 24.4259 65.3102 24.3994C65.5101 24.2405 65.7006 24.0706 65.8763 23.8943C65.9222 23.8484 66.0028 23.8476 66.0565 23.8925C66.1101 23.9376 66.1168 24.0112 66.0711 24.0571C65.8893 24.2393 65.6925 24.415 65.4857 24.5792C65.4344 24.62 65.3536 24.6128 65.305 24.5632C65.288 24.5458 65.2773 24.5256 65.2726 24.5048ZM66.3548 23.4194C66.3481 23.3894 66.3539 23.3579 66.374 23.3322C66.5262 23.1379 66.6685 22.9317 66.7969 22.7194C66.8298 22.6648 66.9072 22.648 66.9697 22.6819C67.032 22.7158 67.0559 22.7876 67.0229 22.8421C66.8901 23.0617 66.7432 23.2748 66.5859 23.4757C66.5462 23.5263 66.4667 23.5352 66.4082 23.4956C66.3796 23.476 66.3612 23.4484 66.3548 23.4194ZM64.9519 16.6959C64.9456 16.6677 64.9504 16.638 64.9682 16.613C65.005 16.5607 65.0838 16.5485 65.144 16.5858L65.8571 17.0277C65.9174 17.065 65.9365 17.1376 65.8993 17.19C65.8624 17.2423 65.7837 17.2545 65.7236 17.2172L65.0104 16.7753C64.9789 16.7558 64.9588 16.7267 64.9519 16.6959ZM67.1357 22.13C67.1309 22.1081 67.1327 22.0852 67.1425 22.0639C67.2426 21.8442 67.3333 21.6122 67.4119 21.3747C67.4319 21.3145 67.5028 21.2838 67.5706 21.3061C67.6386 21.3284 67.6771 21.3953 67.6572 21.4557C67.5762 21.7002 67.4829 21.9389 67.3798 22.1654C67.3533 22.2232 67.2789 22.2474 67.2133 22.2194C67.172 22.2016 67.1441 22.1674 67.1357 22.13ZM66.3785 17.5798C66.3722 17.5516 66.3769 17.5219 66.3947 17.4969C66.4316 17.4446 66.5103 17.4324 66.5704 17.4697L67.2837 17.9116C67.344 17.949 67.3629 18.0216 67.3259 18.0739C67.289 18.1262 67.2103 18.1384 67.1502 18.1011L66.4367 17.6592C66.4054 17.6397 66.3853 17.6106 66.3785 17.5798ZM67.6081 20.7065C67.6048 20.6916 67.6046 20.676 67.6081 20.6606C67.6606 20.4252 67.7042 20.1789 67.7375 19.9285C67.7459 19.8654 67.8095 19.8239 67.8796 19.836C67.9497 19.848 68.0004 19.9087 67.9913 19.9721C67.9573 20.2283 67.9126 20.4806 67.8589 20.7218C67.845 20.7838 67.7776 20.8203 67.7084 20.8034C67.6565 20.7908 67.6181 20.7516 67.6081 20.7065ZM67.8081 19.214C67.806 19.2046 67.8051 19.1948 67.8057 19.1849C67.8176 18.9631 67.8225 18.7332 67.8204 18.5009C67.7967 18.4635 67.7954 18.4172 67.8211 18.3807C67.8581 18.3284 67.9368 18.3162 67.997 18.3535L68.0748 18.4016L68.0755 18.4658C68.0789 18.7192 68.0741 18.9703 68.0611 19.2122C68.0578 19.276 67.9978 19.3216 67.9272 19.3141C67.8675 19.3077 67.8195 19.2655 67.8081 19.214Z" fill="white"/>
<path d="M65.5229 17.174C65.5229 17.174 61.9001 16.2297 61.034 18.5326C60.1678 20.8355 59.9385 23.3947 58.7889 23.8504C58.7889 23.8504 66.0372 24.4608 66.556 17.9674L65.5229 17.174Z" fill="#F545A6"/>
<path d="M66.7675 10.2552C66.7675 10.2552 63.7072 8.27326 62.6269 8.74647C61.5995 9.19659 56.9154 15.0575 56.4608 15.6284C56.4403 15.6541 56.4468 15.6903 56.4749 15.7127C56.7065 15.8978 57.0129 15.9771 57.3012 15.926C58.6938 15.6792 62.8423 14.9097 63.9866 14.3049C65.3684 13.5745 66.7675 10.2552 66.7675 10.2552Z" fill="#F545A6"/>
<path d="M58.5256 13.8325C58.5211 13.8123 58.5254 13.791 58.5396 13.774C58.5661 13.7421 61.1955 10.5766 62.3891 9.25784C62.6015 9.02307 62.9554 8.93399 63.2904 9.03097C63.9361 9.21796 64.8924 9.53641 65.7816 9.99205C65.8229 10.0132 65.8401 10.0598 65.8194 10.0962C65.7988 10.1325 65.7486 10.1447 65.7072 10.1236C64.7853 9.65104 63.7719 9.32697 63.25 9.17586C62.9791 9.0975 62.693 9.16955 62.5212 9.35942C61.3297 10.676 58.702 13.8392 58.6756 13.871C58.6488 13.9034 58.5965 13.908 58.5588 13.8812C58.541 13.8684 58.5297 13.8509 58.5256 13.8325Z" fill="white"/>
<path d="M73.3363 15.5033C73.3363 15.5033 75.8977 18.0125 75.5378 19.0611C75.1954 20.0585 69.5293 25.135 68.9772 25.628C68.9524 25.6502 68.9124 25.6493 68.8844 25.627C68.6527 25.4419 68.5247 25.1741 68.5397 24.9047C68.6121 23.6033 68.8651 19.7216 69.358 18.5964C69.9532 17.2376 73.3363 15.5033 73.3363 15.5033Z" fill="#F545A6"/>
<path d="M70.544 23.4345C70.5388 23.4111 70.5454 23.3867 70.5642 23.3692C70.5949 23.3407 73.639 20.5103 74.8924 19.2433C75.0733 19.0606 75.1114 18.7902 74.9891 18.5547C74.7537 18.1007 74.2636 17.2238 73.6263 16.4504C73.5971 16.4159 73.604 16.3684 73.6401 16.3447C73.6763 16.321 73.7289 16.3299 73.7575 16.3646C74.4047 17.1497 74.9012 18.0381 75.1396 18.4977C75.2904 18.7893 75.2436 19.1236 75.0203 19.3494C73.7648 20.6186 70.7182 23.451 70.6877 23.4795C70.6565 23.5085 70.6036 23.5073 70.5696 23.4769C70.556 23.4648 70.5475 23.4498 70.544 23.4345Z" fill="white"/>
<path d="M74.5032 2.14795C73.0171 2.92705 71.4982 3.98572 70.1276 5.42509C65.8721 9.89389 63.6468 13.9034 63.0488 15.061C62.9406 15.2703 62.9745 15.524 63.1316 15.7238C64.3696 17.2978 65.9153 18.5497 67.7669 19.4813C68.1151 19.6565 68.5298 19.6439 68.8397 19.4528C70.1843 18.6233 74.0324 16.0739 78.0754 11.7745C79.4259 10.3383 80.3522 8.82136 80.9852 7.37095C78.9802 4.67936 76.1563 3.01214 74.5032 2.14795Z" fill="#F545A6"/>
<path d="M80.986 7.37037C82.3841 4.16661 82.3498 1.28781 82.288 0.323175C82.276 0.134632 82.0897 -0.0141273 81.8848 0.00106906C80.8402 0.078637 77.7505 0.445348 74.5041 2.14737C76.1571 3.01156 78.9811 4.67878 80.986 7.37037Z" fill="#F545A6"/>
<path d="M77.009 10.4045C75.9107 11.5651 73.8416 11.5644 72.3876 10.4028C70.9336 9.24117 70.6452 7.3586 71.7435 6.198C72.8419 5.03734 74.911 5.0381 76.365 6.19971C77.819 7.3613 78.1074 9.24383 77.009 10.4045Z" fill="#F684C3"/>
<path d="M76.602 9.97688C75.7268 10.9017 74.0782 10.9011 72.9196 9.97555C71.761 9.04997 71.5312 7.54994 72.4064 6.62509C73.2816 5.70027 74.9303 5.70091 76.0888 6.62645C77.2474 7.55203 77.4771 9.05209 76.602 9.97688Z" fill="#000018"/>
<path d="M73.3313 6.81583C73.3247 6.7862 73.3375 6.75568 73.3665 6.73978C74.108 6.33335 75.1314 6.45337 75.8551 7.0315C76.0375 7.17737 76.1937 7.34481 76.3189 7.5292C76.3439 7.56603 76.3328 7.61238 76.2939 7.63262C76.2551 7.6529 76.2033 7.63951 76.1783 7.60267C76.0625 7.43241 75.9184 7.27771 75.7496 7.14288C75.0825 6.60996 74.1409 6.49842 73.46 6.8717C73.4215 6.8927 73.3696 6.88023 73.3439 6.84381C73.3375 6.83486 73.3334 6.82541 73.3313 6.81583Z" fill="#91B3FA"/>
<path d="M72.1186 13.9139C71.393 14.6807 70.0261 14.6801 69.0655 13.9128C68.105 13.1454 67.9145 11.9017 68.6401 11.1349C69.3657 10.3682 70.7326 10.3687 71.6932 11.136C72.6537 11.9035 72.8442 13.1472 72.1186 13.9139Z" fill="#F684C3"/>
<path d="M71.8512 13.6317C71.273 14.2427 70.1839 14.2423 69.4185 13.6309C68.653 13.0193 68.5013 12.0284 69.0795 11.4175C69.6576 10.8065 70.7468 10.8069 71.5122 11.4183C72.2776 12.0298 72.4294 13.0207 71.8512 13.6317Z" fill="#000018"/>
<path d="M69.6604 11.5472C69.6538 11.5176 69.6666 11.4871 69.6956 11.4712C70.1957 11.1971 70.8856 11.2776 71.3735 11.6673C71.4963 11.7655 71.6013 11.8783 71.6857 12.0027C71.7109 12.0391 71.6996 12.0857 71.6607 12.106C71.6219 12.1263 71.5701 12.1129 71.5451 12.076C71.4703 11.9659 71.377 11.8658 71.268 11.7787C70.837 11.4343 70.2288 11.362 69.7891 11.6031C69.7507 11.6241 69.6987 11.6116 69.6731 11.5752C69.6666 11.5663 69.6626 11.5568 69.6604 11.5472Z" fill="#91B3FA"/>
</svg>
