<svg width="65" height="64" viewBox="0 0 65 64" fill="none" xmlns="http://www.w3.org/2000/svg">
<path d="M48.667 24.4914H45.3336M45.3336 24.4914H43.667C40.3336 21.1611 35.3336 17.8244 32.0003 21.1581L26.9996 26.1608C26.8673 26.2931 26.8012 26.3593 26.748 26.4178C25.592 27.6897 25.5924 29.6318 26.7491 30.9032C26.8023 30.9617 26.8686 31.0278 27.0008 31.16C27.1331 31.2922 27.1992 31.3583 27.2578 31.4115C28.5294 32.567 30.471 32.5668 31.7421 31.4108C31.8006 31.3577 31.8668 31.2915 31.999 31.1593L33.6663 29.492M45.3336 24.4914V37.8247M45.3336 37.8247V42.8247H48.667M45.3336 37.8247H40.6196" stroke="#F545A6" stroke-width="2.44444" stroke-linecap="round" stroke-linejoin="round"/>
<path d="M33.666 29.492L31.9987 31.1593C31.8665 31.2915 31.8003 31.3577 31.7418 31.4108C30.4707 32.5668 28.5291 32.567 27.2575 31.4115C27.1989 31.3583 27.1328 31.2922 27.0005 31.16C26.8683 31.0278 26.802 30.9617 26.7488 30.9032C25.5921 29.6318 25.5917 27.6896 26.7477 26.4178C26.8009 26.3593 26.867 26.2931 26.9993 26.1608L32 21.1581C28.6667 17.8244 23.6667 21.1612 20.3333 24.4915H18.6667M18.6667 24.4915H15.3333M18.6667 24.4915V37.8247M18.6667 37.8247H22L22.6366 39.098C23.4927 40.8102 25.8514 41.0228 27 39.4913C27.9088 40.4002 28.3631 40.8545 28.8533 41.0975C29.7858 41.5595 30.8808 41.5595 31.8133 41.0975C32.3035 40.8545 32.758 40.4002 33.6667 39.4913L34.5 40.3247C34.6327 40.4573 34.6992 40.5238 34.7578 40.5773C36.0293 41.733 37.9707 41.733 39.2422 40.5773C39.3008 40.5238 39.3673 40.4573 39.5 40.3247C39.6327 40.192 39.6992 40.1257 39.7525 40.0668C40.9082 38.7955 40.9082 36.854 39.7525 35.5827C39.6992 35.5238 39.6327 35.4575 39.5 35.3247L37 32.8247M18.6667 37.8247V42.8247H15.3333" stroke="#F545A6" stroke-width="2.44444" stroke-linecap="round" stroke-linejoin="round"/>
<path d="M32.0003 21.158L26.9996 26.1607C26.8673 26.293 26.8012 26.3591 26.748 26.4177C25.592 27.6895 25.5924 29.6317 26.7491 30.903C26.8023 30.9615 26.8686 31.0277 27.0008 31.1599C27.1331 31.292 27.1992 31.3582 27.2578 31.4114C28.5294 32.5669 30.471 32.5667 31.7421 31.4107C31.8006 31.3575 31.8668 31.2914 31.999 31.1592L33.6663 29.4919" stroke="#F545A6" stroke-width="2.55556" stroke-linecap="round" stroke-linejoin="round"/>
</svg>
