<svg width="96" height="96" viewBox="0 0 96 96" fill="none" xmlns="http://www.w3.org/2000/svg">
<path d="M65.2685 95.8213H39.7565V46.7818C39.7565 46.0083 40.3869 45.3813 41.1646 45.3813H63.8603C64.638 45.3813 65.2685 46.0084 65.2685 46.7818L65.2685 95.8213Z" fill="#F545A6"/>
<path d="M58.7891 95.8213H33.2771V46.7818C33.2771 46.0083 33.9076 45.3813 34.6852 45.3813H57.3809C58.1586 45.3813 58.7891 46.0084 58.7891 46.7818L58.7891 95.8213Z" fill="#F684C3"/>
<path opacity="0.76" d="M34.9887 54.8029C34.8911 54.8029 34.812 54.7242 34.812 54.6272V51.0486C34.812 49.1409 36.2202 47.5889 37.9512 47.5889H42.8505C42.948 47.5889 43.0271 47.6676 43.0271 47.7645C43.0271 47.8615 42.948 47.9403 42.8505 47.9403H37.9512C36.415 47.9403 35.1653 49.3347 35.1653 51.0486V54.6272C35.1653 54.7242 35.0862 54.8029 34.9887 54.8029Z" fill="white"/>
<path opacity="0.76" d="M34.9889 58.5966C34.8913 58.5966 34.8122 58.518 34.8122 58.421V56.9629C34.8122 56.8659 34.8913 56.7872 34.9889 56.7872C35.0864 56.7872 35.1655 56.8659 35.1655 56.9629V58.421C35.1656 58.5179 35.0864 58.5966 34.9889 58.5966Z" fill="white"/>
<path d="M35.8135 95.8232H13.8303V61.5977C13.8303 60.8242 14.4608 60.1973 15.2385 60.1973H34.4053C35.183 60.1973 35.8134 60.8243 35.8134 61.5977L35.8135 95.8232Z" fill="#F545A6"/>
<path d="M29.3335 95.8229H7.3504V61.5975C7.3504 60.824 7.98086 60.197 8.75854 60.197H27.9254C28.7031 60.197 29.3335 60.824 29.3335 61.5975V95.8229Z" fill="#F684C3"/>
<g opacity="0.73">
<path d="M9.16541 70.3448C9.06788 70.3448 8.98877 70.2661 8.98877 70.1691V65.9471C8.98877 63.7137 10.636 61.8967 12.6608 61.8967H18.441C18.5386 61.8967 18.6177 61.9754 18.6177 62.0724C18.6177 62.1694 18.5385 62.2482 18.441 62.2482H12.6607C10.8308 62.2482 9.34206 63.9075 9.34206 65.9471V70.1691C9.34206 70.2661 9.26295 70.3448 9.16541 70.3448Z" fill="white"/>
<path d="M9.1656 74.8214C9.06806 74.8214 8.98895 74.7427 8.98895 74.6457V72.9256C8.98895 72.8286 9.0681 72.7499 9.1656 72.7499C9.26313 72.7499 9.34224 72.8286 9.34224 72.9256V74.6457C9.34224 74.7427 9.26313 74.8214 9.1656 74.8214Z" fill="white"/>
</g>
<path d="M90.0085 95.8232H68.0253V61.5977C68.0253 60.8242 68.6558 60.1973 69.4335 60.1973H88.6003C89.378 60.1973 90.0085 60.8243 90.0085 61.5977L90.0085 95.8232Z" fill="#F545A6"/>
<path d="M83.5292 95.8229H61.5461V61.5975C61.5461 60.824 62.1765 60.197 62.9542 60.197H82.121C82.8987 60.197 83.5292 60.824 83.5292 61.5975L83.5292 95.8229Z" fill="#F684C3"/>
<path opacity="0.76" d="M63.3619 70.3453C63.2643 70.3453 63.1852 70.2665 63.1852 70.1695V65.9476C63.1852 63.7142 64.8324 61.8972 66.8572 61.8972H72.6375C72.735 61.8972 72.8142 61.9759 72.8142 62.0729C72.8142 62.1699 72.735 62.2486 72.6375 62.2486H66.8572C65.0273 62.2486 63.5386 63.908 63.5386 65.9476V70.1696C63.5385 70.2665 63.4594 70.3453 63.3619 70.3453Z" fill="white"/>
<path opacity="0.76" d="M63.3619 74.8219C63.2644 74.8219 63.1852 74.7431 63.1852 74.6461V72.926C63.1852 72.829 63.2644 72.7504 63.3619 72.7504C63.4594 72.7504 63.5386 72.829 63.5386 72.926V74.6461C63.5385 74.7431 63.4594 74.8219 63.3619 74.8219Z" fill="white"/>
<path d="M60.6256 88.8719L78.6697 54.4921H74.9728C74.2911 54.4921 73.9162 53.7038 74.3486 53.1797L93.58 29.8686C94.4135 28.8582 96.06 29.4991 95.9826 30.8036L94.6308 53.5991C94.5534 54.904 93.3899 55.8766 92.084 55.728L89.5065 55.4346L71.6031 93.9951C71.137 94.9989 70.1267 95.6417 69.0149 95.6417H62.8098L60.6256 88.8719Z" fill="url(#paint0_linear_238_1683)"/>
<path d="M45.708 64.7603L58.4468 92.9032C59.2014 94.5702 60.8686 95.6421 62.7067 95.6421H69.2738C70.1452 95.6421 70.948 95.172 71.3706 94.4143L71.6042 93.9955C70.8986 93.9955 70.2525 93.6021 69.9318 92.9771L52.9589 59.9028L45.708 64.7603Z" fill="url(#paint1_linear_238_1683)"/>
<path d="M54.6734 63.244C53.396 62.2408 51.5296 62.5357 50.6277 63.8833L31.8982 91.8693C30.3981 94.1107 27.8701 95.4575 25.1628 95.4575H22.5273L20.3825 89.3126C20.3825 89.3126 37.7945 62.7603 42.2824 58.7437C42.2824 58.7437 46.7517 54.7377 51.1583 57.7665C52.3225 58.5667 53.2064 59.7088 53.7463 61.0098L54.6734 63.244Z" fill="url(#paint2_linear_238_1683)"/>
<path d="M0.0111084 72.7855C0.0111084 72.7855 3.14628 68.888 9.22165 68.2817C9.22165 68.2817 12.1072 69.2594 17.8558 79.5039C23.6044 89.7484 27.4201 94.4201 31.8977 91.8684L31.527 92.4805C30.3054 94.4979 28.1105 95.7314 25.7425 95.7314H23.2661C20.5395 95.7314 18.1718 91.5547 16.5796 89.3534C12.1055 83.1678 2.75955 73.7457 0.0111084 72.7855Z" fill="url(#paint3_linear_238_1683)"/>
<path d="M93.8135 38.0105C93.8068 38.0105 93.8001 38.0101 93.7933 38.0093C93.6964 37.9985 93.6267 37.9114 93.6377 37.815L93.7646 36.7019C93.7756 36.6055 93.8632 36.5362 93.96 36.5472C94.0569 36.558 94.1266 36.6451 94.1156 36.7415L93.9887 37.8546C93.9785 37.9442 93.9021 38.0105 93.8135 38.0105Z" fill="#91B3FA"/>
<path d="M77.7605 52.0602C77.7228 52.0602 77.6849 52.0483 77.6528 52.0237C77.5755 51.9646 77.561 51.8542 77.6206 51.7774L93.5011 31.2557C93.6879 31.0142 93.9924 30.932 94.2761 31.0463C94.5602 31.1605 94.7215 31.43 94.687 31.7328L94.4068 34.1928C94.3958 34.2892 94.3079 34.3581 94.2114 34.3475C94.1145 34.3366 94.0448 34.2496 94.0558 34.1532L94.336 31.6932C94.3555 31.5213 94.2495 31.4146 94.1437 31.372C94.0378 31.3295 93.8871 31.333 93.7811 31.4701L77.9006 51.9917C77.8658 52.0366 77.8133 52.0602 77.7605 52.0602Z" fill="#91B3FA"/>
<path d="M41.7331 73.5746C41.6991 73.5746 41.6647 73.5649 41.6344 73.5446C41.5536 73.4903 41.5322 73.3811 41.5868 73.3007L49.7998 61.1933C50.094 60.7596 50.5825 60.5248 51.1074 60.5638C51.6319 60.6033 52.0795 60.9093 52.3046 61.3823C52.3464 61.47 52.3088 61.5747 52.2206 61.6162C52.1325 61.6581 52.0271 61.6204 51.9854 61.5326C51.8153 61.1753 51.477 60.944 51.0807 60.9141C50.6839 60.8842 50.3151 61.0621 50.0926 61.3898L41.8796 73.4972C41.8456 73.5475 41.7898 73.5746 41.7331 73.5746Z" fill="#91B3FA"/>
<path d="M39.6006 76.7207C39.5665 76.7207 39.5322 76.711 39.5019 76.6906C39.421 76.6364 39.3996 76.5272 39.4543 76.4468L39.9809 75.6704C40.0354 75.5899 40.1455 75.5689 40.2261 75.6231C40.307 75.6773 40.3284 75.7865 40.2737 75.8669L39.7471 76.6433C39.713 76.6936 39.6573 76.7207 39.6006 76.7207Z" fill="#91B3FA"/>
<path d="M47.9287 1.23582C51.8387 0.0836048 55.5672 0.394323 57.4289 0.883908C59.6297 1.46267 60.3597 1.89696 62.308 2.11553C64.0397 2.30981 68.6417 0.91637 68.0526 1.96451C67.2846 3.33079 67.4946 8.68179 68.6415 10.9128C68.8083 11.2372 63.3583 12.0407 60.0561 11.4406C55.5036 10.6134 54.0379 9.22597 51.0485 9.85715C49.6696 10.1483 48.6216 10.7306 47.9522 11.1767C48.2571 7.87774 47.6237 4.5348 47.9287 1.23582Z" fill="#F545A6"/>
<path d="M47.977 45.623C47.8795 45.623 47.8003 45.5443 47.8003 45.4473V0.175714C47.8003 0.0787112 47.8795 0 47.977 0C48.0746 0 48.1537 0.0787112 48.1537 0.175714V45.4473C48.1537 45.5443 48.0745 45.623 47.977 45.623Z" fill="#26264F"/>
<defs>
<linearGradient id="paint0_linear_238_1683" x1="78.3054" y1="29.3718" x2="78.3054" y2="140.024" gradientUnits="userSpaceOnUse">
<stop stop-color="#6449FF"/>
<stop offset="1" stop-color="#9F8FFF"/>
</linearGradient>
<linearGradient id="paint1_linear_238_1683" x1="58.6561" y1="59.9028" x2="58.6561" y2="119.578" gradientUnits="userSpaceOnUse">
<stop stop-color="#6449FF"/>
<stop offset="1" stop-color="#9F8FFF"/>
</linearGradient>
<linearGradient id="paint2_linear_238_1683" x1="37.528" y1="56.6342" x2="37.528" y2="121.458" gradientUnits="userSpaceOnUse">
<stop stop-color="#6449FF"/>
<stop offset="1" stop-color="#9F8FFF"/>
</linearGradient>
<linearGradient id="paint3_linear_238_1683" x1="15.9544" y1="68.2817" x2="15.9544" y2="114.115" gradientUnits="userSpaceOnUse">
<stop stop-color="#6449FF"/>
<stop offset="1" stop-color="#9F8FFF"/>
</linearGradient>
</defs>
</svg>
