<?xml version="1.0" encoding="UTF-8"?>
<svg version="1.1" xmlns="http://www.w3.org/2000/svg" width="205" height="93">
<path d="M0 0 C0.99 0.33 1.98 0.66 3 1 C6.34832016 14.00867628 4.07982415 25.85232532 -2.25 37.5625 C-3.14563906 39.05449279 -4.05373196 40.539593 -5 42 C-5.66 42 -6.32 42 -7 42 C-7.27070313 42.58652344 -7.54140625 43.17304687 -7.8203125 43.77734375 C-10.33376086 48.51294679 -14.34920177 53.27367 -19 56 C-19.99 56 -20.98 56 -22 56 C-22 56.66 -22 57.32 -22 58 C-32.100802 61.34042271 -41.77955038 62.67936186 -52 59 C-53.134375 58.62875 -54.26875 58.2575 -55.4375 57.875 C-56.7059375 57.441875 -56.7059375 57.441875 -58 57 C-60.77000825 60.32086771 -60.77000825 60.32086771 -63 64 C-63.66 64 -64.32 64 -65 64 C-65.23847656 64.58007812 -65.47695312 65.16015625 -65.72265625 65.7578125 C-70.31549561 73.81986079 -82.02059321 80.18964103 -90.68359375 82.8125 C-105.37892352 85.88380259 -119.3891887 83.94601995 -133 78 C-133.80050781 77.69578125 -134.60101563 77.3915625 -135.42578125 77.078125 C-143.28450594 73.78676231 -151.78640793 68.90291246 -158 63 C-158 62.34 -158 61.68 -158 61 C-158.8971875 60.814375 -158.8971875 60.814375 -159.8125 60.625 C-162 60 -162 60 -165 58 C-165 57.01 -165 56.02 -165 55 C-164.01 55 -163.02 55 -162 55 C-162 55.66 -162 56.32 -162 57 C-161.42765625 57.2784375 -160.8553125 57.556875 -160.265625 57.84375 C-158.03382434 58.98273792 -155.89129126 60.19936383 -153.75 61.5 C-153.04359375 61.9228125 -152.3371875 62.345625 -151.609375 62.78125 C-151.07828125 63.1834375 -150.5471875 63.585625 -150 64 C-150 64.66 -150 65.32 -150 66 C-149.195625 66.226875 -148.39125 66.45375 -147.5625 66.6875 C-144.71105263 67.73803324 -142.42279947 68.81955894 -139.8125 70.3125 C-138.21025818 71.21177149 -136.60601533 72.10748511 -135 73 C-134.21109375 73.43957031 -133.4221875 73.87914063 -132.609375 74.33203125 C-121.438063 80.00335682 -107.35180369 82.53370332 -95 80 C-94.175 79.835 -93.35 79.67 -92.5 79.5 C-85.07172562 77.6429314 -77.71140231 73.77140188 -72.30859375 68.28125 C-71 67 -71 67 -69 67 C-68.73445313 66.42765625 -68.46890625 65.8553125 -68.1953125 65.265625 C-66.94323109 62.8923988 -65.5063648 60.87786714 -63.875 58.75 C-63.33617187 58.04359375 -62.79734375 57.3371875 -62.2421875 56.609375 C-61.83226562 56.07828125 -61.42234375 55.5471875 -61 55 C-62.485 54.01 -62.485 54.01 -64 53 C-64 52.34 -64 51.68 -64 51 C-65.485 50.505 -65.485 50.505 -67 50 C-67 49.01 -67 48.02 -67 47 C-67.99 47 -68.98 47 -70 47 C-74.25041966 39.37520137 -77.96588526 31.9904072 -76.25 23.125 C-75.26722181 20.66805453 -74.29219302 18.30748753 -73 16 C-72.01 16 -71.02 16 -70 16 C-70 15.34 -70 14.68 -70 14 C-68.27277272 13.77615618 -66.54303993 13.57160031 -64.8125 13.375 C-63.84957031 13.25898438 -62.88664062 13.14296875 -61.89453125 13.0234375 C-58.05790875 12.99237173 -55.33479767 13.96182403 -52.3125 16.3125 C-48.38594774 21.36092433 -48.40256381 26.85621586 -49 33 C-49.77838446 36.4198698 -50.83161998 39.69531729 -52 43 C-53.24852475 46.67621176 -54.27225945 50.18893764 -55 54 C-46.74438926 58.52601718 -39.17288277 58.75002479 -30 57 C-27.09887438 55.88614249 -24.5267418 54.63809021 -21.85546875 53.05859375 C-20 52 -20 52 -18 52 C-18 51.34 -18 50.68 -18 50 C-17.38125 49.9175 -16.7625 49.835 -16.125 49.75 C-13.84957521 49.20076457 -13.84957521 49.20076457 -12.875 47.125 C-12.58625 46.42375 -12.2975 45.7225 -12 45 C-11.34 44.01 -10.68 43.02 -10 42 C-9.34 42 -8.68 42 -8 42 C-7.67 40.35 -7.34 38.7 -7 37 C-6.34 37 -5.68 37 -5 37 C-4.814375 36.19369141 -4.814375 36.19369141 -4.625 35.37109375 C-3.60559285 31.50371789 -2.2375181 27.75322358 -0.9375 23.97265625 C1.52317175 16.17027625 2.15681163 8.69472836 -1 1 C-0.67 0.67 -0.34 0.34 0 0 Z M-71.6875 18.34765625 C-74.77186265 22.23064852 -74.04586373 26.73874755 -73.875 31.4375 C-72.11236908 38.61392589 -68.05003996 44.67698491 -63 50 C-62.34 50 -61.68 50 -61 50 C-61 50.66 -61 51.32 -61 52 C-57.95342552 51.33761094 -57.95342552 51.33761094 -56.90234375 49.25 C-53.14769784 40.49422653 -49.28121218 29.22017708 -52.828125 19.80078125 C-54.41883356 17.35639242 -56.2318587 16.22478553 -59.015625 15.41015625 C-64.24283773 14.59683119 -67.54555936 14.88645122 -71.6875 18.34765625 Z " fill="#080809" transform="translate(194,0)"/>
<path d="M0 0 C26.9576474 5.35025158 26.9576474 5.35025158 39 8 C39.495 10.475 39.495 10.475 40 13 C39.25234375 13.26554687 38.5046875 13.53109375 37.734375 13.8046875 C36.74953125 14.15789063 35.7646875 14.51109375 34.75 14.875 C33.77546875 15.22304688 32.8009375 15.57109375 31.796875 15.9296875 C30.87390625 16.28289063 29.9509375 16.63609375 29 17 C28.24460937 17.25523438 27.48921875 17.51046875 26.7109375 17.7734375 C24.72979752 18.92691709 24.72979752 18.92691709 24.2421875 21.609375 C24.12101562 22.64578125 23.99984375 23.6821875 23.875 24.75 C23.29568823 29.05345885 22.58310583 32.92915643 21 37 C20.01 37 19.02 37 18 37 C17.72849121 36.47680176 17.45698242 35.95360352 17.17724609 35.41455078 C9.28018541 20.10414062 9.28018541 20.10414062 0.27734375 5.4296875 C-0.14417969 4.62789062 -0.56570313 3.82609375 -1 3 C-0.67 2.01 -0.34 1.02 0 0 Z " fill="#1C1D1C" transform="translate(2,35)"/>
<path d="M0 0 C2.31 0.33 4.62 0.66 7 1 C7 1.33 7 1.66 7 2 C5.02 2 3.04 2 1 2 C1.44472656 2.77085938 1.88945313 3.54171875 2.34765625 4.3359375 C2.91355469 5.33882812 3.47945313 6.34171875 4.0625 7.375 C4.63097656 8.37273438 5.19945312 9.37046875 5.78515625 10.3984375 C6.18605469 11.25695313 6.58695313 12.11546875 7 13 C6.67 13.66 6.34 14.32 6 15 C4.80017556 13.07010782 3.61547182 11.13080772 2.4375 9.1875 C1.44556641 7.56908203 1.44556641 7.56908203 0.43359375 5.91796875 C-1 3 -1 3 0 0 Z " fill="#070707" transform="translate(2,35)"/>
<path d="M0 0 C2.97 0.495 2.97 0.495 6 1 C6.33 2.32 6.66 3.64 7 5 C4.625 5.125 4.625 5.125 2 5 C1.34 4.34 0.68 3.68 0 3 C0 2.01 0 1.02 0 0 Z " fill="#0E0F10" transform="translate(131,51)"/>
</svg>
