<svg width="48" height="48" viewBox="0 0 48 48" fill="none" xmlns="http://www.w3.org/2000/svg">
<path d="M32.2706 33.1642C32.3895 33.1606 32.4723 33.1266 32.5675 33.0509C32.6285 33.0014 32.7052 32.9017 32.7677 32.7872C32.8274 32.6778 32.8571 32.5841 32.8615 32.5343C32.8581 32.5225 32.8532 32.5053 32.8458 32.4825C32.8305 32.435 32.8079 32.3672 32.7784 32.2823C32.7195 32.1129 32.6345 31.8767 32.5323 31.5948C32.3281 31.0312 32.0547 30.2873 31.7755 29.5372C31.4963 28.7871 31.2117 28.0309 30.9874 27.4425C30.7613 26.8492 30.6007 26.439 30.5646 26.3663C30.4395 26.1263 30.126 25.9915 29.8312 26.0704C29.7351 26.0966 29.6437 26.1516 29.4181 26.3702L29.1427 26.6486L28.6105 27.212L28.4845 27.3458L28.379 27.1964L27.9464 26.588V26.587C27.8286 26.4183 27.6248 26.1221 27.3937 25.7794L26.674 24.6954C24.0337 20.6737 23.3874 19.7475 22.3488 18.5021V18.5011C19.5072 15.0903 16.4301 13.3722 12.7911 13.1437L12.4366 13.1261C12.188 13.1183 11.9627 13.1152 11.799 13.1163C12.0953 13.457 12.277 13.9172 12.3361 14.3859C12.3956 14.8586 12.3335 15.3539 12.1281 15.7589L12.1095 15.796C12.1255 15.7963 12.1422 15.797 12.1593 15.797C12.578 15.797 13.426 15.8998 13.9913 16.0128H13.9923C16.3625 16.5021 18.4493 17.953 20.5109 20.5138C21.3909 21.6084 21.7838 22.1814 24.673 26.5577L24.674 26.5568C25.181 27.32 25.7976 28.223 26.0558 28.5656V28.5665C26.1851 28.7389 26.3031 28.9047 26.3888 29.0333C26.4314 29.0973 26.4667 29.1538 26.4923 29.1974C26.5049 29.2189 26.5168 29.2398 26.5255 29.2579C26.5298 29.2669 26.5342 29.2779 26.5382 29.2892C26.5408 29.2965 26.5499 29.3204 26.5499 29.3497C26.5499 29.3919 26.5329 29.4258 26.5275 29.4366C26.519 29.4535 26.5082 29.4697 26.4982 29.4845C26.4777 29.5146 26.45 29.5495 26.4191 29.5861C26.3569 29.6596 26.2728 29.7497 26.1798 29.84H26.1808C25.7159 30.3049 25.59 30.5376 25.59 30.7687C25.5901 30.995 25.7013 31.2086 25.8536 31.3116C25.8612 31.3147 25.8726 31.3189 25.8878 31.3243C25.9195 31.3358 25.9643 31.3513 26.0216 31.3702C26.1365 31.4082 26.2984 31.4589 26.4962 31.5206C26.8916 31.6441 27.4304 31.8085 28.0294 31.9884C28.6284 32.1683 29.2874 32.3638 29.923 32.5499L31.6779 33.0558C31.9621 33.1355 32.1402 33.1681 32.2706 33.1642Z" fill="#F5309C" stroke="white" stroke-width="0.3"/>
<path d="M34.0812 34.5411C36.5371 35.0039 39.1889 34.5668 41.3497 33.3419C45.5121 30.9845 47.652 26.2441 46.6476 21.632C46.0216 18.7706 44.2703 16.2928 41.7599 14.714C40.4623 13.8997 38.8308 13.3364 37.2531 13.1681H37.2521C36.74 13.1087 35.6763 13.1045 35.0431 13.1466L34.8009 13.1681C33.3169 13.3412 31.7232 13.9396 30.3761 14.8341L29.8165 15.2072L29.7179 15.2726L29.632 15.1935L29.1515 14.7501C29.0234 14.6325 28.8871 14.5163 28.7716 14.423C28.6521 14.3265 28.5633 14.2627 28.5284 14.2433C28.3572 14.1578 28.1547 14.16 27.9669 14.256V14.257C27.8525 14.315 27.8363 14.3118 27.7999 14.3536C27.7593 14.4004 27.7042 14.5006 27.6115 14.7677C27.4287 15.2942 27.1269 16.3782 26.4698 18.7072C26.3154 19.2585 26.1738 19.7762 26.0714 20.1671C26.0202 20.3627 25.9788 20.5262 25.9503 20.6456C25.9361 20.7054 25.9252 20.7532 25.9181 20.7882C25.9128 20.8141 25.9111 20.8275 25.9103 20.8322C25.9103 20.9071 25.9393 21.0078 25.9982 21.1105C26.0565 21.2121 26.1364 21.3024 26.2189 21.3595L26.2179 21.3605C26.3185 21.4278 26.4236 21.4569 26.5763 21.4454C26.7385 21.4332 26.9533 21.3736 27.2677 21.2521L30.1857 20.1271C30.8388 19.8738 31.4478 19.6363 31.9034 19.4572C32.1313 19.3675 32.321 19.2926 32.4581 19.2374C32.5266 19.2098 32.582 19.1868 32.6222 19.17C32.6422 19.1617 32.6583 19.1557 32.67 19.1505C32.6811 19.1457 32.6857 19.1431 32.6866 19.1427L32.6886 19.1417C32.8221 19.073 32.9277 18.9358 32.9796 18.7706C33.0309 18.6072 33.0241 18.433 32.9562 18.296C32.9366 18.2606 32.8732 18.1798 32.7726 18.0704C32.6756 17.9651 32.554 17.8444 32.4318 17.7325C32.305 17.6192 32.1902 17.5087 32.1056 17.422C32.0634 17.3788 32.0267 17.3396 32.0001 17.3077C31.9872 17.2923 31.9745 17.2758 31.964 17.2599C31.9588 17.252 31.9522 17.2411 31.9464 17.2286L31.9298 17.1573L31.9376 17.1066C31.9422 17.0926 31.9482 17.0815 31.9523 17.0743C31.9613 17.0585 31.9718 17.0459 31.9796 17.0372C31.9953 17.0198 32.0136 17.0036 32.0304 16.9904C32.065 16.9632 32.1112 16.9326 32.1632 16.9005C32.2684 16.8356 32.4118 16.7564 32.5695 16.6749C32.8841 16.5122 33.2688 16.334 33.5392 16.2374V16.2384C34.3847 15.9276 34.9947 15.8292 36.0802 15.8292V15.8302C36.604 15.8275 36.9687 15.8379 37.3243 15.8888C37.6806 15.9398 38.0233 16.0295 38.5031 16.1769C41.194 17.0034 43.3069 19.2689 43.9591 22.0187C44.4276 23.9893 44.1701 25.9757 43.2189 27.7511L43.0197 28.1036C42.2633 29.3714 41.0523 30.4895 39.6945 31.174C39.1833 31.4319 38.3324 31.7211 37.6964 31.8624L37.4386 31.9132C37.1069 31.9712 36.6204 32.0016 36.1495 32.007C35.6792 32.0123 35.2106 31.9928 34.9152 31.9454H34.9122C34.829 31.9309 34.7493 31.9207 34.6837 31.9122C34.6913 31.9719 34.701 32.0433 34.713 32.1193C34.8499 32.9403 34.5418 33.7903 33.9044 34.3771C33.8608 34.4171 33.8238 34.4538 33.7931 34.4855C33.8766 34.5026 33.9775 34.5215 34.0802 34.5402L34.0812 34.5411Z" fill="#F5309C" stroke="white" stroke-width="0.3"/>
<path d="M7.10168 33.5997C8.86807 34.4829 10.8564 34.8564 12.9044 34.6827C16.0915 34.4141 18.593 33.1949 21.1525 30.6407C21.5418 30.2541 22.0056 29.7576 22.3654 29.3527C22.4802 29.2234 22.5809 29.1013 22.6681 28.9982L22.4064 29.0948C21.8915 29.2965 21.6103 29.3771 21.381 29.3771C21.257 29.3771 21.151 29.3743 21.049 29.3273C20.952 29.2825 20.871 29.2026 20.7697 29.0988C20.6849 29.0154 20.6062 28.934 20.5529 28.837C20.4962 28.7339 20.4721 28.6225 20.4757 28.4865C20.4792 28.3555 20.5079 28.197 20.5568 27.9943L20.7726 27.1964C20.8046 27.0803 20.8327 26.968 20.8605 26.8644C19.6168 28.4932 18.1139 29.9232 16.8077 30.7101C14.9322 31.8384 12.525 32.276 10.4103 31.8878L9.99133 31.799C7.89386 31.2882 6.12298 30 4.94543 28.1281H4.94446C3.7308 26.1851 3.43894 23.6209 4.17786 21.3878C4.27595 21.0935 4.42302 20.7308 4.56848 20.4122C4.71181 20.0984 4.86102 19.8099 4.96301 19.6749V19.6759C4.97793 19.6556 5.00742 19.6141 5.04602 19.588C5.07031 19.5717 5.1078 19.5539 5.1554 19.5558C5.20288 19.5577 5.23936 19.5783 5.26282 19.5968C5.30242 19.6281 5.33072 19.6755 5.35071 19.7101L5.43469 19.8683C5.53683 20.0702 5.67383 20.201 5.82141 20.2657C5.96691 20.3296 6.13597 20.3356 6.3175 20.2667V20.2657C6.38406 20.2391 6.45369 20.2023 6.74133 19.8497C7.02574 19.5011 7.50624 18.8679 8.39758 17.6857C8.92257 16.9875 9.40993 16.3315 9.77356 15.838C9.95521 15.5915 10.1062 15.386 10.215 15.2355C10.2692 15.1604 10.3131 15.099 10.3448 15.0538C10.3608 15.0312 10.3735 15.012 10.3829 14.9982C10.3875 14.9914 10.391 14.9857 10.3937 14.9816C10.3946 14.9802 10.396 14.9795 10.3966 14.9786C10.544 14.6974 10.4351 14.3244 10.1066 14.13C10.0544 14.1 10.0159 14.0728 9.57043 14.0568C9.12942 14.0409 8.31798 14.0355 6.74622 14.0275L3.52649 14.0177L3.31848 14.1193C3.21714 14.1718 3.1166 14.2677 3.04114 14.3839C2.96445 14.5022 2.92297 14.6268 2.92297 14.7257C2.92297 14.714 2.92146 14.7126 2.92688 14.7325C2.93123 14.7485 2.93819 14.7713 2.94836 14.7999C2.96861 14.857 2.99825 14.9331 3.03625 15.0226C3.07419 15.1119 3.11977 15.2132 3.17004 15.3214L3.33411 15.6613C3.4517 15.8991 3.55889 16.1219 3.63684 16.2892C3.67575 16.3727 3.70805 16.4438 3.73059 16.4962C3.74174 16.5222 3.75102 16.5452 3.75793 16.5636C3.76132 16.5726 3.76487 16.5825 3.7677 16.5919C3.76872 16.5953 3.77649 16.6188 3.77649 16.6456C3.77645 16.6738 3.76923 16.6962 3.76672 16.7032C3.76303 16.7135 3.75846 16.7226 3.755 16.7296C3.74793 16.7439 3.73859 16.759 3.72961 16.7736C3.71138 16.8032 3.68656 16.8401 3.65735 16.881L3.42786 17.1779C2.90393 17.826 2.41595 18.6161 2.05579 19.4015L1.9093 19.7374L1.71594 20.2355C-0.146786 25.401 2.11646 31.1071 7.10168 33.5997Z" fill="#F5309C" stroke="white" stroke-width="0.3"/>
</svg>
