<svg width="65" height="64" viewBox="0 0 65 64" fill="none" xmlns="http://www.w3.org/2000/svg">
<path d="M32.0004 14.7354C32.7459 14.7354 33.3504 14.1309 33.3504 13.3854V11.0004C33.3504 10.2549 32.7459 9.65039 32.0004 9.65039C31.2549 9.65039 30.6504 10.2549 30.6504 11.0004V13.3854C30.6504 14.1309 31.2549 14.7354 32.0004 14.7354Z" fill="#F545A6"/>
<path d="M22.2669 16.3523C22.5339 16.6493 22.9014 16.7993 23.2704 16.7993C23.5929 16.7993 23.9154 16.6853 24.1734 16.4543C24.7284 15.9548 24.7734 15.1028 24.2739 14.5478L22.7574 12.8618C22.2579 12.3053 21.4044 12.2633 20.8509 12.7598C20.2959 13.2593 20.2509 14.1113 20.7504 14.6663L22.2669 16.3523Z" fill="#F545A6"/>
<path d="M40.7314 16.7991C41.1004 16.7991 41.4679 16.6476 41.7349 16.3521L43.2514 14.6661C43.7509 14.1111 43.7059 13.2591 43.1509 12.7596C42.5989 12.2631 41.7439 12.3066 41.2444 12.8616L39.7279 14.5476C39.2284 15.1026 39.2734 15.9546 39.8284 16.4541C40.0879 16.6851 40.4089 16.7991 40.7314 16.7991Z" fill="#F545A6"/>
<path d="M46.0297 31.6058C46.0297 23.8703 39.7372 17.5778 32.0002 17.5778C24.2632 17.5778 17.9707 23.8703 17.9707 31.6058C17.9707 35.0498 19.2502 38.3693 21.5692 40.9538C23.0887 42.6473 23.8087 44.7458 23.7832 47.0003C23.7832 51.0533 27.0802 54.3503 31.1332 54.3503H32.8642C36.9172 54.3503 40.2142 51.0533 40.2142 47.0003C40.1887 44.7428 40.9072 42.6488 42.4282 40.9538C44.7502 38.3693 46.0297 35.0498 46.0297 31.6058ZM32.8657 51.6503H31.1347C28.8652 51.6503 26.9722 50.0168 26.5642 47.8643H37.4362C37.0297 50.0168 35.1352 51.6503 32.8657 51.6503ZM37.6072 45.1643H33.3502V37.7318L36.7102 34.3718C37.2382 33.8453 37.2382 32.9903 36.7102 32.4638C36.1822 31.9358 35.3272 31.9358 34.8007 32.4638L32.0002 35.2643L29.1997 32.4638C28.6717 31.9358 27.8167 31.9358 27.2902 32.4638C26.7622 32.9903 26.7622 33.8453 27.2902 34.3718L30.6502 37.7318V45.1643H26.3932C26.1052 42.9833 25.1392 40.8863 23.5807 39.1508C21.7057 37.0613 20.6737 34.3823 20.6737 31.6058C20.6737 25.3598 25.7557 20.2778 32.0017 20.2778C38.2477 20.2778 43.3297 25.3598 43.3297 31.6058C43.3297 34.3823 42.2977 37.0613 40.4227 39.1508C38.8627 40.8863 37.8952 42.9833 37.6072 45.1643Z" fill="#F545A6"/>
</svg>
