<svg width="88" height="88" viewBox="0 0 88 88" fill="none" xmlns="http://www.w3.org/2000/svg">
<path d="M51.8417 68.946C51.8097 68.5482 51.4034 68.2039 50.7154 67.9279C51.463 67.5157 51.8766 67.0738 51.8417 66.6404C51.736 65.329 47.5831 64.5939 42.5659 64.9984C37.5487 65.4029 33.5672 66.794 33.673 68.1053C33.705 68.5031 34.1113 68.8473 34.7993 69.1234C34.0516 69.5357 33.638 69.9775 33.673 70.4109C33.705 70.8086 34.1113 71.1529 34.7993 71.429C34.0516 71.8412 33.638 72.2831 33.673 72.7165C33.705 73.1143 34.1113 73.4586 34.7993 73.7346C34.0516 74.1469 33.638 74.5887 33.673 75.0221C33.7197 75.6021 34.5591 76.069 35.9138 76.3749C35.8962 76.8035 35.906 77.2732 35.9481 77.7919C36.1444 80.2083 38.8625 82.103 42.4574 82.103C46.0525 82.103 49.164 79.5196 49.1993 77.0955C49.208 76.5014 49.1827 75.9785 49.1289 75.5138C50.849 74.9394 51.8966 74.2378 51.8418 73.5572C51.8097 73.1594 51.4034 72.8151 50.7154 72.5391C51.4631 72.1269 51.8767 71.685 51.8418 71.2516C51.8097 70.8538 51.4034 70.5095 50.7154 70.2336C51.463 69.8212 51.8766 69.3794 51.8417 68.946Z" fill="#6449FF"/>
<path d="M40.2419 76.8957C38.7518 76.8957 37.3885 76.7861 36.2619 76.5704C36.1966 76.5579 36.1537 76.4947 36.1662 76.4294C36.1787 76.3641 36.2416 76.3212 36.3072 76.3337C38.0699 76.6711 40.4242 76.7455 42.9366 76.543C44.9923 76.3772 46.9149 76.0456 48.4963 75.5841C48.5604 75.5654 48.6271 75.6021 48.6457 75.666C48.6644 75.7298 48.6277 75.7967 48.5638 75.8154C46.9669 76.2815 45.0277 76.6161 42.9559 76.7832C42.0228 76.8584 41.1108 76.8957 40.2419 76.8957Z" fill="#7D97F4"/>
<path d="M40.268 74.5884C38.332 74.5884 36.6019 74.4064 35.3816 74.0588C35.3176 74.0406 35.2805 73.974 35.2987 73.91C35.317 73.8459 35.3834 73.8089 35.4476 73.827C37.1865 74.3222 39.9865 74.4757 42.9377 74.2378C45.8569 74.0024 48.5795 73.41 50.2205 72.6531C50.281 72.6254 50.3526 72.6517 50.3805 72.7121C50.4083 72.7725 50.3819 72.8441 50.3215 72.872C48.6561 73.6401 45.903 74.2405 42.9571 74.478C42.0378 74.5521 41.1323 74.5884 40.268 74.5884Z" fill="#7D97F4"/>
<path d="M40.2425 72.2847C38.1522 72.2847 36.323 72.0709 35.0919 71.6649C35.0286 71.6441 34.9943 71.5759 35.0151 71.5127C35.0359 71.4495 35.1038 71.4151 35.1673 71.436C36.8806 72.0009 39.7852 72.1864 42.937 71.9324C45.856 71.6971 48.5786 71.1046 50.2198 70.3477C50.2803 70.32 50.3519 70.3463 50.3798 70.4066C50.4076 70.4671 50.3812 70.5387 50.3208 70.5666C48.6552 71.3347 45.9021 71.9351 42.9564 72.1726C42.0229 72.2479 41.1102 72.2847 40.2425 72.2847Z" fill="#7D97F4"/>
<path d="M40.2584 69.9786C38.6003 69.9786 37.0922 69.8445 35.9198 69.584C35.8548 69.5696 35.8138 69.5052 35.8283 69.4403C35.8427 69.3753 35.9073 69.3343 35.972 69.3488C37.7351 69.7406 40.2737 69.842 42.9368 69.6273C45.8299 69.3941 48.5385 68.8081 50.1825 68.0597C50.243 68.032 50.3144 68.0589 50.342 68.1195C50.3696 68.1801 50.3428 68.2515 50.2822 68.2791C48.6143 69.0384 45.8756 69.6322 42.9562 69.8675C42.0338 69.9419 41.1256 69.9786 40.2584 69.9786Z" fill="#7D97F4"/>
<path d="M30.3053 57.3071C29.6959 55.1488 28.6609 53.1319 27.267 51.375C24.2801 47.6107 19.4076 39.9553 18.8078 29.507C17.9354 14.3094 31.4139 6.70063 43.7133 7.73357C56.0126 8.76651 68.1489 17.9243 66.8203 32.0626C66.0028 40.762 61.1337 47.3606 57.5083 51.1501C55.2063 53.5565 53.5641 56.5038 52.6752 59.7132C51.5872 63.6413 48.9981 68.5366 42.844 68.835C34.8807 69.2211 31.5734 61.7985 30.3053 57.3071Z" fill="#F545A6"/>
<path opacity="0.72" d="M44.8777 65.8051L49.1813 37.8146C49.2702 37.2364 49.5547 36.848 49.8169 36.9472C50.0791 37.0465 50.2195 37.5957 50.1306 38.1739C50.1282 38.1894 50.1251 38.2084 50.1224 38.2235L45.2203 65.954C45.1835 66.1625 45.0775 66.2942 44.9838 66.2481C44.8929 66.2035 44.8469 66.007 44.8777 65.8051Z" fill="white"/>
<path opacity="0.72" d="M40.4114 66.0268L36.1078 38.0363C36.019 37.4581 35.7343 37.0697 35.4722 37.1689C35.2101 37.2682 35.0696 37.8174 35.1585 38.3956C35.1609 38.411 35.1641 38.4301 35.1668 38.4452L40.0688 66.1756C40.1056 66.3842 40.2116 66.5158 40.3053 66.4698C40.3963 66.4251 40.4423 66.2288 40.4114 66.0268Z" fill="white"/>
<path opacity="0.72" d="M49.1501 35.4112C49.0409 35.2354 48.788 35.1698 48.5852 35.2645L46.1889 36.3841L45.3571 34.0141C45.3131 33.8905 45.2111 33.7808 45.0657 33.7209C44.7901 33.6073 44.4604 33.7089 44.3294 33.9478L44.3252 33.9555L42.3545 37.5487L40.5258 32.4337L40.5228 32.4252C40.478 32.3003 40.3836 32.1882 40.246 32.1131C39.9393 31.9457 39.5343 32.0255 39.3411 32.2913L36.5861 36.084C36.4741 36.2395 36.5126 36.4477 36.6831 36.5626C36.8652 36.6853 37.1276 36.6568 37.269 36.499L39.6948 33.793L41.8788 38.6589L41.8805 38.6626C41.9155 38.7405 41.9814 38.8084 42.0729 38.8513C42.2778 38.9472 42.5337 38.881 42.6444 38.7034L44.7521 35.3212L45.5454 37.0319L45.5524 37.0471C45.5581 37.0593 45.5646 37.0715 45.5721 37.0834C45.6813 37.259 45.934 37.3246 46.1365 37.23L48.9809 35.9009C49.1837 35.8061 49.2594 35.5869 49.1501 35.4112Z" fill="white"/>
<path d="M58.9652 43.5254C59.1781 43.1567 59.6494 43.0305 60.0184 43.2433C60.3873 43.4561 60.5136 43.9277 60.3005 44.2964C59.6836 45.3649 58.9841 46.4276 58.2213 47.4554C58.07 47.6592 57.8373 47.7669 57.6016 47.7669C57.4417 47.7669 57.2806 47.7174 57.1426 47.615C56.8007 47.3613 56.7292 46.8784 56.9829 46.5363L58.9652 43.5254Z" fill="url(#paint0_linear_238_1631)"/>
<path d="M61.1419 41.6912C61.0395 41.6912 60.9353 41.6706 60.8352 41.6271C60.4447 41.4575 60.2654 41.0035 60.4351 40.6126C64.9429 30.2309 61.0621 21.5318 61.0222 21.445C60.8447 21.058 61.0147 20.6004 61.4019 20.4227C61.79 20.2458 62.247 20.4155 62.4242 20.8025C62.5979 21.1817 66.6288 30.2201 61.8497 41.2268C61.7235 41.5175 61.4398 41.6912 61.1419 41.6912Z" fill="url(#paint1_linear_238_1631)"/>
<path d="M53.9634 66.1893C53.9634 65.949 53.7686 65.7543 53.5283 65.7543H46.9757C46.8409 65.7543 46.7209 65.8165 46.6815 65.9081C46.5053 66.318 46.6039 66.6745 46.6858 66.8617C46.722 66.9446 46.8296 67.0013 46.9518 67.0013H53.5283C53.7686 67.0013 53.9634 66.8065 53.9634 66.5662V66.1893Z" fill="#C6BFFF"/>
<path opacity="0.53" d="M47.0665 66.8778L47.8639 66.8476C47.9633 66.8438 48.0411 66.7854 48.0411 66.7147V66.047C48.0411 65.9752 47.961 65.9163 47.86 65.914L47.0732 65.8958C46.983 65.8938 46.9033 65.9376 46.8843 66.0003C46.8351 66.1625 46.7672 66.4816 46.8747 66.7769C46.8972 66.8387 46.9768 66.8813 47.0665 66.8778Z" fill="white"/>
<path opacity="0.53" d="M48.3841 66.8258C48.4822 66.821 48.5584 66.763 48.5584 66.6931V66.0538C48.5584 65.9793 48.4722 65.9193 48.3674 65.9208C48.2655 65.9223 48.184 65.9814 48.184 66.0538V66.6931C48.184 66.7702 48.2759 66.8312 48.3841 66.8258Z" fill="white"/>
<path d="M64.293 17.2885C64.2391 17.154 64.2944 16.9978 64.4253 16.9287C64.7116 16.7776 65.0087 16.6368 65.3084 16.51C65.4542 16.4483 65.6223 16.5164 65.684 16.6622C65.6847 16.6639 65.6854 16.6656 65.6861 16.6674C65.744 16.8119 65.6758 16.9769 65.5318 17.0378C65.2471 17.1582 64.9649 17.2921 64.6929 17.4356C64.553 17.5095 64.3796 17.4559 64.3057 17.3159C64.3009 17.3069 64.2967 17.2977 64.293 17.2885ZM66.6171 16.3768C66.613 16.3664 66.6094 16.3556 66.6064 16.3445C66.5651 16.1917 66.6556 16.0344 66.8084 15.9932C67.1223 15.9086 67.4429 15.8365 67.7613 15.779C67.917 15.7509 68.0655 15.8539 68.0943 16.0101C68.1223 16.1659 68.0188 16.3149 67.8631 16.343C67.5605 16.3976 67.2559 16.4661 66.9576 16.5466C66.8159 16.5848 66.6704 16.5098 66.6171 16.3768ZM69.0842 15.9995C69.0723 15.9699 69.0653 15.9378 69.0639 15.9041C69.0578 15.746 69.181 15.6127 69.3391 15.6065C69.6633 15.5939 69.992 15.5951 70.3163 15.6104C70.4744 15.6179 70.5963 15.7521 70.5891 15.9101C70.5817 16.0682 70.4475 16.1903 70.2894 16.1829C69.9815 16.1684 69.6694 16.1672 69.3615 16.1792C69.237 16.1841 69.128 16.1089 69.0842 15.9995ZM71.5742 16.1834C71.5546 16.1345 71.5482 16.0796 71.5587 16.0239C71.5881 15.8684 71.738 15.7661 71.8935 15.7955C72.2125 15.8557 72.5327 15.9304 72.8452 16.0176C72.9975 16.0602 73.0866 16.2182 73.0443 16.3706C73.0018 16.5231 72.8437 16.6122 72.6912 16.5697C72.3944 16.4869 72.0903 16.4158 71.7871 16.3587C71.6873 16.3398 71.6094 16.2713 71.5742 16.1834ZM73.9606 16.918C73.9331 16.8493 73.932 16.7702 73.9638 16.6971C74.0269 16.5519 74.1958 16.4854 74.3409 16.5486C74.6378 16.6778 74.9335 16.8215 75.2194 16.9758C75.3587 17.0508 75.4108 17.2247 75.3356 17.3641C75.2604 17.5033 75.0866 17.5553 74.9473 17.4802C74.6755 17.3335 74.3945 17.1969 74.1123 17.0741C74.0403 17.0428 73.9877 16.9855 73.9606 16.918ZM76.125 18.162C76.0893 18.0732 76.099 17.9685 76.1598 17.8856C76.2535 17.758 76.4328 17.7305 76.5604 17.8242C76.8218 18.0161 77.0784 18.2217 77.3227 18.4352C77.4419 18.5394 77.454 18.7204 77.3499 18.8396C77.2458 18.9587 77.0647 18.9709 76.9455 18.8668C76.7133 18.6639 76.4697 18.4686 76.2212 18.2862C76.1765 18.2533 76.1442 18.21 76.125 18.162ZM80.6652 27.6553C80.6504 27.6184 80.6431 27.578 80.645 27.5358C80.659 27.2282 80.6597 26.9159 80.647 26.6076C80.6406 26.4495 80.7635 26.316 80.9216 26.3096C81.0798 26.3031 81.2132 26.426 81.2197 26.5842C81.233 26.9089 81.2323 27.2379 81.2177 27.5618C81.2105 27.7199 81.0765 27.8422 80.9184 27.8351C80.8024 27.8298 80.7057 27.7564 80.6652 27.6553ZM77.9586 19.8537C77.9143 19.7434 77.9422 19.6125 78.0371 19.5304C78.1569 19.4268 78.3378 19.4399 78.4414 19.5595C78.6536 19.8048 78.8578 20.0623 79.0482 20.325C79.1405 20.4535 79.1126 20.6323 78.9845 20.7252C78.8564 20.8181 78.6771 20.7895 78.5842 20.6614C78.4034 20.412 78.2095 20.1675 78.0079 19.9345C77.9866 19.9098 77.9701 19.8824 77.9586 19.8537ZM80.4963 25.1646C80.4893 25.1471 80.4838 25.1286 80.4803 25.1092C80.425 24.8061 80.3558 24.5014 80.2749 24.2036C80.2334 24.0508 80.3236 23.8933 80.4763 23.8518C80.629 23.8104 80.7871 23.9002 80.828 24.0533C80.9131 24.3667 80.9859 24.6873 81.0441 25.0062C81.0725 25.1619 80.9693 25.3112 80.8137 25.3396C80.6774 25.3645 80.546 25.2885 80.4963 25.1646ZM79.3684 21.9126C79.3146 21.7783 79.3696 21.6223 79.5002 21.5531C79.6401 21.479 79.8135 21.5322 79.8877 21.672C80.0395 21.9583 80.181 22.255 80.3081 22.5539C80.3089 22.5558 80.3097 22.5577 80.3104 22.5596C80.3683 22.7039 80.3003 22.8686 80.1566 22.9298C80.0109 22.9917 79.8426 22.9239 79.7807 22.7782C79.66 22.4943 79.5256 22.2125 79.3813 21.9405C79.3765 21.9313 79.3722 21.922 79.3684 21.9126Z" fill="#F684C3"/>
<path d="M80.3927 29.6494C80.3717 29.597 80.3658 29.5379 80.3795 29.4787C80.4127 29.3347 80.4434 29.1877 80.4709 29.0416C80.5001 28.886 80.6499 28.7836 80.8055 28.8129C80.961 28.842 81.0636 28.9919 81.0341 29.1475C81.0053 29.3012 80.973 29.4558 80.9381 29.6073C80.9026 29.7615 80.7487 29.8578 80.5945 29.8223C80.4994 29.8004 80.4264 29.7335 80.3927 29.6494Z" fill="#F684C3"/>
<path d="M75.2628 36.722C75.2113 36.5936 75.2591 36.4433 75.3815 36.3699C75.5082 36.294 75.6355 36.2141 75.7597 36.1324C75.892 36.0455 76.0697 36.0823 76.1566 36.2146C76.2438 36.3474 76.2067 36.5245 76.0744 36.6114C75.9437 36.6973 75.8096 36.7815 75.6763 36.8615C75.5405 36.9428 75.3645 36.8988 75.2831 36.763C75.2751 36.7497 75.2684 36.736 75.2628 36.722Z" fill="#F684C3"/>
<path d="M59.1601 31.3166C59.1111 31.1942 59.0639 31.0705 59.0186 30.9455C58.9648 30.7967 59.0417 30.6324 59.1905 30.5785C59.3393 30.5245 59.5044 30.602 59.5576 30.7502C59.6621 31.0386 59.778 31.3221 59.9037 31.596C59.9695 31.74 59.9066 31.9099 59.7628 31.9759C59.6189 32.042 59.4488 31.9789 59.3828 31.835C59.305 31.6656 59.2301 31.4912 59.1601 31.3166ZM58.6018 29.4911C58.5958 29.4763 58.591 29.4607 58.5875 29.4445C58.5202 29.1319 58.4655 28.813 58.4248 28.4966C58.4046 28.3397 58.5155 28.196 58.6724 28.1758C58.8294 28.1556 58.9735 28.2667 58.9932 28.4235C59.0318 28.724 59.0839 29.0269 59.1478 29.324C59.1811 29.4787 59.0826 29.6311 58.928 29.6643C58.7894 29.6941 58.6528 29.6184 58.6018 29.4911ZM60.1053 33.1587C60.0551 33.0333 60.0994 32.886 60.2174 32.8107C60.3509 32.7256 60.5281 32.7649 60.6132 32.8984C60.7758 33.1537 60.9516 33.4055 61.1359 33.6469C61.2318 33.7729 61.2078 33.9526 61.082 34.0486C60.9561 34.1446 60.7763 34.1204 60.6803 33.9946C60.4863 33.7405 60.3011 33.4752 60.1298 33.2063C60.12 33.191 60.1119 33.175 60.1053 33.1587ZM58.3526 27.0465C58.339 27.0127 58.3319 26.9758 58.3322 26.9372C58.3352 26.6178 58.352 26.2946 58.3819 25.9768C58.3968 25.8192 58.5366 25.7036 58.6941 25.7185C58.8517 25.7333 58.9674 25.8729 58.9525 26.0306C58.924 26.3325 58.9081 26.6393 58.9052 26.9427C58.9038 27.1009 58.7742 27.228 58.616 27.2265C58.4964 27.2253 58.3945 27.151 58.3526 27.0465ZM61.6459 35.0705C61.6047 34.9676 61.6254 34.8455 61.7085 34.7619C61.82 34.6495 62.0015 34.6488 62.1139 34.7603C62.3286 34.9735 62.5555 35.1805 62.7883 35.3756C62.9096 35.4772 62.9256 35.658 62.8239 35.7793C62.7222 35.9006 62.5416 35.9165 62.4203 35.8148C62.1752 35.6095 61.9362 35.3916 61.7101 35.1671C61.6815 35.1387 61.66 35.1057 61.6459 35.0705ZM63.5687 36.598C63.5357 36.5158 63.5412 36.4194 63.592 36.3387C63.6762 36.2047 63.8531 36.1643 63.9871 36.2486C64.2441 36.4101 64.5109 36.5627 64.78 36.7021C64.9206 36.7747 64.9756 36.9476 64.9027 37.0883C64.8299 37.2289 64.657 37.2838 64.5164 37.211C64.2332 37.0643 63.9525 36.9037 63.6821 36.7337C63.6289 36.7003 63.5905 36.6522 63.5687 36.598ZM65.7788 37.67C65.7537 37.6074 65.7505 37.5359 65.7749 37.4674C65.8279 37.3183 65.9918 37.2404 66.1409 37.2935C66.4271 37.3953 66.7207 37.4862 67.0136 37.5636C67.1665 37.604 67.2579 37.7606 67.2174 37.9139C67.177 38.0669 67.0202 38.1581 66.8672 38.1177C66.559 38.0362 66.2499 37.9406 65.9487 37.8335C65.8681 37.8047 65.8083 37.7436 65.7788 37.67ZM68.1698 38.2344C68.1525 38.191 68.1455 38.1429 68.1515 38.0933C68.1706 37.9362 68.3135 37.8244 68.4706 37.8436C68.772 37.8804 69.0783 37.9047 69.3811 37.9158C69.5393 37.9217 69.6628 38.0548 69.657 38.2127C69.6512 38.3709 69.5182 38.4944 69.3601 38.4885C69.0411 38.4768 68.7185 38.4512 68.4012 38.4125C68.2937 38.3993 68.2074 38.3283 68.1698 38.2344ZM70.6274 38.2602C70.6177 38.2358 70.6112 38.2096 70.6084 38.1822C70.5924 38.0248 70.7072 37.8842 70.8646 37.8683C71.1659 37.8378 71.4699 37.794 71.7682 37.7381C71.9238 37.709 72.0735 37.812 72.1026 37.967C72.1318 38.1225 72.0293 38.2723 71.8737 38.3015C71.5596 38.3603 71.2396 38.4064 70.9224 38.4385C70.7924 38.4516 70.6737 38.3757 70.6274 38.2602ZM73.029 37.7457C73.0269 37.7403 73.0249 37.7347 73.023 37.729C72.9731 37.5788 73.0545 37.4166 73.2047 37.3669C73.4167 37.2965 73.6291 37.2188 73.8361 37.1358C73.911 37.1058 73.9854 37.075 74.0593 37.0435C74.2049 36.9814 74.3733 37.0491 74.4353 37.1947C74.501 37.3409 74.4296 37.5087 74.2841 37.5707C74.2064 37.6038 74.1282 37.6362 74.0493 37.6678C73.8316 37.7551 73.6081 37.8368 73.3851 37.9108C73.2406 37.9588 73.0849 37.8852 73.029 37.7457Z" fill="#F684C3"/>
<path d="M58.6497 24.6002C58.6285 24.5473 58.6228 24.4877 58.6368 24.4281C58.6724 24.2771 58.7118 24.124 58.7541 23.973C58.7967 23.8206 58.9548 23.7316 59.1072 23.7742C59.2596 23.8169 59.3487 23.9748 59.306 24.1273C59.2659 24.2708 59.2285 24.4162 59.1946 24.5596C59.1584 24.7136 59.0041 24.8091 58.8501 24.7728C58.7557 24.7505 58.6833 24.6839 58.6497 24.6002Z" fill="#F684C3"/>
<path d="M61.8781 23.7212C61.8505 23.7712 61.8576 23.8333 61.8958 23.8757L62.9873 25.0865C62.7805 25.8192 62.6891 26.5901 62.7284 27.3725L61.3953 28.3089C61.3485 28.3417 61.3278 28.4006 61.3435 28.4555L61.8844 30.3345C61.9002 30.3895 61.9492 30.4283 62.0062 30.4313L63.6331 30.5156C64.0158 31.1992 64.5031 31.8035 65.0677 32.3141L64.787 33.9199C64.7772 33.9762 64.8041 34.0325 64.8541 34.0602L66.5652 35.0064C66.6153 35.0341 66.6773 35.0269 66.7197 34.9887L67.9305 33.8972C68.6632 34.104 69.4341 34.1954 70.2165 34.1561L71.1529 35.4892C71.1858 35.536 71.2447 35.5567 71.2996 35.5409L73.1786 35.0001C73.2335 34.9843 73.2724 34.9353 73.2753 34.8783L73.3597 33.2514C74.0433 32.8687 74.6476 32.3814 75.1582 31.8168L76.764 32.0975C76.8203 32.1073 76.8766 32.0804 76.9043 32.0304L77.8505 30.3193C77.8782 30.2692 77.8711 30.2072 77.8328 30.1648L76.7413 28.954C76.9481 28.2213 77.0395 27.4504 77.0002 26.668L78.3334 25.7316C78.3801 25.6987 78.4009 25.6399 78.3851 25.585L77.8442 23.7059C77.8284 23.651 77.7795 23.6122 77.7224 23.6092L76.0955 23.5249C75.7128 22.8412 75.2256 22.2369 74.6609 21.7263L74.9416 20.1205C74.9515 20.0643 74.9245 20.0079 74.8745 19.9803L73.1634 19.034C73.1134 19.0064 73.0514 19.0135 73.0089 19.0518L71.7981 20.1432C71.0654 19.9364 70.2945 19.845 69.5121 19.8843L68.5757 18.5512C68.5429 18.5045 68.484 18.4837 68.4291 18.4995L66.5501 19.0404C66.4952 19.0562 66.4563 19.1051 66.4534 19.1621L66.369 20.789C65.6854 21.1718 65.0811 21.659 64.5705 22.2236L62.9647 21.9429C62.9084 21.9331 62.8521 21.96 62.8244 22.01L61.8781 23.7212Z" fill="#F684C3"/>
<path d="M68.039 27.75C67.6825 26.8607 68.0225 25.818 68.8745 25.3216C69.811 24.776 71.0166 25.094 71.5622 26.0304C71.8266 26.4841 71.8983 27.0135 71.7645 27.521C71.6306 28.0286 71.3071 28.4538 70.8534 28.718C69.9169 29.2637 68.7113 28.9456 68.1657 28.0093C68.1165 27.9249 68.0743 27.8381 68.039 27.75ZM71.2641 26.462C71.2366 26.3933 71.2039 26.3263 71.166 26.2612C70.7478 25.5432 69.8232 25.2995 69.1053 25.7177C68.3873 26.1361 68.1432 27.0604 68.5618 27.7785C68.9801 28.4965 69.9046 28.7402 70.6225 28.3219C70.9704 28.1193 71.2184 27.7934 71.3211 27.4041C71.4045 27.0878 71.3837 26.7603 71.2641 26.462Z" fill="white"/>
<path d="M65.4188 28.844C65.3576 28.6913 65.3037 28.5346 65.2575 28.3743C65.243 28.3239 65.2293 28.2732 65.2164 28.2223C65.1528 27.9713 65.1093 27.7156 65.0865 27.4593C65.0862 27.4558 65.0858 27.4523 65.0855 27.4488C65.0847 27.4389 65.0838 27.429 65.0831 27.419C65.0815 27.3997 65.0802 27.3804 65.0788 27.3611C65.0753 27.3103 65.1055 27.2649 65.1504 27.2469C65.1613 27.2425 65.1731 27.2398 65.1854 27.2389C65.2486 27.2346 65.3031 27.2824 65.3075 27.3455C65.3296 27.6705 65.3869 27.9953 65.4778 28.3108C65.9288 29.8786 67.1456 31.0222 68.6049 31.4533C69.4165 31.6931 70.3033 31.7124 71.1751 31.4614C71.328 31.4174 71.4776 31.366 71.6233 31.3076C72.6037 30.9145 73.4123 30.2021 73.9303 29.2653C74.5254 28.1892 74.6658 26.9458 74.3256 25.7641C73.6229 23.3238 71.0676 21.9115 68.6283 22.6136C68.4779 22.6569 68.3303 22.7077 68.186 22.7655C67.5606 23.0163 66.997 23.4012 66.5371 23.8944C66.5252 23.9071 66.5112 23.9166 66.496 23.9226C66.4561 23.9386 66.4087 23.9314 66.3752 23.9001C66.329 23.8567 66.3261 23.7844 66.3695 23.738C66.8524 23.2202 67.444 22.8161 68.1006 22.5528C68.252 22.492 68.407 22.4388 68.5649 22.3933C71.1258 21.6561 73.809 23.1406 74.546 25.7007C74.9031 26.9412 74.7556 28.2465 74.1309 29.3762C73.5871 30.3597 72.7382 31.1075 71.709 31.5203C71.5561 31.5816 71.3991 31.6355 71.2386 31.6817C69.998 32.0388 68.6927 31.8914 67.5631 31.2668C66.5793 30.7228 65.8314 29.8735 65.4188 28.844Z" fill="white"/>
<path d="M53.6448 11.021C53.6162 10.9499 53.6364 10.8658 53.6997 10.8161C53.8177 10.7231 53.9402 10.6325 54.0638 10.5468C54.144 10.491 54.2542 10.5109 54.3101 10.5912C54.3662 10.6714 54.3459 10.7818 54.2656 10.8376C54.1479 10.9193 54.0311 11.0056 53.9184 11.0943C53.8418 11.1548 53.7305 11.1414 53.6699 11.0647C53.6592 11.051 53.6509 11.0363 53.6448 11.021Z" fill="#F684C3"/>
<path d="M54.7874 10.2807C54.7541 10.1974 54.7885 10.1008 54.8696 10.0583C55.0987 9.93816 55.3367 9.82842 55.5767 9.73223C55.6272 9.71196 55.6782 9.69222 55.7294 9.67289C55.8211 9.63849 55.9216 9.69092 55.9576 9.77612C55.992 9.8676 55.9458 9.96969 55.8544 10.0042C55.8054 10.0226 55.7567 10.0415 55.7084 10.0608C55.4795 10.1526 55.2525 10.2572 55.034 10.3717C54.9473 10.4172 54.8405 10.3838 54.795 10.2972C54.7922 10.2917 54.7896 10.2862 54.7874 10.2807ZM56.5074 9.63318C56.5042 9.62541 56.5015 9.61726 56.4995 9.60897C56.4765 9.51391 56.5348 9.41819 56.6298 9.39511C56.9345 9.32101 57.2466 9.26519 57.5571 9.22925C57.6543 9.21796 57.742 9.28813 57.7533 9.3847C57.7645 9.48188 57.695 9.56959 57.5979 9.58088C57.3016 9.6152 57.004 9.66848 56.7133 9.73909C56.6267 9.7601 56.5396 9.71356 56.5074 9.63318ZM58.3329 9.4221C58.3246 9.40126 58.3201 9.37845 58.3202 9.35466C58.3211 9.25693 58.4012 9.17845 58.4989 9.17933C58.8121 9.1823 59.1285 9.2048 59.4393 9.24655C59.5363 9.25952 59.6041 9.34835 59.5911 9.44556C59.5781 9.54239 59.489 9.6104 59.3922 9.59743C59.0958 9.55767 58.7943 9.53611 58.4956 9.53338C58.4217 9.53261 58.3588 9.48668 58.3329 9.4221ZM60.1546 9.6663C60.141 9.63227 60.1378 9.5938 60.1477 9.55569C60.1726 9.46118 60.2694 9.40456 60.3639 9.42943C60.6674 9.50917 60.9684 9.60845 61.2589 9.72458C61.3497 9.76092 61.3936 9.86408 61.3575 9.95462C61.3212 10.0454 61.2183 10.0896 61.1274 10.0533C60.8506 9.94254 60.5633 9.84781 60.274 9.7718C60.2176 9.75699 60.1748 9.71659 60.1546 9.6663ZM61.8613 10.348C61.8423 10.3005 61.8439 10.2451 61.8705 10.1967C61.9176 10.1111 62.0252 10.0799 62.1109 10.1269C62.3854 10.2779 62.6532 10.4473 62.9069 10.6303C62.9864 10.6875 63.0041 10.7982 62.9469 10.8774C62.8897 10.9567 62.7789 10.9746 62.6998 10.9174C62.4577 10.7428 62.2023 10.5812 61.9403 10.4372C61.903 10.4167 61.876 10.3846 61.8613 10.348ZM63.3507 11.4231C63.326 11.3616 63.3372 11.2886 63.3853 11.2367C63.4517 11.1651 63.5637 11.161 63.6354 11.2274C63.865 11.4406 64.0834 11.6702 64.2845 11.9097C64.3472 11.985 64.3375 12.0963 64.2627 12.1592C64.1879 12.222 64.0761 12.2122 64.0134 12.1374C63.8216 11.9089 63.6134 11.6902 63.3946 11.487C63.3747 11.4685 63.3601 11.4466 63.3507 11.4231ZM64.5317 12.8294C64.5008 12.7524 64.5276 12.6618 64.5998 12.6151C64.6819 12.562 64.7915 12.5855 64.8446 12.6675C65.0143 12.9297 65.1697 13.2059 65.3067 13.4886C65.3479 13.5775 65.3124 13.6826 65.2244 13.7251C65.1365 13.7677 65.0306 13.7309 64.988 13.643C64.8575 13.3732 64.7093 13.1098 64.5474 12.8598C64.5411 12.85 64.5358 12.8398 64.5317 12.8294ZM65.5749 15.3717C65.5711 15.3623 65.568 15.3522 65.5659 15.3418C65.5133 15.0892 65.4459 14.835 65.3655 14.5863C65.3535 14.5486 65.3414 14.5117 65.3287 14.475C65.2972 14.3824 65.3464 14.2819 65.439 14.2503C65.5316 14.2185 65.6351 14.2675 65.6638 14.3605C65.677 14.3996 65.6902 14.4388 65.7027 14.4784C65.7865 14.7382 65.8572 15.0047 65.9124 15.2696C65.9323 15.3654 65.8709 15.459 65.7752 15.479C65.69 15.4967 65.6063 15.4499 65.5749 15.3717Z" fill="#F684C3"/>
<path d="M51.3711 19.7659C51.3351 19.6762 51.3779 19.5739 51.4675 19.5367C51.5576 19.4991 51.6614 19.5418 51.6988 19.6321C51.8119 19.9038 51.9424 20.1709 52.0869 20.426C52.134 20.511 52.1053 20.6191 52.0201 20.6673C51.935 20.7155 51.8271 20.6855 51.7788 20.6006C51.6274 20.3329 51.4904 20.0529 51.372 19.7681C51.3717 19.7674 51.3714 19.7666 51.3711 19.7659ZM51.0742 18.9104C51.0718 18.9045 51.0698 18.8985 51.068 18.8922C50.9845 18.5956 50.9182 18.2909 50.8709 17.9866C50.856 17.89 50.922 17.7996 51.0186 17.7846C51.1153 17.7695 51.2056 17.8363 51.2208 17.9322C51.2659 18.2226 51.3291 18.5134 51.4087 18.7964C51.4352 18.8905 51.3804 18.9882 51.2863 19.0147C51.1983 19.0394 51.1074 18.9932 51.0742 18.9104ZM52.262 21.3382C52.2328 21.2654 52.2549 21.1793 52.3209 21.1303C52.3993 21.0721 52.5101 21.0885 52.5684 21.167C52.744 21.4034 52.9352 21.6311 53.1373 21.8438C53.2044 21.9151 53.2016 22.0267 53.1307 22.094C53.0599 22.1613 52.9477 22.1584 52.8804 22.0875C52.6687 21.8646 52.4681 21.6258 52.2842 21.3779C52.275 21.3654 52.2676 21.352 52.262 21.3382ZM50.7977 17.1234C50.7903 17.1048 50.7858 17.0845 50.7851 17.0631C50.7754 16.755 50.7846 16.443 50.8126 16.1362C50.8215 16.0388 50.9076 15.9671 51.005 15.976C51.1021 15.9849 51.1739 16.071 51.1652 16.1683C51.1385 16.4609 51.1297 16.7582 51.139 17.052C51.142 17.1497 51.0653 17.2315 50.9676 17.2345C50.8913 17.2369 50.8246 17.1905 50.7977 17.1234ZM53.5066 22.6484C53.4832 22.5903 53.4916 22.5215 53.5342 22.4699C53.5965 22.3943 53.7081 22.3837 53.7835 22.4459C54.01 22.6328 54.2503 22.8078 54.498 22.9659C54.5806 23.0186 54.6046 23.1281 54.5519 23.2104C54.4993 23.2928 54.3898 23.3169 54.3074 23.2643C54.0478 23.0984 53.7957 22.915 53.5581 22.7191C53.5344 22.6995 53.5172 22.675 53.5066 22.6484ZM55.0291 23.6219C55.0113 23.5774 55.0115 23.5259 55.0338 23.4794C55.0761 23.3912 55.1819 23.3541 55.27 23.3964C55.5354 23.5239 55.8109 23.6364 56.0885 23.7308C56.1812 23.7623 56.2307 23.8629 56.1992 23.9553C56.1678 24.0479 56.0673 24.0974 55.9748 24.0659C55.6836 23.967 55.3948 23.8492 55.1167 23.7156C55.0752 23.6956 55.045 23.6616 55.0291 23.6219ZM56.7412 24.2027C56.7287 24.1714 56.7248 24.1363 56.7324 24.1007C56.7523 24.005 56.8462 23.9437 56.9418 23.9637C57.2299 24.0241 57.5243 24.0672 57.8167 24.0918C57.9138 24.1001 57.9863 24.1857 57.9781 24.2831C57.9698 24.3805 57.8843 24.4528 57.7868 24.4446C57.4803 24.4187 57.1715 24.3735 56.8693 24.3103C56.809 24.2976 56.7625 24.2558 56.7412 24.2027Z" fill="#F684C3"/>
<path d="M50.963 15.3147C50.9503 15.283 50.9466 15.2474 50.9544 15.2115C50.9864 15.0634 51.0231 14.9157 51.0632 14.7722C51.0895 14.6781 51.1872 14.6231 51.2814 14.6494C51.3753 14.6759 51.4303 14.7734 51.4042 14.8676C51.3659 15.0043 51.331 15.1453 51.3003 15.2866C51.2796 15.3821 51.1852 15.4427 51.0898 15.422C51.0302 15.409 50.9841 15.3674 50.963 15.3147Z" fill="#F684C3"/>
<path d="M53.1406 14.5995C53.1221 14.6329 53.1269 14.6745 53.1525 14.7029L53.8828 15.5131C53.7445 16.0033 53.6833 16.5192 53.7096 17.0428L52.8175 17.6693C52.7863 17.6913 52.7723 17.7307 52.7829 17.7675L53.1448 19.0248C53.1555 19.0616 53.1882 19.0876 53.2263 19.0895L54.315 19.146C54.5711 19.6034 54.8971 20.0078 55.275 20.3495L55.0871 21.424C55.0805 21.4617 55.0986 21.4994 55.1321 21.5179L56.2771 22.151C56.3106 22.1695 56.3521 22.1648 56.3804 22.1392L57.1907 21.4088C57.6809 21.5472 58.1968 21.6084 58.7204 21.5821L59.3469 22.4741C59.3689 22.5054 59.4083 22.5193 59.4451 22.5087L60.7024 22.1468C60.7392 22.1362 60.7652 22.1035 60.7671 22.0653L60.8236 20.9767C61.281 20.7206 61.6854 20.3945 62.027 20.0167L63.1016 20.2045C63.1392 20.2111 63.1769 20.1931 63.1954 20.1596L63.8286 19.0146C63.8471 18.9811 63.8424 18.9396 63.8167 18.9112L63.0864 18.101C63.2247 17.6107 63.2859 17.0949 63.2596 16.5713L64.1517 15.9447C64.183 15.9227 64.1969 15.8834 64.1863 15.8466L63.8244 14.5892C63.8138 14.5525 63.7811 14.5265 63.7429 14.5245L62.6542 14.4681C62.3981 14.0106 62.0721 13.6062 61.6942 13.2645L61.8821 12.1901C61.8887 12.1524 61.8707 12.1147 61.8372 12.0962L60.6922 11.463C60.6587 11.4445 60.6172 11.4493 60.5888 11.4749L59.7786 12.2052C59.2883 12.0669 58.7725 12.0057 58.2489 12.032L57.6223 11.1399C57.6004 11.1087 57.5609 11.0947 57.5242 11.1053L56.2669 11.4672C56.2301 11.4778 56.2041 11.5105 56.2021 11.5487L56.1457 12.6374C55.6883 12.8935 55.2839 13.2195 54.9422 13.5973L53.8677 13.4095C53.83 13.4029 53.7923 13.4209 53.7738 13.4544L53.1406 14.5995Z" fill="#F684C3"/>
<path d="M57.2391 17.3031C57.1329 17.0381 57.1144 16.7472 57.1885 16.4661C57.2797 16.1203 57.5001 15.8307 57.8091 15.6507C58.4468 15.2791 59.268 15.4957 59.6398 16.1335C60.0108 16.7728 59.7947 17.5927 59.1569 17.9643C58.8479 18.1444 58.4873 18.1933 58.1416 18.1021C57.7958 18.011 57.5061 17.7905 57.3262 17.4814C57.2926 17.4236 57.2635 17.364 57.2391 17.3031ZM59.3974 16.4416C59.3797 16.3974 59.3586 16.354 59.334 16.3116C59.0605 15.8425 58.4564 15.6833 57.9873 15.9566C57.7601 16.089 57.5978 16.302 57.5308 16.5563C57.4637 16.8108 57.5 17.0758 57.6321 17.3033C57.7645 17.5306 57.9776 17.6928 58.2318 17.7598C58.4863 17.8269 58.7515 17.7909 58.9789 17.6584C59.4056 17.4098 59.576 16.8872 59.3974 16.4416Z" fill="white"/>
<path d="M55.4164 18.0623C55.3747 17.9584 55.3381 17.8515 55.3063 17.7416C55.2435 17.5235 55.2027 17.2988 55.1853 17.0731C55.1846 17.063 55.1839 17.0528 55.1832 17.0427C55.1778 16.9642 55.2244 16.8943 55.2937 16.8664C55.3105 16.8596 55.3287 16.8554 55.3478 16.8541C55.4453 16.8474 55.5293 16.9214 55.5363 17.0187C55.5505 17.2295 55.5877 17.4398 55.6465 17.6436L55.6465 17.6436C55.6497 17.6548 55.6531 17.666 55.6564 17.6771C55.7999 18.1582 56.0579 18.5853 56.4047 18.9302C56.5929 19.1174 56.8076 19.2803 57.0447 19.4142C57.0466 19.4153 57.0485 19.4164 57.0504 19.4175C57.0564 19.4208 57.0622 19.4241 57.0681 19.4274C57.7648 19.8125 58.5697 19.9035 59.3347 19.6832C59.4337 19.6548 59.5305 19.6215 59.6248 19.5837C60.2594 19.3292 60.7829 18.868 61.1184 18.2615C61.5036 17.5649 61.5943 16.76 61.3742 15.9951C61.1538 15.2307 60.649 14.5967 59.9525 14.2113C59.2559 13.8262 58.4509 13.7352 57.6859 13.9555C57.5886 13.9834 57.493 14.0163 57.3996 14.0537C56.9947 14.2161 56.63 14.4652 56.3323 14.7845C56.3139 14.8042 56.2922 14.8188 56.2687 14.8281C56.2071 14.8528 56.1339 14.8416 56.0822 14.7933C56.0109 14.7264 56.0067 14.6147 56.0735 14.543C56.4066 14.1858 56.8148 13.907 57.2676 13.7253C57.3722 13.6834 57.4791 13.6466 57.588 13.6153C58.4439 13.3689 59.3444 13.4706 60.1239 13.9016C60.9032 14.3326 61.4685 15.0406 61.7144 15.8971C61.9608 16.7529 61.8592 17.6534 61.4281 18.4328C61.0529 19.1114 60.4672 19.6273 59.7571 19.9121C59.6517 19.9543 59.5434 19.9916 59.4327 20.0235C57.7757 20.5003 56.0447 19.6296 55.4164 18.0623Z" fill="white"/>
<defs>
<linearGradient id="paint0_linear_238_1631" x1="56.831" y1="45.4534" x2="60.4041" y2="45.4534" gradientUnits="userSpaceOnUse">
<stop stop-color="#FEBBBA"/>
<stop offset="1" stop-color="#FF928E"/>
</linearGradient>
<linearGradient id="paint1_linear_238_1631" x1="60.3711" y1="31.0219" x2="64.1779" y2="31.0219" gradientUnits="userSpaceOnUse">
<stop stop-color="#FEBBBA"/>
<stop offset="1" stop-color="#FF928E"/>
</linearGradient>
</defs>
</svg>
