<svg width="82" height="42" viewBox="0 0 82 42" fill="none" xmlns="http://www.w3.org/2000/svg">
<path fill-rule="evenodd" clip-rule="evenodd" d="M25.2833 8.90204H19.3203V6.75479H5.96305V19.7783H19.3203V16.1607H11.6876V10.3724H25.2833V21.7077V22.4658C25.2833 24.1783 23.8951 25.5666 22.1825 25.5666H3.33931C1.49506 25.5666 0 24.0715 0 22.2272V21.7077V4.34302C0 2.47825 1.5117 0.966553 3.37647 0.966553H3.57783H22.1825C23.8951 0.966553 25.2833 2.35482 25.2833 4.06734V4.34302V8.90204ZM47.6772 0.966553H49.7732C51.721 0.966553 53.3 2.54559 53.3 4.49343V9.24774H47.6772V6.8121H34.3229V10.7091H50.02C51.8315 10.7091 53.3 12.1776 53.3 13.9891V14.119V22.8873C53.3 24.367 52.1005 25.5666 50.6208 25.5666H50.4886H47.6772H31.7458C30.0637 25.5666 28.7 24.2029 28.7 22.5208V22.4002V17.7725H31.5115H34.3229V19.9646H47.6772V16.3111H31.7458H31.3792C29.8996 16.3111 28.7 15.1116 28.7 13.6319V10.9527V6.8121V4.49343C28.7 2.54559 30.2791 0.966553 32.2269 0.966553H32.4486H47.6772ZM82.0001 0.966553H57.4001V6.75479H82.0001V0.966553ZM57.4001 10.1313H82.0001V15.9196H57.4001V10.1313ZM82.0001 19.7782H57.4001V25.5665H82.0001V19.7782Z" fill="#000018"/>
<path d="M4.60502 41.2157C4.11831 41.2157 3.67128 41.176 3.26392 41.0967C2.86186 41.0173 2.50212 40.9195 2.1847 40.8031C1.86728 40.6867 1.60276 40.5703 1.39115 40.4539L1.25625 39.1446C1.6636 39.3879 2.14238 39.6022 2.69257 39.7873C3.24805 39.9672 3.85115 40.0571 4.50186 40.0571C5.28483 40.0571 5.86412 39.9196 6.23973 39.6445C6.61534 39.3641 6.80315 38.9462 6.80315 38.3907V38.2637C6.80315 37.8987 6.72909 37.5998 6.58096 37.367C6.43283 37.1342 6.18154 36.9385 5.82708 36.7798C5.47792 36.6211 5.00179 36.4729 4.3987 36.3354C3.63689 36.1555 3.02586 35.9439 2.5656 35.7006C2.11063 35.4519 1.77999 35.1424 1.57367 34.7721C1.37263 34.4018 1.27212 33.9415 1.27212 33.3913V33.3199C1.27212 32.4893 1.54457 31.8492 2.08947 31.3995C2.63438 30.9446 3.45967 30.7171 4.56534 30.7171C5.29012 30.7171 5.90644 30.7911 6.41431 30.9393C6.92747 31.0874 7.34541 31.2514 7.66812 31.4313L7.78715 32.6375C7.41154 32.4153 6.97244 32.2275 6.46986 32.074C5.97257 31.9153 5.40121 31.836 4.75579 31.836C4.24263 31.836 3.82734 31.8968 3.50992 32.0185C3.1925 32.1402 2.96238 32.3148 2.81954 32.5422C2.6767 32.7697 2.60528 33.0448 2.60528 33.3675V33.3993C2.60528 33.7273 2.67405 34.0077 2.8116 34.2404C2.95444 34.4732 3.20044 34.6742 3.5496 34.8435C3.90405 35.0128 4.40663 35.1768 5.05734 35.3355C5.80328 35.5101 6.40109 35.7111 6.85076 35.9386C7.30044 36.1661 7.62579 36.4624 7.82683 36.8274C8.03315 37.1924 8.13631 37.6686 8.13631 38.2558V38.4224C8.13631 39.3377 7.84005 40.0333 7.24754 40.5095C6.66031 40.9803 5.77947 41.2157 4.60502 41.2157ZM14.3507 41.2237C13.0704 41.2237 12.097 40.8718 11.4304 40.1682C10.7638 39.4593 10.4305 38.4462 10.4305 37.1289V34.788C10.4305 33.476 10.7638 32.4682 11.4304 31.7646C12.097 31.0557 13.0704 30.7012 14.3507 30.7012C15.6309 30.7012 16.6043 31.0557 17.2709 31.7646C17.9375 32.4682 18.2708 33.476 18.2708 34.788V37.1289C18.2708 38.4462 17.9375 39.4593 17.2709 40.1682C16.6043 40.8718 15.6309 41.2237 14.3507 41.2237ZM14.3507 40.1206C15.2077 40.1206 15.8531 39.8667 16.2869 39.3588C16.7207 38.8457 16.9376 38.1209 16.9376 37.1845V34.7324C16.9376 33.796 16.7207 33.0739 16.2869 32.566C15.8531 32.0582 15.2077 31.8042 14.3507 31.8042C13.4989 31.8042 12.8561 32.0582 12.4223 32.566C11.9885 33.0739 11.7716 33.796 11.7716 34.7324V37.1845C11.7716 38.1209 11.9885 38.8457 12.4223 39.3588C12.8561 39.8667 13.4989 40.1206 14.3507 40.1206ZM22.4152 41.0332H21.0979V30.8917H22.4152V41.0332ZM21.8042 39.9143H27.1527V41.0332H21.8042V39.9143ZM32.8184 41.2237C31.5487 41.2237 30.6097 40.8983 30.0013 40.2476C29.3982 39.5916 29.0967 38.6393 29.0967 37.3908V30.8917H30.4139V37.4226C30.4139 38.2902 30.6044 38.9541 30.9853 39.4144C31.3662 39.8693 31.9772 40.0968 32.8184 40.0968C33.6648 40.0968 34.2759 39.8693 34.6515 39.4144C35.0324 38.9541 35.2228 38.2902 35.2228 37.4226V30.8917H36.5401V37.3908C36.5401 38.6393 36.2386 39.5916 35.6355 40.2476C35.0324 40.8983 34.0934 41.2237 32.8184 41.2237ZM42.0133 41.0332V31.1059H43.3306V41.0332H42.0133ZM38.974 31.9947V30.8917H46.3698V31.9947H38.974ZM50.2146 41.0332H48.8973V30.8917H50.2146V41.0332ZM56.9729 41.2237C55.6926 41.2237 54.7192 40.8718 54.0526 40.1682C53.3861 39.4593 53.0528 38.4462 53.0528 37.1289V34.788C53.0528 33.476 53.3861 32.4682 54.0526 31.7646C54.7192 31.0557 55.6926 30.7012 56.9729 30.7012C58.2531 30.7012 59.2266 31.0557 59.8931 31.7646C60.5597 32.4682 60.893 33.476 60.893 34.788V37.1289C60.893 38.4462 60.5597 39.4593 59.8931 40.1682C59.2266 40.8718 58.2531 41.2237 56.9729 41.2237ZM56.9729 40.1206C57.8299 40.1206 58.4753 39.8667 58.9091 39.3588C59.343 38.8457 59.5599 38.1209 59.5599 37.1845V34.7324C59.5599 33.796 59.343 33.0739 58.9091 32.566C58.4753 32.0582 57.8299 31.8042 56.9729 31.8042C56.1211 31.8042 55.4784 32.0582 55.0446 32.566C54.6108 33.0739 54.3939 33.796 54.3939 34.7324V37.1845C54.3939 38.1209 54.6108 38.8457 55.0446 39.3588C55.4784 39.8667 56.1211 40.1206 56.9729 40.1206ZM65.7199 30.8917L69.8384 39.6207H69.9336L69.8781 35.1927V30.8917H71.1636V41.0332H69.2115L65.0454 32.2328H64.9502L65.0057 36.8671V41.0332H63.7202V30.8917H65.7199ZM77.1806 41.2157C76.6939 41.2157 76.2469 41.176 75.8395 41.0967C75.4374 41.0173 75.0777 40.9195 74.7603 40.8031C74.4429 40.6867 74.1783 40.5703 73.9667 40.4539L73.8318 39.1446C74.2392 39.3879 74.7179 39.6022 75.2681 39.7873C75.8236 39.9672 76.4267 40.0571 77.0774 40.0571C77.8604 40.0571 78.4397 39.9196 78.8153 39.6445C79.1909 39.3641 79.3787 38.9462 79.3787 38.3907V38.2637C79.3787 37.8987 79.3047 37.5998 79.1565 37.367C79.0084 37.1342 78.7571 36.9385 78.4027 36.7798C78.0535 36.6211 77.5774 36.4729 76.9743 36.3354C76.2125 36.1555 75.6014 35.9439 75.1412 35.7006C74.6862 35.4519 74.3556 35.1424 74.1492 34.7721C73.9482 34.4018 73.8477 33.9415 73.8477 33.3913V33.3199C73.8477 32.4893 74.1201 31.8492 74.665 31.3995C75.2099 30.9446 76.0352 30.7171 77.1409 30.7171C77.8657 30.7171 78.482 30.7911 78.9899 30.9393C79.503 31.0874 79.921 31.2514 80.2437 31.4313L80.3627 32.6375C79.9871 32.4153 79.548 32.2275 79.0454 32.074C78.5481 31.9153 77.9768 31.836 77.3314 31.836C76.8182 31.836 76.4029 31.8968 76.0855 32.0185C75.7681 32.1402 75.5379 32.3148 75.3951 32.5422C75.2523 32.7697 75.1809 33.0448 75.1809 33.3675V33.3993C75.1809 33.7273 75.2496 34.0077 75.3872 34.2404C75.53 34.4732 75.776 34.6742 76.1252 34.8435C76.4796 35.0128 76.9822 35.1768 77.6329 35.3355C78.3789 35.5101 78.9767 35.7111 79.4263 35.9386C79.876 36.1661 80.2014 36.4624 80.4024 36.8274C80.6087 37.1924 80.7119 37.6686 80.7119 38.2558V38.4224C80.7119 39.3377 80.4156 40.0333 79.8231 40.5095C79.2359 40.9803 78.355 41.2157 77.1806 41.2157Z" fill="#000018"/>
</svg>
