<svg width="48" height="48" viewBox="0 0 48 48" fill="none" xmlns="http://www.w3.org/2000/svg">
<rect x="10.5" y="3" width="27" height="42" rx="4.5" stroke="#F545A6" stroke-width="3"/>
<path d="M20.8988 27.4983C20.5396 27.4905 20.1965 27.3481 19.9374 27.0993L17.3979 24.5597C17.1431 24.3046 17 23.9589 17 23.5983C17 23.2378 17.1431 22.892 17.3979 22.6369L20.1369 19.8979C20.392 19.6431 20.7378 19.5 21.0983 19.5C21.4589 19.5 21.8046 19.6431 22.0597 19.8979C22.1881 20.0229 22.2901 20.1724 22.3597 20.3376C22.4294 20.5027 22.4653 20.6801 22.4653 20.8593C22.4653 21.0385 22.4294 21.2159 22.3597 21.381C22.2901 21.5461 22.1881 21.6956 22.0597 21.8207L20.2458 23.6346L21.8239 25.1946C22.0755 25.455 22.2161 25.803 22.2161 26.1651C22.2161 26.5272 22.0755 26.8751 21.8239 27.1355C21.5687 27.3629 21.2406 27.4916 20.8988 27.4983Z" fill="#F545A6"/>
<path d="M27.3928 27.5346C27.0336 27.5268 26.6905 27.3844 26.4314 27.1355C26.1798 26.8751 26.0392 26.5272 26.0392 26.1651C26.0392 25.803 26.1798 25.455 26.4314 25.1946L28.0095 23.6346L26.1956 21.8207C26.0672 21.6956 25.9652 21.5461 25.8956 21.381C25.8259 21.2159 25.79 21.0385 25.79 20.8593C25.79 20.6801 25.8259 20.5027 25.8956 20.3376C25.9652 20.1724 26.0672 20.0229 26.1956 19.8979C26.4507 19.6431 26.7965 19.5 27.157 19.5C27.5175 19.5 27.8633 19.6431 28.1184 19.8979L30.8574 22.6369C31.1122 22.892 31.2553 23.2378 31.2553 23.5983C31.2553 23.9589 31.1122 24.3046 30.8574 24.5597L28.3179 27.0993C28.0736 27.3532 27.7442 27.5082 27.3928 27.5346Z" fill="#F545A6"/>
</svg>
