<svg width="48" height="48" viewBox="0 0 48 48" fill="none" xmlns="http://www.w3.org/2000/svg">
<path fill-rule="evenodd" clip-rule="evenodd" d="M18.8794 37.0768H18.6942C17.6492 37.0768 16.8053 37.9223 16.8053 38.9641V41.1127C16.8053 42.1545 17.6492 42.9984 18.6942 43H29.3074C30.3476 42.9984 31.1915 42.1545 31.1915 41.1127V38.9641C31.1915 37.9223 30.3476 37.0768 29.3074 37.0768H29.1237L32.1732 33.1375C32.9601 32.1194 33.1232 30.7483 32.5959 29.5718C31.2454 26.5619 28.0947 19.5557 26.231 15.4092C25.8352 14.5304 24.9644 13.9652 23.9985 13.9652C23.0375 13.9652 22.1619 14.5304 21.7661 15.4092C19.9025 19.5557 16.7582 26.5623 15.406 29.5718C14.8788 30.7482 15.0371 32.1194 15.8288 33.1375L18.8794 37.0768ZM29.3074 38.7662H18.6942C18.5834 38.7662 18.4931 38.8549 18.4931 38.9642V41.1127C18.4931 41.222 18.5834 41.3106 18.6942 41.3106H29.3074C29.4182 41.3106 29.5037 41.222 29.5037 41.1127V38.9642C29.5037 38.8549 29.4182 38.7662 29.3074 38.7662ZM24.8423 16.4824V23.9668C25.9775 24.3246 26.8008 25.387 26.8008 26.6395C26.8008 28.1864 25.5452 29.442 23.9983 29.442C22.4514 29.442 21.1958 28.1864 21.1958 26.6395C21.1958 25.3871 22.0191 24.3247 23.1544 23.9668V16.4824L16.9638 30.2717C16.6883 30.8718 16.7738 31.5732 17.1791 32.0941L21.0376 37.0769H26.964L30.8225 32.0941C31.2294 31.5732 31.3086 30.8718 31.0394 30.2717L24.8423 16.4824ZM21.0692 7.08843H12.0015C11.6532 6.08775 10.6985 5.36893 9.57904 5.36893C8.16513 5.36893 7.01407 6.51841 7.01407 7.93391C7.01407 9.3494 8.16513 10.4989 9.57904 10.4989C10.6984 10.4989 11.6532 9.77848 12.0015 8.7778H16.7419C11.5107 11.3618 7.84852 16.6501 7.58384 22.8108C6.57684 23.1559 5.84854 24.1138 5.84854 25.2396C5.84854 26.6551 6.99802 27.8046 8.41351 27.8046C9.83217 27.8046 10.9785 26.6551 10.9785 25.2396C10.9785 24.1249 10.266 23.1765 9.27326 22.8219C9.59468 15.9912 14.5726 10.3689 21.0959 9.06453C21.1688 9.50468 21.3809 9.9148 21.6976 10.2346C22.103 10.6399 22.6524 10.8679 23.2271 10.8679H24.774C25.344 10.8679 25.8981 10.6399 26.2987 10.2346C26.6217 9.91477 26.8323 9.50468 26.9067 9.06453C33.4301 10.3692 38.4064 15.9916 38.7229 22.8219C37.7302 23.1765 37.0177 24.1249 37.0177 25.2396C37.0177 26.6551 38.1688 27.8046 39.5827 27.8046C41.0029 27.8046 42.1476 26.6551 42.1476 25.2396C42.1476 24.1139 41.4257 23.1559 40.4171 22.8108C40.1527 16.6485 36.4904 11.3602 31.2607 8.7778H35.9994C36.3477 9.77848 37.2977 10.4989 38.4219 10.4989C39.8358 10.4989 40.9869 9.3494 40.9869 7.93391C40.9869 6.51841 39.8358 5.36893 38.4219 5.36893C37.2977 5.36893 36.3477 6.08775 35.9994 7.08843H26.9317C26.9159 6.54216 26.6895 6.02127 26.2984 5.63175C25.8978 5.22642 25.3436 5 24.7737 5H23.2268C22.652 5 22.1026 5.22641 21.6973 5.63175C21.311 6.02125 21.0846 6.54216 21.0687 7.08843H21.0692ZM23.9984 27.7538C23.3856 27.7538 22.8853 27.255 22.8853 26.6391C22.8853 26.0248 23.3856 25.5261 23.9984 25.5261C24.6158 25.5261 25.1114 26.0248 25.1114 26.6391C25.1114 27.255 24.6158 27.7538 23.9984 27.7538ZM39.5829 26.1151C39.1032 26.1151 38.7073 25.7224 38.7073 25.2395C38.7073 24.755 39.1032 24.3623 39.5829 24.3623C40.069 24.3623 40.4601 24.7549 40.4601 25.2395C40.4601 25.7224 40.069 26.1151 39.5829 26.1151ZM8.4138 26.1151C7.93247 26.1151 7.53662 25.7224 7.53662 25.2395C7.53662 24.755 7.93245 24.3623 8.4138 24.3623C8.89829 24.3623 9.28939 24.7549 9.28939 25.2395C9.28939 25.7224 8.89831 26.1151 8.4138 26.1151ZM25.2443 8.70488V7.16114C25.2443 7.03606 25.1968 6.91573 25.1066 6.82706C25.0163 6.73839 24.896 6.68773 24.7741 6.68773H23.2272C23.1005 6.68773 22.9802 6.73839 22.8947 6.82706C22.806 6.91573 22.7522 7.03606 22.7522 7.16114V8.70488C22.7522 8.83155 22.806 8.95189 22.8947 9.04055C22.9802 9.12921 23.1005 9.1783 23.2272 9.1783H24.7741C24.896 9.1783 25.0163 9.12921 25.1066 9.04055C25.1968 8.95188 25.2443 8.83155 25.2443 8.70488ZM38.4225 8.80938C37.9364 8.80938 37.5469 8.41672 37.5469 7.93379C37.5469 7.4493 37.9364 7.05661 38.4225 7.05661C38.9022 7.05661 39.298 7.44928 39.298 7.93379C39.298 8.4167 38.9022 8.80938 38.4225 8.80938ZM9.57912 8.80938C9.09463 8.80938 8.70353 8.41672 8.70353 7.93379C8.70353 7.4493 9.09461 7.05661 9.57912 7.05661C10.0652 7.05661 10.4563 7.44928 10.4563 7.93379C10.4563 8.4167 10.0652 8.80938 9.57912 8.80938Z" fill="#F5309C" stroke="#F5309C" stroke-width="0.405331"/>
</svg>
