<svg width="24" height="25" viewBox="0 0 24 25" fill="none" xmlns="http://www.w3.org/2000/svg">
<g clip-path="url(#clip0_399_284)">
<path d="M14.25 4.56665C15.5114 4.89883 16.6621 5.55985 17.5844 6.48222C18.5068 7.40458 19.1678 8.55523 19.5 9.81665" stroke="#000018" stroke-width="1.2" stroke-linecap="round" stroke-linejoin="round"/>
<path d="M13.5 7.56665C15.0488 7.98103 16.0856 9.0179 16.5 10.5667" stroke="#000018" stroke-width="1.2" stroke-linecap="round" stroke-linejoin="round"/>
<path d="M14.6616 14.4421C14.7654 14.373 14.8849 14.3309 15.0091 14.3196C15.1334 14.3083 15.2585 14.3282 15.3731 14.3774L19.7944 16.3584C19.9434 16.4221 20.0677 16.5323 20.1489 16.6726C20.23 16.8128 20.2635 16.9756 20.2444 17.1365C20.0987 18.225 19.5627 19.2235 18.736 19.9464C17.9093 20.6693 16.8482 21.0673 15.75 21.0665C12.3685 21.0665 9.12548 19.7232 6.73439 17.3321C4.3433 14.941 3 11.698 3 8.31651C2.99916 7.21832 3.3972 6.15721 4.12009 5.33051C4.84298 4.5038 5.84152 3.96778 6.93 3.82213C7.09091 3.80302 7.25368 3.83653 7.39395 3.91765C7.53422 3.99877 7.64444 4.12313 7.70813 4.27213L9.68906 8.69713C9.73774 8.81078 9.75756 8.93471 9.74676 9.05787C9.73596 9.18103 9.69489 9.29962 9.62719 9.40307L7.62375 11.7853C7.55269 11.8925 7.51066 12.0163 7.50179 12.1447C7.49291 12.273 7.51749 12.4015 7.57313 12.5174C8.34844 14.1046 9.98906 15.7256 11.5809 16.4934C11.6975 16.5488 11.8266 16.5728 11.9553 16.5631C12.084 16.5534 12.208 16.5103 12.315 16.4381L14.6616 14.4421Z" stroke="#000018" stroke-width="1.2" stroke-linecap="round" stroke-linejoin="round"/>
</g>
<defs>
<clipPath id="clip0_399_284">
<rect width="24" height="24" fill="white" transform="translate(0 0.0666504)"/>
</clipPath>
</defs>
</svg>
