<svg width="64" height="64" viewBox="0 0 64 64" fill="none" xmlns="http://www.w3.org/2000/svg">
<path d="M14.545 46.0185C14.545 47.5457 15.7672 48.7679 17.2945 48.7679H27.9409H27.9852H28.0295H38.7649C40.2478 48.681 41.3831 47.4588 41.3831 46.0185L41.3814 35.3721C41.3814 35.2851 41.3814 35.1982 41.3371 35.1539C41.2501 34.9357 41.032 34.8044 40.8138 34.8044H36.232C35.8399 34.8044 35.4905 35.0226 35.2723 35.3277C35.0541 35.6772 35.0541 36.0692 35.228 36.4186C35.4462 36.8107 35.5774 37.2914 35.5774 37.5965C35.5774 38.251 35.0541 38.7743 34.3996 38.7743C33.745 38.7743 33.2218 38.251 33.2218 37.5965C33.2218 37.247 33.353 36.8107 33.5712 36.3743C33.7451 36.0249 33.7024 35.6328 33.5269 35.2834C33.3087 34.934 32.9593 34.7601 32.5672 34.7601H28.5087V30.7902C29.0763 31.0527 29.6865 31.2266 30.2098 31.2266C31.4746 31.2266 32.4786 30.2226 32.4786 28.9578C32.4786 27.6931 31.4746 26.6891 30.2098 26.6891C29.6865 26.6891 29.0746 26.863 28.5087 27.1698V22.4994C28.5087 22.1943 28.2462 21.9318 27.9411 21.9318H17.2947C15.7674 21.9318 14.5452 23.1539 14.5452 24.6812V35.3276V35.3719L14.545 46.0185ZM27.4177 47.677H17.3369C16.4198 47.677 15.6783 46.9355 15.6783 46.0185L15.68 35.9393H19.7386C20.1306 35.9393 20.48 35.7212 20.6982 35.416C20.9164 35.0666 20.9164 34.6746 20.7425 34.3251C20.5244 33.9331 20.3931 33.4524 20.3931 33.1473C20.3931 32.4928 20.9164 31.9695 21.5709 31.9695C22.2255 31.9695 22.7488 32.4928 22.7488 33.1473C22.7488 33.4967 22.6175 33.9331 22.3993 34.3695C22.2255 34.7189 22.2255 35.1553 22.4437 35.4604C22.6618 35.7655 23.0113 35.9837 23.4033 35.9837H27.4618V39.9979C26.8942 39.7354 26.284 39.5615 25.7607 39.5615C24.496 39.5615 23.492 40.5655 23.492 41.8302C23.492 43.095 24.496 44.099 25.7607 44.099C26.284 44.099 26.896 43.9251 27.4618 43.6626V47.6768L27.4177 47.677ZM28.553 39.9538V35.8953H32.5672C32.2621 36.4629 32.1308 37.0731 32.1308 37.5964C32.1308 38.8611 33.1774 39.8651 34.3996 39.8651C35.6643 39.8651 36.6683 38.8185 36.6683 37.5964C36.6683 37.0731 36.4944 36.4611 36.1876 35.8953H40.2904V45.9761C40.2904 46.8489 39.5915 47.5903 38.7632 47.6347H28.5531V43.5761C28.5531 43.1841 28.3349 42.8347 28.0298 42.6165C27.6804 42.3983 27.2884 42.3983 26.9389 42.5722C26.5469 42.7903 26.0662 42.9216 25.7611 42.9216C25.1065 42.9216 24.5833 42.3983 24.5833 41.7438C24.5833 41.0892 25.1065 40.5659 25.7611 40.5659C26.1105 40.5659 26.5469 40.6972 26.9389 40.9154C27.2883 41.0892 27.6804 41.0892 28.0298 40.871C28.3349 40.7398 28.553 40.3459 28.553 39.9538ZM15.6803 24.7256C15.6803 23.8085 16.4217 23.067 17.3388 23.067H27.4197V27.2125C27.4197 27.3437 27.464 27.475 27.5509 27.5619C27.6378 27.7801 27.8134 27.954 28.0316 28.0852C28.3367 28.2591 28.7305 28.2165 29.0356 28.0852C29.4276 27.867 29.9083 27.7358 30.2134 27.7358C30.868 27.7358 31.3913 28.2591 31.3913 28.9136C31.3913 29.5682 30.868 30.0914 30.2134 30.0914C29.864 30.0914 29.4276 29.9602 29.0356 29.742C28.7305 29.5682 28.3367 29.5682 28.0316 29.742C27.7691 29.8733 27.5952 30.0914 27.5083 30.3522C27.464 30.3965 27.464 30.4392 27.464 30.4835V30.5278V30.5721V30.6164V34.7619H23.4498C23.7123 34.1943 23.8862 33.5841 23.8862 33.0608C23.8862 31.796 22.8822 30.792 21.6174 30.792C20.3527 30.792 19.3487 31.796 19.3487 33.0608C19.3487 33.5841 19.5226 34.196 19.8294 34.7619H15.7709L15.7674 24.7255L15.6803 24.7256Z" fill="#F545A6" stroke="#F545A6" stroke-width="0.872727"/>
<path d="M33.2224 25.5985C33.2667 25.5985 33.2667 25.6428 33.2667 25.6854C33.5292 25.9479 33.877 26.0348 34.1838 25.9905C34.5332 25.9462 34.8384 25.728 35.0122 25.4229C35.2304 25.0309 35.5355 24.6814 35.8406 24.5058C36.1031 24.332 36.4082 24.2877 36.7133 24.332C37.0184 24.3763 37.2809 24.5502 37.4548 24.8127C37.8042 25.336 37.673 26.0774 37.1054 26.4269C36.8429 26.6007 36.3639 26.7763 35.9275 26.8189C35.5781 26.8632 35.273 27.0371 35.0991 27.3422C34.9253 27.6473 34.8809 27.9967 35.0122 28.3462C35.0122 28.3905 35.0565 28.3905 35.0991 28.4331L37.673 32.3604C37.8468 32.6229 38.1963 32.7098 38.4588 32.5343L42.2991 30.003C42.3434 30.6132 42.5616 31.2252 42.8668 31.6615C43.2162 32.1848 43.6951 32.5343 44.3071 32.6212C44.481 32.6655 44.6122 32.6655 44.7878 32.6655C45.2242 32.6655 45.6605 32.5342 46.0526 32.2734C47.0991 31.5746 47.406 30.1786 46.7071 29.0876C46.4446 28.6513 45.9656 28.2149 45.398 27.9098L49.2384 25.3786C49.5009 25.2047 49.5878 24.8553 49.4122 24.5928L43.5196 15.7804C42.6912 14.5156 40.9457 14.1662 39.6792 14.9946L30.7783 20.841C30.5158 21.0149 30.4288 21.3643 30.6044 21.6268L33.2224 25.5985ZM40.2911 15.9099C41.0325 15.4292 42.0809 15.6048 42.5598 16.3906L48.1012 24.8128L44.7416 27.039C44.3921 27.2572 44.2183 27.6066 44.2183 27.9986C44.2183 28.3907 44.4364 28.7401 44.7859 28.9157C45.1779 29.1339 45.5274 29.439 45.7029 29.7441C45.8768 30.0066 45.9211 30.3117 45.8768 30.6168C45.8325 30.9219 45.6586 31.1845 45.3961 31.3583C45.1336 31.5322 44.8285 31.5765 44.5234 31.5322C44.2183 31.4878 43.9558 31.314 43.7819 31.0515C43.6081 30.7464 43.4325 30.31 43.3899 29.8736C43.3456 29.4816 43.0848 29.1322 42.7353 29.0009C42.3859 28.827 41.9939 28.8697 41.6444 29.0878L38.2848 31.314L36.0586 27.9543C36.6688 27.8674 37.2808 27.6918 37.7171 27.3867C38.2404 27.0373 38.5899 26.5583 38.6768 25.9464C38.7637 25.3362 38.6768 24.7242 38.3717 24.2452C38.0223 23.722 37.5433 23.3725 36.9313 23.2856C36.3211 23.1543 35.7092 23.2856 35.2302 23.5907C34.7938 23.8532 34.3575 24.3322 34.095 24.8998L31.8688 21.5402L40.2911 15.9099Z" fill="#F545A6" stroke="#F545A6" stroke-width="0.872727"/>
</svg>
