<svg width="450" height="450" viewBox="0 0 450 450" fill="none" xmlns="http://www.w3.org/2000/svg">
<g clip-path="url(#clip0_412_40889)">
<path opacity="0.5" d="M370.702 277.7C337.565 355.156 250.091 388.425 181.554 382.753C162.841 381.204 125.19 378.088 95.7908 350.287C39.3327 296.896 48.0277 185.294 102.074 119.59C109.034 111.128 157.211 54.4375 232.286 55.1962C287.251 55.7519 325.831 86.801 330.522 90.6692C336.448 95.5556 349.519 107.168 361.299 125.589C388.977 168.873 391.41 229.298 370.702 277.7Z" fill="#DEDAFF"/>
<g opacity="0.64">
<path d="M291.616 123.17C291.219 123.17 290.852 122.91 290.735 122.51C290.595 122.033 290.461 121.552 290.335 121.069C290.206 120.579 290.5 120.077 290.99 119.949C291.478 119.82 291.982 120.114 292.111 120.605C292.233 121.07 292.361 121.533 292.497 121.993C292.64 122.479 292.361 122.99 291.874 123.132C291.788 123.158 291.701 123.17 291.616 123.17Z" fill="#6449FF"/>
<path d="M290.213 116.991C289.771 116.991 289.381 116.67 289.308 116.219C289.146 115.218 289.012 114.2 288.909 113.192C288.858 112.688 289.226 112.238 289.73 112.186C290.237 112.133 290.685 112.503 290.736 113.007C290.835 113.978 290.964 114.96 291.121 115.925C291.202 116.426 290.862 116.897 290.361 116.979C290.311 116.987 290.262 116.991 290.213 116.991ZM289.561 109.153C289.056 109.153 288.646 108.746 288.642 108.241L288.641 107.909C288.641 107.011 288.665 106.097 288.711 105.191C288.738 104.684 289.161 104.291 289.675 104.321C290.182 104.347 290.571 104.778 290.545 105.285C290.5 106.16 290.477 107.043 290.477 107.909L290.479 108.229C290.482 108.736 290.074 109.15 289.567 109.153C289.565 109.153 289.562 109.153 289.561 109.153ZM290.108 101.31C290.064 101.31 290.019 101.307 289.974 101.3C289.472 101.227 289.125 100.76 289.199 100.259C289.346 99.2543 289.524 98.2433 289.729 97.254C289.832 96.7573 290.319 96.4392 290.814 96.541C291.311 96.644 291.63 97.1296 291.527 97.6262C291.33 98.5807 291.158 99.556 291.016 100.525C290.949 100.981 290.556 101.31 290.108 101.31ZM291.841 93.6419C291.751 93.6419 291.66 93.6286 291.57 93.6008C291.085 93.4512 290.814 92.937 290.964 92.4525C291.262 91.4869 291.594 90.5152 291.95 89.5649C292.129 89.0896 292.658 88.8501 293.132 89.0272C293.607 89.2053 293.847 89.7343 293.67 90.209C293.326 91.1259 293.006 92.0632 292.718 92.9947C292.596 93.3889 292.233 93.6419 291.841 93.6419ZM294.736 86.3325C294.601 86.3325 294.463 86.3023 294.333 86.2389C293.878 86.0162 293.689 85.4664 293.912 85.0109C294.357 84.1002 294.836 83.1904 295.335 82.3066C295.584 81.8647 296.143 81.7087 296.586 81.9582C297.027 82.2073 297.183 82.7672 296.934 83.2089C296.453 84.0614 295.991 84.9392 295.562 85.8174C295.402 86.1434 295.076 86.3325 294.736 86.3325ZM298.728 79.5534C298.547 79.5534 298.364 79.4998 298.204 79.3881C297.788 79.098 297.686 78.5256 297.976 78.11C298.557 77.2775 299.17 76.4527 299.797 75.6583C300.111 75.2605 300.687 75.1921 301.086 75.5065C301.484 75.8206 301.552 76.398 301.238 76.7958C300.633 77.5623 300.042 78.3578 299.482 79.1608C299.304 79.4166 299.018 79.5534 298.728 79.5534ZM303.713 73.4688C303.485 73.4688 303.256 73.3844 303.078 73.2144C302.712 72.864 302.699 72.2828 303.049 71.9163C303.75 71.1833 304.481 70.4621 305.222 69.7728C305.594 69.4272 306.174 69.4488 306.52 69.8197C306.865 70.1911 306.844 70.772 306.473 71.1172C305.758 71.7821 305.053 72.4779 304.376 73.185C304.196 73.3739 303.954 73.4688 303.713 73.4688ZM309.567 68.2179C309.292 68.2179 309.019 68.0944 308.838 67.8588C308.529 67.4566 308.605 66.8803 309.007 66.5715C309.811 65.9547 310.643 65.3536 311.48 64.7855C311.899 64.5007 312.471 64.6097 312.755 65.0293C313.04 65.4489 312.931 66.0198 312.511 66.3046C311.704 66.8528 310.901 67.4327 310.126 68.0281C309.959 68.1561 309.762 68.2179 309.567 68.2179ZM316.152 63.9222C315.827 63.9222 315.513 63.7497 315.346 63.445C315.103 63.0003 315.265 62.4423 315.71 62.1988C316.597 61.7127 317.511 61.2466 318.426 60.8128C318.884 60.5951 319.431 60.791 319.648 61.2489C319.866 61.707 319.67 62.2546 319.212 62.4717C318.33 62.8902 317.448 63.3403 316.592 63.809C316.452 63.8858 316.301 63.9222 316.152 63.9222ZM364.373 63.4745C364.23 63.4745 364.084 63.4408 363.948 63.3696C363.083 62.9164 362.192 62.4829 361.3 62.0811C360.838 61.8727 360.632 61.329 360.841 60.8668C361.049 60.4043 361.593 60.1987 362.055 60.407C362.979 60.8237 363.903 61.2732 364.8 61.7428C365.249 61.978 365.422 62.533 365.187 62.9821C365.023 63.2954 364.704 63.4745 364.373 63.4745ZM323.314 60.6873C322.938 60.6873 322.586 60.4551 322.451 60.0812C322.278 59.6044 322.525 59.0781 323.001 58.9056C323.953 58.5614 324.927 58.2413 325.896 57.9544C326.38 57.8101 326.893 58.0876 327.037 58.5738C327.181 59.06 326.904 59.5709 326.418 59.7149C325.484 59.9918 324.544 60.3003 323.626 60.6323C323.523 60.6698 323.417 60.6873 323.314 60.6873ZM357.145 60.3764C357.047 60.3764 356.948 60.3606 356.85 60.3274C355.924 60.0129 354.977 59.7223 354.035 59.4633C353.546 59.3288 353.259 58.8235 353.393 58.3348C353.527 57.8463 354.031 57.5585 354.522 57.6929C355.498 57.9613 356.48 58.263 357.44 58.5889C357.92 58.752 358.177 59.2733 358.014 59.7535C357.884 60.1356 357.528 60.3764 357.145 60.3764ZM330.886 58.5951C330.455 58.5951 330.071 58.2906 329.986 57.852C329.889 57.3542 330.215 56.8722 330.712 56.7757C331.708 56.5822 332.721 56.4161 333.724 56.2822C334.224 56.2141 334.688 56.568 334.755 57.0706C334.822 57.5733 334.469 58.0349 333.967 58.1023C333 58.2313 332.023 58.3914 331.062 58.5781C331.003 58.5896 330.944 58.5951 330.886 58.5951ZM349.526 58.4307C349.473 58.4307 349.42 58.4262 349.367 58.4169C348.404 58.2489 347.423 58.107 346.452 57.9952C345.949 57.9373 345.587 57.482 345.645 56.9783C345.703 56.4746 346.159 56.1128 346.662 56.1713C347.669 56.2869 348.685 56.434 349.683 56.608C350.182 56.6951 350.516 57.1708 350.429 57.6703C350.351 58.1163 349.964 58.4307 349.526 58.4307ZM338.697 57.6963C338.206 57.6963 337.799 57.3075 337.78 56.8124C337.761 56.3058 338.157 55.8797 338.663 55.8609C339.671 55.823 340.695 55.8144 341.714 55.8354C342.221 55.8458 342.624 56.2651 342.613 56.7721C342.603 57.2792 342.168 57.6909 341.677 57.6712C340.692 57.6509 339.705 57.6593 338.732 57.6956C338.72 57.696 338.709 57.6963 338.697 57.6963Z" fill="#6449FF"/>
<path d="M369.822 66.7797C369.641 66.7797 369.458 66.7265 369.298 66.6154C368.905 66.3414 368.506 66.0727 368.104 65.8097C367.679 65.5326 367.56 64.9636 367.837 64.5392C368.115 64.1145 368.683 63.9955 369.108 64.2723C369.525 64.5451 369.938 64.8237 370.347 65.1082C370.763 65.3978 370.866 65.97 370.576 66.3861C370.398 66.6423 370.112 66.7797 369.822 66.7797Z" fill="#6449FF"/>
</g>
<g opacity="0.64">
<path d="M391.042 100.02C390.603 100.02 390.215 99.7052 390.138 99.2583C390.056 98.7838 389.967 98.3117 389.872 97.8416C389.771 97.3446 390.092 96.8601 390.589 96.7591C391.083 96.6599 391.57 96.9794 391.671 97.4762C391.77 97.9637 391.862 98.4536 391.947 98.9457C392.034 99.4453 391.699 99.9202 391.199 100.007C391.146 100.016 391.094 100.02 391.042 100.02Z" fill="#6449FF"/>
<path d="M339.775 159.881C339.769 159.881 339.764 159.881 339.758 159.881C338.869 159.864 337.969 159.825 337.083 159.763L336.757 159.74C336.251 159.702 335.872 159.261 335.911 158.755C335.949 158.25 336.399 157.872 336.895 157.909L337.21 157.932C338.065 157.991 338.934 158.029 339.791 158.045C340.298 158.054 340.702 158.473 340.693 158.98C340.683 159.481 340.274 159.881 339.775 159.881ZM344.565 159.746C344.089 159.746 343.686 159.379 343.65 158.897C343.612 158.391 343.991 157.95 344.497 157.912C345.457 157.84 346.426 157.739 347.378 157.612C347.879 157.544 348.343 157.898 348.409 158.4C348.477 158.903 348.124 159.365 347.621 159.432C346.634 159.564 345.629 159.669 344.634 159.743C344.611 159.745 344.588 159.746 344.565 159.746ZM332.069 159.162C332.018 159.162 331.966 159.157 331.914 159.148C330.928 158.981 329.937 158.784 328.968 158.561C328.474 158.447 328.165 157.955 328.278 157.461C328.392 156.966 328.885 156.657 329.379 156.772C330.314 156.986 331.27 157.177 332.221 157.338C332.721 157.423 333.057 157.897 332.973 158.397C332.897 158.845 332.508 159.162 332.069 159.162ZM352.214 158.582C351.796 158.582 351.419 158.295 351.32 157.871C351.206 157.377 351.514 156.883 352.008 156.769C352.945 156.552 353.888 156.305 354.809 156.035C355.295 155.891 355.806 156.17 355.949 156.657C356.092 157.143 355.813 157.654 355.327 157.796C354.371 158.077 353.394 158.333 352.422 158.558C352.352 158.574 352.283 158.582 352.214 158.582ZM324.557 157.293C324.461 157.293 324.364 157.278 324.268 157.246C323.321 156.932 322.371 156.587 321.444 156.218C320.973 156.031 320.743 155.497 320.93 155.026C321.117 154.555 321.65 154.324 322.123 154.512C323.016 154.867 323.932 155.201 324.845 155.503C325.327 155.663 325.588 156.182 325.428 156.663C325.3 157.049 324.942 157.293 324.557 157.293ZM359.598 156.268C359.234 156.268 358.889 156.049 358.746 155.69C358.557 155.219 358.787 154.685 359.258 154.497C360.149 154.141 361.042 153.754 361.913 153.347C362.373 153.132 362.919 153.33 363.133 153.789C363.348 154.249 363.15 154.795 362.691 155.01C361.789 155.432 360.863 155.833 359.938 156.202C359.827 156.247 359.712 156.268 359.598 156.268ZM317.417 154.305C317.276 154.305 317.134 154.272 316.999 154.204C316.111 153.75 315.225 153.264 314.366 152.759C313.928 152.503 313.782 151.94 314.038 151.503C314.296 151.065 314.859 150.919 315.295 151.175C316.124 151.662 316.979 152.131 317.836 152.569C318.287 152.8 318.466 153.353 318.235 153.804C318.072 154.122 317.751 154.305 317.417 154.305ZM366.543 152.864C366.229 152.864 365.922 152.702 365.751 152.411C365.494 151.973 365.64 151.411 366.077 151.154C366.907 150.666 367.732 150.148 368.53 149.615C368.952 149.333 369.522 149.447 369.804 149.868C370.085 150.29 369.972 150.86 369.55 151.142C368.724 151.694 367.868 152.231 367.008 152.737C366.862 152.823 366.701 152.864 366.543 152.864ZM372.898 148.451C372.631 148.451 372.366 148.335 372.185 148.112C371.865 147.718 371.924 147.14 372.318 146.82C373.065 146.213 373.804 145.577 374.514 144.929C374.888 144.587 375.469 144.614 375.811 144.989C376.152 145.363 376.126 145.944 375.751 146.286C375.016 146.957 374.25 147.616 373.476 148.245C373.306 148.384 373.101 148.451 372.898 148.451ZM378.519 143.133C378.298 143.133 378.077 143.054 377.901 142.894C377.526 142.553 377.499 141.972 377.84 141.597C378.486 140.886 379.121 140.146 379.727 139.398C380.045 139.004 380.623 138.942 381.018 139.261C381.412 139.58 381.473 140.158 381.154 140.552C380.527 141.328 379.868 142.096 379.198 142.833C379.017 143.032 378.768 143.133 378.519 143.133ZM383.277 137.03C383.102 137.03 382.925 136.98 382.769 136.876C382.347 136.596 382.232 136.026 382.513 135.603C383.045 134.803 383.561 133.975 384.047 133.143C384.303 132.705 384.866 132.558 385.303 132.813C385.741 133.069 385.889 133.631 385.633 134.069C385.129 134.931 384.594 135.79 384.042 136.62C383.865 136.886 383.574 137.03 383.277 137.03ZM387.059 130.276C386.93 130.276 386.799 130.248 386.674 130.19C386.214 129.977 386.014 129.431 386.227 128.971C386.632 128.098 387.016 127.201 387.37 126.304C387.557 125.833 388.092 125.602 388.561 125.788C389.033 125.974 389.264 126.507 389.078 126.979C388.711 127.908 388.312 128.838 387.893 129.743C387.737 130.079 387.405 130.276 387.059 130.276ZM389.771 123.024C389.687 123.024 389.601 123.012 389.516 122.988C389.029 122.847 388.748 122.338 388.889 121.851C389.156 120.927 389.399 119.983 389.613 119.046C389.725 118.551 390.217 118.241 390.712 118.354C391.206 118.467 391.516 118.959 391.403 119.453C391.182 120.424 390.93 121.403 390.653 122.361C390.537 122.763 390.17 123.024 389.771 123.024ZM391.351 115.45C391.312 115.45 391.272 115.448 391.231 115.442C390.729 115.377 390.374 114.916 390.44 114.413C390.565 113.46 390.664 112.49 390.734 111.53C390.771 111.025 391.212 110.64 391.716 110.682C392.222 110.719 392.602 111.159 392.565 111.665C392.492 112.659 392.39 113.663 392.261 114.651C392.2 115.114 391.805 115.45 391.351 115.45ZM391.778 107.724C391.279 107.724 390.87 107.324 390.86 106.823C390.842 105.862 390.795 104.888 390.721 103.929C390.682 103.424 391.06 102.982 391.566 102.943C392.074 102.906 392.513 103.282 392.552 103.788C392.628 104.782 392.677 105.792 392.697 106.788C392.706 107.295 392.303 107.714 391.796 107.724C391.79 107.724 391.784 107.724 391.778 107.724Z" fill="#6449FF"/>
<path d="M310.788 150.249C310.602 150.249 310.414 150.193 310.252 150.075C309.847 149.783 309.448 149.486 309.053 149.183C308.65 148.875 308.574 148.299 308.883 147.896C309.191 147.494 309.767 147.417 310.17 147.726C310.551 148.018 310.937 148.305 311.327 148.587C311.737 148.884 311.83 149.458 311.533 149.869C311.354 150.117 311.073 150.249 310.788 150.249Z" fill="#6449FF"/>
</g>
<path d="M313.073 135.785C313.238 135.988 313.514 136.063 313.76 135.973L320.767 133.396C323.53 135.523 326.652 137.226 330.045 138.392L331.754 145.655C331.814 145.91 332.029 146.099 332.29 146.125L341.2 147.028C341.46 147.054 341.709 146.912 341.819 146.675L344.95 139.902C348.508 139.44 351.908 138.398 355.041 136.868L361.389 140.798C361.612 140.935 361.897 140.917 362.1 140.751L369.039 135.089C369.242 134.923 369.317 134.647 369.227 134.402L366.65 127.394C368.777 124.632 370.48 121.51 371.646 118.117L378.91 116.407C379.164 116.348 379.353 116.133 379.379 115.872L380.282 106.962C380.308 106.701 380.167 106.453 379.929 106.343L373.156 103.212C372.694 99.6536 371.652 96.254 370.122 93.121L374.052 86.7723C374.189 86.5499 374.171 86.2645 374.005 86.0617L368.343 79.123C368.178 78.92 367.902 78.8447 367.656 78.9351L360.648 81.5121C357.886 79.3843 354.764 77.682 351.371 76.5157L349.661 69.2523C349.602 68.9976 349.387 68.8088 349.126 68.7825L340.216 67.88C339.955 67.8535 339.707 67.9953 339.597 68.233L336.466 75.006C332.908 75.468 329.508 76.5098 326.375 78.0404L320.027 74.1105C319.804 73.9726 319.518 73.9914 319.316 74.1568L312.377 79.8192C312.174 79.9846 312.099 80.2604 312.189 80.5062L314.766 87.5138C312.638 90.2763 310.936 93.3981 309.77 96.7916L302.506 98.5007C302.252 98.5605 302.063 98.7756 302.037 99.036L301.134 107.946C301.108 108.207 301.249 108.455 301.487 108.565L308.26 111.696C308.722 115.254 309.764 118.654 311.294 121.787L307.364 128.136C307.227 128.358 307.245 128.644 307.411 128.846L313.073 135.785Z" fill="#6449FF"/>
<path d="M340.69 116.142C338.837 116.142 337.041 115.551 335.527 114.426C333.664 113.042 332.452 111.016 332.114 108.72C331.775 106.425 332.351 104.135 333.735 102.272C335.12 100.41 337.146 99.1979 339.441 98.8597C344.183 98.1616 348.603 101.449 349.302 106.187C350 110.926 346.713 115.349 341.975 116.048C341.545 116.111 341.116 116.142 340.69 116.142ZM340.713 100.235C340.364 100.235 340.011 100.261 339.656 100.313C337.748 100.594 336.065 101.601 334.915 103.149C333.764 104.696 333.286 106.599 333.567 108.506C333.848 110.413 334.855 112.097 336.403 113.247C337.95 114.397 339.851 114.875 341.76 114.595C345.698 114.014 348.429 110.339 347.849 106.401C347.321 102.819 344.231 100.235 340.713 100.235Z" fill="white"/>
<path d="M340.861 129.301C340.123 129.301 339.38 129.263 338.63 129.188C337.518 129.075 336.417 128.879 335.34 128.602C335.331 128.6 335.322 128.597 335.314 128.595C335.266 128.583 335.219 128.57 335.172 128.558C335.166 128.556 335.159 128.554 335.153 128.553C335.153 128.553 335.153 128.553 335.152 128.553C335.146 128.551 335.14 128.549 335.134 128.547C335.112 128.542 335.089 128.535 335.066 128.529C335.063 128.528 335.059 128.527 335.056 128.527C335.047 128.524 335.038 128.522 335.029 128.519C335.026 128.518 335.023 128.518 335.02 128.517C334.951 128.498 334.883 128.479 334.815 128.46C334.791 128.453 334.767 128.446 334.743 128.439C334.595 128.397 334.448 128.352 334.302 128.307C334.218 128.281 334.134 128.254 334.05 128.227C333.895 128.177 333.796 128.033 333.796 127.878C333.796 127.841 333.802 127.802 333.814 127.765C333.876 127.572 334.083 127.466 334.277 127.528C335.706 127.991 337.195 128.304 338.704 128.456C344.349 129.029 349.88 127.367 354.275 123.78C358.672 120.192 361.408 115.108 361.98 109.462C362.053 108.737 362.089 108.016 362.089 107.302C362.087 96.5442 353.914 87.2933 342.986 86.1862C337.34 85.6149 331.81 87.2753 327.414 90.8627C323.018 94.4503 320.281 99.535 319.71 105.18C319.637 105.899 319.601 106.618 319.601 107.336C319.602 110.445 320.282 113.519 321.605 116.336C321.629 116.387 321.64 116.44 321.64 116.492C321.64 116.63 321.562 116.762 321.429 116.825C321.246 116.911 321.026 116.832 320.941 116.649C319.572 113.734 318.867 110.553 318.867 107.336C318.866 106.594 318.904 105.85 318.979 105.107C319.571 99.266 322.401 94.0053 326.95 90.2939C331.498 86.5821 337.222 84.8644 343.059 85.4556C354.366 86.6009 362.822 96.1719 362.823 107.301C362.823 108.04 362.787 108.786 362.711 109.536C361.565 120.844 351.992 129.301 340.861 129.301Z" fill="white"/>
<g opacity="0.9">
<path d="M69.4704 67.1772C62.5516 103.175 29.0217 312.89 179.64 345.446C179.64 345.446 229.936 206.878 73.5821 64.6651C72.2143 63.421 69.9225 64.8256 69.4704 67.1772Z" fill="#A99AFF"/>
<path opacity="0.45" d="M81.6988 96.5397C83.1863 106.829 84.8612 117.101 86.6159 127.353C88.3754 137.605 90.2397 147.84 92.2093 158.053C96.1397 178.482 100.512 198.826 105.416 219.037C107.895 229.136 110.502 239.203 113.289 249.218C116.111 259.224 119.108 269.177 122.348 279.049C125.631 288.906 129.18 298.673 133.137 308.264C137.109 317.844 141.474 327.28 146.702 336.204C146.986 336.687 146.825 337.308 146.342 337.592C145.86 337.876 145.239 337.715 144.955 337.232L144.952 337.226C139.698 328.159 135.349 318.635 131.398 308.981C127.463 299.316 123.947 289.494 120.7 279.591C117.496 269.673 114.538 259.681 111.758 249.643C109.013 239.595 106.449 229.5 104.014 219.376C99.1976 199.114 94.9168 178.732 91.0789 158.269C89.1556 148.038 87.3381 137.788 85.6254 127.52C83.9173 117.251 82.2904 106.972 80.8484 96.6569C80.8157 96.422 80.9793 96.205 81.2141 96.1723C81.4489 96.1394 81.6658 96.3033 81.6987 96.538L81.6988 96.5397Z" fill="#D4CDFF"/>
</g>
<path d="M128.571 59.4156L315.57 61.4748C325.907 61.5885 334.014 70.5074 334.007 81.7129L333.841 358.911C333.836 366.665 327.558 373.097 319.985 373.131L119.504 374.015C112.43 374.047 106.627 368.13 106.627 360.867V83.059C106.627 69.897 116.451 59.282 128.571 59.4156Z" fill="#000018"/>
<path d="M299.979 85.9887H142.793C136.202 85.9887 130.907 91.4211 130.907 97.8421V326.616C130.907 333.037 136.202 338.015 142.793 338.015H299.979C306.57 338.015 311.963 333.037 311.963 326.616V97.8421C311.963 91.4211 306.57 85.9887 299.979 85.9887Z" fill="#DEDAFF"/>
<path opacity="0.37" d="M244.294 333.161H198.584C196.674 333.161 195.126 331.613 195.126 329.703V283.993C195.126 282.083 196.674 280.534 198.584 280.534H244.294C246.204 280.534 247.753 282.083 247.753 283.993V329.703C247.753 331.613 246.204 333.161 244.294 333.161Z" fill="white"/>
<path d="M229.226 295.943C229.226 300.22 225.758 304.838 221.481 304.838C217.203 304.838 213.736 300.22 213.736 295.943C213.736 291.666 217.203 288.631 221.481 288.631C225.758 288.631 229.226 291.666 229.226 295.943Z" fill="#6449FF"/>
<path d="M211.869 321.307H230.776C232.766 321.307 234.528 320.02 235.135 318.125L236.152 314.945C236.897 312.617 235.686 310.096 233.39 309.256C225.696 306.443 217.74 306.804 209.589 309.516C207.306 310.276 206.039 312.718 206.669 315.04L207.452 317.928C207.993 319.922 209.803 321.307 211.869 321.307Z" fill="#6449FF"/>
<path opacity="0.53" d="M294.638 124H148.362C147.057 124 146 122.347 146 120.308V102.692C146 100.653 147.057 99 148.362 99H294.638C295.943 99 297 100.653 297 102.692V120.308C297 122.347 295.943 124 294.638 124Z" fill="white"/>
<path d="M294.261 110.586C294.786 106.392 291.874 102.574 287.756 102.058C283.638 101.542 279.874 104.523 279.348 108.717C279.074 110.908 279.739 112.996 281.023 114.564L273.357 120.462C272.873 120.852 272.823 121.572 273.249 122.025L273.319 122.099C273.696 122.5 274.327 122.517 274.725 122.137L281.69 115.278C282.8 116.326 284.232 117.041 285.853 117.244C289.971 117.761 293.735 114.779 294.261 110.586ZM286.107 115.213C283.091 114.835 280.958 112.039 281.343 108.967C281.728 105.895 284.485 103.711 287.502 104.089C290.518 104.467 292.651 107.264 292.266 110.336C291.881 113.408 289.124 115.591 286.107 115.213Z" fill="url(#paint0_linear_412_40889)"/>
<path opacity="0.37" d="M303.392 261.387H256.888C254.978 261.387 253.43 259.839 253.43 257.929V211.425C253.43 209.515 254.978 207.967 256.888 207.967H303.392C305.302 207.967 306.85 209.515 306.85 211.425V257.929C306.85 259.839 305.302 261.387 303.392 261.387Z" fill="white"/>
<path d="M269.608 221.889H263.276C263.197 221.889 263.132 221.824 263.132 221.745V218.808C263.132 218.729 263.197 218.664 263.276 218.664H269.608C269.688 218.664 269.752 218.729 269.752 218.808V221.745C269.752 221.824 269.688 221.889 269.608 221.889Z" fill="#6449FF"/>
<path d="M283.077 218.24H277.9L276.627 221.889H284.18L283.077 218.24ZM278.623 219.021H282.305L283.09 221.617H277.717L278.623 219.021Z" fill="#6449FF"/>
<path d="M299.259 247.294H260.615C260.536 247.294 260.473 247.23 260.473 247.152V220.956C260.473 220.877 260.536 220.814 260.615 220.814H299.259C299.337 220.814 299.401 220.877 299.401 220.956V247.152C299.401 247.23 299.337 247.294 299.259 247.294Z" fill="#6449FF"/>
<path d="M287.204 235.821C288.166 231.746 285.643 227.662 281.568 226.7C277.493 225.738 273.409 228.261 272.447 232.336C271.485 236.411 274.008 240.495 278.083 241.457C282.158 242.42 286.242 239.896 287.204 235.821Z" fill="white"/>
<path d="M279.937 240.334C283.406 240.334 286.217 237.522 286.217 234.054C286.217 230.585 283.406 227.773 279.937 227.773C276.468 227.773 273.656 230.585 273.656 234.054C273.656 237.522 276.468 240.334 279.937 240.334Z" fill="#000018"/>
<path d="M268.01 224.605H263.178C263.153 224.605 263.133 224.584 263.133 224.559V223.632C263.133 223.607 263.153 223.587 263.178 223.587H268.01C268.035 223.587 268.055 223.607 268.055 223.632V224.559C268.055 224.584 268.035 224.605 268.01 224.605Z" fill="white"/>
<path d="M295.932 224.096H291.101C291.076 224.096 291.055 224.075 291.055 224.05V223.123C291.055 223.098 291.076 223.077 291.101 223.077H295.932C295.957 223.077 295.978 223.098 295.978 223.123V224.05C295.978 224.075 295.957 224.096 295.932 224.096Z" fill="white"/>
<path opacity="0.37" d="M185.86 332.761H141.299C139.389 332.761 137.84 331.213 137.84 329.303V284.741C137.84 282.831 139.389 281.283 141.299 281.283H185.86C187.77 281.283 189.319 282.831 189.319 284.741V329.303C189.319 331.213 187.77 332.761 185.86 332.761Z" fill="white"/>
<path d="M150.747 299.405C152.694 313.525 159.903 320.142 169.662 323.124L175.296 318.596C165.034 314.444 157.829 307.065 154.772 295.308L150.747 299.405Z" fill="#6449FF"/>
<path d="M169.32 323.016C175.261 323.991 175.968 324.048 180.828 320.825C181.373 320.464 181.426 319.677 180.929 319.253L172.343 311.931C172.008 311.645 171.492 311.76 171.31 312.162L169.894 315.289L169.32 323.016Z" fill="#6449FF"/>
<path d="M150.544 299.751C149.957 294.322 150.057 293.503 153.413 288.986C153.803 288.461 154.592 288.451 154.989 288.97L161.841 297.934C162.109 298.284 161.966 298.793 161.556 298.954L158.358 300.2L151.22 300.348C150.875 300.355 150.581 300.093 150.544 299.751Z" fill="#6449FF"/>
<path opacity="0.37" d="M244.822 260.134H198.731C196.821 260.134 195.272 258.586 195.272 256.676V210.584C195.272 208.674 196.821 207.126 198.731 207.126H244.822C246.732 207.126 248.281 208.674 248.281 210.584V256.676C248.281 258.586 246.732 260.134 244.822 260.134Z" fill="white"/>
<path d="M245.793 235.063C245.267 247.051 234.35 256.309 221.41 255.741C208.469 255.173 198.406 244.994 198.932 233.006C199.458 221.017 210.375 211.759 223.316 212.327C236.256 212.895 246.32 223.074 245.793 235.063Z" fill="#6449FF"/>
<path opacity="0.16" d="M221.093 249.852C231.257 249.852 239.497 242.068 239.497 232.467C239.497 222.865 231.257 215.081 221.093 215.081C210.929 215.081 202.69 222.865 202.69 232.467C202.69 242.068 210.929 249.852 221.093 249.852Z" fill="white"/>
<g opacity="0.68">
<path d="M228.449 234.139C228.445 236.058 228.376 237.978 228.226 239.892C228.07 241.805 227.832 243.713 227.49 245.603C227.139 247.491 226.694 249.369 226.021 251.178C225.68 252.079 225.284 252.967 224.747 253.782C224.475 254.185 224.17 254.575 223.787 254.895C223.596 255.054 223.387 255.197 223.155 255.301C222.923 255.404 222.668 255.467 222.411 255.473C222.153 255.482 221.895 255.431 221.66 255.336C221.423 255.242 221.207 255.107 221.012 254.953C220.622 254.641 220.305 254.259 220.031 253.857C219.483 253.048 219.083 252.161 218.738 251.262C218.057 249.456 217.61 247.579 217.255 245.692C216.563 241.911 216.277 238.068 216.242 234.23C216.244 232.31 216.33 230.392 216.475 228.478C216.624 226.565 216.843 224.656 217.165 222.763C217.492 220.872 217.908 218.989 218.551 217.174C218.879 216.27 219.261 215.378 219.791 214.565C220.057 214.161 220.366 213.777 220.748 213.467C220.94 213.313 221.152 213.181 221.383 213.09C221.614 212.997 221.865 212.951 222.114 212.962C222.363 212.971 222.609 213.029 222.836 213.128C223.063 213.228 223.271 213.363 223.462 213.516C223.844 213.824 224.158 214.201 224.438 214.594C224.994 215.389 225.413 216.264 225.777 217.154C226.496 218.941 226.983 220.808 227.368 222.688C227.746 224.572 228.012 226.476 228.188 228.388C228.358 230.3 228.441 232.22 228.449 234.139ZM227.976 234.139C227.981 232.232 227.913 230.325 227.756 228.424C227.605 226.524 227.375 224.628 227.028 222.754C226.68 220.881 226.23 219.021 225.552 217.242C225.209 216.357 224.811 215.487 224.283 214.702C224.016 214.313 223.718 213.942 223.358 213.642C223.003 213.344 222.572 213.116 222.11 213.102C221.647 213.084 221.207 213.298 220.853 213.594C220.496 213.894 220.204 214.27 219.952 214.668C219.45 215.469 219.089 216.356 218.781 217.254C218.178 219.059 217.799 220.935 217.508 222.818C216.941 226.591 216.766 230.416 216.785 234.229C216.77 238.041 217.006 241.863 217.645 245.622C217.972 247.497 218.392 249.364 219.04 251.149C219.367 252.038 219.75 252.913 220.267 253.697C220.525 254.088 220.824 254.454 221.178 254.745C221.531 255.032 221.958 255.239 222.404 255.223C222.625 255.215 222.843 255.158 223.047 255.064C223.25 254.969 223.439 254.839 223.613 254.689C223.962 254.39 224.249 254.015 224.506 253.623C225.013 252.832 225.391 251.956 225.714 251.065C226.353 249.276 226.77 247.409 227.093 245.533C227.414 243.655 227.625 241.757 227.766 239.856C227.911 237.955 227.977 236.047 227.976 234.139Z" fill="white"/>
<path d="M238.13 234.139C238.114 236.616 237.793 239.094 237.128 241.483C236.448 243.865 235.422 246.154 234.035 248.209C232.651 250.259 230.888 252.076 228.784 253.394C227.734 254.051 226.599 254.576 225.411 254.932C224.224 255.289 222.985 255.475 221.745 255.475C219.261 255.48 216.803 254.712 214.7 253.403C212.592 252.089 210.825 250.272 209.435 248.222C208.043 246.167 207.014 243.876 206.329 241.492C205.993 240.297 205.742 239.079 205.576 237.85C205.412 236.62 205.329 235.38 205.323 234.139C205.33 232.898 205.414 231.659 205.58 230.429C205.747 229.2 206 227.982 206.337 226.788C207.025 224.406 208.057 222.117 209.45 220.066C210.841 218.019 212.608 216.207 214.714 214.897C216.814 213.591 219.266 212.826 221.745 212.831C224.224 212.829 226.674 213.598 228.771 214.906C230.873 216.219 232.635 218.032 234.021 220.079C235.409 222.13 236.436 224.417 237.121 226.798C237.796 229.183 238.117 231.662 238.13 234.139ZM237.588 234.139C237.587 232.924 237.51 231.708 237.354 230.503C237.198 229.298 236.969 228.102 236.651 226.928C236.014 224.583 235.052 222.318 233.722 220.278C232.394 218.245 230.696 216.426 228.645 215.106C227.617 214.454 226.507 213.927 225.343 213.573C224.179 213.218 222.963 213.031 221.745 213.026C220.527 213.033 219.312 213.221 218.149 213.578C216.985 213.934 215.877 214.462 214.852 215.115C212.804 216.439 211.111 218.258 209.788 220.292C208.463 222.33 207.505 224.595 206.872 226.937C206.555 228.109 206.328 229.305 206.173 230.508C206.017 231.712 205.941 232.925 205.939 234.139C205.942 235.353 206.019 236.567 206.177 237.77C206.333 238.973 206.562 240.168 206.88 241.339C207.516 243.68 208.476 245.942 209.803 247.977C211.127 250.008 212.82 251.823 214.865 253.142C215.889 253.793 216.996 254.32 218.157 254.675C219.318 255.031 220.53 255.219 221.745 255.225C222.96 255.219 224.173 255.03 225.333 254.675C226.495 254.32 227.604 253.8 228.631 253.151C230.68 251.836 232.378 250.021 233.707 247.991C235.039 245.955 236.003 243.691 236.644 241.349C237.284 239.003 237.586 236.57 237.588 234.139Z" fill="white"/>
<path d="M202.751 225.702C204.381 225.672 206.01 225.659 207.639 225.636L212.528 225.599C214.157 225.583 215.786 225.585 217.416 225.58L222.304 225.569L227.192 225.582C228.821 225.589 230.451 225.585 232.08 225.602L236.968 225.643C238.598 225.667 240.227 225.681 241.856 225.714C241.87 225.714 241.88 225.725 241.88 225.738C241.88 225.751 241.869 225.762 241.856 225.762C240.227 225.795 238.598 225.809 236.968 225.833L232.08 225.874C230.451 225.891 228.821 225.887 227.192 225.894L222.304 225.907L217.416 225.896C215.786 225.891 214.157 225.893 212.528 225.877L207.639 225.839C206.01 225.817 204.381 225.804 202.751 225.774C202.732 225.773 202.716 225.757 202.716 225.737C202.717 225.718 202.732 225.703 202.751 225.702Z" fill="white"/>
<path d="M208.422 217.515C209.579 217.485 210.736 217.471 211.893 217.449L215.363 217.412C217.677 217.387 219.99 217.384 222.304 217.381C224.618 217.384 226.931 217.389 229.245 217.415L232.715 217.456C233.872 217.48 235.029 217.494 236.186 217.527C236.199 217.527 236.209 217.538 236.209 217.551C236.209 217.564 236.198 217.574 236.186 217.575C235.029 217.607 233.872 217.622 232.715 217.646L229.245 217.687C226.931 217.712 224.618 217.718 222.304 217.72C219.99 217.718 217.677 217.715 215.363 217.69L211.893 217.652C210.736 217.63 209.579 217.617 208.422 217.587C208.403 217.586 208.387 217.57 208.387 217.55C208.388 217.531 208.403 217.516 208.422 217.515Z" fill="white"/>
<path d="M201.053 233.889C202.824 233.859 204.595 233.846 206.365 233.824L211.678 233.786C213.449 233.77 215.22 233.772 216.991 233.767L222.304 233.756L227.617 233.769C229.387 233.776 231.158 233.772 232.929 233.789L238.242 233.83C240.013 233.854 241.784 233.868 243.555 233.901C243.568 233.901 243.579 233.912 243.578 233.926C243.578 233.938 243.568 233.949 243.555 233.949C241.784 233.982 240.013 233.996 238.242 234.02L232.929 234.061C231.158 234.078 229.387 234.074 227.617 234.081L222.304 234.094L216.991 234.083C215.22 234.078 213.449 234.08 211.678 234.064L206.365 234.027C204.595 234.004 202.824 233.991 201.053 233.961C201.033 233.96 201.017 233.944 201.018 233.925C201.018 233.905 201.033 233.89 201.053 233.889Z" fill="white"/>
<path d="M202.751 242.077C204.381 242.046 206.01 242.033 207.639 242.011L212.528 241.974C214.157 241.958 215.786 241.96 217.416 241.955L222.304 241.944L227.192 241.956C228.821 241.964 230.451 241.96 232.08 241.977L236.968 242.018C238.598 242.042 240.227 242.056 241.856 242.089C241.87 242.089 241.88 242.1 241.88 242.113C241.88 242.126 241.869 242.136 241.856 242.136C240.227 242.169 238.598 242.183 236.968 242.207L232.08 242.248C230.451 242.265 228.821 242.261 227.192 242.269L222.304 242.281L217.416 242.27C215.786 242.265 214.157 242.267 212.528 242.251L207.639 242.214C206.01 242.192 204.381 242.179 202.751 242.148C202.732 242.148 202.716 242.132 202.716 242.112C202.717 242.092 202.732 242.077 202.751 242.077Z" fill="white"/>
<path d="M236.885 250.425H209.122C209.053 250.425 208.997 250.369 208.997 250.3C208.997 250.231 209.053 250.175 209.122 250.175H236.885C236.954 250.175 237.01 250.231 237.01 250.3C237.01 250.369 236.954 250.425 236.885 250.425Z" fill="white"/>
</g>
<path opacity="0.37" d="M303.168 331.613H257.374C255.464 331.613 253.916 330.064 253.916 328.154V282.361C253.916 280.451 255.464 278.902 257.374 278.902H303.168C305.078 278.902 306.626 280.451 306.626 282.361V328.154C306.626 330.064 305.078 331.613 303.168 331.613Z" fill="white"/>
<path d="M280.467 311.851C288.21 311.851 294.486 305.575 294.486 297.832C294.486 290.09 288.21 283.813 280.467 283.813C272.725 283.813 266.448 290.09 266.448 297.832C266.448 305.575 272.725 311.851 280.467 311.851Z" fill="#6449FF"/>
<path d="M294.461 297.081H280.467H266.448C266.448 297.081 265.332 304.862 277.844 326.175C278.39 327.104 279.387 327.66 280.465 327.661C281.544 327.661 282.543 327.115 283.089 326.185C295.599 304.87 294.461 297.081 294.461 297.081Z" fill="#6449FF"/>
<path d="M280.461 328.115V328.194H280.465C279.245 328.194 278.106 327.523 277.493 326.479C270.179 314.021 267.499 306.143 266.54 301.736C266.266 300.722 266.109 299.728 266.059 298.709C265.974 297.666 266.039 297.227 266.047 297.181L266.084 296.956C266.648 289.426 272.916 283.565 280.467 283.565C288.118 283.565 294.442 289.509 294.869 297.099C294.88 297.199 294.901 297.451 294.893 297.872L294.893 297.924C294.893 299.301 294.699 300.665 294.315 301.978C293.322 306.381 290.626 314.181 283.437 326.429C282.82 327.48 281.722 328.115 280.461 328.115ZM266.831 297.711C266.828 297.921 266.834 298.222 266.871 298.674L266.872 298.672C266.918 299.638 267.068 300.567 267.328 301.529L267.333 301.546C268.278 305.893 270.931 313.672 278.195 326.047C278.663 326.843 279.53 327.337 280.463 327.338L280.461 327.744V327.337C281.302 327.337 282.263 326.838 282.735 326.035C289.877 313.865 292.544 306.131 293.522 301.786L293.529 301.761C293.894 300.519 293.997 299.228 293.997 297.924L293.916 297.867V297.862C293.916 297.456 293.984 297.237 293.978 297.179L294.016 297.156C293.619 289.991 287.669 284.379 280.447 284.379C273.238 284.379 267.28 290.07 266.868 297.298L266.857 297.711L266.831 297.711Z" fill="#6449FF"/>
<path d="M282.865 305.532C287.144 304.237 289.563 299.718 288.267 295.439C286.971 291.16 282.452 288.742 278.174 290.037C273.895 291.333 271.476 295.852 272.772 300.13C274.067 304.409 278.586 306.828 282.865 305.532Z" fill="#DEDAFF"/>
<path d="M280.512 306.334C275.8 306.334 271.965 302.5 271.965 297.787C271.965 293.074 275.8 289.24 280.512 289.24C285.225 289.24 289.06 293.074 289.06 297.787C289.06 302.5 285.225 306.334 280.512 306.334ZM280.512 290.144C276.298 290.144 272.87 293.573 272.87 297.787C272.87 302.001 276.298 305.43 280.512 305.43C284.727 305.43 288.155 302.001 288.155 297.787C288.155 293.573 284.727 290.144 280.512 290.144Z" fill="white"/>
<g opacity="0.74">
<path d="M272.834 289.359C272.796 289.359 272.758 289.343 272.731 289.312C272.682 289.255 272.688 289.169 272.745 289.12C275.019 287.167 277.925 286.092 280.926 286.092C281.001 286.092 281.062 286.152 281.062 286.227C281.062 286.302 281.001 286.363 280.926 286.363C277.989 286.363 275.147 287.415 272.922 289.326C272.897 289.348 272.865 289.359 272.834 289.359Z" fill="white"/>
</g>
<g opacity="0.74">
<path d="M268.499 298.79C268.424 298.79 268.364 298.73 268.364 298.655C268.364 296.311 269.013 294.024 270.243 292.042C270.282 291.978 270.366 291.959 270.43 291.998C270.493 292.038 270.513 292.121 270.473 292.185C269.271 294.124 268.635 296.361 268.635 298.655C268.635 298.73 268.574 298.79 268.499 298.79Z" fill="white"/>
</g>
<path opacity="0.53" d="M303.48 190.002H256.396C254.486 190.002 252.938 188.454 252.938 186.544V139.461C252.938 137.551 254.486 136.002 256.396 136.002H303.48C305.39 136.002 306.938 137.551 306.938 139.461V186.544C306.938 188.454 305.39 190.002 303.48 190.002Z" fill="white"/>
<g opacity="0.64">
<path d="M290.827 178.557C290.693 178.557 290.561 178.491 290.482 178.369C290.359 178.179 290.413 177.925 290.603 177.802C290.884 177.62 291.162 177.428 291.43 177.232C291.613 177.098 291.87 177.139 292.004 177.322C292.137 177.505 292.098 177.762 291.914 177.896C291.634 178.1 291.344 178.3 291.05 178.491C290.981 178.536 290.904 178.557 290.827 178.557Z" fill="white"/>
<path d="M280.755 181.534C280.154 181.534 279.545 181.504 278.945 181.446C278.72 181.424 278.554 181.223 278.576 180.998C278.599 180.772 278.796 180.606 279.025 180.629C279.695 180.694 280.372 180.722 281.046 180.71C281.049 180.71 281.051 180.71 281.053 180.71C281.277 180.71 281.46 180.889 281.464 181.114C281.467 181.341 281.287 181.528 281.06 181.531C280.958 181.533 280.856 181.534 280.755 181.534ZM283.116 181.381C282.913 181.381 282.736 181.23 282.709 181.023C282.68 180.798 282.839 180.592 283.064 180.563C283.729 180.477 284.399 180.352 285.053 180.192C285.273 180.138 285.495 180.273 285.55 180.493C285.604 180.713 285.469 180.936 285.249 180.99C284.564 181.157 283.865 181.288 283.169 181.378C283.152 181.38 283.134 181.381 283.116 181.381ZM276.941 181.133C276.913 181.133 276.884 181.13 276.855 181.124C276.168 180.978 275.481 180.791 274.813 180.569C274.598 180.498 274.482 180.265 274.553 180.05C274.625 179.835 274.857 179.718 275.072 179.79C275.711 180.003 276.368 180.181 277.025 180.321C277.247 180.368 277.389 180.586 277.342 180.808C277.301 181.001 277.13 181.133 276.941 181.133ZM287.13 180.4C286.962 180.4 286.805 180.297 286.744 180.13C286.666 179.917 286.776 179.681 286.989 179.603C287.623 179.372 288.248 179.103 288.847 178.804C289.052 178.703 289.297 178.785 289.398 178.989C289.499 179.191 289.417 179.438 289.214 179.539C288.587 179.852 287.933 180.133 287.271 180.375C287.225 180.392 287.177 180.4 287.13 180.4ZM273.02 179.829C272.962 179.829 272.904 179.817 272.848 179.791C272.209 179.496 271.581 179.162 270.981 178.799C270.786 178.681 270.724 178.429 270.842 178.235C270.959 178.04 271.212 177.978 271.406 178.096C271.98 178.444 272.581 178.763 273.192 179.045C273.398 179.14 273.488 179.384 273.393 179.59C273.323 179.741 273.175 179.829 273.02 179.829ZM269.485 177.691C269.398 177.691 269.31 177.663 269.235 177.606C268.678 177.177 268.139 176.713 267.633 176.226C267.47 176.068 267.465 175.809 267.623 175.645C267.781 175.482 268.04 175.477 268.204 175.635C268.687 176.101 269.202 176.545 269.736 176.955C269.915 177.093 269.949 177.351 269.811 177.53C269.73 177.636 269.608 177.691 269.485 177.691ZM266.514 174.825C266.395 174.825 266.278 174.774 266.197 174.676C265.749 174.136 265.328 173.563 264.944 172.975C264.819 172.785 264.873 172.531 265.063 172.407C265.253 172.283 265.507 172.336 265.631 172.526C265.998 173.088 266.402 173.635 266.83 174.153C266.974 174.328 266.95 174.586 266.775 174.731C266.699 174.794 266.606 174.825 266.514 174.825ZM264.256 171.369C264.106 171.369 263.961 171.286 263.889 171.142C263.574 170.516 263.29 169.864 263.046 169.203C262.968 168.99 263.077 168.754 263.289 168.676C263.502 168.596 263.738 168.705 263.817 168.918C264.05 169.551 264.322 170.175 264.623 170.773C264.725 170.976 264.643 171.223 264.44 171.325C264.381 171.355 264.318 171.369 264.256 171.369ZM262.822 167.494C262.638 167.494 262.47 167.37 262.424 167.183C262.254 166.499 262.121 165.8 262.028 165.106C261.998 164.881 262.156 164.674 262.381 164.644C262.607 164.615 262.812 164.773 262.842 164.997C262.931 165.661 263.058 166.33 263.221 166.985C263.276 167.205 263.142 167.428 262.922 167.482C262.888 167.491 262.855 167.494 262.822 167.494ZM262.277 163.399C262.054 163.399 261.871 163.22 261.867 162.996C261.864 162.871 261.863 162.746 261.863 162.622C261.863 162.042 261.89 161.457 261.944 160.883C261.965 160.657 262.167 160.49 262.391 160.512C262.617 160.533 262.783 160.733 262.762 160.959C262.711 161.508 262.684 162.067 262.684 162.622C262.684 162.741 262.686 162.861 262.688 162.98C262.692 163.207 262.512 163.394 262.285 163.399C262.283 163.399 262.28 163.399 262.277 163.399Z" fill="white"/>
<path d="M262.665 159.264C262.637 159.264 262.609 159.261 262.58 159.255C262.359 159.209 262.216 158.991 262.263 158.769C262.334 158.428 262.416 158.085 262.506 157.749C262.565 157.53 262.79 157.4 263.01 157.459C263.228 157.517 263.358 157.743 263.3 157.962C263.213 158.283 263.135 158.611 263.067 158.938C263.026 159.131 262.855 159.264 262.665 159.264Z" fill="white"/>
</g>
<g opacity="0.64">
<path d="M271.159 147.242C271.02 147.242 270.884 147.172 270.807 147.045C270.689 146.851 270.751 146.598 270.945 146.481C271.245 146.299 271.551 146.124 271.857 145.961C272.058 145.854 272.306 145.931 272.413 146.131C272.519 146.331 272.444 146.579 272.243 146.686C271.951 146.842 271.657 147.009 271.371 147.183C271.305 147.223 271.231 147.242 271.159 147.242Z" fill="white"/>
<path d="M299.073 165.642C299.053 165.642 299.034 165.64 299.014 165.638C298.789 165.606 298.633 165.398 298.665 165.173C298.759 164.518 298.817 163.851 298.837 163.191C298.844 162.968 299.026 162.793 299.247 162.793C299.251 162.793 299.256 162.793 299.26 162.793C299.487 162.8 299.665 162.989 299.658 163.216C299.637 163.906 299.577 164.604 299.479 165.289C299.45 165.494 299.274 165.642 299.073 165.642ZM299.196 161.58C298.984 161.58 298.805 161.417 298.787 161.202C298.735 160.543 298.644 159.88 298.519 159.23C298.476 159.007 298.622 158.792 298.844 158.749C299.065 158.706 299.282 158.851 299.325 159.074C299.456 159.754 299.551 160.447 299.606 161.136C299.624 161.362 299.456 161.56 299.23 161.578C299.218 161.579 299.207 161.58 299.196 161.58ZM298.428 157.588C298.253 157.588 298.09 157.475 298.036 157.298C297.841 156.666 297.609 156.037 297.347 155.431C297.257 155.223 297.352 154.982 297.561 154.891C297.77 154.801 298.011 154.897 298.101 155.105C298.375 155.739 298.617 156.395 298.821 157.056C298.888 157.273 298.766 157.503 298.55 157.57C298.509 157.582 298.468 157.588 298.428 157.588ZM296.815 153.859C296.672 153.859 296.533 153.785 296.458 153.652C296.13 153.078 295.766 152.516 295.377 151.982C295.243 151.799 295.283 151.542 295.467 151.408C295.65 151.275 295.907 151.315 296.04 151.498C296.448 152.057 296.828 152.645 297.171 153.245C297.283 153.442 297.215 153.693 297.018 153.806C296.954 153.842 296.884 153.859 296.815 153.859ZM294.422 150.576C294.31 150.576 294.2 150.531 294.119 150.443C293.672 149.954 293.193 149.486 292.697 149.051C292.527 148.902 292.51 148.642 292.659 148.472C292.809 148.301 293.069 148.284 293.239 148.434C293.757 148.888 294.257 149.378 294.724 149.888C294.878 150.056 294.866 150.315 294.699 150.469C294.62 150.541 294.521 150.576 294.422 150.576ZM291.367 147.898C291.285 147.898 291.203 147.874 291.132 147.824C290.59 147.445 290.021 147.092 289.441 146.774C289.242 146.665 289.169 146.416 289.278 146.217C289.387 146.018 289.635 145.945 289.836 146.054C290.442 146.385 291.036 146.754 291.603 147.151C291.788 147.28 291.834 147.536 291.704 147.722C291.624 147.837 291.496 147.898 291.367 147.898ZM287.802 145.947C287.75 145.947 287.697 145.937 287.646 145.916C287.033 145.664 286.401 145.443 285.767 145.259C285.549 145.196 285.423 144.969 285.486 144.751C285.549 144.533 285.776 144.407 285.995 144.471C286.658 144.662 287.319 144.893 287.959 145.157C288.168 145.243 288.268 145.483 288.182 145.693C288.117 145.851 287.963 145.947 287.802 145.947ZM273.897 145.877C273.734 145.877 273.58 145.779 273.515 145.619C273.431 145.408 273.534 145.169 273.745 145.085C274.35 144.844 274.977 144.631 275.608 144.452L275.716 144.422C275.934 144.362 276.16 144.489 276.221 144.707C276.282 144.926 276.154 145.152 275.936 145.213L275.832 145.242C275.228 145.413 274.628 145.617 274.049 145.848C273.999 145.868 273.947 145.877 273.897 145.877ZM283.897 144.819C283.874 144.819 283.851 144.817 283.827 144.813C283.175 144.7 282.51 144.623 281.85 144.584C281.623 144.57 281.451 144.375 281.464 144.149C281.478 143.923 281.678 143.749 281.899 143.764C282.589 143.805 283.285 143.886 283.966 144.004C284.19 144.042 284.34 144.254 284.301 144.478C284.267 144.678 284.093 144.819 283.897 144.819ZM277.814 144.791C277.616 144.791 277.441 144.648 277.409 144.447C277.372 144.223 277.524 144.012 277.748 143.975C278.432 143.864 279.128 143.79 279.817 143.755C280.048 143.741 280.237 143.917 280.248 144.144C280.26 144.37 280.085 144.563 279.859 144.575C279.2 144.608 278.534 144.679 277.88 144.786C277.858 144.79 277.835 144.791 277.814 144.791Z" fill="white"/>
<path d="M298.386 168.641C298.344 168.641 298.302 168.635 298.261 168.622C298.045 168.553 297.926 168.322 297.994 168.106C298.094 167.792 298.188 167.468 298.273 167.142C298.329 166.922 298.553 166.79 298.773 166.847C298.992 166.904 299.124 167.128 299.067 167.348C298.979 167.689 298.881 168.028 298.777 168.355C298.721 168.53 298.56 168.641 298.386 168.641Z" fill="white"/>
</g>
<path d="M295.701 169.555C295.758 169.461 295.748 169.341 295.678 169.257L293.666 166.859C294.113 165.467 294.342 163.994 294.32 162.489L296.942 160.784C297.035 160.724 297.078 160.612 297.052 160.506L296.143 156.863C296.116 156.756 296.025 156.678 295.916 156.669L292.799 156.395C292.112 155.057 291.218 153.864 290.17 152.845L290.819 149.783C290.841 149.675 290.793 149.565 290.699 149.509L287.48 147.575C287.386 147.519 287.267 147.528 287.183 147.599L284.784 149.61C283.392 149.163 281.919 148.935 280.415 148.957L278.709 146.334C278.65 146.242 278.538 146.198 278.431 146.225L274.788 147.134C274.682 147.16 274.604 147.251 274.594 147.361L274.321 150.477C272.982 151.165 271.789 152.058 270.771 153.107L267.708 152.458C267.601 152.435 267.491 152.483 267.434 152.577L265.501 155.796C265.444 155.89 265.454 156.01 265.524 156.094L267.536 158.492C267.089 159.884 266.86 161.357 266.882 162.862L264.259 164.567C264.167 164.627 264.123 164.739 264.15 164.845L265.059 168.488C265.086 168.595 265.177 168.673 265.286 168.682L268.403 168.956C269.09 170.294 269.984 171.487 271.032 172.506L270.383 175.568C270.361 175.676 270.409 175.786 270.503 175.842L273.721 177.776C273.815 177.832 273.935 177.823 274.019 177.752L276.418 175.741C277.81 176.188 279.283 176.416 280.787 176.394L282.493 179.017C282.552 179.109 282.664 179.153 282.771 179.126L286.414 178.218C286.52 178.191 286.598 178.1 286.608 177.99L286.881 174.874C288.219 174.186 289.413 173.293 290.431 172.244L293.494 172.893C293.601 172.916 293.711 172.868 293.768 172.774L295.701 169.555Z" fill="#6449FF"/>
<path opacity="0.56" d="M280.606 166.422C280.241 166.422 279.876 166.369 279.517 166.26C278.559 165.971 277.772 165.326 277.3 164.444C276.325 162.624 277.012 160.35 278.832 159.375C280.654 158.399 282.926 159.088 283.902 160.907C284.374 161.789 284.475 162.802 284.185 163.76C283.896 164.717 283.251 165.504 282.369 165.977C281.818 166.272 281.214 166.422 280.606 166.422ZM280.596 159.753C280.13 159.753 279.658 159.864 279.22 160.099C277.8 160.86 277.263 162.635 278.024 164.056C278.393 164.745 279.007 165.248 279.755 165.474C280.501 165.7 281.293 165.622 281.981 165.253C282.67 164.884 283.173 164.269 283.399 163.522C283.625 162.774 283.547 161.984 283.178 161.295C282.651 160.312 281.64 159.753 280.596 159.753Z" fill="white"/>
<path opacity="0.56" d="M280.513 172.115C278.816 172.115 277.145 171.656 275.653 170.76C273.484 169.457 271.952 167.388 271.34 164.933C271.149 164.167 271.054 163.393 271.054 162.623C271.054 160.927 271.514 159.256 272.41 157.764C273.713 155.595 275.782 154.063 278.236 153.451C283.303 152.185 288.455 155.281 289.719 160.348C289.743 160.441 289.764 160.535 289.785 160.629C289.897 161.144 289.966 161.666 289.992 162.187C289.994 162.24 289.996 162.292 289.998 162.345C289.998 162.349 289.998 162.353 289.998 162.358C289.998 162.579 289.823 162.761 289.6 162.768C289.38 162.773 289.184 162.597 289.177 162.371C289.158 161.76 289.072 161.147 288.922 160.546C287.885 156.391 283.986 153.689 279.85 154.016C279.847 154.017 279.847 154.017 279.845 154.017C279.377 154.054 278.906 154.13 278.436 154.248C276.194 154.807 274.304 156.206 273.114 158.187C272.296 159.549 271.876 161.075 271.876 162.625C271.876 163.327 271.963 164.035 272.137 164.734C272.696 166.976 274.095 168.866 276.076 170.055C278.057 171.245 280.383 171.592 282.624 171.033C284.145 170.653 285.533 169.87 286.636 168.769C286.796 168.609 287.056 168.608 287.217 168.769C287.297 168.849 287.337 168.954 287.337 169.059C287.337 169.164 287.297 169.269 287.216 169.35C286.008 170.557 284.489 171.414 282.823 171.83C282.057 172.021 281.282 172.115 280.513 172.115Z" fill="white"/>
<path opacity="0.53" d="M175.177 192.299H228.463C230.373 192.299 231.921 190.751 231.921 188.841V135.554C231.921 133.644 230.373 132.096 228.463 132.096H175.177C173.267 132.096 171.718 133.644 171.718 135.554V188.841C171.718 190.751 173.267 192.299 175.177 192.299Z" fill="white"/>
<path d="M184.005 177.978H220.907C222.397 177.978 223.604 176.77 223.604 175.28V151.251C223.604 149.82 222.486 148.638 221.057 148.558L182.731 146.422C181.127 146.332 179.8 147.657 179.887 149.262L181.311 175.427C181.389 176.857 182.572 177.978 184.005 177.978Z" fill="#6449FF"/>
<path d="M201.594 163.478L181.422 146.679C181.816 146.491 182.261 146.396 182.731 146.422L221.057 148.558C221.716 148.595 222.308 148.866 222.756 149.288L207.659 163.328C206.02 164.852 203.324 164.919 201.594 163.478Z" fill="#6449FF"/>
<path d="M204.398 162.646C205.401 162.646 206.4 162.287 207.202 161.579L212.89 156.557C213.057 156.41 213.073 156.155 212.925 155.988C212.778 155.821 212.523 155.805 212.356 155.953L206.668 160.974C205.46 162.041 203.702 162.129 202.393 161.188L199.445 159.07C199.264 158.94 199.012 158.982 198.882 159.162C198.753 159.343 198.794 159.595 198.975 159.725L201.922 161.843C202.67 162.38 203.536 162.646 204.398 162.646Z" fill="white"/>
<path d="M214.739 154.79C214.834 154.79 214.93 154.757 215.006 154.689L215.772 154.013C215.939 153.866 215.955 153.611 215.807 153.444C215.66 153.277 215.405 153.261 215.238 153.408L214.473 154.084C214.306 154.232 214.29 154.487 214.437 154.653C214.517 154.744 214.628 154.79 214.739 154.79Z" fill="white"/>
<path d="M86.8881 217.045C90.0793 205.242 99.9385 195.546 110.925 193.096C112.944 192.646 114.113 190.59 113.639 188.576C113.635 188.563 113.632 188.549 113.629 188.534C112.037 181.671 116.437 176.203 123.072 174.664C129.707 173.125 136.065 176.098 137.657 182.962C138.731 187.593 137.355 192.804 134.309 196.179C133.054 197.569 132.953 199.645 134.169 201.07C140.864 208.913 143.588 220.884 140.693 231.592C136.428 247.364 121.598 254.41 106.74 250.393C91.8827 246.375 82.6238 232.816 86.8881 217.045Z" fill="url(#paint1_linear_412_40889)"/>
<path d="M91.5086 232.096L91.7974 231.894C89.1375 228.119 88.7961 222.669 90.9065 217.673C92.5824 213.704 95.5816 210.075 100.345 206.253C102.12 204.828 104.002 203.476 105.822 202.169C108.013 200.595 110.279 198.967 112.379 197.198C114.268 195.606 116.255 193.631 116.672 191.047C116.88 189.758 116.685 188.386 116.497 187.059C116.203 184.983 115.925 183.021 117.142 181.519L116.868 181.297C115.554 182.918 115.856 185.049 116.148 187.109C116.332 188.41 116.523 189.755 116.323 190.99C115.925 193.46 113.991 195.378 112.151 196.928C110.062 198.688 107.802 200.312 105.616 201.882C103.792 203.192 101.906 204.547 100.124 205.977C95.3131 209.838 92.2808 213.511 90.5811 217.535C88.4239 222.643 88.7795 228.223 91.5086 232.096Z" fill="#91B3FA"/>
<path d="M98.5726 234.374L98.9041 234.254C97.0945 229.249 97.6242 223.098 100.358 217.378C103.068 211.709 107.498 207.087 111.055 203.693L110.812 203.438C107.233 206.852 102.775 211.505 100.04 217.227C97.2656 223.031 96.7307 229.281 98.5726 234.374Z" fill="#91B3FA"/>
<path d="M169.822 169.628L169.944 165.552L165.684 157.092C164.905 155.545 164.898 153.721 165.667 152.168L170.494 142.424C170.494 142.424 173.281 163.575 174.015 165.333C174.748 167.091 172.026 170.25 172.026 170.25L169.822 169.628Z" fill="url(#paint2_linear_412_40889)"/>
<path d="M169.945 165.552C169.945 165.552 156.986 200.879 134.905 211.921C134.905 211.921 142.254 223.912 146.089 224.639C146.089 224.639 169.678 194.449 172.082 169.715L169.945 165.552Z" fill="url(#paint3_linear_412_40889)"/>
<path d="M81.1417 378.055L80.49 383.413C79.8115 385.959 76.5337 392.374 72.3267 391.957C69.7383 391.7 69.4267 384.137 69.7872 383.003C70.4446 380.935 71.6472 377.83 73.3811 376.003H79.3243C80.4231 376.003 81.2743 376.964 81.1417 378.055Z" fill="url(#paint4_linear_412_40889)"/>
<path d="M127.691 315.295L128.694 321.196C128.694 321.196 125.335 355.222 124.737 368.832C124.643 370.966 125.195 373.075 126.315 374.894L132.156 384.379L117.311 375.619L117.016 373.808L119.446 370.466L116.263 332.349C116.076 330.109 116.538 327.864 117.594 325.88L120.664 320.112L127.691 315.295Z" fill="url(#paint5_linear_412_40889)"/>
<path d="M133.134 385.753H128.397C127.51 385.753 126.674 385.346 126.133 384.643C124.656 382.724 121.596 378.98 120.133 378.883C118.163 378.751 118.415 385.753 118.415 385.753H117.311L115.913 377.052C115.561 374.863 116.65 372.694 118.616 371.669C118.616 371.669 119.066 374.998 121.507 376.471C123.949 377.944 131.442 383.218 131.442 383.218C131.442 383.218 132.36 383.088 133.367 383.27C134.862 383.54 134.653 385.753 133.134 385.753Z" fill="url(#paint6_linear_412_40889)"/>
<path d="M107.358 318.098C107.358 318.098 87.6785 355.427 84.5502 363.95C81.4219 372.473 80.326 379.584 80.284 380.257C80.2184 381.309 78.9099 382.318 75.3028 382.318C73.4413 382.318 72.5297 381.572 72.0833 380.85C71.7025 380.233 71.6828 379.462 72.0037 378.813C73.142 376.509 76.7546 369.147 78.0925 365.807C79.6899 361.821 83.1259 343.753 85.0105 337.471C86.895 331.189 89.0251 324.374 97.2316 318.097C97.2316 318.097 102.865 312.58 107.358 318.098Z" fill="url(#paint7_linear_412_40889)"/>
<path d="M119.789 256.931C122.672 244.717 119.772 235.517 116.727 229.844C114.298 225.32 116.005 219.724 120.561 217.355C127.681 213.652 134.905 211.921 134.905 211.921C134.905 211.921 149.012 222.234 147.339 230.307C146.358 235.039 137.422 258.648 137.422 258.648C137.422 258.648 129.16 262.559 119.789 256.931Z" fill="url(#paint8_linear_412_40889)"/>
<path d="M108.534 267.58C110.6 261.356 119.789 256.931 119.789 256.931C129.16 262.559 137.422 258.648 137.422 258.648C137.422 258.648 139.275 265.731 137.996 272.313C136.717 278.895 128.694 321.196 128.694 321.196C116.051 323.757 96.6067 318.618 96.6067 318.618C104.66 304.321 106.468 273.804 108.534 267.58Z" fill="url(#paint9_linear_412_40889)"/>
<path d="M125.682 197.706L121.555 216.244C121.159 217.877 122.648 217.61 124.299 217.298C127.003 216.789 130.487 215.739 131.652 213.635C131.771 213.421 131.83 213.179 131.863 212.936L133.636 200.081C133.777 199.062 133.226 198.072 132.284 197.654L128.863 196.137C127.545 195.553 126.021 196.305 125.682 197.706Z" fill="url(#paint10_linear_412_40889)"/>
<path d="M177.268 185.461C177.268 185.461 166.405 223.197 122.602 219.65C119.799 219.423 117.338 221.5 117.12 224.303L117.002 225.818C116.686 229.878 120 233.301 124.068 233.095C138.637 232.358 169.925 226.637 180.649 192.02L177.268 185.461Z" fill="url(#paint11_linear_412_40889)"/>
<path d="M180.649 192.02C180.649 192.02 182.736 185.878 183.26 182.038C183.784 178.199 181.854 169.581 180.196 167.158C178.537 164.735 178.259 170.675 177.513 173.466C176.766 176.258 178.031 180.241 178.031 180.241L177.268 185.461L180.649 192.02Z" fill="url(#paint12_linear_412_40889)"/>
<path d="M134.145 182.411C134.145 182.411 144.581 197.614 138.091 201.85C131.601 206.087 124.172 195.282 124.172 195.282C124.172 195.282 121.84 187.025 124.493 184.289C127.146 181.553 134.145 182.411 134.145 182.411Z" fill="url(#paint13_linear_412_40889)"/>
<path d="M129.767 178.723C129.767 178.723 134.307 179.89 134.907 181.965C135.507 184.041 128.365 185.82 126.372 185.876L124.61 194.173C124.61 194.173 120.015 186.25 121.979 181.762C123.943 177.273 129.767 178.723 129.767 178.723Z" fill="url(#paint14_linear_412_40889)"/>
<path d="M126.271 194.218C126.271 194.218 122.19 189.307 120.471 192.426C118.752 195.545 124.122 198.012 126.026 196.501L126.271 194.218Z" fill="url(#paint15_linear_412_40889)"/>
<path d="M252.232 355.868L379.343 355.868V335.224L252.232 335.224C254.953 335.224 254.953 355.868 252.232 355.868Z" fill="#EA9DC7"/>
<path d="M379.343 350.702V341.254C379.343 337.924 376.831 335.224 373.732 335.224H252.768C250.331 335.224 248.356 333.621 248.356 331.643C248.356 331.043 248.956 330.556 249.696 330.556H381.901C384.933 330.556 389.746 334.424 389.746 339.195V352.39C389.746 356.889 385.073 360.536 382.215 360.536H250.392C249.267 360.536 248.356 359.796 248.356 358.884C248.356 357.218 250.02 355.868 252.073 355.868H374.536C377.191 355.868 379.343 353.555 379.343 350.702Z" fill="#F545A6"/>
<path d="M375.818 339.87H256.634C256.407 339.87 256.223 339.686 256.223 339.459C256.223 339.233 256.407 339.049 256.634 339.049H375.818C376.045 339.049 376.228 339.233 376.228 339.459C376.228 339.686 376.045 339.87 375.818 339.87Z" fill="white"/>
<path d="M375.818 342.935H256.634C256.407 342.935 256.223 342.751 256.223 342.524C256.223 342.297 256.407 342.113 256.634 342.113H375.818C376.045 342.113 376.228 342.297 376.228 342.524C376.228 342.751 376.045 342.935 375.818 342.935Z" fill="white"/>
<path d="M375.818 345.999H256.634C256.407 345.999 256.223 345.815 256.223 345.588C256.223 345.361 256.407 345.177 256.634 345.177H375.818C376.045 345.177 376.228 345.361 376.228 345.588C376.228 345.815 376.045 345.999 375.818 345.999Z" fill="white"/>
<path d="M375.818 349.063H256.634C256.407 349.063 256.223 348.879 256.223 348.653C256.223 348.426 256.407 348.242 256.634 348.242H375.818C376.045 348.242 376.228 348.426 376.228 348.653C376.228 348.879 376.045 349.063 375.818 349.063Z" fill="white"/>
<path d="M375.818 352.127H256.634C256.407 352.127 256.223 351.944 256.223 351.717C256.223 351.49 256.407 351.306 256.634 351.306H375.818C376.045 351.306 376.228 351.49 376.228 351.717C376.228 351.944 376.045 352.127 375.818 352.127Z" fill="white"/>
<path d="M381.63 394.811H215.432C214.498 394.811 213.741 394.054 213.741 393.121V362.071C213.741 361.102 214.527 360.316 215.496 360.316H381.63C382.6 360.316 383.386 361.102 383.386 362.071V393.056C383.386 394.025 382.6 394.811 381.63 394.811Z" fill="#F545A6"/>
<path d="M251.964 390.847H233.791C233.306 390.847 232.913 390.454 232.913 389.968V365.159C232.913 364.674 233.306 364.281 233.791 364.281H251.964C252.449 364.281 252.843 364.674 252.843 365.159V389.968C252.843 390.454 252.449 390.847 251.964 390.847Z" fill="#EA9DC7"/>
<path d="M262.537 390.847H256.488C256.094 390.847 255.774 390.527 255.774 390.132V364.995C255.774 364.6 256.094 364.281 256.488 364.281H262.537C262.932 364.281 263.252 364.6 263.252 364.995V390.132C263.252 390.527 262.932 390.847 262.537 390.847Z" fill="#EA9DC7"/>
</g>
<defs>
<linearGradient id="paint0_linear_412_40889" x1="295.571" y1="97.6437" x2="262.085" y2="143.509" gradientUnits="userSpaceOnUse">
<stop stop-color="#4F52FF"/>
<stop offset="1" stop-color="#4042E2"/>
</linearGradient>
<linearGradient id="paint1_linear_412_40889" x1="153.907" y1="150.593" x2="116.178" y2="219.855" gradientUnits="userSpaceOnUse">
<stop stop-color="#4F52FF"/>
<stop offset="1" stop-color="#4042E2"/>
</linearGradient>
<linearGradient id="paint2_linear_412_40889" x1="172.169" y1="154.305" x2="134.537" y2="239.276" gradientUnits="userSpaceOnUse">
<stop stop-color="#FEBBBA"/>
<stop offset="1" stop-color="#FF928E"/>
</linearGradient>
<linearGradient id="paint3_linear_412_40889" x1="171.501" y1="154.009" x2="133.869" y2="238.98" gradientUnits="userSpaceOnUse">
<stop stop-color="#FEBBBA"/>
<stop offset="1" stop-color="#FF928E"/>
</linearGradient>
<linearGradient id="paint4_linear_412_40889" x1="106.788" y1="312.957" x2="41.4933" y2="457.714" gradientUnits="userSpaceOnUse">
<stop stop-color="#4F52FF"/>
<stop offset="1" stop-color="#4042E2"/>
</linearGradient>
<linearGradient id="paint5_linear_412_40889" x1="170.715" y1="314.059" x2="84.4732" y2="388.391" gradientUnits="userSpaceOnUse">
<stop stop-color="#FEBBBA"/>
<stop offset="1" stop-color="#FF928E"/>
</linearGradient>
<linearGradient id="paint6_linear_412_40889" x1="162.448" y1="331.262" x2="104.545" y2="406.412" gradientUnits="userSpaceOnUse">
<stop stop-color="#4F52FF"/>
<stop offset="1" stop-color="#4042E2"/>
</linearGradient>
<linearGradient id="paint7_linear_412_40889" x1="141.84" y1="318.412" x2="49.0273" y2="372.622" gradientUnits="userSpaceOnUse">
<stop stop-color="#FEBBBA"/>
<stop offset="1" stop-color="#FF928E"/>
</linearGradient>
<linearGradient id="paint8_linear_412_40889" x1="48.6047" y1="122.442" x2="98.3939" y2="192.019" gradientUnits="userSpaceOnUse">
<stop stop-color="#FF928E"/>
<stop offset="1" stop-color="#FE7062"/>
</linearGradient>
<linearGradient id="paint9_linear_412_40889" x1="191.544" y1="200.134" x2="122.551" y2="288.84" gradientUnits="userSpaceOnUse">
<stop stop-color="#FF928E"/>
<stop offset="1" stop-color="#FE7062"/>
</linearGradient>
<linearGradient id="paint10_linear_412_40889" x1="131.378" y1="236.033" x2="128.281" y2="213.373" gradientUnits="userSpaceOnUse">
<stop stop-color="#FEBBBA"/>
<stop offset="1" stop-color="#FF928E"/>
</linearGradient>
<linearGradient id="paint11_linear_412_40889" x1="132.305" y1="226.94" x2="203.763" y2="169.445" gradientUnits="userSpaceOnUse">
<stop stop-color="#FEBBBA"/>
<stop offset="1" stop-color="#FF928E"/>
</linearGradient>
<linearGradient id="paint12_linear_412_40889" x1="127.782" y1="221.319" x2="199.24" y2="163.824" gradientUnits="userSpaceOnUse">
<stop stop-color="#FEBBBA"/>
<stop offset="1" stop-color="#FF928E"/>
</linearGradient>
<linearGradient id="paint13_linear_412_40889" x1="135.251" y1="185.451" x2="121.458" y2="213.888" gradientUnits="userSpaceOnUse">
<stop stop-color="#FEBBBA"/>
<stop offset="1" stop-color="#FF928E"/>
</linearGradient>
<linearGradient id="paint14_linear_412_40889" x1="147.513" y1="147.11" x2="109.784" y2="216.371" gradientUnits="userSpaceOnUse">
<stop stop-color="#4F52FF"/>
<stop offset="1" stop-color="#4042E2"/>
</linearGradient>
<linearGradient id="paint15_linear_412_40889" x1="129.071" y1="182.453" x2="115.278" y2="210.89" gradientUnits="userSpaceOnUse">
<stop stop-color="#FEBBBA"/>
<stop offset="1" stop-color="#FF928E"/>
</linearGradient>
<clipPath id="clip0_412_40889">
<rect width="450" height="450" fill="white"/>
</clipPath>
</defs>
</svg>
