<svg width="64" height="64" viewBox="0 0 64 64" fill="none" xmlns="http://www.w3.org/2000/svg">
<path d="M20.2988 32.5908C20.2454 35.8536 21.4199 39.0189 23.5889 41.458C25.755 43.8951 28.7559 45.4291 31.999 45.7607C35.2428 45.4293 38.2437 43.8955 40.4102 41.458C42.5791 39.0189 43.7533 35.8535 43.7012 32.5908V19.8145L43.6953 19.7285C43.6697 19.5305 43.5591 19.3526 43.3906 19.2432L43.3896 19.2422C43.1962 19.1157 42.954 19.0941 42.7432 19.1855L42.7334 19.1904V19.1895C39.2966 20.3342 35.541 20.0323 32.3311 18.3535C32.1222 18.2534 31.8768 18.2542 31.668 18.3545L31.667 18.3535C28.3566 20.0504 24.5026 20.3337 20.9795 19.1426C20.8468 19.1375 20.7172 19.173 20.6064 19.2432L20.5 19.3271C20.3689 19.4525 20.2954 19.6287 20.2988 19.8115V32.5908ZM46.0967 32.582L46.0977 32.9473C46.0623 36.7144 44.6483 40.3418 42.1162 43.1426C39.5025 46.0324 35.8922 47.8262 32.0098 48.1621L31.999 48.0488L31.9893 48.1621C28.1071 47.8261 24.4955 46.0326 21.8818 43.1416C19.2684 40.2494 17.847 36.4763 17.9023 32.5791V19.8115C17.9179 18.8102 18.413 17.8761 19.2363 17.3037C20.0577 16.7318 21.1045 16.5913 22.0479 16.9238H22.0488C24.8881 17.8716 27.9921 17.6079 30.6309 16.1943L30.6357 16.1914L30.7988 16.1191C31.5681 15.8024 32.432 15.8023 33.2012 16.1191L33.3643 16.1914L33.3691 16.1934V16.1943C36.008 17.6077 39.1114 17.8714 41.9502 16.9238C42.8952 16.5907 43.9411 16.7328 44.7627 17.3047C45.5846 17.877 46.0811 18.81 46.0967 19.8115V32.582Z" fill="#F545A6" stroke="#F545A6" stroke-width="0.2375"/>
<path d="M36.5977 26.4473C37.1338 25.9303 38.0031 25.9304 38.5391 26.4473C39.0329 26.9235 39.0708 27.6716 38.6533 28.1895L38.5391 28.3145L31.0469 35.542C30.4982 36.0712 29.6322 36.1095 29.0371 35.6572L28.8994 35.5391L25.4609 32.2217C24.9261 31.7059 24.9261 30.8703 25.4609 30.3545C25.9556 29.8778 26.7349 29.8413 27.2734 30.2451V30.2441L27.4053 30.3574L29.9326 32.7959L29.9746 32.8359L30.0156 32.7959L36.5977 26.4473Z" fill="#F545A6" stroke="#F545A6" stroke-width="0.11875"/>
</svg>
